<?xml version="1.0" standalone="no"?>
<!DOCTYPE svg PUBLIC "-//W3C//DTD SVG 1.1//EN" "http://www.w3.org/Graphics/SVG/1.1/DTD/svg11.dtd" >
<svg>
<metadata>
Created by FontForge 20090914 at Sat Sep  4 10:12:20 2021
 By www-data
Copyright (c) 2019 by TypeType. Designers Ivan Gladkikh, Pavel Emelyanov. Technical designers Marina Khodak, Nadezhda Polomoshnova, Kseniya Karataeva, Olexa Volochay, Nadyr Rakhimov. All rights reserved. |DCNT
</metadata>
<defs>
<font id="TTHoves-Bold" horiz-adv-x="590" >
  <font-face 
    font-family="TT Hoves"
    font-weight="700"
    font-stretch="normal"
    units-per-em="1000"
    panose-1="2 0 8 3 4 0 0 2 0 4"
    ascent="700"
    descent="-300"
    x-height="509.999"
    cap-height="700"
    bbox="-550 -250 1438 1035"
    underline-thickness="50"
    underline-position="-150"
    unicode-range="U+000D-U+FB04"
  />
<missing-glyph horiz-adv-x="0" 
 />
    <glyph glyph-name="f_f" unicode="ff" horiz-adv-x="710" 
d="M110 0v370h-80v140h80v70c0 93.333 48.333 140 145 140h95v-125h-55c-23.333 0 -35 -11.667 -35 -35v-50h160v70c0 93.333 48.333 140 145 140h115v-125h-75c-23.333 0 -35 -11.667 -35 -35v-50h110v-140h-110v-370h-150v370h-160v-370h-150z" />
    <glyph glyph-name="uniFB01" unicode="fi" horiz-adv-x="630" 
d="M110 0v370h-80v140h80v70c0 93.333 48.333 140 145 140h95v-125h-55c-23.333 0 -35 -11.667 -35 -35v-50h310v-510h-150v370h-160v-370h-150zM420 590v130h150v-130h-150z" />
    <glyph glyph-name="uniFB02" unicode="fl" horiz-adv-x="635" 
d="M110 0v370h-80v140h80v70c0 93.333 48.333 140 145 140h315v-720h-150v595h-125c-23.333 0 -35 -11.667 -35 -35v-50h95v-140h-95v-370h-150z" />
    <glyph glyph-name="f_f_i" unicode="ffi" horiz-adv-x="940" 
d="M110 0v370h-80v140h80v70c0 93.333 48.333 140 145 140h95v-125h-55c-23.333 0 -35 -11.667 -35 -35v-50h160v70c0 93.333 48.333 140 145 140h95v-125h-55c-23.333 0 -35 -11.667 -35 -35v-50h310v-510h-150v370h-160v-370h-150v370h-160v-370h-150zM730 590v130h150
v-130h-150z" />
    <glyph glyph-name="f_f_l" unicode="ffl" horiz-adv-x="945" 
d="M110 0v370h-80v140h80v70c0 93.333 48.333 140 145 140h95v-125h-55c-23.333 0 -35 -11.667 -35 -35v-50h160v70c0 93.333 48.333 140 145 140h315v-720h-150v595h-125c-23.333 0 -35 -11.667 -35 -35v-50h95v-140h-95v-370h-150v370h-160v-370h-150z" />
    <glyph glyph-name="f_f_j" unicode="ffj" horiz-adv-x="940" 
d="M110 0v370h-80v140h80v70c0 93.333 48.333 140 145 140h95v-125h-55c-23.333 0 -35 -11.667 -35 -35v-50h160v70c0 93.333 48.333 140 145 140h95v-125h-55c-23.333 0 -35 -11.667 -35 -35v-50h310v-570c0 -93.333 -48.333 -140 -145 -140h-115v140h75
c23.333 0 35 11.667 35 35v395h-160v-370h-150v370h-160v-370h-150zM730 590v130h150v-130h-150z" />
    <glyph glyph-name="f_j" unicode="fj" horiz-adv-x="630" 
d="M310 -200v140h75c23.333 0 35 11.667 35 35v395h-160v-370h-150v370h-80v140h80v70c0 93.333 48.333 140 145 140h95v-125h-55c-23.333 0 -35 -11.667 -35 -35v-50h310v-570c0 -93.333 -48.333 -140 -145 -140h-115zM420 590v130h150v-130h-150z" />
    <glyph glyph-name=".notdef" horiz-adv-x="0" 
 />
    <glyph glyph-name="NULL" horiz-adv-x="0" 
 />
    <glyph glyph-name="NULL" horiz-adv-x="0" 
 />
    <glyph glyph-name="CR" unicode="&#xd;" horiz-adv-x="0" 
 />
    <glyph glyph-name="space" unicode=" " horiz-adv-x="270" 
 />
    <glyph glyph-name="exclam" unicode="!" horiz-adv-x="320" 
d="M100 230l-20 210v260h160v-260l-20 -210h-120zM80 0v165h160v-165h-160z" />
    <glyph glyph-name="quotedbl" unicode="&#x22;" horiz-adv-x="455" 
d="M60 460v240h135v-240h-135zM260 460v240h135v-240h-135z" />
    <glyph glyph-name="numbersign" unicode="#" horiz-adv-x="735" 
d="M100 0l35 160h-125l30 135h125l25 110h-125l30 135h120l35 160h140l-35 -160h105l35 160h140l-35 -160h125l-30 -135h-125l-25 -110h125l-30 -135h-120l-35 -160h-140l35 160h-105l-35 -160h-140zM305 295h100l25 110h-100z" />
    <glyph glyph-name="dollar" unicode="$" horiz-adv-x="640" 
d="M240 -110l0.000976562 104.999c-60.667 9.33301 -110.834 35.666 -150.501 78.999s-59.5 95.333 -59.5 156h160c0 -29.333 11.333 -53.333 34 -72s54.667 -28 96 -28c40 0 70 7 90 21s30 32 30 54c0 18.667 -7.5 34 -22.5 46s-40.833 21.667 -77.5 29l-110 20
c-62.667 11.333 -109.167 32.833 -139.5 64.5s-45.5 75.167 -45.5 130.5c0 54.667 17.167 100.167 51.5 136.5s82.166 60.833 143.499 73.5v105h150v-105c64 -12.667 114.167 -39 150.5 -79s54.5 -92 54.5 -156h-160c0 28.667 -11.333 52.5 -34 71.5s-53 28.5 -91 28.5
c-34 0 -60 -7.16699 -78 -21.5s-27 -32.166 -27 -53.499c0 -18 6.16699 -31.833 18.5 -41.5s34.5 -17.5 66.5 -23.5l110 -20c70 -12.667 120.833 -35 152.5 -67s47.5 -78 47.5 -138c0 -55.333 -18.667 -101.666 -56 -138.999s-88.666 -61 -153.999 -71v-105h-150z" />
    <glyph glyph-name="percent" unicode="%" horiz-adv-x="840" 
d="M130 0l435 700h145l-435 -700h-145zM35 545c0 45.333 16.167 84.166 48.5 116.499s71.166 48.5 116.499 48.5s84.166 -16.167 116.499 -48.5s48.5 -71.166 48.5 -116.499s-16.167 -84.166 -48.5 -116.499s-71.166 -48.5 -116.499 -48.5s-84.166 16.167 -116.499 48.5
s-48.5 71.166 -48.5 116.499zM200 485c15.333 0 28.333 5.66699 39 17s16 25.666 16 42.999s-5.33301 31.666 -16 42.999s-23.667 17 -39 17s-28.333 -5.66699 -39 -17s-16 -25.666 -16 -42.999s5.33301 -31.666 16 -42.999s23.667 -17 39 -17zM475 155
c0 45.333 16.167 84.166 48.5 116.499s71.166 48.5 116.499 48.5s84.166 -16.167 116.499 -48.5s48.5 -71.166 48.5 -116.499s-16.167 -84.166 -48.5 -116.499s-71.166 -48.5 -116.499 -48.5s-84.166 16.167 -116.499 48.5s-48.5 71.166 -48.5 116.499zM640 95
c15.333 0 28.333 5.66699 39 17s16 25.666 16 42.999s-5.33301 31.666 -16 42.999s-23.667 17 -39 17s-28.333 -5.66699 -39 -17s-16 -25.666 -16 -42.999s5.33301 -31.666 16 -42.999s23.667 -17 39 -17z" />
    <glyph glyph-name="ampersand" unicode="&#x26;" horiz-adv-x="655" 
d="M120 340l40 29.998l-35 40c-12 13.333 -21 24 -27 32s-12.167 20.5 -18.5 37.5s-9.5 35.5 -9.5 55.5c0 48.667 19 90 57 124s87.333 51 148 51c61.333 0 110.833 -17.167 148.5 -51.5s56.5 -77.166 56.5 -128.499c0 -62.667 -25 -111 -75 -145l-55 -40l105 -110
c6.66699 12 11.667 21.667 15 29c10 24 15 46 15 66h135c0 -47.333 -11.667 -95 -35 -143c-11.333 -21.333 -23 -38.666 -35 -51.999l130 -135h-175l-50 55c-15.333 -12.667 -33 -23.667 -53 -33c-44 -21.333 -88 -32 -132 -32c-74 0 -131.667 17.833 -173 53.5
s-62 81.167 -62 136.5c0 39.333 6.83301 70 20.5 92s35.167 44.667 64.5 68zM265 439.998l35 20c26.667 16 40 36 40 60c0 18 -5.83301 32.5 -17.5 43.5s-27.5 16.5 -47.5 16.5s-35.833 -5.5 -47.5 -16.5s-17.5 -25.5 -17.5 -43.5c0 -16.667 10 -35 30 -55zM370 144.998
l-120.001 130l-25 -15c-30 -18 -45 -43 -45 -75c0 -20.667 7.33301 -37.5 22 -50.5s35.667 -19.5 63 -19.5c28.667 0 55 5 79 15c10.667 4 19.334 9 26.001 15z" />
    <glyph glyph-name="quotesingle" unicode="'" horiz-adv-x="255" 
d="M60 460v240h135v-240h-135z" />
    <glyph glyph-name="parenleft" unicode="(" horiz-adv-x="385" 
d="M365 -200h-155c-25.333 36 -48.666 78 -69.999 126c-46.667 108 -70 221 -70 339s23.333 231 70 339c21.333 48 44.666 90 69.999 126h155c-28.667 -39.333 -53 -81.333 -73 -126c-48 -108 -72 -221 -72 -339s24 -231 72 -339c20 -44.667 44.333 -86.667 73 -126z" />
    <glyph glyph-name="parenright" unicode=")" horiz-adv-x="385" 
d="M175 -200h-155c26.667 37.333 50.667 79.333 72 126c48.667 109.333 73 222.333 73 339s-24.333 229.667 -73 339c-21.333 46.667 -45.333 88.667 -72 126h155c25.333 -36 48.666 -78 69.999 -126c46.667 -108 70 -221 70 -339s-23.333 -231 -70 -339
c-21.333 -48 -44.666 -90 -69.999 -126z" />
    <glyph glyph-name="asterisk" unicode="*" horiz-adv-x="490" 
d="M80 360l90 105l-135 35l30 105l135 -50l-10 145h110l-10 -145l135 50l30 -105l-135 -35l90 -105l-85 -70l-80 118l-80 -118z" />
    <glyph glyph-name="plus" unicode="+" horiz-adv-x="560" 
d="M210 50v170h-160v140h160v170h140v-170h160v-140h-160v-170h-140z" />
    <glyph glyph-name="comma" unicode="," horiz-adv-x="280" 
d="M40 -90l25 255h165l-70 -255h-120z" />
    <glyph glyph-name="hyphen" unicode="-" horiz-adv-x="445" 
d="M50 215v140h345v-140h-345z" />
    <glyph glyph-name="period" unicode="." horiz-adv-x="285" 
d="M60 0v165h165v-165h-165z" />
    <glyph glyph-name="slash" unicode="/" horiz-adv-x="425" 
d="M0 -200l275 930h150l-275 -930h-150z" />
    <glyph glyph-name="zero" unicode="0" horiz-adv-x="680" 
d="M340 -10c-85.333 0 -155.833 32.167 -211.5 96.5s-83.5 152.166 -83.5 263.499s27.833 199.166 83.5 263.499s126.167 96.5 211.5 96.5s155.833 -32.167 211.5 -96.5s83.5 -152.166 83.5 -263.499s-27.833 -199.166 -83.5 -263.499s-126.167 -96.5 -211.5 -96.5zM340 145
c37.333 0 69.166 17.667 95.499 53s39.5 86 39.5 152s-13.167 116.667 -39.5 152s-58.166 53 -95.499 53c-38 0 -70 -17.667 -96 -53s-39 -86 -39 -152s13 -116.667 39 -152s58 -53 96 -53z" />
    <glyph glyph-name="one" unicode="1" horiz-adv-x="400" 
d="M170 0v475h-140v150h105c23.333 0 35 11.667 35 35v40h160v-700h-160z" />
    <glyph glyph-name="two" unicode="2" horiz-adv-x="580" 
d="M50 0l-0.000976562 145l285 255c12 11.333 20.833 22.166 26.5 32.499s8.5 24.5 8.5 42.5c0 20.667 -8 38.334 -24 53.001s-36.333 22 -61 22c-26 0 -46.667 -8 -62 -24s-23 -38 -23 -66h-160c0 74.667 23 135 69 181s106.333 69 181 69c74 0 133.333 -22 178 -66
s67 -100.333 67 -169c0 -43.333 -9.66699 -79.5 -29 -108.5s-49.666 -61.167 -90.999 -96.5l-125 -110v-5h250v-155h-490z" />
    <glyph glyph-name="three" unicode="3" horiz-adv-x="585" 
d="M30 220l159.999 -0.000976562c0 -23.333 8.5 -42.5 25.5 -57.5s40.167 -22.5 69.5 -22.5c28.667 0 51.667 7.33301 69 22s26 32.334 26 53.001c0 23.333 -8.5 42.5 -25.5 57.5s-40.167 22.5 -69.5 22.5h-50v130h50c27.333 0 48.333 6.5 63 19.5s22 29.833 22 50.5
c0 18.667 -7.5 34.167 -22.5 46.5s-35.833 18.5 -62.5 18.5c-27.333 0 -48.333 -6.5 -63 -19.5s-22 -29.833 -22 -50.5h-160c0 61.333 23.333 113.333 70 156s106.667 64 180 64c70.667 0 128.334 -20 173.001 -60s67 -88 67 -144c0 -46 -16 -84.333 -48 -115
c-15.333 -14 -31 -24.333 -47 -31v-5c20 -8.66699 37.333 -19.667 52 -33c35.333 -31.333 53 -72 53 -122c0 -60 -22.833 -110 -68.5 -150s-106.167 -60 -181.5 -60c-78.667 0 -141.667 21.667 -189 65s-71 98.333 -71 165z" />
    <glyph glyph-name="four" unicode="4" horiz-adv-x="585" 
d="M15 130v140l235 430h240v-425h75v-145h-75v-130h-160v130h-315zM185 275h145v235h-20l-125 -230v-5z" />
    <glyph glyph-name="five" unicode="5" 
d="M45 205l160 0.00195312c2.66699 -12.667 8.33398 -23.667 17.001 -33c20 -21.333 46 -32 78 -32c28 0 50.833 8.5 68.5 25.5s26.5 38.5 26.5 64.5s-8.83301 47.5 -26.5 64.5s-40.5 25.5 -68.5 25.5c-28.667 0 -51 -6.66699 -67 -20
c-6.66699 -5.33301 -12.667 -12 -18 -20h-160l40 420h425v-145h-290l-10 -110h5c5.33301 3.33301 12.666 6.66602 21.999 9.99902c20 6.66699 42.667 10 68 10c70 0 127.5 -22.167 172.5 -66.5s67.5 -100.5 67.5 -168.5c0 -70.667 -23.333 -128.334 -70 -173.001
s-108.334 -67 -185.001 -67c-99.333 0 -172 35.667 -218 107c-19.333 31.333 -31.666 67.333 -36.999 108z" />
    <glyph glyph-name="six" unicode="6" 
d="M80 390l200 309.999h180l-150 -225c70 0 128.333 -23 175 -69s70 -103 70 -171s-24.833 -125.833 -74.5 -173.5s-111.5 -71.5 -185.5 -71.5s-135.833 23.833 -185.5 71.5s-74.5 105.5 -74.5 173.5c0 56.667 15 108.334 45 155.001zM195 234.999
c0 -28 9.16699 -50.833 27.5 -68.5s42.5 -26.5 72.5 -26.5s54.167 8.83301 72.5 26.5s27.5 40.5 27.5 68.5s-9.16699 50.833 -27.5 68.5s-42.5 26.5 -72.5 26.5s-54.167 -8.83301 -72.5 -26.5s-27.5 -40.5 -27.5 -68.5z" />
    <glyph glyph-name="seven" unicode="7" horiz-adv-x="540" 
d="M90 0l235 545h-295v155h480v-140l-240 -560h-180z" />
    <glyph glyph-name="eight" unicode="8" 
d="M140 355v5c-17.333 9.33301 -32.333 20.666 -45 33.999c-30 31.333 -45 70 -45 116c0 54.667 22.667 101.667 68 141s104.333 59 177 59s131.667 -19.667 177 -59s68 -86.333 68 -141c0 -46 -15 -84.667 -45 -116c-12.667 -13.333 -27.667 -24.666 -45 -33.999v-5
c18 -7.33301 34.667 -18.333 50 -33c33.333 -32 50 -72.667 50 -122c0 -60 -23 -110 -69 -150s-108 -60 -186 -60s-140 20 -186 60s-69 90 -69 150c0 49.333 16.667 90 50 122c15.333 14.667 32 25.667 50 33zM210 500c0 -20.667 7.33301 -37.5 22 -50.5
s35.667 -19.5 63 -19.5s48.333 6.5 63 19.5s22 29.833 22 50.5s-7.33301 37.5 -22 50.5s-35.667 19.5 -63 19.5s-48.333 -6.5 -63 -19.5s-22 -29.833 -22 -50.5zM200 215c0 -26 8.5 -46.667 25.5 -62s40.167 -23 69.5 -23s52.5 7.66699 69.5 23s25.5 36 25.5 62
s-8.5 46.667 -25.5 62s-40.167 23 -69.5 23s-52.5 -7.66699 -69.5 -23s-25.5 -36 -25.5 -62z" />
    <glyph glyph-name="nine" unicode="9" 
d="M130 0l150 225.001c-70 0 -128.333 23 -175 69s-70 103 -70 171s24.833 125.833 74.5 173.5s111.5 71.5 185.5 71.5s135.833 -23.833 185.5 -71.5s74.5 -105.5 74.5 -173.5c0 -56.667 -15 -108.334 -45 -155.001l-200 -310h-180zM195 465.001
c0 -28 9.16699 -50.833 27.5 -68.5s42.5 -26.5 72.5 -26.5s54.167 8.83301 72.5 26.5s27.5 40.5 27.5 68.5s-9.16699 50.833 -27.5 68.5s-42.5 26.5 -72.5 26.5s-54.167 -8.83301 -72.5 -26.5s-27.5 -40.5 -27.5 -68.5z" />
    <glyph glyph-name="colon" unicode=":" horiz-adv-x="285" 
d="M60 0v165h165v-165h-165zM60 355v165h165v-165h-165z" />
    <glyph glyph-name="semicolon" unicode=";" horiz-adv-x="280" 
d="M65 355v165h165v-165h-165zM40 -90l25 255h165l-70 -255h-120z" />
    <glyph glyph-name="less" unicode="&#x3c;" horiz-adv-x="560" 
d="M55 220v150l450 175v-150l-285 -100l285 -100v-150z" />
    <glyph glyph-name="equal" unicode="=" horiz-adv-x="560" 
d="M70 330v130h420v-130h-420zM70 120v130h420v-130h-420z" />
    <glyph glyph-name="greater" unicode="&#x3e;" horiz-adv-x="560" 
d="M55 45v150l285 100l-285 100v150l450 -175v-150z" />
    <glyph glyph-name="question" unicode="?" horiz-adv-x="540" 
d="M185 230v30.002c0 45.333 8 79.5 24 102.5s43 43.833 81 62.5c20.667 10.667 35 21 43 31s12 24.667 12 44c0 18 -7.16699 33.333 -21.5 46s-33.833 19 -58.5 19s-44.167 -6.5 -58.5 -19.5s-21.5 -29.833 -21.5 -50.5h-160c0 61.333 22.5 112.5 67.5 153.5
s104.167 61.5 177.5 61.5c72 0 130 -18.833 174 -56.5s66 -83.834 66 -138.501c0 -76 -35 -131 -105 -165c-26 -12.667 -44.167 -25.334 -54.5 -38.001s-15.5 -30 -15.5 -52v-30h-150zM180 0.00195312v165h160v-165h-160z" />
    <glyph glyph-name="at" unicode="@" horiz-adv-x="955" 
d="M470 195c26 0 46.667 8 62 24s23 38 23 66s-7.66699 50 -23 66s-36 24 -62 24s-46.667 -8 -62 -24s-23 -38 -23 -66s7.66699 -50 23 -66s36 -24 62 -24zM475 5h205.002v-120h-205c-126.667 0 -229.167 37.667 -307.5 113s-117.5 172.333 -117.5 291
c0 116.667 40.5 214.334 121.5 293.001s183.833 118 308.5 118c130 0 235 -37 315 -111s120 -167 120 -279c0 -74 -18 -130.833 -54 -170.5s-84.667 -59.5 -146 -59.5c-40 0 -71.333 9 -94 27c-12 8.66699 -20.667 18 -26 28h-5c-10 -10.667 -21.333 -20 -34 -28
c-27.333 -18 -61 -27 -101 -27c-55.333 0 -101.666 19.333 -138.999 58s-56 87.667 -56 147s18.667 108.333 56 147s83.666 58 138.999 58c29.333 0 55.666 -6.66699 78.999 -20c10 -6 18.667 -12.667 26 -20h5l10 35h95v-235c0 -15.333 4.5 -27.5 13.5 -36.5
s21.167 -13.5 36.5 -13.5c46.667 0 70 36.667 70 110c0 79.333 -27.833 144.166 -83.5 194.499s-131.167 75.5 -226.5 75.5c-89.333 0 -162.5 -27.5 -219.5 -82.5s-85.5 -124.5 -85.5 -208.5c0 -85.333 27.167 -154 81.5 -206s127.166 -78 218.499 -78z" />
    <glyph glyph-name="A" unicode="A" horiz-adv-x="700" 
d="M-5 0l240 700h230l240 -700h-175l-45 140h-270l-45 -140h-175zM260 280h180l-80 250h-20z" />
    <glyph glyph-name="B" unicode="B" horiz-adv-x="675" 
d="M70 0l-0.000976562 699.999h340c62 0 111.667 -18 149 -54s56 -83 56 -141c0 -42 -12.667 -79.667 -38 -113c-9.33301 -13.333 -21.666 -25.666 -36.999 -36.999v-5c17.333 -12 31.333 -24.667 42 -38c28.667 -36.667 43 -75.667 43 -117c0 -58 -18.667 -105 -56 -141
s-87 -54 -149 -54h-350zM229.999 419.999h155c20 0 36.667 6.66699 50 20s20 30 20 50s-6.66699 36.667 -20 50s-30 20 -50 20h-155v-140zM229.999 139.999h165c20 0 36.667 6.66699 50 20s20 30 20 50s-6.66699 36.667 -20 50s-30 20 -50 20h-165v-140z" />
    <glyph glyph-name="C" unicode="C" horiz-adv-x="730" 
d="M540 265h159.999c-10.667 -51.333 -29.667 -97.333 -57 -138c-59.333 -91.333 -147 -137 -263 -137c-96 0 -176.667 34 -242 102s-98 154 -98 258s32.667 190 98 258s146 102 242 102c113.333 0 200.333 -45 261 -135c26 -38.667 45.667 -83.667 59 -135h-160
c-7.33301 22 -17.666 41 -30.999 57c-32 38.667 -75 58 -129 58c-51.333 0 -94.166 -18.833 -128.499 -56.5s-51.5 -87.167 -51.5 -148.5s17.167 -110.833 51.5 -148.5s77.166 -56.5 128.499 -56.5c57.333 0 101 20 131 60c13.333 17.333 23 37.333 29 60z" />
    <glyph glyph-name="D" unicode="D" horiz-adv-x="710" 
d="M70 0v700h260c95.333 0 175.833 -33.5 241.5 -100.5s98.5 -150.167 98.5 -249.5s-32.833 -182.5 -98.5 -249.5s-146.167 -100.5 -241.5 -100.5h-260zM230 155l100 -0.00195312c50.667 0 93.334 18.333 128.001 55s52 83.334 52 140.001s-17.333 103.334 -52 140.001
s-77.334 55 -128.001 55h-100v-390z" />
    <glyph glyph-name="E" unicode="E" horiz-adv-x="600" 
d="M70 0v700h480v-145h-320v-135h300v-140h-300v-135h320v-145h-480z" />
    <glyph glyph-name="F" unicode="F" horiz-adv-x="585" 
d="M70 0v700h475v-145h-315v-140h290v-140h-290v-275h-160z" />
    <glyph glyph-name="G" unicode="G" horiz-adv-x="760" 
d="M585 0l-10 69.999h-5c-12.667 -14.667 -28 -28 -46 -40c-41.333 -26.667 -89.333 -40 -144 -40c-96 0 -176.667 34 -242 102s-98 154 -98 258s32.667 190 98 258s146 102 242 102c106 0 191.667 -41.667 257 -125c27.333 -37.333 48.333 -79 63 -125h-165
c-10 18.667 -21.333 34.334 -34 47.001c-32 32 -72.333 48 -121 48c-51.333 0 -94.166 -19 -128.499 -57s-51.5 -87.333 -51.5 -148c0 -61.333 17.167 -110.833 51.5 -148.5s77.166 -56.5 128.499 -56.5c58.667 0 103.667 19 135 57c14 16.667 24 36 30 58h-155v110h315
v-370h-120z" />
    <glyph glyph-name="H" unicode="H" horiz-adv-x="730" 
d="M70 0v700h160v-265h270v265h160v-700h-160v270h-270v-270h-160z" />
    <glyph glyph-name="I" unicode="I" horiz-adv-x="300" 
d="M70 0v700h160v-700h-160z" />
    <glyph glyph-name="J" unicode="J" horiz-adv-x="430" 
d="M10 0v155h150c30 0 45 15 45 45v500h160v-545c0 -50 -13.333 -88.333 -40 -115s-65 -40 -115 -40h-200z" />
    <glyph glyph-name="K" unicode="K" horiz-adv-x="625" 
d="M70 0v700h160v-300l205 300h195l-240 -345l260 -355h-195l-225 315v-315h-160z" />
    <glyph glyph-name="L" unicode="L" horiz-adv-x="560" 
d="M70 0v700h160v-545h315v-155h-475z" />
    <glyph glyph-name="M" unicode="M" horiz-adv-x="930" 
d="M70 0v700h245l140 -435h20l140 435h245v-700h-160v430h-20l-140 -430h-150l-140 430h-20v-430h-160z" />
    <glyph glyph-name="N" unicode="N" horiz-adv-x="735" 
d="M70 0v700h195l220 -420h20v420h160v-700h-195l-220 420h-20v-420h-160z" />
    <glyph glyph-name="O" unicode="O" horiz-adv-x="760" 
d="M380 -10c-96 0 -176.667 34 -242 102s-98 154 -98 258s32.667 190 98 258s146 102 242 102s176.667 -34 242 -102s98 -154 98 -258s-32.667 -190 -98 -258s-146 -102 -242 -102zM380 145c51.333 0 94.166 18.833 128.499 56.5s51.5 87.167 51.5 148.5
s-17.167 110.833 -51.5 148.5s-77.166 56.5 -128.499 56.5s-94.166 -18.833 -128.499 -56.5s-51.5 -87.167 -51.5 -148.5s17.167 -110.833 51.5 -148.5s77.166 -56.5 128.499 -56.5z" />
    <glyph glyph-name="P" unicode="P" horiz-adv-x="660" 
d="M70 0v700h325c68 0 123.333 -22.333 166 -67s64 -104 64 -178s-21.333 -133.333 -64 -178s-98 -67 -166 -67h-165v-210h-160zM230 365l155 0.00195312c23.333 0 42.5 8.16699 57.5 24.5s22.5 38.166 22.5 65.499s-7.5 49.166 -22.5 65.499s-34.167 24.5 -57.5 24.5h-155
v-180z" />
    <glyph glyph-name="Q" unicode="Q" horiz-adv-x="760" 
d="M550 -65l-60 74.999c-6 -3.33301 -15.667 -6.66602 -29 -9.99902c-25.333 -6.66699 -52.333 -10 -81 -10c-96 0 -176.667 34 -242 102s-98 154 -98 258s32.667 190 98 258s146 102 242 102s176.667 -34 242 -102s98 -154 98 -258c0 -74 -18.333 -141.667 -55 -203
c-16.667 -26.667 -35 -49 -55 -67l125 -145h-185zM375 144.999l-70.002 85h185l20 -25c10 10 18.333 21.667 25 35c16.667 33.333 25 70 25 110c0 61.333 -17.167 110.833 -51.5 148.5s-77.166 56.5 -128.499 56.5s-94.166 -18.833 -128.499 -56.5
s-51.5 -87.167 -51.5 -148.5c0 -60.667 17 -110 51 -148s75.333 -57 124 -57z" />
    <glyph glyph-name="R" unicode="R" horiz-adv-x="680" 
d="M70 0v700h330c68 0 123.333 -22 166 -66s64 -102 64 -174c0 -88.667 -32.667 -153 -98 -193c-30 -17.333 -62.333 -28 -97 -32l215 -235h-200l-200 225h-20v-225h-160zM230 370l160 0.00195312c23.333 0 42.5 8.16699 57.5 24.5s22.5 38.166 22.5 65.499
s-7.5 49.166 -22.5 65.499s-34.167 24.5 -57.5 24.5h-160v-180z" />
    <glyph glyph-name="S" unicode="S" horiz-adv-x="640" 
d="M30 230h160c0 -29.333 11.333 -53.333 34 -72s54.667 -28 96 -28c40 0 70 7 90 21s30 32 30 54c0 18.667 -7.5 34 -22.5 46s-40.833 21.667 -77.5 29l-110 20c-62.667 11.333 -109.167 32.833 -139.5 64.5s-45.5 75.167 -45.5 130.5c0 62 23.5 113.333 70.5 154
s111.833 61 194.5 61c90 0 160 -22 210 -66s75 -102 75 -174h-160c0 28.667 -11.333 52.5 -34 71.5s-53 28.5 -91 28.5c-34 0 -60 -7.16699 -78 -21.5s-27 -32.166 -27 -53.499c0 -18 6.16699 -31.833 18.5 -41.5s34.5 -17.5 66.5 -23.5l110 -20
c70 -12.667 120.833 -35 152.5 -67s47.5 -78 47.5 -138c0 -62.667 -24.333 -114.167 -73 -154.5s-117.667 -60.5 -207 -60.5s-160 22.667 -212 68s-78 102.666 -78 171.999z" />
    <glyph glyph-name="T" unicode="T" 
d="M215 0v545h-195v155h550v-155h-195v-545h-160z" />
    <glyph glyph-name="U" unicode="U" horiz-adv-x="720" 
d="M65 290v410h160v-410c0 -42 13 -76.667 39 -104s58 -41 96 -41s70 13.667 96 41s39 62 39 104v410h160v-410c0 -92 -26.667 -165 -80 -219s-125 -81 -215 -81s-161.667 27 -215 81s-80 127 -80 219z" />
    <glyph glyph-name="V" unicode="V" horiz-adv-x="690" 
d="M230 0l-230 700h175l160 -500h20l160 500h175l-230 -700h-230z" />
    <glyph glyph-name="W" unicode="W" horiz-adv-x="990" 
d="M175 0l-170 700h175l100 -425h20l110 425h170l110 -425h20l100 425h175l-170 -700h-205l-105 420h-20l-105 -420h-205z" />
    <glyph glyph-name="X" unicode="X" horiz-adv-x="650" 
d="M-15 0l235 360l-220 340h190l125 -210h20l125 210h190l-220 -340l235 -360h-190l-140 225h-20l-140 -225h-190z" />
    <glyph glyph-name="Y" unicode="Y" horiz-adv-x="640" 
d="M240 0v225l-255 475h180l145 -280h20l145 280h180l-255 -475v-225h-160z" />
    <glyph glyph-name="Z" unicode="Z" horiz-adv-x="620" 
d="M40 0v145l320 400h-315v155h530v-145l-320 -400h325v-155h-540z" />
    <glyph glyph-name="bracketleft" unicode="[" horiz-adv-x="385" 
d="M80 -200v930h270v-140h-120v-650h120v-140h-270z" />
    <glyph glyph-name="backslash" unicode="\" horiz-adv-x="425" 
d="M275 -200l-275 930h150l275 -930h-150z" />
    <glyph glyph-name="bracketright" unicode="]" horiz-adv-x="385" 
d="M35 -200v140h120v650h-120v140h270v-930h-270z" />
    <glyph glyph-name="asciicircum" unicode="^" horiz-adv-x="465" 
d="M40 410l105 290h175l105 -290h-130l-60 170h-5l-60 -170h-130z" />
    <glyph glyph-name="underscore" unicode="_" horiz-adv-x="400" 
d="M-20 -240v140h440v-140h-440z" />
    <glyph glyph-name="grave" unicode="`" horiz-adv-x="305" 
d="M150 590l-120 145h150l95 -145h-125z" />
    <glyph glyph-name="a" unicode="a" horiz-adv-x="565" 
d="M380 0l-10.002 44.999h-5c-8 -9.33301 -19.333 -18.666 -34 -27.999c-27.333 -18 -62.666 -27 -105.999 -27c-58.667 0 -105 15 -139 45s-51 68.333 -51 115c0 49.333 18 89.166 54 119.499s88 45.5 156 45.5h115v10c0 22.667 -7 40.834 -21 54.501
s-33.667 20.5 -59 20.5c-26 0 -47.333 -7.66699 -64 -23c-8 -8 -13.333 -15.333 -16 -22h-145c6 48 28.333 87.5 67 118.5s91.334 46.5 158.001 46.5c72.667 0 129.167 -17.667 169.5 -53s60.5 -82.333 60.5 -141v-326h-130zM359.998 204.999v10h-95
c-26.667 0 -46.667 -5 -60 -15s-20 -23.333 -20 -40c0 -16 6.16699 -29.167 18.5 -39.5s29.5 -15.5 51.5 -15.5c32 0 57.5 9.16699 76.5 27.5s28.5 42.5 28.5 72.5z" />
    <glyph glyph-name="b" unicode="b" horiz-adv-x="630" 
d="M65 0l0.000976562 700.001h150v-230h5c11.333 11.333 21.666 19.666 30.999 24.999c29.333 16.667 62.333 25 99 25c68.667 0 126.667 -25 174 -75s71 -113.333 71 -190s-23.667 -140 -71 -190s-105.333 -75 -174 -75c-41.333 0 -77.333 10 -108 30
c-14 9.33301 -24.667 19.333 -32 30h-5l-10 -50h-130zM330.001 130.001c33.333 0 60.833 11.5 82.5 34.5s32.5 53.167 32.5 90.5s-10.833 67.5 -32.5 90.5s-49.167 34.5 -82.5 34.5s-60.833 -11.5 -82.5 -34.5s-32.5 -53.167 -32.5 -90.5s10.833 -67.5 32.5 -90.5
s49.167 -34.5 82.5 -34.5z" />
    <glyph glyph-name="c" unicode="c" horiz-adv-x="585" 
d="M400 200l155.001 -0.000976562c-6.66699 -37.333 -21 -72.333 -43 -105c-48.667 -70 -119.334 -105 -212.001 -105c-77.333 0 -140.833 24.833 -190.5 74.5s-74.5 113.167 -74.5 190.5s24.833 140.833 74.5 190.5s113.167 74.5 190.5 74.5c89.333 0 160 -35 212 -105
c22 -32.667 36.333 -67.667 43 -105h-155c-5.33301 13.333 -12 25 -20 35c-20.667 23.333 -47.334 35 -80.001 35c-33.333 0 -60.833 -11.5 -82.5 -34.5s-32.5 -53.167 -32.5 -90.5s10.833 -67.5 32.5 -90.5s49.167 -34.5 82.5 -34.5c34.667 0 61.334 11.667 80.001 35
c7.33301 8.66699 14 20.334 20 35.001z" />
    <glyph glyph-name="d" unicode="d" horiz-adv-x="630" 
d="M435 0l-9.99805 49.999h-5c-9.33301 -10.667 -20.333 -20.667 -33 -30c-30.667 -20 -66.334 -30 -107.001 -30c-68.667 0 -126.667 25 -174 75s-71 113.333 -71 190s23.667 140 71 190s105.333 75 174 75c36.667 0 69.667 -8.33301 99 -25
c9.33301 -5.33301 19.666 -13.666 30.999 -24.999h5v230h150v-700h-130zM300.002 129.999c33.333 0 60.833 11.5 82.5 34.5s32.5 53.167 32.5 90.5s-10.833 67.5 -32.5 90.5s-49.167 34.5 -82.5 34.5s-60.833 -11.5 -82.5 -34.5s-32.5 -53.167 -32.5 -90.5
s10.833 -67.5 32.5 -90.5s49.167 -34.5 82.5 -34.5z" />
    <glyph glyph-name="e" unicode="e" horiz-adv-x="595" 
d="M395 155l149.999 0.00195312c-12 -31.333 -29 -59 -51 -83c-52 -54.667 -116.667 -82 -194 -82s-140.833 24.833 -190.5 74.5s-74.5 113.167 -74.5 190.5s24.833 140.833 74.5 190.5s113.167 74.5 190.5 74.5c74.667 0 136.667 -24.333 186 -73s74 -109.334 74 -182.001
c0 -9.33301 -1 -22 -3 -38l-2 -12h-370c2.66699 -30.667 14.5 -55.834 35.5 -75.501s47.5 -29.5 79.5 -29.5c26.667 0 50.667 7.33301 72 22c10.667 8 18.334 15.667 23.001 23zM184.999 305.002h230c-14.667 66.667 -53 100 -115 100s-100.333 -33.333 -115 -100z" />
    <glyph glyph-name="f" unicode="f" horiz-adv-x="400" 
d="M110 0v370h-80v140h80v70c0 93.333 48.333 140 145 140h115v-125h-75c-23.333 0 -35 -11.667 -35 -35v-50h110v-140h-110v-370h-150z" />
    <glyph glyph-name="g" unicode="g" horiz-adv-x="605" 
d="M45 -20l155 -0.000976562c2.66699 -10 8.33398 -19.333 17.001 -28c18 -18 44 -27 78 -27c32 0 56.667 8.33301 74 25s26 40 26 70v60h-5c-9.33301 -10.667 -19.333 -19 -30 -25c-25.333 -16.667 -55.333 -25 -90 -25c-68.667 0 -125 22.833 -169 68.5
s-66 104.5 -66 176.5s22 130.833 66 176.5s100.333 68.5 169 68.5c38 0 71 -10 99 -30c11.333 -8.66699 21.666 -18.667 30.999 -30h5l10 50h130v-490c0 -71.333 -21.333 -126.666 -64 -165.999s-104.667 -59 -186 -59c-99.333 0 -170.333 30.667 -213 92
c-20 28 -32.333 59 -37 93zM290 169.999c30 0 55 10 75 30s30 45 30 75s-10 55 -30 75s-45 30 -75 30s-55 -10 -75 -30s-30 -45 -30 -75s10 -55 30 -75s45 -30 75 -30z" />
    <glyph glyph-name="h" unicode="h" horiz-adv-x="610" 
d="M65 0l0.000976562 700.001h150v-230h5c11.333 11.333 21.666 19.666 30.999 24.999c29.333 16.667 62.333 25 99 25c60 0 109.167 -19.5 147.5 -58.5s57.5 -89.5 57.5 -151.5v-310h-150v280c0 28 -8.83301 50.833 -26.5 68.5s-40.5 26.5 -68.5 26.5
s-50.833 -8.83301 -68.5 -26.5s-26.5 -40.5 -26.5 -68.5v-280h-150z" />
    <glyph glyph-name="i" unicode="i" horiz-adv-x="270" 
d="M60 0v510h150v-510h-150zM60 584v130h150v-130h-150z" />
    <glyph glyph-name="j" unicode="j" horiz-adv-x="270" 
d="M60 584v130h150v-130h-150zM-50 -200v140h75c23.333 0 35 11.667 35 35v535h150v-570c0 -93.333 -48.333 -140 -145 -140h-115z" />
    <glyph glyph-name="k" unicode="k" horiz-adv-x="550" 
d="M65 0v700h150v-420l175 230h170l-195 -250l205 -260h-170l-185 240v-240h-150z" />
    <glyph glyph-name="l" unicode="l" horiz-adv-x="280" 
d="M65 0v700h150v-700h-150z" />
    <glyph glyph-name="m" unicode="m" horiz-adv-x="865" 
d="M60 0l-0.00292969 509.998h130l10 -45h5c8.66699 9.33301 19.334 18.333 32.001 27c26 18.667 55.333 28 88 28c40 0 75.667 -11.667 107 -35c14 -12 25 -23.667 33 -35h5c7.33301 10.667 19 22.334 35 35.001c32.667 23.333 69.334 35 110.001 35
c55.333 0 101.666 -19.667 138.999 -59s56 -89.666 56 -150.999v-310h-150v290c0 27.333 -6.66699 48.333 -20 63s-31.666 22 -54.999 22c-22.667 0 -40.834 -7.33301 -54.501 -22s-20.5 -35.667 -20.5 -63v-290h-150v290c0 27.333 -6.66699 48.333 -20 63
s-31.666 22 -54.999 22s-41.666 -7.33301 -54.999 -22s-20 -35.667 -20 -63v-290h-150z" />
    <glyph glyph-name="n" unicode="n" horiz-adv-x="605" 
d="M60 0v510h130l10 -45h5c8 9.33301 19.333 18.333 34 27c28.667 18.667 64 28 106 28c60 0 109.167 -19.5 147.5 -58.5s57.5 -89.5 57.5 -151.5v-310h-150v280c0 28 -8.83301 50.833 -26.5 68.5s-40.5 26.5 -68.5 26.5s-50.833 -8.83301 -68.5 -26.5
s-26.5 -40.5 -26.5 -68.5v-280h-150z" />
    <glyph glyph-name="o" unicode="o" horiz-adv-x="600" 
d="M300 -10c-77.333 0 -140.833 24.833 -190.5 74.5s-74.5 113.167 -74.5 190.5s24.833 140.833 74.5 190.5s113.167 74.5 190.5 74.5s140.833 -24.833 190.5 -74.5s74.5 -113.167 74.5 -190.5s-24.833 -140.833 -74.5 -190.5s-113.167 -74.5 -190.5 -74.5zM300 130
c33.333 0 60.833 11.5 82.5 34.5s32.5 53.167 32.5 90.5s-10.833 67.5 -32.5 90.5s-49.167 34.5 -82.5 34.5s-60.833 -11.5 -82.5 -34.5s-32.5 -53.167 -32.5 -90.5s10.833 -67.5 32.5 -90.5s49.167 -34.5 82.5 -34.5z" />
    <glyph glyph-name="p" unicode="p" horiz-adv-x="625" 
d="M60 -200l-0.000976562 710.001h130l10 -50h5c7.33301 10.667 18 20.667 32 30c30.667 20 66.667 30 108 30c68.667 0 126.667 -25 174 -75s71 -113.333 71 -190s-23.667 -140 -71 -190s-105.333 -75 -174 -75c-39.333 0 -72.333 8.33301 -99 25
c-9.33301 5.33301 -19.666 13.666 -30.999 24.999h-5v-240h-150zM324.999 130.001c33.333 0 60.833 11.5 82.5 34.5s32.5 53.167 32.5 90.5s-10.833 67.5 -32.5 90.5s-49.167 34.5 -82.5 34.5s-60.833 -11.5 -82.5 -34.5s-32.5 -53.167 -32.5 -90.5s10.833 -67.5 32.5 -90.5
s49.167 -34.5 82.5 -34.5z" />
    <glyph glyph-name="q" unicode="q" horiz-adv-x="625" 
d="M415 -200l-0.00195312 239.999h-5c-11.333 -11.333 -21.666 -19.666 -30.999 -24.999c-26.667 -16.667 -59.667 -25 -99 -25c-68.667 0 -126.667 25 -174 75s-71 113.333 -71 190s23.667 140 71 190s105.333 75 174 75c40.667 0 76.334 -10 107.001 -30
c12.667 -9.33301 23.667 -19.333 33 -30h5l10 50h130v-710h-150zM299.998 129.999c33.333 0 60.833 11.5 82.5 34.5s32.5 53.167 32.5 90.5s-10.833 67.5 -32.5 90.5s-49.167 34.5 -82.5 34.5s-60.833 -11.5 -82.5 -34.5s-32.5 -53.167 -32.5 -90.5s10.833 -67.5 32.5 -90.5
s49.167 -34.5 82.5 -34.5z" />
    <glyph glyph-name="r" unicode="r" horiz-adv-x="405" 
d="M60 0v510h130l10 -40h5c6.66699 8 13.667 14.667 21 20c18 13.333 41 20 69 20h95v-140h-90c-60 0 -90 -30 -90 -90v-280h-150z" />
    <glyph glyph-name="s" unicode="s" horiz-adv-x="510" 
d="M25 160l145 0.00292969c1.33301 -12 5 -22 11 -30c14.667 -20 39.334 -30 74.001 -30c26 0 45.833 4.83301 59.5 14.5s20.5 21.5 20.5 35.5c0 15.333 -4.33301 26.666 -13 33.999s-24.334 12.666 -47.001 15.999l-75 10c-59.333 8 -102.5 24.167 -129.5 48.5
s-40.5 58.166 -40.5 101.499c0 45.333 19.333 83.333 58 114s92.667 46 162 46c90 0 154.333 -26.667 193 -80c17.333 -23.333 28 -50 32 -80h-145c-3.33301 8.66699 -8 16 -14 22c-15.333 15.333 -37.333 23 -66 23c-24.667 0 -43.334 -4.16699 -56.001 -12.5
s-19 -19.166 -19 -32.499c0 -20.667 20 -34 60 -40l75 -10c113.333 -14.667 170 -68 170 -160c0 -45.333 -19.667 -83.333 -59 -114s-94.666 -46 -165.999 -46c-94.667 0 -161.667 28.333 -201 85c-17.333 25.333 -27 53.666 -29 84.999z" />
    <glyph glyph-name="t" unicode="t" horiz-adv-x="425" 
d="M110 140v230h-80v140h80v160h150v-160h115v-140h-115v-195c0 -23.333 11.667 -35 35 -35h80v-140h-120c-96.667 0 -145 46.667 -145 140z" />
    <glyph glyph-name="u" unicode="u" horiz-adv-x="610" 
d="M60 200l-0.000976562 309.999h150v-280c0 -28 8.83301 -50.833 26.5 -68.5s40.5 -26.5 68.5 -26.5s50.833 8.83301 68.5 26.5s26.5 40.5 26.5 68.5v280h150v-510h-130l-10 45h-5c-8 -9.33301 -19.333 -18.666 -34 -27.999c-27.333 -18 -62.666 -27 -105.999 -27
c-60 0 -109.167 19.5 -147.5 58.5s-57.5 89.5 -57.5 151.5z" />
    <glyph glyph-name="v" unicode="v" horiz-adv-x="550" 
d="M175 0l-170 510h155l105 -335h20l105 335h155l-170 -510h-200z" />
    <glyph glyph-name="w" unicode="w" horiz-adv-x="810" 
d="M140 0l-130 510h155l70 -290h20l75 290h150l75 -290h20l70 290h155l-130 -510h-185l-70 285h-20l-70 -285h-185z" />
    <glyph glyph-name="x" unicode="x" horiz-adv-x="530" 
d="M-5 0l170 260l-160 250h165l85 -145h20l85 145h165l-160 -250l170 -260h-165l-95 160h-20l-95 -160h-165z" />
    <glyph glyph-name="y" unicode="y" horiz-adv-x="550" 
d="M60 -200v140h100c20 0 31.667 6.66699 35 20l5 15l-205 535h160l120 -320h20l100 320h160l-210 -590c-15.333 -44 -35.333 -75 -60 -93s-64.667 -27 -120 -27h-105z" />
    <glyph glyph-name="z" unicode="z" horiz-adv-x="505" 
d="M35 0v135l225 235h-220v140h425v-135l-225 -235h230v-140h-435z" />
    <glyph glyph-name="braceleft" unicode="{" horiz-adv-x="395" 
d="M110 -35v155c0 20 -6.16699 35.833 -18.5 47.5s-29.5 17.5 -51.5 17.5v160c22 0 39.167 5.83301 51.5 17.5s18.5 27.5 18.5 47.5v155c0 50 15 90 45 120s70 45 120 45h85v-135h-45c-36.667 0 -55 -18.333 -55 -55v-160c0 -40 -16.667 -70 -50 -90
c-15.333 -8 -32 -13 -50 -15v-20c18 -2 34.667 -7 50 -15c33.333 -20 50 -50 50 -90v-160c0 -36.667 18.333 -55 55 -55h45v-135h-85c-50 0 -90 15 -120 45s-45 70 -45 120z" />
    <glyph glyph-name="bar" unicode="|" horiz-adv-x="390" 
d="M120 -200v930h150v-930h-150z" />
    <glyph glyph-name="braceright" unicode="}" horiz-adv-x="395" 
d="M35 -200v135h45c36.667 0 55 18.333 55 55v160c0 40 16.667 70 50 90c15.333 8 32 13 50 15v20c-18 2 -34.667 7 -50 15c-33.333 20 -50 50 -50 90v160c0 36.667 -18.333 55 -55 55h-45v135h85c50 0 90 -15 120 -45s45 -70 45 -120v-155
c0 -20 6.16699 -35.833 18.5 -47.5s29.5 -17.5 51.5 -17.5v-160c-22 0 -39.167 -5.83301 -51.5 -17.5s-18.5 -27.5 -18.5 -47.5v-155c0 -50 -15 -90 -45 -120s-70 -45 -120 -45h-85z" />
    <glyph glyph-name="asciitilde" unicode="~" horiz-adv-x="600" 
d="M175 170h-140c0 70 15.167 123.333 45.5 160s70.166 55 119.499 55c21.333 0 41.166 -3.83301 59.499 -11.5s32.5 -16.334 42.5 -26.001s21 -18.334 33 -26.001s23.667 -11.5 35 -11.5c36.667 0 55 23.333 55 70h140c0 -70 -15.167 -123.333 -45.5 -160
s-70.166 -55 -119.499 -55c-21.333 0 -41.166 3.83301 -59.499 11.5s-32.5 16.334 -42.5 26.001s-21 18.334 -33 26.001s-23.667 11.5 -35 11.5c-36.667 0 -55 -23.333 -55 -70z" />
    <glyph glyph-name="nbspace" unicode="&#xa0;" horiz-adv-x="270" 
 />
    <glyph glyph-name="exclamdown" unicode="&#xa1;" horiz-adv-x="320" 
d="M80 -190v260l20 210h120l20 -210v-260h-160zM80 345v165h160v-165h-160z" />
    <glyph glyph-name="cent" unicode="&#xa2;" horiz-adv-x="585" 
d="M225 -110l-0.000976562 109.997c-53.333 12.667 -98.333 41.834 -135 87.501s-55 101.5 -55 167.5s18.333 121.833 55 167.5s81.667 74.834 135 87.501v110h150v-110c62.667 -16 112 -54.333 148 -115c15.333 -28 26 -56.333 32 -85h-155c-5.33301 13.333 -12 25 -20 35
c-20.667 23.333 -47.334 35 -80.001 35c-33.333 0 -60.833 -11.5 -82.5 -34.5s-32.5 -53.167 -32.5 -90.5s10.833 -67.5 32.5 -90.5s49.167 -34.5 82.5 -34.5c34.667 0 61.334 11.667 80.001 35c7.33301 8.66699 14 20.334 20 35.001h155c-6 -30 -16.667 -59 -32 -87
c-35.333 -61.333 -84.666 -99 -147.999 -113v-110h-150z" />
    <glyph glyph-name="sterling" unicode="&#xa3;" horiz-adv-x="625" 
d="M30 0v149.999h30c30 0 45 15 45 45v85h-75v120h75v90c0 66 21.333 119.167 64 159.5s99.667 60.5 171 60.5c72 0 130 -21 174 -63s66 -96 66 -162h-155c0 22.667 -7 40.834 -21 54.501s-33.667 20.5 -59 20.5s-45 -7 -59 -21s-21 -33.667 -21 -59v-80h185v-120h-185v-85
c0 -14.667 -4.66699 -26.667 -14 -36c-4 -4 -8.33301 -7 -13 -9h357v-150h-565z" />
    <glyph glyph-name="currency" unicode="&#xa4;" horiz-adv-x="566" 
d="M283 250c29.333 0 53.333 9.66699 72 29s28 43 28 71s-9.33301 51.667 -28 71s-42.667 29 -72 29s-53.333 -9.66699 -72 -29s-28 -43 -28 -71s9.33301 -51.667 28 -71s42.667 -29 72 -29zM70 194l52.998 61c-6 8 -10.333 16.333 -13 25c-8 18 -12 41.333 -12 70
s4 52 12 70c2.66699 8.66699 7 17 13 25l-53 61l61 56l52 -57c7.33301 4.66699 16.333 9.66699 27 15c24 10 48.333 15 73 15c20.667 0 44.667 -5 72 -15l28 -15l52 57l61 -56l-53 -61c4.66699 -6.66699 8.66699 -15 12 -25c8.66699 -20 13 -43.333 13 -70
s-4.33301 -50 -13 -70c-3.33301 -10 -7.33301 -18.333 -12 -25l53 -61l-61 -56l-52 57c-9.33301 -6 -18.666 -11 -27.999 -15c-24 -10 -48 -15 -72 -15c-27.333 0 -51.666 5 -72.999 15c-10.667 4 -19.667 9 -27 15l-52 -57z" />
    <glyph glyph-name="yen" unicode="&#xa5;" horiz-adv-x="650" 
d="M85 115v105h160v65h-160v105h70l-165 310h180l145 -280h20l145 280h180l-165 -310h70v-105h-160v-65h160v-105h-160v-115h-160v115h-160z" />
    <glyph glyph-name="brokenbar" unicode="&#xa6;" horiz-adv-x="390" 
d="M120 350v380h150v-380h-150zM120 -200v380h150v-380h-150z" />
    <glyph glyph-name="section" unicode="&#xa7;" horiz-adv-x="655" 
d="M65 45l160.001 0.000976562c0 -26 8.66699 -46.667 26 -62s42 -23 74 -23c33.333 0 58.333 5.83301 75 17.5s25 25.834 25 42.501c0 18 -6.16699 32.333 -18.5 43s-34.5 19.667 -66.5 27l-95 20c-67.333 14 -115.833 35.333 -145.5 64s-44.5 67.334 -44.5 116.001
c0 36.667 10.667 70.334 32 101.001c8.66699 12 19.667 23.333 33 34c-8 5.33301 -15.667 13.333 -23 24c-14.667 22.667 -22 49.667 -22 81c0 50.667 22 93.334 66 128.001s105.333 52 184 52c80 0 143.333 -20 190 -60s70 -90 70 -150h-160
c0 23.333 -8.83301 42.5 -26.5 57.5s-42.167 22.5 -73.5 22.5c-28.667 0 -50.834 -5.83301 -66.501 -17.5s-23.5 -25.834 -23.5 -42.501c0 -16 5.5 -28.5 16.5 -37.5s32.167 -16.5 63.5 -22.5l95 -20c67.333 -14 115.833 -35.333 145.5 -64s44.5 -67.334 44.5 -116.001
c0 -36 -11 -69.667 -33 -101c-9.33301 -14 -20 -25.333 -32 -34c10 -8.66699 18.333 -18.334 25 -29.001c16.667 -26.667 25 -55.334 25 -86.001c0 -50.667 -22.5 -93.334 -67.5 -128.001s-109.167 -52 -192.5 -52c-80 0 -143.333 20.333 -190 61s-70 92 -70 154z
M285.001 230.001l70 -14.998l43 -10l17 -5c4.66699 4 8.66699 8.66699 12 14c8.66699 11.333 13 25 13 41c0 18 -5.33301 32 -16 42s-28.667 17.667 -54 23l-70 15c-10 1.33301 -24.333 4.66602 -43 9.99902l-17 5c-6 -4.66699 -10.333 -9.33398 -13 -14.001
c-8 -10 -12 -23.667 -12 -41c0 -18 5.33301 -32 16 -42s28.667 -17.667 54 -23z" />
    <glyph glyph-name="dieresis" unicode="&#xa8;" horiz-adv-x="390" 
d="M230 600v125h130v-125h-130zM30 600v125h130v-125h-130z" />
    <glyph glyph-name="copyright" unicode="&#xa9;" horiz-adv-x="830" 
d="M50 350c0 102.667 34.5 188.334 103.5 257.001s156.167 103 261.5 103c104.667 0 191.667 -34.333 261 -103s104 -154.334 104 -257.001s-34.667 -188.334 -104 -257.001s-156.333 -103 -261 -103c-105.333 0 -192.5 34.333 -261.5 103s-103.5 154.334 -103.5 257.001z
M415 90c75.333 0 137.5 24.667 186.5 74s73.5 111.333 73.5 186s-24.5 136.667 -73.5 186s-111.167 74 -186.5 74s-137.5 -24.667 -186.5 -74s-73.5 -111.333 -73.5 -186s24.5 -136.667 73.5 -186s111.167 -74 186.5 -74zM495 310l100 -0.000976562
c-7.33301 -28 -18.333 -52.333 -33 -73c-36 -48 -83.333 -72 -142 -72c-52.667 0 -96.667 17.667 -132 53s-53 79.333 -53 132s17.667 96.667 53 132s79.333 53 132 53c58.667 0 106 -23.333 142 -70c15.333 -21.333 26.333 -44.666 33 -69.999h-100
c-3.33301 10 -8.33301 18.333 -15 25c-15.333 16.667 -35.333 25 -60 25c-26 0 -46.667 -8.5 -62 -25.5s-23 -40.167 -23 -69.5s7.66699 -52.5 23 -69.5s36 -25.5 62 -25.5c26.667 0 46.667 9 60 27c7.33301 8 12.333 17.333 15 28z" />
    <glyph glyph-name="ordfeminine" unicode="&#xaa;" horiz-adv-x="370" 
d="M250 375l-10 29.998h-5c-4.66699 -6.66699 -11.334 -12.667 -20.001 -18c-18.667 -11.333 -40.334 -17 -65.001 -17c-37.333 0 -66.666 9.83301 -87.999 29.5s-32 44.834 -32 75.501c0 29.333 11.333 53.333 34 72s54.667 28 96 28h75v15
c0 14.667 -4.16699 25.834 -12.5 33.501s-19.166 11.5 -32.499 11.5c-15.333 0 -28 -5 -38 -15c-4 -6.66699 -6.33301 -11.667 -7 -15h-100c6 32 20.833 57.5 44.5 76.5s56.5 28.5 98.5 28.5c45.333 0 80.333 -11.167 105 -33.5s37 -52.833 37 -91.5v-210h-80zM235 509.998
v5h-65c-12 0 -21.667 -3.33301 -29 -10s-11 -15 -11 -25s3.66699 -18.333 11 -25s17 -10 29 -10c20 0 35.833 5.83301 47.5 17.5s17.5 27.5 17.5 47.5z" />
    <glyph glyph-name="guillemotleft" unicode="&#xab;" horiz-adv-x="610" 
d="M180 50l-145 205l145 205h150l-145 -205l145 -205h-150zM425 50l-145 205l145 205h150l-145 -205l145 -205h-150z" />
    <glyph glyph-name="logicalnot" unicode="&#xac;" horiz-adv-x="560" 
d="M70 260v140h420v-260h-145v120h-275z" />
    <glyph glyph-name="uni00AD" unicode="&#xad;" horiz-adv-x="445" 
d="M50 215v140h345v-140h-345z" />
    <glyph glyph-name="registered" unicode="&#xae;" horiz-adv-x="830" 
d="M285 175v355.001h160c38 0 68.333 -11 91 -33s34 -51 34 -87c0 -42.667 -15 -74.334 -45 -95.001c-14 -9.33301 -29 -16 -45 -20l100 -120h-105l-90 115h-10v-115h-90zM375 360.001l60 -0.00195312c13.333 0 24.166 3.83301 32.499 11.5s12.5 18.834 12.5 33.501
s-4.16699 25.834 -12.5 33.501s-19.166 11.5 -32.499 11.5h-60v-90zM50 349.999c0 102.667 34.5 188.334 103.5 257.001s156.167 103 261.5 103c104.667 0 191.667 -34.333 261 -103s104 -154.334 104 -257.001s-34.667 -188.334 -104 -257.001s-156.333 -103 -261 -103
c-105.333 0 -192.5 34.333 -261.5 103s-103.5 154.334 -103.5 257.001zM415 89.999c75.333 0 137.5 24.667 186.5 74s73.5 111.333 73.5 186s-24.5 136.667 -73.5 186s-111.167 74 -186.5 74s-137.5 -24.667 -186.5 -74s-73.5 -111.333 -73.5 -186s24.5 -136.667 73.5 -186
s111.167 -74 186.5 -74z" />
    <glyph glyph-name="overscore" unicode="&#xaf;" horiz-adv-x="390" 
d="M30 615v105h330v-105h-330z" />
    <glyph glyph-name="degree" unicode="&#xb0;" horiz-adv-x="400" 
d="M55 565c0 40 14.167 74.167 42.5 102.5s62.5 42.5 102.5 42.5s74.167 -14.167 102.5 -42.5s42.5 -62.5 42.5 -102.5s-14.167 -74.167 -42.5 -102.5s-62.5 -42.5 -102.5 -42.5s-74.167 14.167 -102.5 42.5s-42.5 62.5 -42.5 102.5zM200 510c15.333 0 28.333 5.33301 39 16
s16 23.667 16 39s-5.33301 28.333 -16 39s-23.667 16 -39 16s-28.333 -5.33301 -39 -16s-16 -23.667 -16 -39s5.33301 -28.333 16 -39s23.667 -16 39 -16z" />
    <glyph glyph-name="plusminus" unicode="&#xb1;" horiz-adv-x="560" 
d="M50 0v140h460v-140h-460zM210 190v160h-160v140h160v170h140v-170h160v-140h-160v-160h-140z" />
    <glyph glyph-name="uni00B2" unicode="&#xb2;" horiz-adv-x="340" 
d="M45 440v71.999l140 133c16.667 16.667 25 31.667 25 45c0 10 -3.66699 18.333 -11 25s-17 10 -29 10c-30 0 -45 -13.333 -45 -40h-85c0 36 11.833 65 35.5 87s55.167 33 94.5 33c37.333 0 67.5 -10.833 90.5 -32.5s34.5 -49.167 34.5 -82.5
c0 -23.333 -3.83301 -41.666 -11.5 -54.999s-20.5 -28.333 -38.5 -45l-70 -65v-5h125v-80h-255z" />
    <glyph glyph-name="uni00B3" unicode="&#xb3;" horiz-adv-x="340" 
d="M35 550h85.001c0 -23.333 15 -35 45 -35s45 11.667 45 35c0 12.667 -4.5 22.5 -13.5 29.5s-21.167 10.5 -36.5 10.5h-30v70h30c30 0 45 11.667 45 35c0 8 -3.66699 15 -11 21s-17 9 -29 9s-21.667 -3 -29 -9s-11 -13 -11 -21h-85c0 30 11.667 55.833 35 77.5
s53.333 32.5 90 32.5c37.333 0 67.5 -10 90.5 -30s34.5 -45 34.5 -75c0 -24 -6.66699 -42.667 -20 -56c-4.66699 -6 -11.334 -10.667 -20.001 -14v-5c6.66699 -3.33301 14 -9 22 -17c15.333 -16.667 23 -36 23 -58c0 -32.667 -11.833 -60 -35.5 -82s-55.167 -33 -94.5 -33
s-70.833 10.833 -94.5 32.5s-35.5 49.167 -35.5 82.5z" />
    <glyph glyph-name="acute" unicode="&#xb4;" horiz-adv-x="305" 
d="M30 590l95 145h150l-120 -145h-125z" />
    <glyph glyph-name="uni00B5" unicode="&#xb5;" horiz-adv-x="610" 
d="M60 -200v710h150v-280c0 -28 8.83301 -50.833 26.5 -68.5s40.5 -26.5 68.5 -26.5s50.833 8.83301 68.5 26.5s26.5 40.5 26.5 68.5v280h150v-510h-130l-10 50h-5c-6 -10 -15.333 -20 -28 -30c-25.333 -20 -54.333 -30 -87 -30c-26 0 -46.333 4 -61 12
c-6.66699 2.66699 -13 7 -19 13v-215h-150z" />
    <glyph glyph-name="paragraph" unicode="&#xb6;" horiz-adv-x="625" 
d="M225 -100v409.998c-52.667 0 -96.667 18.333 -132 55s-53 83.334 -53 140.001s17.667 103.334 53 140.001s79.333 55 132 55h330v-800h-130v675h-70v-675h-130z" />
    <glyph glyph-name="middot" unicode="&#xb7;" horiz-adv-x="270" 
d="M53 180v165h165v-165h-165z" />
    <glyph glyph-name="cedilla" unicode="&#xb8;" horiz-adv-x="250" 
d="M30 -235v85h45c26.667 0 40 10 40 30s-13.333 30 -40 30h-30v40l20 45h100l-15 -40c12 -2.66699 23.667 -7.66699 35 -15c23.333 -18 35 -43 35 -75c0 -28.667 -11.167 -52.5 -33.5 -71.5s-52.833 -28.5 -91.5 -28.5h-65z" />
    <glyph glyph-name="uni00B9" unicode="&#xb9;" horiz-adv-x="280" 
d="M120 440v235h-80v80h55c16.667 0 25 8.33301 25 25v20h85v-360h-85z" />
    <glyph glyph-name="ordmasculine" unicode="&#xba;" horiz-adv-x="400" 
d="M200 370c-48 0 -87.5 15.833 -118.5 47.5s-46.5 72.5 -46.5 122.5s15.5 90.833 46.5 122.5s70.5 47.5 118.5 47.5s87.5 -15.833 118.5 -47.5s46.5 -72.5 46.5 -122.5s-15.5 -90.833 -46.5 -122.5s-70.5 -47.5 -118.5 -47.5zM200 465c18 0 33.333 7 46 21s19 32 19 54
s-6.33301 40 -19 54s-28 21 -46 21s-33.333 -7 -46 -21s-19 -32 -19 -54s6.33301 -40 19 -54s28 -21 46 -21z" />
    <glyph glyph-name="guillemotright" unicode="&#xbb;" horiz-adv-x="610" 
d="M35 50l145 205l-145 205h150l145 -205l-145 -205h-150zM280 50l145 205l-145 205h150l145 -205l-145 -205h-150z" />
    <glyph glyph-name="onequarter" unicode="&#xbc;" horiz-adv-x="710" 
d="M80 0l435 700h95l-435 -700h-95zM125 340v235h-80v80h55c16.667 0 25 8.33301 25 25v20h85v-360h-85zM380 70v70l130 220h120v-215h40v-75h-40v-70h-85v70h-165zM475 145h70v107h-10l-60 -102v-5z" />
    <glyph glyph-name="onehalf" unicode="&#xbd;" horiz-adv-x="730" 
d="M80 0l435 700h95l-435 -700h-95zM125 340v235h-80v80h55c16.667 0 25 8.33301 25 25v20h85v-360h-85zM425 0v71.999l140 133c16.667 16.667 25 31.667 25 45c0 10 -3.66699 18.333 -11 25s-17 10 -29 10c-30 0 -45 -13.333 -45 -40h-85c0 36 11.833 65 35.5 87
s55.167 33 94.5 33c37.333 0 67.5 -10.833 90.5 -32.5s34.5 -49.167 34.5 -82.5c0 -23.333 -3.83301 -41.666 -11.5 -54.999s-20.5 -28.333 -38.5 -45l-70 -65v-5h125v-80h-255z" />
    <glyph glyph-name="threequarters" unicode="&#xbe;" horiz-adv-x="750" 
d="M120 0l435 700h95l-435 -700h-95zM35 450h85.001c0 -23.333 15 -35 45 -35s45 11.667 45 35c0 12.667 -4.5 22.5 -13.5 29.5s-21.167 10.5 -36.5 10.5h-30v70h30c30 0 45 11.667 45 35c0 8 -3.66699 15 -11 21s-17 9 -29 9s-21.667 -3 -29 -9s-11 -13 -11 -21h-85
c0 30 11.667 55.833 35 77.5s53.333 32.5 90 32.5c37.333 0 67.5 -10 90.5 -30s34.5 -45 34.5 -75c0 -24 -6.66699 -42.667 -20 -56c-4.66699 -6 -11.334 -10.667 -20.001 -14v-5c6.66699 -3.33301 14 -9 22 -17c15.333 -16.667 23 -36 23 -58
c0 -32.667 -11.833 -60 -35.5 -82s-55.167 -33 -94.5 -33s-70.833 10.833 -94.5 32.5s-35.5 49.167 -35.5 82.5zM420.001 70v70l130 220h120v-215h40v-75h-40v-70h-85v70h-165zM515.001 145h70v107h-10l-60 -102v-5z" />
    <glyph glyph-name="questiondown" unicode="&#xbf;" horiz-adv-x="550" 
d="M355 15l160 -0.00195312c0 -61.333 -22.5 -112.5 -67.5 -153.5s-104.167 -61.5 -177.5 -61.5c-72 0 -130 18.833 -174 56.5s-66 83.834 -66 138.501c0 76 35 131 105 165c26 12.667 44.167 25.334 54.5 38.001s15.5 30 15.5 52v30h150v-30c0 -45.333 -8 -79.5 -24 -102.5
s-43 -43.833 -81 -62.5c-20.667 -10.667 -35 -21 -43 -31s-12 -24.667 -12 -44c0 -18 7.16699 -33.333 21.5 -46s33.833 -19 58.5 -19s44.167 6.5 58.5 19.5s21.5 29.833 21.5 50.5zM200 344.998v165h160v-165h-160z" />
    <glyph glyph-name="Agrave" unicode="&#xc0;" horiz-adv-x="700" 
d="M-5 0l240 700h230l240 -700h-175l-45 140h-270l-45 -140h-175zM260 280h180l-80 250h-20zM290 770l-120 145h150l95 -145h-125z" />
    <glyph glyph-name="Aacute" unicode="&#xc1;" horiz-adv-x="700" 
d="M-5 0l240 700h230l240 -700h-175l-45 140h-270l-45 -140h-175zM260 280h180l-80 250h-20zM290 770l95 145h150l-120 -145h-125z" />
    <glyph glyph-name="Acircumflex" unicode="&#xc2;" horiz-adv-x="700" 
d="M-5 0l240 700h230l240 -700h-175l-45 140h-270l-45 -140h-175zM260 280h180l-80 250h-20zM165 770l120 145h130l120 -145h-130l-55 65l-55 -65h-130z" />
    <glyph glyph-name="Atilde" unicode="&#xc3;" horiz-adv-x="700" 
d="M-5 0l240 700h230l240 -700h-175l-45 140h-270l-45 -140h-175zM260 280h180l-80 250h-20zM275 775h-95c0 41.333 10 73.333 30 96s46.667 34 80 34c18.667 0 38 -5.83301 58 -17.5s34 -17.5 42 -17.5c10 0 18.333 3.33301 25 10s10 15 10 25h95
c0 -41.333 -10 -73.333 -30 -96s-46.667 -34 -80 -34c-18.667 0 -38 5.83301 -58 17.5s-34 17.5 -42 17.5c-10 0 -18.333 -3.33301 -25 -10s-10 -15 -10 -25z" />
    <glyph glyph-name="Adieresis" unicode="&#xc4;" horiz-adv-x="700" 
d="M-5 0l240 700h230l240 -700h-175l-45 140h-270l-45 -140h-175zM260 280h180l-80 250h-20zM385 780v125h130v-125h-130zM185 780v125h130v-125h-130z" />
    <glyph glyph-name="Aring" unicode="&#xc5;" horiz-adv-x="700" 
d="M-5 0l240 700h230l240 -700h-175l-45 140h-270l-45 -140h-175zM260 280h180l-80 250h-20zM240 850c0 30 10.333 55 31 75s47 30 79 30s58.333 -10 79 -30s31 -45 31 -75s-10.333 -55 -31 -75s-47 -30 -79 -30s-58.333 10 -79 30s-31 45 -31 75zM350 815
c10 0 18.333 3.33301 25 10s10 15 10 25s-3.33301 18.333 -10 25s-15 10 -25 10s-18.333 -3.33301 -25 -10s-10 -15 -10 -25s3.33301 -18.333 10 -25s15 -10 25 -10z" />
    <glyph glyph-name="AE" unicode="&#xc6;" horiz-adv-x="965" 
d="M-20 0l305 700h630v-145h-320v-135h300v-140h-300v-135h320v-145h-480v145h-220l-60 -145h-175zM275 285h160v270h-45z" />
    <glyph glyph-name="Ccedilla" unicode="&#xc7;" horiz-adv-x="730" 
d="M285 -235l-0.000976562 85h45c26.667 0 40 10 40 30s-13.333 30 -40 30h-30v40l21 45c-81.333 14 -148.5 53.667 -201.5 119s-79.5 144 -79.5 236c0 104 32.667 190 98 258s146 102 242 102c113.333 0 200.333 -45 261 -135c26 -38.667 45.667 -83.667 59 -135h-160
c-7.33301 22 -17.666 41 -30.999 57c-32 38.667 -75 58 -129 58c-51.333 0 -94.166 -18.833 -128.499 -56.5s-51.5 -87.167 -51.5 -148.5s17.167 -110.833 51.5 -148.5s77.166 -56.5 128.499 -56.5c57.333 0 101 20 131 60c13.333 17.333 23 37.333 29 60h160
c-11.333 -47.333 -28.333 -90 -51 -128c-56 -88 -132.667 -136.333 -230 -145l-14 -37c12 -2.66699 23.667 -7.66699 35 -15c23.333 -18 35 -43 35 -75c0 -28.667 -11.167 -52.5 -33.5 -71.5s-52.833 -28.5 -91.5 -28.5h-65z" />
    <glyph glyph-name="Egrave" unicode="&#xc8;" horiz-adv-x="600" 
d="M70 0v700h480v-145h-320v-135h300v-140h-300v-135h320v-145h-480zM250 770l-120 145h150l95 -145h-125z" />
    <glyph glyph-name="Eacute" unicode="&#xc9;" horiz-adv-x="600" 
d="M70 0v700h480v-145h-320v-135h300v-140h-300v-135h320v-145h-480zM250 770l95 145h150l-120 -145h-125z" />
    <glyph glyph-name="Ecircumflex" unicode="&#xca;" horiz-adv-x="600" 
d="M70 0v700h480v-145h-320v-135h300v-140h-300v-135h320v-145h-480zM125 770l120 145h130l120 -145h-130l-55 65l-55 -65h-130z" />
    <glyph glyph-name="Edieresis" unicode="&#xcb;" horiz-adv-x="600" 
d="M70 0v700h480v-145h-320v-135h300v-140h-300v-135h320v-145h-480zM345 780v125h130v-125h-130zM145 780v125h130v-125h-130z" />
    <glyph glyph-name="Igrave" unicode="&#xcc;" horiz-adv-x="300" 
d="M70 0v700h160v-700h-160zM90 770l-120 145h150l95 -145h-125z" />
    <glyph glyph-name="Iacute" unicode="&#xcd;" horiz-adv-x="300" 
d="M70 0v700h160v-700h-160zM90 770l95 145h150l-120 -145h-125z" />
    <glyph glyph-name="Icircumflex" unicode="&#xce;" horiz-adv-x="300" 
d="M70 0v700h160v-700h-160zM-35 770l120 145h130l120 -145h-130l-55 65l-55 -65h-130z" />
    <glyph glyph-name="Idieresis" unicode="&#xcf;" horiz-adv-x="300" 
d="M70 0v700h160v-700h-160zM185 780v125h130v-125h-130zM-15 780v125h130v-125h-130z" />
    <glyph glyph-name="Eth" unicode="&#xd0;" horiz-adv-x="735" 
d="M95 0v285h-80v130h80v285h260c95.333 0 175.833 -33.5 241.5 -100.5s98.5 -150.167 98.5 -249.5s-32.833 -182.5 -98.5 -249.5s-146.167 -100.5 -241.5 -100.5h-260zM255 155l100 -0.00195312c50.667 0 93.334 18.333 128.001 55s52 83.334 52 140.001
s-17.333 103.334 -52 140.001s-77.334 55 -128.001 55h-100v-130h130v-130h-130v-130z" />
    <glyph glyph-name="Ntilde" unicode="&#xd1;" horiz-adv-x="735" 
d="M70 0v700h195l220 -420h20v420h160v-700h-195l-220 420h-20v-420h-160zM295 775h-95c0 41.333 10 73.333 30 96s46.667 34 80 34c18.667 0 38 -5.83301 58 -17.5s34 -17.5 42 -17.5c10 0 18.333 3.33301 25 10s10 15 10 25h95c0 -41.333 -10 -73.333 -30 -96
s-46.667 -34 -80 -34c-18.667 0 -38 5.83301 -58 17.5s-34 17.5 -42 17.5c-10 0 -18.333 -3.33301 -25 -10s-10 -15 -10 -25z" />
    <glyph glyph-name="Ograve" unicode="&#xd2;" horiz-adv-x="760" 
d="M380 -10c-96 0 -176.667 34 -242 102s-98 154 -98 258s32.667 190 98 258s146 102 242 102s176.667 -34 242 -102s98 -154 98 -258s-32.667 -190 -98 -258s-146 -102 -242 -102zM380 145c51.333 0 94.166 18.833 128.499 56.5s51.5 87.167 51.5 148.5
s-17.167 110.833 -51.5 148.5s-77.166 56.5 -128.499 56.5s-94.166 -18.833 -128.499 -56.5s-51.5 -87.167 -51.5 -148.5s17.167 -110.833 51.5 -148.5s77.166 -56.5 128.499 -56.5zM320 770l-120 145h150l95 -145h-125z" />
    <glyph glyph-name="Oacute" unicode="&#xd3;" horiz-adv-x="760" 
d="M380 -10c-96 0 -176.667 34 -242 102s-98 154 -98 258s32.667 190 98 258s146 102 242 102s176.667 -34 242 -102s98 -154 98 -258s-32.667 -190 -98 -258s-146 -102 -242 -102zM380 145c51.333 0 94.166 18.833 128.499 56.5s51.5 87.167 51.5 148.5
s-17.167 110.833 -51.5 148.5s-77.166 56.5 -128.499 56.5s-94.166 -18.833 -128.499 -56.5s-51.5 -87.167 -51.5 -148.5s17.167 -110.833 51.5 -148.5s77.166 -56.5 128.499 -56.5zM320 770l95 145h150l-120 -145h-125z" />
    <glyph glyph-name="Ocircumflex" unicode="&#xd4;" horiz-adv-x="760" 
d="M380 -10c-96 0 -176.667 34 -242 102s-98 154 -98 258s32.667 190 98 258s146 102 242 102s176.667 -34 242 -102s98 -154 98 -258s-32.667 -190 -98 -258s-146 -102 -242 -102zM380 145c51.333 0 94.166 18.833 128.499 56.5s51.5 87.167 51.5 148.5
s-17.167 110.833 -51.5 148.5s-77.166 56.5 -128.499 56.5s-94.166 -18.833 -128.499 -56.5s-51.5 -87.167 -51.5 -148.5s17.167 -110.833 51.5 -148.5s77.166 -56.5 128.499 -56.5zM195 770l120 145h130l120 -145h-130l-55 65l-55 -65h-130z" />
    <glyph glyph-name="Otilde" unicode="&#xd5;" horiz-adv-x="760" 
d="M380 -10c-96 0 -176.667 34 -242 102s-98 154 -98 258s32.667 190 98 258s146 102 242 102s176.667 -34 242 -102s98 -154 98 -258s-32.667 -190 -98 -258s-146 -102 -242 -102zM380 145c51.333 0 94.166 18.833 128.499 56.5s51.5 87.167 51.5 148.5
s-17.167 110.833 -51.5 148.5s-77.166 56.5 -128.499 56.5s-94.166 -18.833 -128.499 -56.5s-51.5 -87.167 -51.5 -148.5s17.167 -110.833 51.5 -148.5s77.166 -56.5 128.499 -56.5zM305 775h-95c0 41.333 10 73.333 30 96s46.667 34 80 34c18.667 0 38 -5.83301 58 -17.5
s34 -17.5 42 -17.5c10 0 18.333 3.33301 25 10s10 15 10 25h95c0 -41.333 -10 -73.333 -30 -96s-46.667 -34 -80 -34c-18.667 0 -38 5.83301 -58 17.5s-34 17.5 -42 17.5c-10 0 -18.333 -3.33301 -25 -10s-10 -15 -10 -25z" />
    <glyph glyph-name="Odieresis" unicode="&#xd6;" horiz-adv-x="760" 
d="M380 -10c-96 0 -176.667 34 -242 102s-98 154 -98 258s32.667 190 98 258s146 102 242 102s176.667 -34 242 -102s98 -154 98 -258s-32.667 -190 -98 -258s-146 -102 -242 -102zM380 145c51.333 0 94.166 18.833 128.499 56.5s51.5 87.167 51.5 148.5
s-17.167 110.833 -51.5 148.5s-77.166 56.5 -128.499 56.5s-94.166 -18.833 -128.499 -56.5s-51.5 -87.167 -51.5 -148.5s17.167 -110.833 51.5 -148.5s77.166 -56.5 128.499 -56.5zM415 780v125h130v-125h-130zM215 780v125h130v-125h-130z" />
    <glyph glyph-name="multiply" unicode="&#xd7;" horiz-adv-x="560" 
d="M60 165l120 125l-120 125l100 100l120 -125l120 125l100 -100l-120 -125l120 -125l-100 -100l-120 125l-120 -125z" />
    <glyph glyph-name="Oslash" unicode="&#xd8;" horiz-adv-x="770" 
d="M100 -35l60 109.999c-24 20 -44 42.667 -60 68c-40 60.667 -60 129.667 -60 207c0 104 33.333 190 100 258s148.334 102 245.001 102c26 0 51.667 -2.66699 77 -8l28 -7l20 40h160l-60 -110c24 -20 44 -42.667 60 -68c40 -60.667 60 -129.667 60 -207
c0 -104 -33.333 -190 -100 -258s-148.334 -102 -245.001 -102c-29.333 0 -55 2.33301 -77 7c-16 4.66699 -25.333 7.33398 -28 8.00098l-20 -40h-160zM235 224.999l180 325.001l-8 2c-10 2 -17.333 3 -22 3c-51.333 0 -95 -19 -131 -57s-54 -87.333 -54 -148
c0 -35.333 5.66699 -66.333 17 -93c5.33301 -12.667 11.333 -23.334 18 -32.001zM535 475l-180 -325l7 -3c9.33301 -1.33301 17 -2 23 -2c51.333 0 95 19 131 57s54 87.333 54 148c0 33.333 -6 64 -18 92c-4 10 -9.66699 21 -17 33z" />
    <glyph glyph-name="Ugrave" unicode="&#xd9;" horiz-adv-x="720" 
d="M65 290v410h160v-410c0 -42 13 -76.667 39 -104s58 -41 96 -41s70 13.667 96 41s39 62 39 104v410h160v-410c0 -92 -26.667 -165 -80 -219s-125 -81 -215 -81s-161.667 27 -215 81s-80 127 -80 219zM300 770l-120 145h150l95 -145h-125z" />
    <glyph glyph-name="Uacute" unicode="&#xda;" horiz-adv-x="720" 
d="M65 290v410h160v-410c0 -42 13 -76.667 39 -104s58 -41 96 -41s70 13.667 96 41s39 62 39 104v410h160v-410c0 -92 -26.667 -165 -80 -219s-125 -81 -215 -81s-161.667 27 -215 81s-80 127 -80 219zM295 770l95 145h150l-120 -145h-125z" />
    <glyph glyph-name="Ucircumflex" unicode="&#xdb;" horiz-adv-x="720" 
d="M65 290v410h160v-410c0 -42 13 -76.667 39 -104s58 -41 96 -41s70 13.667 96 41s39 62 39 104v410h160v-410c0 -92 -26.667 -165 -80 -219s-125 -81 -215 -81s-161.667 27 -215 81s-80 127 -80 219zM175 770l120 145h130l120 -145h-130l-55 65l-55 -65h-130z" />
    <glyph glyph-name="Udieresis" unicode="&#xdc;" horiz-adv-x="720" 
d="M65 290v410h160v-410c0 -42 13 -76.667 39 -104s58 -41 96 -41s70 13.667 96 41s39 62 39 104v410h160v-410c0 -92 -26.667 -165 -80 -219s-125 -81 -215 -81s-161.667 27 -215 81s-80 127 -80 219zM395 780v125h130v-125h-130zM195 780v125h130v-125h-130z" />
    <glyph glyph-name="Yacute" unicode="&#xdd;" horiz-adv-x="640" 
d="M240 0v225l-255 475h180l145 -280h20l145 280h180l-255 -475v-225h-160zM260 770l95 145h150l-120 -145h-125z" />
    <glyph glyph-name="Thorn" unicode="&#xde;" horiz-adv-x="715" 
d="M70 0v700h160v-120h215c72 0 129.167 -20.833 171.5 -62.5s63.5 -97.5 63.5 -167.5c0 -70.667 -21.167 -126.667 -63.5 -168s-99.5 -62 -171.5 -62h-215v-120h-160zM230 270h205c25.333 0 45.833 7.66699 61.5 23s23.5 34.333 23.5 57s-7.83301 41.667 -23.5 57
s-36.167 23 -61.5 23h-205v-160z" />
    <glyph glyph-name="germandbls" unicode="&#xdf;" horiz-adv-x="605" 
d="M60 0l-0.000976562 490c0 66.667 22 120 66 160s105.333 60 184 60c75.333 0 135 -19.167 179 -57.5s66 -85.833 66 -142.5c0 -46 -14.333 -84.667 -43 -116c-10.667 -12 -24.667 -21.667 -42 -29v-5c18.667 -9.33301 35.334 -21 50.001 -35
c33.333 -33.333 50 -75 50 -125c0 -60.667 -19.333 -109.167 -58 -145.5s-92.667 -54.5 -162 -54.5h-60v135h30c27.333 0 49.166 7.5 65.499 22.5s24.5 34.167 24.5 57.5s-8.16699 42.5 -24.5 57.5s-38.166 22.5 -65.499 22.5h-30v135h25c24.667 0 44.167 6.5 58.5 19.5
s21.5 29.833 21.5 50.5s-7.33301 37.5 -22 50.5s-35.667 19.5 -63 19.5c-60 0 -90 -26.667 -90 -80v-490h-160z" />
    <glyph glyph-name="agrave" unicode="&#xe0;" horiz-adv-x="565" 
d="M380 0l-10.002 44.999h-5c-8 -9.33301 -19.333 -18.666 -34 -27.999c-27.333 -18 -62.666 -27 -105.999 -27c-58.667 0 -105 15 -139 45s-51 68.333 -51 115c0 49.333 18 89.166 54 119.499s88 45.5 156 45.5h115v10c0 22.667 -7 40.834 -21 54.501
s-33.667 20.5 -59 20.5c-26 0 -47.333 -7.66699 -64 -23c-8 -8 -13.333 -15.333 -16 -22h-145c6 48 28.333 87.5 67 118.5s91.334 46.5 158.001 46.5c72.667 0 129.167 -17.667 169.5 -53s60.5 -82.333 60.5 -141v-326h-130zM359.998 204.999v10h-95
c-26.667 0 -46.667 -5 -60 -15s-20 -23.333 -20 -40c0 -16 6.16699 -29.167 18.5 -39.5s29.5 -15.5 51.5 -15.5c32 0 57.5 9.16699 76.5 27.5s28.5 42.5 28.5 72.5zM229.998 584.999l-120 145h150l95 -145h-125z" />
    <glyph glyph-name="aacute" unicode="&#xe1;" horiz-adv-x="565" 
d="M380 0l-10.002 44.999h-5c-8 -9.33301 -19.333 -18.666 -34 -27.999c-27.333 -18 -62.666 -27 -105.999 -27c-58.667 0 -105 15 -139 45s-51 68.333 -51 115c0 49.333 18 89.166 54 119.499s88 45.5 156 45.5h115v10c0 22.667 -7 40.834 -21 54.501
s-33.667 20.5 -59 20.5c-26 0 -47.333 -7.66699 -64 -23c-8 -8 -13.333 -15.333 -16 -22h-145c6 48 28.333 87.5 67 118.5s91.334 46.5 158.001 46.5c72.667 0 129.167 -17.667 169.5 -53s60.5 -82.333 60.5 -141v-326h-130zM359.998 204.999v10h-95
c-26.667 0 -46.667 -5 -60 -15s-20 -23.333 -20 -40c0 -16 6.16699 -29.167 18.5 -39.5s29.5 -15.5 51.5 -15.5c32 0 57.5 9.16699 76.5 27.5s28.5 42.5 28.5 72.5zM229.998 584.999l95 145h150l-120 -145h-125z" />
    <glyph glyph-name="acircumflex" unicode="&#xe2;" horiz-adv-x="565" 
d="M380 0l-10.002 44.999h-5c-8 -9.33301 -19.333 -18.666 -34 -27.999c-27.333 -18 -62.666 -27 -105.999 -27c-58.667 0 -105 15 -139 45s-51 68.333 -51 115c0 49.333 18 89.166 54 119.499s88 45.5 156 45.5h115v10c0 22.667 -7 40.834 -21 54.501
s-33.667 20.5 -59 20.5c-26 0 -47.333 -7.66699 -64 -23c-8 -8 -13.333 -15.333 -16 -22h-145c6 48 28.333 87.5 67 118.5s91.334 46.5 158.001 46.5c72.667 0 129.167 -17.667 169.5 -53s60.5 -82.333 60.5 -141v-326h-130zM359.998 204.999v10h-95
c-26.667 0 -46.667 -5 -60 -15s-20 -23.333 -20 -40c0 -16 6.16699 -29.167 18.5 -39.5s29.5 -15.5 51.5 -15.5c32 0 57.5 9.16699 76.5 27.5s28.5 42.5 28.5 72.5zM109.998 584.999l120 145h130l120 -145h-130l-55 65l-55 -65h-130z" />
    <glyph glyph-name="atilde" unicode="&#xe3;" horiz-adv-x="565" 
d="M380 0l-10.002 44.999h-5c-8 -9.33301 -19.333 -18.666 -34 -27.999c-27.333 -18 -62.666 -27 -105.999 -27c-58.667 0 -105 15 -139 45s-51 68.333 -51 115c0 49.333 18 89.166 54 119.499s88 45.5 156 45.5h115v10c0 22.667 -7 40.834 -21 54.501
s-33.667 20.5 -59 20.5c-26 0 -47.333 -7.66699 -64 -23c-8 -8 -13.333 -15.333 -16 -22h-145c6 48 28.333 87.5 67 118.5s91.334 46.5 158.001 46.5c72.667 0 129.167 -17.667 169.5 -53s60.5 -82.333 60.5 -141v-326h-130zM359.998 204.999v10h-95
c-26.667 0 -46.667 -5 -60 -15s-20 -23.333 -20 -40c0 -16 6.16699 -29.167 18.5 -39.5s29.5 -15.5 51.5 -15.5c32 0 57.5 9.16699 76.5 27.5s28.5 42.5 28.5 72.5zM219.998 589.999h-95c0 41.333 10 73.333 30 96s46.667 34 80 34c18.667 0 38 -5.83301 58 -17.5
s34 -17.5 42 -17.5c10 0 18.333 3.33301 25 10s10 15 10 25h95c0 -41.333 -10 -73.333 -30 -96s-46.667 -34 -80 -34c-18.667 0 -38 5.83301 -58 17.5s-34 17.5 -42 17.5c-10 0 -18.333 -3.33301 -25 -10s-10 -15 -10 -25z" />
    <glyph glyph-name="adieresis" unicode="&#xe4;" horiz-adv-x="565" 
d="M380 0l-10.002 44.999h-5c-8 -9.33301 -19.333 -18.666 -34 -27.999c-27.333 -18 -62.666 -27 -105.999 -27c-58.667 0 -105 15 -139 45s-51 68.333 -51 115c0 49.333 18 89.166 54 119.499s88 45.5 156 45.5h115v10c0 22.667 -7 40.834 -21 54.501
s-33.667 20.5 -59 20.5c-26 0 -47.333 -7.66699 -64 -23c-8 -8 -13.333 -15.333 -16 -22h-145c6 48 28.333 87.5 67 118.5s91.334 46.5 158.001 46.5c72.667 0 129.167 -17.667 169.5 -53s60.5 -82.333 60.5 -141v-326h-130zM359.998 204.999v10h-95
c-26.667 0 -46.667 -5 -60 -15s-20 -23.333 -20 -40c0 -16 6.16699 -29.167 18.5 -39.5s29.5 -15.5 51.5 -15.5c32 0 57.5 9.16699 76.5 27.5s28.5 42.5 28.5 72.5zM329.998 589.999v125h130v-125h-130zM129.998 589.999v125h130v-125h-130z" />
    <glyph glyph-name="aring" unicode="&#xe5;" horiz-adv-x="565" 
d="M380 0l-10.002 44.999h-5c-8 -9.33301 -19.333 -18.666 -34 -27.999c-27.333 -18 -62.666 -27 -105.999 -27c-58.667 0 -105 15 -139 45s-51 68.333 -51 115c0 49.333 18 89.166 54 119.499s88 45.5 156 45.5h115v10c0 22.667 -7 40.834 -21 54.501
s-33.667 20.5 -59 20.5c-26 0 -47.333 -7.66699 -64 -23c-8 -8 -13.333 -15.333 -16 -22h-145c6 48 28.333 87.5 67 118.5s91.334 46.5 158.001 46.5c72.667 0 129.167 -17.667 169.5 -53s60.5 -82.333 60.5 -141v-326h-130zM359.998 204.999v10h-95
c-26.667 0 -46.667 -5 -60 -15s-20 -23.333 -20 -40c0 -16 6.16699 -29.167 18.5 -39.5s29.5 -15.5 51.5 -15.5c32 0 57.5 9.16699 76.5 27.5s28.5 42.5 28.5 72.5zM184.998 664.999c0 30 10.333 55 31 75s47 30 79 30s58.333 -10 79 -30s31 -45 31 -75s-10.333 -55 -31 -75
s-47 -30 -79 -30s-58.333 10 -79 30s-31 45 -31 75zM294.998 629.999c10 0 18.333 3.33301 25 10s10 15 10 25s-3.33301 18.333 -10 25s-15 10 -25 10s-18.333 -3.33301 -25 -10s-10 -15 -10 -25s3.33301 -18.333 10 -25s15 -10 25 -10z" />
    <glyph glyph-name="ae" unicode="&#xe6;" horiz-adv-x="905" 
d="M200 355l-145 -0.000976562c6 48 27.667 87.5 65 118.5s87.333 46.5 150 46.5c52 0 96.667 -13.333 134 -40c16 -11.333 29.667 -24.666 41 -39.999c10.667 14 24.667 27.333 42 40c38.667 26.667 83 40 133 40c70 0 129.167 -24.5 177.5 -73.5s72.5 -109.5 72.5 -181.5
c0 -9.33301 -1 -22 -3 -38l-2 -12h-350c2.66699 -30 13.834 -55 33.501 -75s43.5 -30 71.5 -30c27.333 0 49.666 7.33301 66.999 22c8 8 14 15.667 18 23h150c-10.667 -32 -26 -59.667 -46 -83c-46.667 -54.667 -109.667 -82 -189 -82c-54.667 0 -102.667 14 -144 42
c-18 12 -33.333 26.333 -46 43c-12.667 -16.667 -28.667 -31 -48 -43c-44 -28 -96.333 -42 -157 -42c-58.667 0 -105 15 -139 45s-51 68.333 -51 115c0 49.333 18 89.166 54 119.499s88 45.5 156 45.5h115v10c0 22.667 -7 40.834 -21 54.501s-33.667 20.5 -59 20.5
c-26 0 -47.333 -7.66699 -64 -23c-8 -8 -13.333 -15.333 -16 -22zM360 204.999v10h-95c-26.667 0 -46.667 -5 -60 -15s-20 -23.333 -20 -40c0 -16 6.16699 -29.167 18.5 -39.5s29.5 -15.5 51.5 -15.5c32 0 57.5 9.16699 76.5 27.5s28.5 42.5 28.5 72.5zM515 304.999h209.998
c-7.33301 32 -20.166 56.667 -38.499 74s-40.5 26 -66.5 26s-48.167 -8.66699 -66.5 -26s-31.166 -42 -38.499 -74z" />
    <glyph glyph-name="ccedilla" unicode="&#xe7;" horiz-adv-x="585" 
d="M220 -235l-0.000976562 85h45c26.667 0 40 10 40 30s-13.333 30 -40 30h-30v40l19 43c-65.333 9.33301 -118.166 38.166 -158.499 86.499s-60.5 106.833 -60.5 175.5c0 77.333 24.833 140.833 74.5 190.5s113.167 74.5 190.5 74.5c89.333 0 160 -35 212 -105
c22 -32.667 36.333 -67.667 43 -105h-155c-5.33301 13.333 -12 25 -20 35c-20.667 23.333 -47.334 35 -80.001 35c-33.333 0 -60.833 -11.5 -82.5 -34.5s-32.5 -53.167 -32.5 -90.5s10.833 -67.5 32.5 -90.5s49.167 -34.5 82.5 -34.5c34.667 0 61.334 11.667 80.001 35
c7.33301 8.66699 14 20.334 20 35.001h155c-6 -34.667 -17.333 -65 -34 -91c-38.667 -62.667 -94 -100.667 -166 -114l-15 -40c12 -2.66699 23.667 -7.66699 35 -15c23.333 -18 35 -43 35 -75c0 -28.667 -11.167 -52.5 -33.5 -71.5s-52.833 -28.5 -91.5 -28.5h-65z" />
    <glyph glyph-name="egrave" unicode="&#xe8;" horiz-adv-x="595" 
d="M395 155l149.999 0.00195312c-12 -31.333 -29 -59 -51 -83c-52 -54.667 -116.667 -82 -194 -82s-140.833 24.833 -190.5 74.5s-74.5 113.167 -74.5 190.5s24.833 140.833 74.5 190.5s113.167 74.5 190.5 74.5c74.667 0 136.667 -24.333 186 -73s74 -109.334 74 -182.001
c0 -9.33301 -1 -22 -3 -38l-2 -12h-370c2.66699 -30.667 14.5 -55.834 35.5 -75.501s47.5 -29.5 79.5 -29.5c26.667 0 50.667 7.33301 72 22c10.667 8 18.334 15.667 23.001 23zM184.999 305.002h230c-14.667 66.667 -53 100 -115 100s-100.333 -33.333 -115 -100z
M234.999 585.002l-120 145h150l95 -145h-125z" />
    <glyph glyph-name="eacute" unicode="&#xe9;" horiz-adv-x="595" 
d="M395 155l149.999 0.00195312c-12 -31.333 -29 -59 -51 -83c-52 -54.667 -116.667 -82 -194 -82s-140.833 24.833 -190.5 74.5s-74.5 113.167 -74.5 190.5s24.833 140.833 74.5 190.5s113.167 74.5 190.5 74.5c74.667 0 136.667 -24.333 186 -73s74 -109.334 74 -182.001
c0 -9.33301 -1 -22 -3 -38l-2 -12h-370c2.66699 -30.667 14.5 -55.834 35.5 -75.501s47.5 -29.5 79.5 -29.5c26.667 0 50.667 7.33301 72 22c10.667 8 18.334 15.667 23.001 23zM184.999 305.002h230c-14.667 66.667 -53 100 -115 100s-100.333 -33.333 -115 -100z
M234.999 585.002l95 145h150l-120 -145h-125z" />
    <glyph glyph-name="ecircumflex" unicode="&#xea;" horiz-adv-x="595" 
d="M395 155l149.999 0.00195312c-12 -31.333 -29 -59 -51 -83c-52 -54.667 -116.667 -82 -194 -82s-140.833 24.833 -190.5 74.5s-74.5 113.167 -74.5 190.5s24.833 140.833 74.5 190.5s113.167 74.5 190.5 74.5c74.667 0 136.667 -24.333 186 -73s74 -109.334 74 -182.001
c0 -9.33301 -1 -22 -3 -38l-2 -12h-370c2.66699 -30.667 14.5 -55.834 35.5 -75.501s47.5 -29.5 79.5 -29.5c26.667 0 50.667 7.33301 72 22c10.667 8 18.334 15.667 23.001 23zM184.999 305.002h230c-14.667 66.667 -53 100 -115 100s-100.333 -33.333 -115 -100z
M109.999 585.002l120 145h130l120 -145h-130l-55 65l-55 -65h-130z" />
    <glyph glyph-name="edieresis" unicode="&#xeb;" horiz-adv-x="595" 
d="M395 155l149.999 0.00195312c-12 -31.333 -29 -59 -51 -83c-52 -54.667 -116.667 -82 -194 -82s-140.833 24.833 -190.5 74.5s-74.5 113.167 -74.5 190.5s24.833 140.833 74.5 190.5s113.167 74.5 190.5 74.5c74.667 0 136.667 -24.333 186 -73s74 -109.334 74 -182.001
c0 -9.33301 -1 -22 -3 -38l-2 -12h-370c2.66699 -30.667 14.5 -55.834 35.5 -75.501s47.5 -29.5 79.5 -29.5c26.667 0 50.667 7.33301 72 22c10.667 8 18.334 15.667 23.001 23zM184.999 305.002h230c-14.667 66.667 -53 100 -115 100s-100.333 -33.333 -115 -100z
M329.999 590.002v125h130v-125h-130zM129.999 590.002v125h130v-125h-130z" />
    <glyph glyph-name="igrave" unicode="&#xec;" horiz-adv-x="270" 
d="M60 0v510h150v-510h-150zM70 585l-120 145h150l95 -145h-125z" />
    <glyph glyph-name="iacute" unicode="&#xed;" horiz-adv-x="270" 
d="M60 0v510h150v-510h-150zM75 585l95 145h150l-120 -145h-125z" />
    <glyph glyph-name="icircumflex" unicode="&#xee;" horiz-adv-x="270" 
d="M60 0v510h150v-510h-150zM-50 585l120 145h130l120 -145h-130l-55 65l-55 -65h-130z" />
    <glyph glyph-name="idieresis" unicode="&#xef;" horiz-adv-x="270" 
d="M60 0v510h150v-510h-150zM170 590v125h130v-125h-130zM-30 590v125h130v-125h-130z" />
    <glyph glyph-name="eth" unicode="&#xf0;" horiz-adv-x="600" 
d="M185 490l-50 74.999l100 50c-7.33301 6 -18.333 14.333 -33 25c-17.333 13.333 -39.666 26.666 -66.999 39.999l100 50c29.333 -16 51 -29.333 65 -40c16 -10.667 27.667 -19 35 -25l120 60l50 -75l-95 -50c26.667 -24 51.667 -53.333 75 -88c50 -77.333 75 -158 75 -242
c0 -84.667 -24.833 -152.5 -74.5 -203.5s-114.834 -76.5 -195.501 -76.5c-72 0 -132.5 23.5 -181.5 70.5s-73.5 103.5 -73.5 169.5c0 68 21.667 123.333 65 166s100 64 170 64c32.667 0 65 -7.66699 97 -23c14 -7.33301 25 -14.666 33 -21.999h5
c-10.667 28.667 -29.667 60.667 -57 96c-12 14.667 -24.667 29.334 -38 44.001zM190 229.999c0 -28 10 -51.667 30 -71s45 -29 75 -29s55 9.66699 75 29s30 43 30 71s-10 51.667 -30 71s-45 29 -75 29s-55 -9.66699 -75 -29s-30 -43 -30 -71z" />
    <glyph glyph-name="ntilde" unicode="&#xf1;" horiz-adv-x="605" 
d="M60 0v510h130l10 -45h5c8 9.33301 19.333 18.333 34 27c28.667 18.667 64 28 106 28c60 0 109.167 -19.5 147.5 -58.5s57.5 -89.5 57.5 -151.5v-310h-150v280c0 28 -8.83301 50.833 -26.5 68.5s-40.5 26.5 -68.5 26.5s-50.833 -8.83301 -68.5 -26.5
s-26.5 -40.5 -26.5 -68.5v-280h-150zM230 590h-95c0 41.333 10 73.333 30 96s46.667 34 80 34c18.667 0 38 -5.83301 58 -17.5s34 -17.5 42 -17.5c10 0 18.333 3.33301 25 10s10 15 10 25h95c0 -41.333 -10 -73.333 -30 -96s-46.667 -34 -80 -34
c-18.667 0 -38 5.83301 -58 17.5s-34 17.5 -42 17.5c-10 0 -18.333 -3.33301 -25 -10s-10 -15 -10 -25z" />
    <glyph glyph-name="ograve" unicode="&#xf2;" horiz-adv-x="600" 
d="M300 -10c-77.333 0 -140.833 24.833 -190.5 74.5s-74.5 113.167 -74.5 190.5s24.833 140.833 74.5 190.5s113.167 74.5 190.5 74.5s140.833 -24.833 190.5 -74.5s74.5 -113.167 74.5 -190.5s-24.833 -140.833 -74.5 -190.5s-113.167 -74.5 -190.5 -74.5zM300 130
c33.333 0 60.833 11.5 82.5 34.5s32.5 53.167 32.5 90.5s-10.833 67.5 -32.5 90.5s-49.167 34.5 -82.5 34.5s-60.833 -11.5 -82.5 -34.5s-32.5 -53.167 -32.5 -90.5s10.833 -67.5 32.5 -90.5s49.167 -34.5 82.5 -34.5zM240 585l-120 145h150l95 -145h-125z" />
    <glyph glyph-name="oacute" unicode="&#xf3;" horiz-adv-x="600" 
d="M300 -10c-77.333 0 -140.833 24.833 -190.5 74.5s-74.5 113.167 -74.5 190.5s24.833 140.833 74.5 190.5s113.167 74.5 190.5 74.5s140.833 -24.833 190.5 -74.5s74.5 -113.167 74.5 -190.5s-24.833 -140.833 -74.5 -190.5s-113.167 -74.5 -190.5 -74.5zM300 130
c33.333 0 60.833 11.5 82.5 34.5s32.5 53.167 32.5 90.5s-10.833 67.5 -32.5 90.5s-49.167 34.5 -82.5 34.5s-60.833 -11.5 -82.5 -34.5s-32.5 -53.167 -32.5 -90.5s10.833 -67.5 32.5 -90.5s49.167 -34.5 82.5 -34.5zM240 585l95 145h150l-120 -145h-125z" />
    <glyph glyph-name="ocircumflex" unicode="&#xf4;" horiz-adv-x="600" 
d="M300 -10c-77.333 0 -140.833 24.833 -190.5 74.5s-74.5 113.167 -74.5 190.5s24.833 140.833 74.5 190.5s113.167 74.5 190.5 74.5s140.833 -24.833 190.5 -74.5s74.5 -113.167 74.5 -190.5s-24.833 -140.833 -74.5 -190.5s-113.167 -74.5 -190.5 -74.5zM300 130
c33.333 0 60.833 11.5 82.5 34.5s32.5 53.167 32.5 90.5s-10.833 67.5 -32.5 90.5s-49.167 34.5 -82.5 34.5s-60.833 -11.5 -82.5 -34.5s-32.5 -53.167 -32.5 -90.5s10.833 -67.5 32.5 -90.5s49.167 -34.5 82.5 -34.5zM115 585l120 145h130l120 -145h-130l-55 65l-55 -65
h-130z" />
    <glyph glyph-name="otilde" unicode="&#xf5;" horiz-adv-x="600" 
d="M300 -10c-77.333 0 -140.833 24.833 -190.5 74.5s-74.5 113.167 -74.5 190.5s24.833 140.833 74.5 190.5s113.167 74.5 190.5 74.5s140.833 -24.833 190.5 -74.5s74.5 -113.167 74.5 -190.5s-24.833 -140.833 -74.5 -190.5s-113.167 -74.5 -190.5 -74.5zM300 130
c33.333 0 60.833 11.5 82.5 34.5s32.5 53.167 32.5 90.5s-10.833 67.5 -32.5 90.5s-49.167 34.5 -82.5 34.5s-60.833 -11.5 -82.5 -34.5s-32.5 -53.167 -32.5 -90.5s10.833 -67.5 32.5 -90.5s49.167 -34.5 82.5 -34.5zM225 590h-95c0 41.333 10 73.333 30 96
s46.667 34 80 34c18.667 0 38 -5.83301 58 -17.5s34 -17.5 42 -17.5c10 0 18.333 3.33301 25 10s10 15 10 25h95c0 -41.333 -10 -73.333 -30 -96s-46.667 -34 -80 -34c-18.667 0 -38 5.83301 -58 17.5s-34 17.5 -42 17.5c-10 0 -18.333 -3.33301 -25 -10s-10 -15 -10 -25z
" />
    <glyph glyph-name="odieresis" unicode="&#xf6;" horiz-adv-x="600" 
d="M300 -10c-77.333 0 -140.833 24.833 -190.5 74.5s-74.5 113.167 -74.5 190.5s24.833 140.833 74.5 190.5s113.167 74.5 190.5 74.5s140.833 -24.833 190.5 -74.5s74.5 -113.167 74.5 -190.5s-24.833 -140.833 -74.5 -190.5s-113.167 -74.5 -190.5 -74.5zM300 130
c33.333 0 60.833 11.5 82.5 34.5s32.5 53.167 32.5 90.5s-10.833 67.5 -32.5 90.5s-49.167 34.5 -82.5 34.5s-60.833 -11.5 -82.5 -34.5s-32.5 -53.167 -32.5 -90.5s10.833 -67.5 32.5 -90.5s49.167 -34.5 82.5 -34.5zM335 590v125h130v-125h-130zM135 590v125h130v-125
h-130z" />
    <glyph glyph-name="divide" unicode="&#xf7;" horiz-adv-x="550" 
d="M205 105c0 20 6.66699 36.667 20 50s30 20 50 20s36.667 -6.66699 50 -20s20 -30 20 -50s-6.66699 -36.667 -20 -50s-30 -20 -50 -20s-36.667 6.66699 -50 20s-20 30 -20 50zM55 225v130h440v-130h-440zM205 475c0 20 6.66699 36.667 20 50s30 20 50 20
s36.667 -6.66699 50 -20s20 -30 20 -50s-6.66699 -36.667 -20 -50s-30 -20 -50 -20s-36.667 6.66699 -50 20s-20 30 -20 50z" />
    <glyph glyph-name="oslash" unicode="&#xf8;" horiz-adv-x="600" 
d="M80 -35l45 84.999c-16.667 12.667 -31.667 29.334 -45 50.001c-30 45.333 -45 97 -45 155c0 77.333 24.833 140.833 74.5 190.5s113.167 74.5 190.5 74.5c22.667 0 41.334 -1.66699 56.001 -5l19 -5l20 35h125l-45 -85c16.667 -12.667 31.667 -29.334 45 -50.001
c30 -45.333 45 -97 45 -155c0 -77.333 -24.833 -140.833 -74.5 -190.5s-113.167 -74.5 -190.5 -74.5c-22.667 0 -41.334 1.66699 -56.001 5c-6.66699 0.666992 -13 2.33398 -19 5.00098l-20 -35h-125zM190 169.999l125 229.999h-15c-38 0 -70 -13.667 -96 -41
s-39 -62 -39 -104c0 -24.667 4 -45.667 12 -63c2 -5.33301 6.33301 -12.666 13 -21.999zM285 109.998l15 0.000976562c38 0 70 13.667 96 41s39 62 39 104c0 23.333 -4.33301 44.333 -13 63c-2.66699 7.33301 -6.66699 14.666 -12 21.999z" />
    <glyph glyph-name="ugrave" unicode="&#xf9;" horiz-adv-x="610" 
d="M60 200l-0.000976562 309.999h150v-280c0 -28 8.83301 -50.833 26.5 -68.5s40.5 -26.5 68.5 -26.5s50.833 8.83301 68.5 26.5s26.5 40.5 26.5 68.5v280h150v-510h-130l-10 45h-5c-8 -9.33301 -19.333 -18.666 -34 -27.999c-27.333 -18 -62.666 -27 -105.999 -27
c-60 0 -109.167 19.5 -147.5 58.5s-57.5 89.5 -57.5 151.5zM244.999 584.999l-120 145h150l95 -145h-125z" />
    <glyph glyph-name="uacute" unicode="&#xfa;" horiz-adv-x="610" 
d="M60 200l-0.000976562 309.999h150v-280c0 -28 8.83301 -50.833 26.5 -68.5s40.5 -26.5 68.5 -26.5s50.833 8.83301 68.5 26.5s26.5 40.5 26.5 68.5v280h150v-510h-130l-10 45h-5c-8 -9.33301 -19.333 -18.666 -34 -27.999c-27.333 -18 -62.666 -27 -105.999 -27
c-60 0 -109.167 19.5 -147.5 58.5s-57.5 89.5 -57.5 151.5zM239.999 584.999l95 145h150l-120 -145h-125z" />
    <glyph glyph-name="ucircumflex" unicode="&#xfb;" horiz-adv-x="610" 
d="M60 200l-0.000976562 309.999h150v-280c0 -28 8.83301 -50.833 26.5 -68.5s40.5 -26.5 68.5 -26.5s50.833 8.83301 68.5 26.5s26.5 40.5 26.5 68.5v280h150v-510h-130l-10 45h-5c-8 -9.33301 -19.333 -18.666 -34 -27.999c-27.333 -18 -62.666 -27 -105.999 -27
c-60 0 -109.167 19.5 -147.5 58.5s-57.5 89.5 -57.5 151.5zM119.999 584.999l120 145h130l120 -145h-130l-55 65l-55 -65h-130z" />
    <glyph glyph-name="udieresis" unicode="&#xfc;" horiz-adv-x="610" 
d="M60 200l-0.000976562 309.999h150v-280c0 -28 8.83301 -50.833 26.5 -68.5s40.5 -26.5 68.5 -26.5s50.833 8.83301 68.5 26.5s26.5 40.5 26.5 68.5v280h150v-510h-130l-10 45h-5c-8 -9.33301 -19.333 -18.666 -34 -27.999c-27.333 -18 -62.666 -27 -105.999 -27
c-60 0 -109.167 19.5 -147.5 58.5s-57.5 89.5 -57.5 151.5zM339.999 589.999v125h130v-125h-130zM139.999 589.999v125h130v-125h-130z" />
    <glyph glyph-name="yacute" unicode="&#xfd;" horiz-adv-x="550" 
d="M60 -200v140h100c20 0 31.667 6.66699 35 20l5 15l-205 535h160l120 -320h20l100 320h160l-210 -590c-15.333 -44 -35.333 -75 -60 -93s-64.667 -27 -120 -27h-105zM210 585l95 145h150l-120 -145h-125z" />
    <glyph glyph-name="thorn" unicode="&#xfe;" horiz-adv-x="630" 
d="M65 -200v900.002h150v-230h5c11.333 11.333 21.666 19.666 30.999 24.999c29.333 16.667 62.333 25 99 25c68.667 0 126.667 -25 174 -75s71 -113.333 71 -190s-23.667 -140 -71 -190s-105.333 -75 -174 -75c-39.333 0 -72.333 8.33301 -99 25
c-9.33301 5.33301 -19.666 13.666 -30.999 24.999h-5v-240h-150zM330 130.002c33.333 0 60.833 11.5 82.5 34.5s32.5 53.167 32.5 90.5s-10.833 67.5 -32.5 90.5s-49.167 34.5 -82.5 34.5s-60.833 -11.5 -82.5 -34.5s-32.5 -53.167 -32.5 -90.5s10.833 -67.5 32.5 -90.5
s49.167 -34.5 82.5 -34.5z" />
    <glyph glyph-name="ydieresis" unicode="&#xff;" horiz-adv-x="550" 
d="M60 -200v140h100c20 0 31.667 6.66699 35 20l5 15l-205 535h160l120 -320h20l100 320h160l-210 -590c-15.333 -44 -35.333 -75 -60 -93s-64.667 -27 -120 -27h-105zM310 590v125h130v-125h-130zM110 590v125h130v-125h-130z" />
    <glyph glyph-name="Amacron" unicode="&#x100;" horiz-adv-x="700" 
d="M-5 0l240 700h230l240 -700h-175l-45 140h-270l-45 -140h-175zM260 280h180l-80 250h-20zM185 790v105h330v-105h-330z" />
    <glyph glyph-name="amacron" unicode="&#x101;" horiz-adv-x="565" 
d="M380 0l-10.002 44.999h-5c-8 -9.33301 -19.333 -18.666 -34 -27.999c-27.333 -18 -62.666 -27 -105.999 -27c-58.667 0 -105 15 -139 45s-51 68.333 -51 115c0 49.333 18 89.166 54 119.499s88 45.5 156 45.5h115v10c0 22.667 -7 40.834 -21 54.501
s-33.667 20.5 -59 20.5c-26 0 -47.333 -7.66699 -64 -23c-8 -8 -13.333 -15.333 -16 -22h-145c6 48 28.333 87.5 67 118.5s91.334 46.5 158.001 46.5c72.667 0 129.167 -17.667 169.5 -53s60.5 -82.333 60.5 -141v-326h-130zM359.998 204.999v10h-95
c-26.667 0 -46.667 -5 -60 -15s-20 -23.333 -20 -40c0 -16 6.16699 -29.167 18.5 -39.5s29.5 -15.5 51.5 -15.5c32 0 57.5 9.16699 76.5 27.5s28.5 42.5 28.5 72.5zM129.998 604.999v105h330v-105h-330z" />
    <glyph glyph-name="Abreve" unicode="&#x102;" horiz-adv-x="700" 
d="M-5 0l240 700h230l240 -700h-175l-45 140h-270l-45 -140h-175zM260 280h180l-80 250h-20zM185 915h110.002c5.33301 -33.333 23.666 -50 54.999 -50s49.666 16.667 54.999 50h110c-2.66699 -43.333 -18.5 -78.333 -47.5 -105s-68.167 -40 -117.5 -40
s-88.5 13.333 -117.5 40s-44.833 61.667 -47.5 105z" />
    <glyph glyph-name="abreve" unicode="&#x103;" horiz-adv-x="565" 
d="M380 0l-10.002 44.999h-5c-8 -9.33301 -19.333 -18.666 -34 -27.999c-27.333 -18 -62.666 -27 -105.999 -27c-58.667 0 -105 15 -139 45s-51 68.333 -51 115c0 49.333 18 89.166 54 119.499s88 45.5 156 45.5h115v10c0 22.667 -7 40.834 -21 54.501
s-33.667 20.5 -59 20.5c-26 0 -47.333 -7.66699 -64 -23c-8 -8 -13.333 -15.333 -16 -22h-145c6 48 28.333 87.5 67 118.5s91.334 46.5 158.001 46.5c72.667 0 129.167 -17.667 169.5 -53s60.5 -82.333 60.5 -141v-326h-130zM359.998 204.999v10h-95
c-26.667 0 -46.667 -5 -60 -15s-20 -23.333 -20 -40c0 -16 6.16699 -29.167 18.5 -39.5s29.5 -15.5 51.5 -15.5c32 0 57.5 9.16699 76.5 27.5s28.5 42.5 28.5 72.5zM129.998 724.999h110.002c5.33301 -33.333 23.666 -50 54.999 -50s49.666 16.667 54.999 50h110
c-2.66699 -43.333 -18.5 -78.333 -47.5 -105s-68.167 -40 -117.5 -40s-88.5 13.333 -117.5 40s-44.833 61.667 -47.5 105z" />
    <glyph glyph-name="Aogonek" unicode="&#x104;" horiz-adv-x="700" 
d="M-5 0l240 700.001h230l240 -700h-51c-2.66699 0 -8.66699 -1.83301 -18 -5.5s-19.333 -10.5 -30 -20.5s-16 -21.333 -16 -34c0 -23.333 15 -35 45 -35h20v-85h-40c-93.333 0 -140 33.333 -140 100c0 25.333 9 45.666 27 60.999c10 8.66699 19.333 15 28 19l-45 140h-270
l-45 -140h-175zM260 280.001h180l-80 250h-20z" />
    <glyph glyph-name="aogonek" unicode="&#x105;" horiz-adv-x="565" 
d="M510 -180l-40.002 -0.000976562c-93.333 0 -140 33.333 -140 100c0 31.333 18.333 58 55 80h-5l-10 45h-5c-8 -9.33301 -19.333 -18.666 -34 -27.999c-27.333 -18 -62.666 -27 -105.999 -27c-58.667 0 -105 15 -139 45s-51 68.333 -51 115c0 49.333 18 89.166 54 119.499
s88 45.5 156 45.5h115v10c0 22.667 -7 40.834 -21 54.501s-33.667 20.5 -59 20.5c-26 0 -47.333 -7.66699 -64 -23c-8 -8 -13.333 -15.333 -16 -22h-145c6 48 28.333 87.5 67 118.5s91.334 46.5 158.001 46.5c72.667 0 129.167 -17.667 169.5 -53s60.5 -82.333 60.5 -141
v-326c-43.333 -13.333 -65 -33.333 -65 -60c0 -23.333 15 -35 45 -35h20v-85zM359.998 204.999v10h-95c-26.667 0 -46.667 -5 -60 -15s-20 -23.333 -20 -40c0 -16 6.16699 -29.167 18.5 -39.5s29.5 -15.5 51.5 -15.5c32 0 57.5 9.16699 76.5 27.5s28.5 42.5 28.5 72.5z" />
    <glyph glyph-name="Cacute" unicode="&#x106;" horiz-adv-x="730" 
d="M540 265h159.999c-10.667 -51.333 -29.667 -97.333 -57 -138c-59.333 -91.333 -147 -137 -263 -137c-96 0 -176.667 34 -242 102s-98 154 -98 258s32.667 190 98 258s146 102 242 102c113.333 0 200.333 -45 261 -135c26 -38.667 45.667 -83.667 59 -135h-160
c-7.33301 22 -17.666 41 -30.999 57c-32 38.667 -75 58 -129 58c-51.333 0 -94.166 -18.833 -128.499 -56.5s-51.5 -87.167 -51.5 -148.5s17.167 -110.833 51.5 -148.5s77.166 -56.5 128.499 -56.5c57.333 0 101 20 131 60c13.333 17.333 23 37.333 29 60zM309.999 770
l95 145h150l-120 -145h-125z" />
    <glyph glyph-name="cacute" unicode="&#x107;" horiz-adv-x="585" 
d="M400 200l155.001 -0.000976562c-6.66699 -37.333 -21 -72.333 -43 -105c-48.667 -70 -119.334 -105 -212.001 -105c-77.333 0 -140.833 24.833 -190.5 74.5s-74.5 113.167 -74.5 190.5s24.833 140.833 74.5 190.5s113.167 74.5 190.5 74.5c89.333 0 160 -35 212 -105
c22 -32.667 36.333 -67.667 43 -105h-155c-5.33301 13.333 -12 25 -20 35c-20.667 23.333 -47.334 35 -80.001 35c-33.333 0 -60.833 -11.5 -82.5 -34.5s-32.5 -53.167 -32.5 -90.5s10.833 -67.5 32.5 -90.5s49.167 -34.5 82.5 -34.5c34.667 0 61.334 11.667 80.001 35
c7.33301 8.66699 14 20.334 20 35.001zM235.001 584.999l95 145h150l-120 -145h-125z" />
    <glyph glyph-name="Ccircumflex" unicode="&#x108;" horiz-adv-x="730" 
d="M540 265h159.999c-10.667 -51.333 -29.667 -97.333 -57 -138c-59.333 -91.333 -147 -137 -263 -137c-96 0 -176.667 34 -242 102s-98 154 -98 258s32.667 190 98 258s146 102 242 102c113.333 0 200.333 -45 261 -135c26 -38.667 45.667 -83.667 59 -135h-160
c-7.33301 22 -17.666 41 -30.999 57c-32 38.667 -75 58 -129 58c-51.333 0 -94.166 -18.833 -128.499 -56.5s-51.5 -87.167 -51.5 -148.5s17.167 -110.833 51.5 -148.5s77.166 -56.5 128.499 -56.5c57.333 0 101 20 131 60c13.333 17.333 23 37.333 29 60zM184.999 770
l120 145h130l120 -145h-130l-55 65l-55 -65h-130z" />
    <glyph glyph-name="ccircumflex" unicode="&#x109;" horiz-adv-x="585" 
d="M400 200l155.001 -0.000976562c-6.66699 -37.333 -21 -72.333 -43 -105c-48.667 -70 -119.334 -105 -212.001 -105c-77.333 0 -140.833 24.833 -190.5 74.5s-74.5 113.167 -74.5 190.5s24.833 140.833 74.5 190.5s113.167 74.5 190.5 74.5c89.333 0 160 -35 212 -105
c22 -32.667 36.333 -67.667 43 -105h-155c-5.33301 13.333 -12 25 -20 35c-20.667 23.333 -47.334 35 -80.001 35c-33.333 0 -60.833 -11.5 -82.5 -34.5s-32.5 -53.167 -32.5 -90.5s10.833 -67.5 32.5 -90.5s49.167 -34.5 82.5 -34.5c34.667 0 61.334 11.667 80.001 35
c7.33301 8.66699 14 20.334 20 35.001zM110.001 584.999l120 145h130l120 -145h-130l-55 65l-55 -65h-130z" />
    <glyph glyph-name="Cdotaccent" unicode="&#x10a;" horiz-adv-x="730" 
d="M540 265h159.999c-10.667 -51.333 -29.667 -97.333 -57 -138c-59.333 -91.333 -147 -137 -263 -137c-96 0 -176.667 34 -242 102s-98 154 -98 258s32.667 190 98 258s146 102 242 102c113.333 0 200.333 -45 261 -135c26 -38.667 45.667 -83.667 59 -135h-160
c-7.33301 22 -17.666 41 -30.999 57c-32 38.667 -75 58 -129 58c-51.333 0 -94.166 -18.833 -128.499 -56.5s-51.5 -87.167 -51.5 -148.5s17.167 -110.833 51.5 -148.5s77.166 -56.5 128.499 -56.5c57.333 0 101 20 131 60c13.333 17.333 23 37.333 29 60zM304.999 780v125
h130v-125h-130z" />
    <glyph glyph-name="cdotaccent" unicode="&#x10b;" horiz-adv-x="585" 
d="M400 200l155.001 -0.000976562c-6.66699 -37.333 -21 -72.333 -43 -105c-48.667 -70 -119.334 -105 -212.001 -105c-77.333 0 -140.833 24.833 -190.5 74.5s-74.5 113.167 -74.5 190.5s24.833 140.833 74.5 190.5s113.167 74.5 190.5 74.5c89.333 0 160 -35 212 -105
c22 -32.667 36.333 -67.667 43 -105h-155c-5.33301 13.333 -12 25 -20 35c-20.667 23.333 -47.334 35 -80.001 35c-33.333 0 -60.833 -11.5 -82.5 -34.5s-32.5 -53.167 -32.5 -90.5s10.833 -67.5 32.5 -90.5s49.167 -34.5 82.5 -34.5c34.667 0 61.334 11.667 80.001 35
c7.33301 8.66699 14 20.334 20 35.001zM230.001 589.999v125h130v-125h-130z" />
    <glyph glyph-name="Ccaron" unicode="&#x10c;" horiz-adv-x="730" 
d="M540 265h159.999c-10.667 -51.333 -29.667 -97.333 -57 -138c-59.333 -91.333 -147 -137 -263 -137c-96 0 -176.667 34 -242 102s-98 154 -98 258s32.667 190 98 258s146 102 242 102c113.333 0 200.333 -45 261 -135c26 -38.667 45.667 -83.667 59 -135h-160
c-7.33301 22 -17.666 41 -30.999 57c-32 38.667 -75 58 -129 58c-51.333 0 -94.166 -18.833 -128.499 -56.5s-51.5 -87.167 -51.5 -148.5s17.167 -110.833 51.5 -148.5s77.166 -56.5 128.499 -56.5c57.333 0 101 20 131 60c13.333 17.333 23 37.333 29 60zM304.999 770
l-120 145h130l55 -65l55 65h130l-120 -145h-130z" />
    <glyph glyph-name="ccaron" unicode="&#x10d;" horiz-adv-x="585" 
d="M400 200l155.001 -0.000976562c-6.66699 -37.333 -21 -72.333 -43 -105c-48.667 -70 -119.334 -105 -212.001 -105c-77.333 0 -140.833 24.833 -190.5 74.5s-74.5 113.167 -74.5 190.5s24.833 140.833 74.5 190.5s113.167 74.5 190.5 74.5c89.333 0 160 -35 212 -105
c22 -32.667 36.333 -67.667 43 -105h-155c-5.33301 13.333 -12 25 -20 35c-20.667 23.333 -47.334 35 -80.001 35c-33.333 0 -60.833 -11.5 -82.5 -34.5s-32.5 -53.167 -32.5 -90.5s10.833 -67.5 32.5 -90.5s49.167 -34.5 82.5 -34.5c34.667 0 61.334 11.667 80.001 35
c7.33301 8.66699 14 20.334 20 35.001zM230.001 584.999l-120 145h130l55 -65l55 65h130l-120 -145h-130z" />
    <glyph glyph-name="Dcaron" unicode="&#x10e;" horiz-adv-x="710" 
d="M70 0v700h260c95.333 0 175.833 -33.5 241.5 -100.5s98.5 -150.167 98.5 -249.5s-32.833 -182.5 -98.5 -249.5s-146.167 -100.5 -241.5 -100.5h-260zM230 155l100 -0.00195312c50.667 0 93.334 18.333 128.001 55s52 83.334 52 140.001s-17.333 103.334 -52 140.001
s-77.334 55 -128.001 55h-100v-390zM295 769.998l-120 145h130l55 -65l55 65h130l-120 -145h-130z" />
    <glyph glyph-name="dcaron" unicode="&#x10f;" horiz-adv-x="750" 
d="M435 0l-9.99805 49.999h-5c-9.33301 -10.667 -20.333 -20.667 -33 -30c-30.667 -20 -66.334 -30 -107.001 -30c-68.667 0 -126.667 25 -174 75s-71 113.333 -71 190s23.667 140 71 190s105.333 75 174 75c36.667 0 69.667 -8.33301 99 -25
c9.33301 -5.33301 19.666 -13.666 30.999 -24.999h5v230h150v-700h-130zM300.002 129.999c33.333 0 60.833 11.5 82.5 34.5s32.5 53.167 32.5 90.5s-10.833 67.5 -32.5 90.5s-49.167 34.5 -82.5 34.5s-60.833 -11.5 -82.5 -34.5s-32.5 -53.167 -32.5 -90.5
s10.833 -67.5 32.5 -90.5s49.167 -34.5 82.5 -34.5zM600.002 529.999l40 170h140l-65 -170h-115z" />
    <glyph glyph-name="Dcroat" unicode="&#x110;" horiz-adv-x="735" 
d="M95 0v285h-80v130h80v285h260c95.333 0 175.833 -33.5 241.5 -100.5s98.5 -150.167 98.5 -249.5s-32.833 -182.5 -98.5 -249.5s-146.167 -100.5 -241.5 -100.5h-260zM255 155l100 -0.00195312c50.667 0 93.334 18.333 128.001 55s52 83.334 52 140.001
s-17.333 103.334 -52 140.001s-77.334 55 -128.001 55h-100v-130h130v-130h-130v-130z" />
    <glyph glyph-name="dslash" unicode="&#x111;" horiz-adv-x="620" 
d="M420 0l-9.99902 44.999h-5c-8.66699 -10 -19.667 -19.333 -33 -28c-27.333 -18 -63 -27 -107 -27c-68 0 -124.167 22.167 -168.5 66.5s-66.5 100.5 -66.5 168.5s22.167 124.167 66.5 168.5s100.5 66.5 168.5 66.5c36.667 0 69.667 -8.33301 99 -25
c9.33301 -5.33301 19.666 -13.666 30.999 -24.999h5v105h-160v125h160v70h150v-70h75v-125h-75v-515h-130zM290.001 114.999c32.667 0 59.167 10.167 79.5 30.5s30.5 46.833 30.5 79.5s-10.167 59.167 -30.5 79.5s-46.833 30.5 -79.5 30.5s-59.167 -10.167 -79.5 -30.5
s-30.5 -46.833 -30.5 -79.5s10.167 -59.167 30.5 -79.5s46.833 -30.5 79.5 -30.5z" />
    <glyph glyph-name="Emacron" unicode="&#x112;" horiz-adv-x="600" 
d="M70 0v700h480v-145h-320v-135h300v-140h-300v-135h320v-145h-480zM145 790v105h330v-105h-330z" />
    <glyph glyph-name="emacron" unicode="&#x113;" horiz-adv-x="595" 
d="M395 155l149.999 0.00195312c-12 -31.333 -29 -59 -51 -83c-52 -54.667 -116.667 -82 -194 -82s-140.833 24.833 -190.5 74.5s-74.5 113.167 -74.5 190.5s24.833 140.833 74.5 190.5s113.167 74.5 190.5 74.5c74.667 0 136.667 -24.333 186 -73s74 -109.334 74 -182.001
c0 -9.33301 -1 -22 -3 -38l-2 -12h-370c2.66699 -30.667 14.5 -55.834 35.5 -75.501s47.5 -29.5 79.5 -29.5c26.667 0 50.667 7.33301 72 22c10.667 8 18.334 15.667 23.001 23zM184.999 305.002h230c-14.667 66.667 -53 100 -115 100s-100.333 -33.333 -115 -100z
M129.999 605.002v105h330v-105h-330z" />
    <glyph glyph-name="Ebreve" unicode="&#x114;" horiz-adv-x="600" 
d="M70 0v700h480v-145h-320v-135h300v-140h-300v-135h320v-145h-480zM145 915h110.002c5.33301 -33.333 23.666 -50 54.999 -50s49.666 16.667 54.999 50h110c-2.66699 -43.333 -18.5 -78.333 -47.5 -105s-68.167 -40 -117.5 -40s-88.5 13.333 -117.5 40
s-44.833 61.667 -47.5 105z" />
    <glyph glyph-name="ebreve" unicode="&#x115;" horiz-adv-x="595" 
d="M395 155l149.999 0.00195312c-12 -31.333 -29 -59 -51 -83c-52 -54.667 -116.667 -82 -194 -82s-140.833 24.833 -190.5 74.5s-74.5 113.167 -74.5 190.5s24.833 140.833 74.5 190.5s113.167 74.5 190.5 74.5c74.667 0 136.667 -24.333 186 -73s74 -109.334 74 -182.001
c0 -9.33301 -1 -22 -3 -38l-2 -12h-370c2.66699 -30.667 14.5 -55.834 35.5 -75.501s47.5 -29.5 79.5 -29.5c26.667 0 50.667 7.33301 72 22c10.667 8 18.334 15.667 23.001 23zM184.999 305.002h230c-14.667 66.667 -53 100 -115 100s-100.333 -33.333 -115 -100z
M129.999 725.002h110.002c5.33301 -33.333 23.666 -50 54.999 -50s49.666 16.667 54.999 50h110c-2.66699 -43.333 -18.5 -78.333 -47.5 -105s-68.167 -40 -117.5 -40s-88.5 13.333 -117.5 40s-44.833 61.667 -47.5 105z" />
    <glyph glyph-name="Edotaccent" unicode="&#x116;" horiz-adv-x="600" 
d="M70 0v700h480v-145h-320v-135h300v-140h-300v-135h320v-145h-480zM245 780v125h130v-125h-130z" />
    <glyph glyph-name="edotaccent" unicode="&#x117;" horiz-adv-x="595" 
d="M395 155l149.999 0.00195312c-12 -31.333 -29 -59 -51 -83c-52 -54.667 -116.667 -82 -194 -82s-140.833 24.833 -190.5 74.5s-74.5 113.167 -74.5 190.5s24.833 140.833 74.5 190.5s113.167 74.5 190.5 74.5c74.667 0 136.667 -24.333 186 -73s74 -109.334 74 -182.001
c0 -9.33301 -1 -22 -3 -38l-2 -12h-370c2.66699 -30.667 14.5 -55.834 35.5 -75.501s47.5 -29.5 79.5 -29.5c26.667 0 50.667 7.33301 72 22c10.667 8 18.334 15.667 23.001 23zM184.999 305.002h230c-14.667 66.667 -53 100 -115 100s-100.333 -33.333 -115 -100z
M229.999 590.002v125h130v-125h-130z" />
    <glyph glyph-name="Eogonek" unicode="&#x118;" horiz-adv-x="600" 
d="M70 0v700.001h480v-145h-320v-135h300v-140h-300v-135h320v-145c-43.333 -13.333 -65 -33.333 -65 -60c0 -23.333 15 -35 45 -35h20v-85h-40c-93.333 0 -140 33.333 -140 100c0 15.333 4.5 29.666 13.5 42.999s17 22.5 24 27.5s12.5 8.16699 16.5 9.5h-354z" />
    <glyph glyph-name="eogonek" unicode="&#x119;" horiz-adv-x="595" 
d="M390 -180l-40.002 0.00195312c-93.333 0 -140 33.333 -140 100c0 32 14.667 56.333 44 73c-65.333 9.33301 -118.166 38.166 -158.499 86.499s-60.5 106.833 -60.5 175.5c0 77.333 24.833 140.833 74.5 190.5s113.167 74.5 190.5 74.5c74.667 0 136.667 -24.333 186 -73
s74 -109.334 74 -182.001c0 -9.33301 -1 -22 -3 -38l-2 -12h-370c2.66699 -30.667 14.5 -55.834 35.5 -75.501s47.5 -29.5 79.5 -29.5c26.667 0 50.667 7.33301 72 22c10.667 8 18.334 15.667 23.001 23h150c-7.33301 -18 -18 -37.333 -32 -58
c-30.667 -42.667 -69 -72.667 -115 -90c-16.667 -7.33301 -29.167 -13.166 -37.5 -17.499s-16.333 -11 -24 -20s-11.5 -18.833 -11.5 -29.5c0 -23.333 15 -35 45 -35h20v-85zM184.998 305.002h230c-14.667 66.667 -53 100 -115 100s-100.333 -33.333 -115 -100z" />
    <glyph glyph-name="Ecaron" unicode="&#x11a;" horiz-adv-x="600" 
d="M70 0v700h480v-145h-320v-135h300v-140h-300v-135h320v-145h-480zM245 770l-120 145h130l55 -65l55 65h130l-120 -145h-130z" />
    <glyph glyph-name="ecaron" unicode="&#x11b;" horiz-adv-x="595" 
d="M395 155l149.999 0.00195312c-12 -31.333 -29 -59 -51 -83c-52 -54.667 -116.667 -82 -194 -82s-140.833 24.833 -190.5 74.5s-74.5 113.167 -74.5 190.5s24.833 140.833 74.5 190.5s113.167 74.5 190.5 74.5c74.667 0 136.667 -24.333 186 -73s74 -109.334 74 -182.001
c0 -9.33301 -1 -22 -3 -38l-2 -12h-370c2.66699 -30.667 14.5 -55.834 35.5 -75.501s47.5 -29.5 79.5 -29.5c26.667 0 50.667 7.33301 72 22c10.667 8 18.334 15.667 23.001 23zM184.999 305.002h230c-14.667 66.667 -53 100 -115 100s-100.333 -33.333 -115 -100z
M229.999 585.002l-120 145h130l55 -65l55 65h130l-120 -145h-130z" />
    <glyph glyph-name="Gcircumflex" unicode="&#x11c;" horiz-adv-x="760" 
d="M585 0l-10 69.999h-5c-12.667 -14.667 -28 -28 -46 -40c-41.333 -26.667 -89.333 -40 -144 -40c-96 0 -176.667 34 -242 102s-98 154 -98 258s32.667 190 98 258s146 102 242 102c106 0 191.667 -41.667 257 -125c27.333 -37.333 48.333 -79 63 -125h-165
c-10 18.667 -21.333 34.334 -34 47.001c-32 32 -72.333 48 -121 48c-51.333 0 -94.166 -19 -128.499 -57s-51.5 -87.333 -51.5 -148c0 -61.333 17.167 -110.833 51.5 -148.5s77.166 -56.5 128.499 -56.5c58.667 0 103.667 19 135 57c14 16.667 24 36 30 58h-155v110h315
v-370h-120zM190 769.999l120 145h130l120 -145h-130l-55 65l-55 -65h-130z" />
    <glyph glyph-name="gcircumflex" unicode="&#x11d;" horiz-adv-x="605" 
d="M45 -20l155 -0.000976562c2.66699 -10 8.33398 -19.333 17.001 -28c18 -18 44 -27 78 -27c32 0 56.667 8.33301 74 25s26 40 26 70v60h-5c-9.33301 -10.667 -19.333 -19 -30 -25c-25.333 -16.667 -55.333 -25 -90 -25c-68.667 0 -125 22.833 -169 68.5
s-66 104.5 -66 176.5s22 130.833 66 176.5s100.333 68.5 169 68.5c38 0 71 -10 99 -30c11.333 -8.66699 21.666 -18.667 30.999 -30h5l10 50h130v-490c0 -71.333 -21.333 -126.666 -64 -165.999s-104.667 -59 -186 -59c-99.333 0 -170.333 30.667 -213 92
c-20 28 -32.333 59 -37 93zM290 169.999c30 0 55 10 75 30s30 45 30 75s-10 55 -30 75s-45 30 -75 30s-55 -10 -75 -30s-30 -45 -30 -75s10 -55 30 -75s45 -30 75 -30zM130 584.999l120 145h130l120 -145h-130l-55 65l-55 -65h-130z" />
    <glyph glyph-name="Gbreve" unicode="&#x11e;" horiz-adv-x="760" 
d="M585 0l-10 69.999h-5c-12.667 -14.667 -28 -28 -46 -40c-41.333 -26.667 -89.333 -40 -144 -40c-96 0 -176.667 34 -242 102s-98 154 -98 258s32.667 190 98 258s146 102 242 102c106 0 191.667 -41.667 257 -125c27.333 -37.333 48.333 -79 63 -125h-165
c-10 18.667 -21.333 34.334 -34 47.001c-32 32 -72.333 48 -121 48c-51.333 0 -94.166 -19 -128.499 -57s-51.5 -87.333 -51.5 -148c0 -61.333 17.167 -110.833 51.5 -148.5s77.166 -56.5 128.499 -56.5c58.667 0 103.667 19 135 57c14 16.667 24 36 30 58h-155v110h315
v-370h-120zM210 914.999h110.002c5.33301 -33.333 23.666 -50 54.999 -50s49.666 16.667 54.999 50h110c-2.66699 -43.333 -18.5 -78.333 -47.5 -105s-68.167 -40 -117.5 -40s-88.5 13.333 -117.5 40s-44.833 61.667 -47.5 105z" />
    <glyph glyph-name="gbreve" unicode="&#x11f;" horiz-adv-x="605" 
d="M45 -20l155 -0.000976562c2.66699 -10 8.33398 -19.333 17.001 -28c18 -18 44 -27 78 -27c32 0 56.667 8.33301 74 25s26 40 26 70v60h-5c-9.33301 -10.667 -19.333 -19 -30 -25c-25.333 -16.667 -55.333 -25 -90 -25c-68.667 0 -125 22.833 -169 68.5
s-66 104.5 -66 176.5s22 130.833 66 176.5s100.333 68.5 169 68.5c38 0 71 -10 99 -30c11.333 -8.66699 21.666 -18.667 30.999 -30h5l10 50h130v-490c0 -71.333 -21.333 -126.666 -64 -165.999s-104.667 -59 -186 -59c-99.333 0 -170.333 30.667 -213 92
c-20 28 -32.333 59 -37 93zM290 169.999c30 0 55 10 75 30s30 45 30 75s-10 55 -30 75s-45 30 -75 30s-55 -10 -75 -30s-30 -45 -30 -75s10 -55 30 -75s45 -30 75 -30zM150 724.999h110.002c5.33301 -33.333 23.666 -50 54.999 -50s49.666 16.667 54.999 50h110
c-2.66699 -43.333 -18.5 -78.333 -47.5 -105s-68.167 -40 -117.5 -40s-88.5 13.333 -117.5 40s-44.833 61.667 -47.5 105z" />
    <glyph glyph-name="Gdotaccent" unicode="&#x120;" horiz-adv-x="760" 
d="M585 0l-10 69.999h-5c-12.667 -14.667 -28 -28 -46 -40c-41.333 -26.667 -89.333 -40 -144 -40c-96 0 -176.667 34 -242 102s-98 154 -98 258s32.667 190 98 258s146 102 242 102c106 0 191.667 -41.667 257 -125c27.333 -37.333 48.333 -79 63 -125h-165
c-10 18.667 -21.333 34.334 -34 47.001c-32 32 -72.333 48 -121 48c-51.333 0 -94.166 -19 -128.499 -57s-51.5 -87.333 -51.5 -148c0 -61.333 17.167 -110.833 51.5 -148.5s77.166 -56.5 128.499 -56.5c58.667 0 103.667 19 135 57c14 16.667 24 36 30 58h-155v110h315
v-370h-120zM310 779.999v125h130v-125h-130z" />
    <glyph glyph-name="gdotaccent" unicode="&#x121;" horiz-adv-x="605" 
d="M45 -20l155 -0.000976562c2.66699 -10 8.33398 -19.333 17.001 -28c18 -18 44 -27 78 -27c32 0 56.667 8.33301 74 25s26 40 26 70v60h-5c-9.33301 -10.667 -19.333 -19 -30 -25c-25.333 -16.667 -55.333 -25 -90 -25c-68.667 0 -125 22.833 -169 68.5
s-66 104.5 -66 176.5s22 130.833 66 176.5s100.333 68.5 169 68.5c38 0 71 -10 99 -30c11.333 -8.66699 21.666 -18.667 30.999 -30h5l10 50h130v-490c0 -71.333 -21.333 -126.666 -64 -165.999s-104.667 -59 -186 -59c-99.333 0 -170.333 30.667 -213 92
c-20 28 -32.333 59 -37 93zM290 169.999c30 0 55 10 75 30s30 45 30 75s-10 55 -30 75s-45 30 -75 30s-55 -10 -75 -30s-30 -45 -30 -75s10 -55 30 -75s45 -30 75 -30zM250 589.999v125h130v-125h-130z" />
    <glyph glyph-name="Gcommaaccent" unicode="&#x122;" horiz-adv-x="760" 
d="M585 0l-10 69.999h-5c-12.667 -14.667 -28 -28 -46 -40c-41.333 -26.667 -89.333 -40 -144 -40c-96 0 -176.667 34 -242 102s-98 154 -98 258s32.667 190 98 258s146 102 242 102c106 0 191.667 -41.667 257 -125c27.333 -37.333 48.333 -79 63 -125h-165
c-10 18.667 -21.333 34.334 -34 47.001c-32 32 -72.333 48 -121 48c-51.333 0 -94.166 -19 -128.499 -57s-51.5 -87.333 -51.5 -148c0 -61.333 17.167 -110.833 51.5 -148.5s77.166 -56.5 128.499 -56.5c58.667 0 103.667 19 135 57c14 16.667 24 36 30 58h-155v110h315
v-370h-120zM265 -240.001l40 170h140l-65 -170h-115z" />
    <glyph glyph-name="gcommaaccent" unicode="&#x123;" horiz-adv-x="605" 
d="M230 590l120 145h125l-95 -145h-150zM45 -20l155 -0.000976562c2.66699 -10 8.33398 -19.333 17.001 -28c18 -18 44 -27 78 -27c32 0 56.667 8.33301 74 25s26 40 26 70v60h-5c-9.33301 -10.667 -19.333 -19 -30 -25c-25.333 -16.667 -55.333 -25 -90 -25
c-68.667 0 -125 22.833 -169 68.5s-66 104.5 -66 176.5s22 130.833 66 176.5s100.333 68.5 169 68.5c38 0 71 -10 99 -30c11.333 -8.66699 21.666 -18.667 30.999 -30h5l10 50h130v-490c0 -71.333 -21.333 -126.666 -64 -165.999s-104.667 -59 -186 -59
c-99.333 0 -170.333 30.667 -213 92c-20 28 -32.333 59 -37 93zM290 169.999c30 0 55 10 75 30s30 45 30 75s-10 55 -30 75s-45 30 -75 30s-55 -10 -75 -30s-30 -45 -30 -75s10 -55 30 -75s45 -30 75 -30z" />
    <glyph glyph-name="Hcircumflex" unicode="&#x124;" horiz-adv-x="730" 
d="M70 0v700h160v-265h270v265h160v-700h-160v270h-270v-270h-160zM180 770l120 145h130l120 -145h-130l-55 65l-55 -65h-130z" />
    <glyph glyph-name="hcircumflex" unicode="&#x125;" horiz-adv-x="610" 
d="M65 0l0.000976562 700.001h150v-230h5c11.333 11.333 21.666 19.666 30.999 24.999c29.333 16.667 62.333 25 99 25c60 0 109.167 -19.5 147.5 -58.5s57.5 -89.5 57.5 -151.5v-310h-150v280c0 28 -8.83301 50.833 -26.5 68.5s-40.5 26.5 -68.5 26.5
s-50.833 -8.83301 -68.5 -26.5s-26.5 -40.5 -26.5 -68.5v-280h-150zM125.001 775.001l120 145h130l120 -145h-130l-55 65l-55 -65h-130z" />
    <glyph glyph-name="Hbar" unicode="&#x126;" horiz-adv-x="780" 
d="M95 0v490h-85v145h85v65h160v-65h270v65h160v-65h85v-145h-85v-490h-160v270h-270v-270h-160zM255 435h270v55h-270v-55z" />
    <glyph glyph-name="hbar" unicode="&#x127;" horiz-adv-x="625" 
d="M80 0l0.000976562 510.001h-75v130h75v70h150v-70h160v-130h-160v-100h5c11.333 11.333 21.666 19.666 30.999 24.999c29.333 16.667 62.333 25 99 25c60 0 109.167 -19.5 147.5 -58.5s57.5 -89.5 57.5 -151.5v-250h-150v220c0 28 -8.83301 50.833 -26.5 68.5
s-40.5 26.5 -68.5 26.5s-50.833 -8.83301 -68.5 -26.5s-26.5 -40.5 -26.5 -68.5v-220h-150z" />
    <glyph glyph-name="Imacron" unicode="&#x12a;" horiz-adv-x="300" 
d="M70 0v700h160v-700h-160zM-15 790v105h330v-105h-330z" />
    <glyph glyph-name="imacron" unicode="&#x12b;" horiz-adv-x="270" 
d="M60 0v510h150v-510h-150zM-30 605v105h330v-105h-330z" />
    <glyph glyph-name="Ibreve" unicode="&#x12c;" horiz-adv-x="300" 
d="M70 0v700h160v-700h-160zM-15 915h110.002c5.33301 -33.333 23.666 -50 54.999 -50s49.666 16.667 54.999 50h110c-2.66699 -43.333 -18.5 -78.333 -47.5 -105s-68.167 -40 -117.5 -40s-88.5 13.333 -117.5 40s-44.833 61.667 -47.5 105z" />
    <glyph glyph-name="ibreve" unicode="&#x12d;" horiz-adv-x="270" 
d="M60 0v510h150v-510h-150zM-30 725h110.002c5.33301 -33.333 23.666 -50 54.999 -50s49.666 16.667 54.999 50h110c-2.66699 -43.333 -18.5 -78.333 -47.5 -105s-68.167 -40 -117.5 -40s-88.5 13.333 -117.5 40s-44.833 61.667 -47.5 105z" />
    <glyph glyph-name="Iogonek" unicode="&#x12e;" horiz-adv-x="300" 
d="M195 -180l-40 0.000976562c-93.333 0 -140 33.333 -140 100c0 25.333 9 45.666 27 60.999c10 8.66699 19.333 15 28 19v700h160v-700h-35c-10.667 -2.66699 -21.667 -7 -33 -13c-21.333 -12 -32 -27.667 -32 -47c0 -23.333 15 -35 45 -35h20v-85z" />
    <glyph glyph-name="iogonek" unicode="&#x12f;" horiz-adv-x="270" 
d="M185 -180l-40 0.000976562c-93.333 0 -140 33.333 -140 100c0 25.333 9 45.666 27 60.999c10 8.66699 19.333 15 28 19v510h150v-510h-25c-10.667 -2.66699 -21.667 -7 -33 -13c-21.333 -12 -32 -27.667 -32 -47c0 -23.333 15 -35 45 -35h20v-85zM60 584.001v130h150
v-130h-150z" />
    <glyph glyph-name="Idot" unicode="&#x130;" horiz-adv-x="300" 
d="M70 0v700h160v-700h-160zM85 780v125h130v-125h-130z" />
    <glyph glyph-name="dotlessi" unicode="&#x131;" horiz-adv-x="270" 
d="M60 0v510h150v-510h-150z" />
    <glyph glyph-name="uni0132" unicode="&#x132;" horiz-adv-x="730" 
d="M70 0v700h160v-700h-160zM310 0v155h150c30 0 45 15 45 45v500h160v-545c0 -50 -13.333 -88.333 -40 -115s-65 -40 -115 -40h-200z" />
    <glyph glyph-name="uni0133" unicode="&#x133;" horiz-adv-x="550" 
d="M60 0v510h150v-510h-150zM60 584v130h150v-130h-150zM340 584v130h150v-130h-150zM230 -200v140h75c23.333 0 35 11.667 35 35v535h150v-570c0 -93.333 -48.333 -140 -145 -140h-115z" />
    <glyph glyph-name="Jcircumflex" unicode="&#x134;" horiz-adv-x="430" 
d="M10 0v155h150c30 0 45 15 45 45v500h160v-545c0 -50 -13.333 -88.333 -40 -115s-65 -40 -115 -40h-200zM100 770l120 145h130l120 -145h-130l-55 65l-55 -65h-130z" />
    <glyph glyph-name="jcircumflex" unicode="&#x135;" horiz-adv-x="270" 
d="M-50 -200v140h75c23.333 0 35 11.667 35 35v535h150v-570c0 -93.333 -48.333 -140 -145 -140h-115zM-50 585l120 145h130l120 -145h-130l-55 65l-55 -65h-130z" />
    <glyph glyph-name="Kcommaaccent" unicode="&#x136;" horiz-adv-x="625" 
d="M70 0v700h160v-300l205 300h195l-240 -345l260 -355h-195l-225 315v-315h-160zM240 -240l40 170h140l-65 -170h-115z" />
    <glyph glyph-name="kcommaaccent" unicode="&#x137;" horiz-adv-x="550" 
d="M65 0v700h150v-420l175 230h170l-195 -250l205 -260h-170l-185 240v-240h-150zM200 -240l40 170h140l-65 -170h-115z" />
    <glyph glyph-name="Lacute" unicode="&#x139;" horiz-adv-x="560" 
d="M70 0v700h160v-545h315v-155h-475zM90 770l95 145h150l-120 -145h-125z" />
    <glyph glyph-name="lacute" unicode="&#x13a;" horiz-adv-x="280" 
d="M65 0v700h150v-700h-150zM85 775l95 145h150l-120 -145h-125z" />
    <glyph glyph-name="Lcommaaccent" unicode="&#x13b;" horiz-adv-x="560" 
d="M70 0v700h160v-545h315v-155h-475zM210 -240l40 170h140l-65 -170h-115z" />
    <glyph glyph-name="lcommaaccent" unicode="&#x13c;" horiz-adv-x="280" 
d="M65 0v700h150v-700h-150zM20 -240l40 170h140l-65 -170h-115z" />
    <glyph glyph-name="Lcaron" unicode="&#x13d;" horiz-adv-x="560" 
d="M70 0v700h160v-545h315v-155h-475zM320 530l40 170h140l-65 -170h-115z" />
    <glyph glyph-name="lcaron" unicode="&#x13e;" horiz-adv-x="410" 
d="M65 0v700h150v-700h-150zM260 530l40 170h140l-65 -170h-115z" />
    <glyph glyph-name="Ldot" unicode="&#x13f;" horiz-adv-x="560" 
d="M345 315v165h165v-165h-165zM70 0v700h160v-545h315v-155h-475z" />
    <glyph glyph-name="ldot" unicode="&#x140;" horiz-adv-x="470" 
d="M290 295v165h165v-165h-165zM65 0v700h150v-700h-150z" />
    <glyph glyph-name="Lslash" unicode="&#x141;" horiz-adv-x="585" 
d="M95 0v260l-80 -30v150l80 30v290h160v-230l155 60v-150l-155 -60v-165h315v-155h-475z" />
    <glyph glyph-name="lslash" unicode="&#x142;" horiz-adv-x="330" 
d="M90 0v265l-75 -30v135l75 30v300h150v-240l75 30v-135l-75 -30v-325h-150z" />
    <glyph glyph-name="Nacute" unicode="&#x143;" horiz-adv-x="735" 
d="M70 0v700h195l220 -420h20v420h160v-700h-195l-220 420h-20v-420h-160zM305 770l95 145h150l-120 -145h-125z" />
    <glyph glyph-name="nacute" unicode="&#x144;" horiz-adv-x="605" 
d="M60 0v510h130l10 -45h5c8 9.33301 19.333 18.333 34 27c28.667 18.667 64 28 106 28c60 0 109.167 -19.5 147.5 -58.5s57.5 -89.5 57.5 -151.5v-310h-150v280c0 28 -8.83301 50.833 -26.5 68.5s-40.5 26.5 -68.5 26.5s-50.833 -8.83301 -68.5 -26.5
s-26.5 -40.5 -26.5 -68.5v-280h-150zM245 585l95 145h150l-120 -145h-125z" />
    <glyph glyph-name="Ncommaaccent" unicode="&#x145;" horiz-adv-x="735" 
d="M70 0v700h195l220 -420h20v420h160v-700h-195l-220 420h-20v-420h-160zM260 -240l40 170h140l-65 -170h-115z" />
    <glyph glyph-name="ncommaaccent" unicode="&#x146;" horiz-adv-x="605" 
d="M60 0v510h130l10 -45h5c8 9.33301 19.333 18.333 34 27c28.667 18.667 64 28 106 28c60 0 109.167 -19.5 147.5 -58.5s57.5 -89.5 57.5 -151.5v-310h-150v280c0 28 -8.83301 50.833 -26.5 68.5s-40.5 26.5 -68.5 26.5s-50.833 -8.83301 -68.5 -26.5
s-26.5 -40.5 -26.5 -68.5v-280h-150zM195 -240l40 170h140l-65 -170h-115z" />
    <glyph glyph-name="Ncaron" unicode="&#x147;" horiz-adv-x="735" 
d="M70 0v700h195l220 -420h20v420h160v-700h-195l-220 420h-20v-420h-160zM305 770l-120 145h130l55 -65l55 65h130l-120 -145h-130z" />
    <glyph glyph-name="ncaron" unicode="&#x148;" horiz-adv-x="605" 
d="M60 0v510h130l10 -45h5c8 9.33301 19.333 18.333 34 27c28.667 18.667 64 28 106 28c60 0 109.167 -19.5 147.5 -58.5s57.5 -89.5 57.5 -151.5v-310h-150v280c0 28 -8.83301 50.833 -26.5 68.5s-40.5 26.5 -68.5 26.5s-50.833 -8.83301 -68.5 -26.5
s-26.5 -40.5 -26.5 -68.5v-280h-150zM240 585l-120 145h130l55 -65l55 65h130l-120 -145h-130z" />
    <glyph glyph-name="napostrophe" unicode="&#x149;" horiz-adv-x="675" 
d="M130 0v510h130l10 -45h5c8 9.33301 19.333 18.333 34 27c28.667 18.667 64 28 106 28c60 0 109.167 -19.5 147.5 -58.5s57.5 -89.5 57.5 -151.5v-310h-150v280c0 28 -8.83301 50.833 -26.5 68.5s-40.5 26.5 -68.5 26.5s-50.833 -8.83301 -68.5 -26.5
s-26.5 -40.5 -26.5 -68.5v-280h-150zM-10 550l40 170h140l-65 -170h-115z" />
    <glyph glyph-name="Eng" unicode="&#x14a;" horiz-adv-x="735" 
d="M70 0v700h195l220 -420h20v420h160v-775c0 -50 -13.333 -88.333 -40 -115s-65 -40 -115 -40h-150v155h100c30 0 45 15 45 45v30h-35l-220 420h-20v-420h-160z" />
    <glyph glyph-name="eng" unicode="&#x14b;" horiz-adv-x="605" 
d="M60 0v510h130l10 -45h5c8 9.33301 19.333 18.333 34 27c28.667 18.667 64 28 106 28c60 0 109.167 -19.5 147.5 -58.5s57.5 -89.5 57.5 -151.5v-350c0 -106.667 -55 -160 -165 -160h-95v140h65c30 0 45 15 45 45v295c0 28 -8.83301 50.833 -26.5 68.5
s-40.5 26.5 -68.5 26.5s-50.833 -8.83301 -68.5 -26.5s-26.5 -40.5 -26.5 -68.5v-280h-150z" />
    <glyph glyph-name="Omacron" unicode="&#x14c;" horiz-adv-x="760" 
d="M380 -10c-96 0 -176.667 34 -242 102s-98 154 -98 258s32.667 190 98 258s146 102 242 102s176.667 -34 242 -102s98 -154 98 -258s-32.667 -190 -98 -258s-146 -102 -242 -102zM380 145c51.333 0 94.166 18.833 128.499 56.5s51.5 87.167 51.5 148.5
s-17.167 110.833 -51.5 148.5s-77.166 56.5 -128.499 56.5s-94.166 -18.833 -128.499 -56.5s-51.5 -87.167 -51.5 -148.5s17.167 -110.833 51.5 -148.5s77.166 -56.5 128.499 -56.5zM215 790v105h330v-105h-330z" />
    <glyph glyph-name="omacron" unicode="&#x14d;" horiz-adv-x="600" 
d="M300 -10c-77.333 0 -140.833 24.833 -190.5 74.5s-74.5 113.167 -74.5 190.5s24.833 140.833 74.5 190.5s113.167 74.5 190.5 74.5s140.833 -24.833 190.5 -74.5s74.5 -113.167 74.5 -190.5s-24.833 -140.833 -74.5 -190.5s-113.167 -74.5 -190.5 -74.5zM300 130
c33.333 0 60.833 11.5 82.5 34.5s32.5 53.167 32.5 90.5s-10.833 67.5 -32.5 90.5s-49.167 34.5 -82.5 34.5s-60.833 -11.5 -82.5 -34.5s-32.5 -53.167 -32.5 -90.5s10.833 -67.5 32.5 -90.5s49.167 -34.5 82.5 -34.5zM135 605v105h330v-105h-330z" />
    <glyph glyph-name="Obreve" unicode="&#x14e;" horiz-adv-x="760" 
d="M380 -10c-96 0 -176.667 34 -242 102s-98 154 -98 258s32.667 190 98 258s146 102 242 102s176.667 -34 242 -102s98 -154 98 -258s-32.667 -190 -98 -258s-146 -102 -242 -102zM380 145c51.333 0 94.166 18.833 128.499 56.5s51.5 87.167 51.5 148.5
s-17.167 110.833 -51.5 148.5s-77.166 56.5 -128.499 56.5s-94.166 -18.833 -128.499 -56.5s-51.5 -87.167 -51.5 -148.5s17.167 -110.833 51.5 -148.5s77.166 -56.5 128.499 -56.5zM215 915h110.002c5.33301 -33.333 23.666 -50 54.999 -50s49.666 16.667 54.999 50h110
c-2.66699 -43.333 -18.5 -78.333 -47.5 -105s-68.167 -40 -117.5 -40s-88.5 13.333 -117.5 40s-44.833 61.667 -47.5 105z" />
    <glyph glyph-name="obreve" unicode="&#x14f;" horiz-adv-x="600" 
d="M300 -10c-77.333 0 -140.833 24.833 -190.5 74.5s-74.5 113.167 -74.5 190.5s24.833 140.833 74.5 190.5s113.167 74.5 190.5 74.5s140.833 -24.833 190.5 -74.5s74.5 -113.167 74.5 -190.5s-24.833 -140.833 -74.5 -190.5s-113.167 -74.5 -190.5 -74.5zM300 130
c33.333 0 60.833 11.5 82.5 34.5s32.5 53.167 32.5 90.5s-10.833 67.5 -32.5 90.5s-49.167 34.5 -82.5 34.5s-60.833 -11.5 -82.5 -34.5s-32.5 -53.167 -32.5 -90.5s10.833 -67.5 32.5 -90.5s49.167 -34.5 82.5 -34.5zM135 725h110.002
c5.33301 -33.333 23.666 -50 54.999 -50s49.666 16.667 54.999 50h110c-2.66699 -43.333 -18.5 -78.333 -47.5 -105s-68.167 -40 -117.5 -40s-88.5 13.333 -117.5 40s-44.833 61.667 -47.5 105z" />
    <glyph glyph-name="Ohungarumlaut" unicode="&#x150;" horiz-adv-x="760" 
d="M380 -10c-96 0 -176.667 34 -242 102s-98 154 -98 258s32.667 190 98 258s146 102 242 102s176.667 -34 242 -102s98 -154 98 -258s-32.667 -190 -98 -258s-146 -102 -242 -102zM380 145c51.333 0 94.166 18.833 128.499 56.5s51.5 87.167 51.5 148.5
s-17.167 110.833 -51.5 148.5s-77.166 56.5 -128.499 56.5s-94.166 -18.833 -128.499 -56.5s-51.5 -87.167 -51.5 -148.5s17.167 -110.833 51.5 -148.5s77.166 -56.5 128.499 -56.5zM225 770l100 145h135l-120 -145h-115zM420 770l100 145h135l-120 -145h-115z" />
    <glyph glyph-name="ohungarumlaut" unicode="&#x151;" horiz-adv-x="600" 
d="M300 -10c-77.333 0 -140.833 24.833 -190.5 74.5s-74.5 113.167 -74.5 190.5s24.833 140.833 74.5 190.5s113.167 74.5 190.5 74.5s140.833 -24.833 190.5 -74.5s74.5 -113.167 74.5 -190.5s-24.833 -140.833 -74.5 -190.5s-113.167 -74.5 -190.5 -74.5zM300 130
c33.333 0 60.833 11.5 82.5 34.5s32.5 53.167 32.5 90.5s-10.833 67.5 -32.5 90.5s-49.167 34.5 -82.5 34.5s-60.833 -11.5 -82.5 -34.5s-32.5 -53.167 -32.5 -90.5s10.833 -67.5 32.5 -90.5s49.167 -34.5 82.5 -34.5zM140 585l100 145h135l-120 -145h-115zM335 585l100 145
h135l-120 -145h-115z" />
    <glyph glyph-name="OE" unicode="&#x152;" horiz-adv-x="1075" 
d="M555 0v60.002h-5c-10.667 -12.667 -25 -24.334 -43 -35.001c-35.333 -23.333 -79.333 -35 -132 -35c-93.333 0 -172.5 34 -237.5 102s-97.5 154 -97.5 258s32.5 190 97.5 258s144.167 102 237.5 102c48 0 92 -11.667 132 -35c20 -12.667 34.333 -24.334 43 -35.001h5v60
h470v-145h-320v-135h300v-140h-300v-135h320v-145h-470zM375 145.002c48.667 0 90 19 124 57s51 87.333 51 148s-17 110 -51 148s-75.333 57 -124 57s-90 -19 -124 -57s-51 -87.333 -51 -148s17 -110 51 -148s75.333 -57 124 -57z" />
    <glyph glyph-name="oe" unicode="&#x153;" horiz-adv-x="945" 
d="M745 155h150.002c-10.667 -32 -26 -59.667 -46 -83c-46.667 -54.667 -109.667 -82 -189 -82c-54.667 0 -102.667 14 -144 42c-18 12 -33.333 26.333 -46 43c-12.667 -16 -27.667 -30.333 -45 -43c-41.333 -28 -86.333 -42 -135 -42c-72.667 0 -133.334 25 -182.001 75
s-73 113.333 -73 190c0 77.333 24.333 140.833 73 190.5s109.667 74.5 183 74.5c47.333 0 92 -14.333 134 -43c16.667 -12 31.667 -26 45 -42c13.333 16.667 28.666 30.667 45.999 42c42 28.667 90 43 144 43c70 0 129.167 -24.5 177.5 -73.5s72.5 -109.5 72.5 -181.5
c0 -9.33301 -1 -22 -3 -38l-2 -12h-350c2.66699 -30 13.834 -55 33.501 -75s43.5 -30 71.5 -30c27.333 0 49.666 7.33301 66.999 22c8 8 14 15.667 18 23zM290.002 130c28.667 0 53.334 11.667 74.001 35s31 53.333 31 90s-10.333 66.667 -31 90s-45.334 35 -74.001 35
s-53.334 -11.667 -74.001 -35s-31 -53.333 -31 -90s10.333 -66.667 31 -90s45.334 -35 74.001 -35zM555.002 305h209.998c-7.33301 32 -20.166 56.667 -38.499 74s-40.5 26 -66.5 26s-48.167 -8.66699 -66.5 -26s-31.166 -42 -38.499 -74z" />
    <glyph glyph-name="Racute" unicode="&#x154;" horiz-adv-x="680" 
d="M70 0v700h330c68 0 123.333 -22 166 -66s64 -102 64 -174c0 -88.667 -32.667 -153 -98 -193c-30 -17.333 -62.333 -28 -97 -32l215 -235h-200l-200 225h-20v-225h-160zM230 370l160 0.00195312c23.333 0 42.5 8.16699 57.5 24.5s22.5 38.166 22.5 65.499
s-7.5 49.166 -22.5 65.499s-34.167 24.5 -57.5 24.5h-160v-180zM265 770.002l95 145h150l-120 -145h-125z" />
    <glyph glyph-name="racute" unicode="&#x155;" horiz-adv-x="405" 
d="M60 0v510h130l10 -40h5c6.66699 8 13.667 14.667 21 20c18 13.333 41 20 69 20h95v-140h-90c-60 0 -90 -30 -90 -90v-280h-150zM165 585l95 145h150l-120 -145h-125z" />
    <glyph glyph-name="Rcommaaccent" unicode="&#x156;" horiz-adv-x="680" 
d="M70 0v700h330c68 0 123.333 -22 166 -66s64 -102 64 -174c0 -88.667 -32.667 -153 -98 -193c-30 -17.333 -62.333 -28 -97 -32l215 -235h-200l-200 225h-20v-225h-160zM230 370l160 0.00195312c23.333 0 42.5 8.16699 57.5 24.5s22.5 38.166 22.5 65.499
s-7.5 49.166 -22.5 65.499s-34.167 24.5 -57.5 24.5h-160v-180zM240 -239.998l40 170h140l-65 -170h-115z" />
    <glyph glyph-name="rcommaaccent" unicode="&#x157;" horiz-adv-x="405" 
d="M60 0v510h130l10 -40h5c6.66699 8 13.667 14.667 21 20c18 13.333 41 20 69 20h95v-140h-90c-60 0 -90 -30 -90 -90v-280h-150zM20 -240l40 170h140l-65 -170h-115z" />
    <glyph glyph-name="Rcaron" unicode="&#x158;" horiz-adv-x="680" 
d="M70 0v700h330c68 0 123.333 -22 166 -66s64 -102 64 -174c0 -88.667 -32.667 -153 -98 -193c-30 -17.333 -62.333 -28 -97 -32l215 -235h-200l-200 225h-20v-225h-160zM230 370l160 0.00195312c23.333 0 42.5 8.16699 57.5 24.5s22.5 38.166 22.5 65.499
s-7.5 49.166 -22.5 65.499s-34.167 24.5 -57.5 24.5h-160v-180zM265 770.002l-120 145h130l55 -65l55 65h130l-120 -145h-130z" />
    <glyph glyph-name="rcaron" unicode="&#x159;" horiz-adv-x="405" 
d="M60 0v510h130l10 -40h5c6.66699 8 13.667 14.667 21 20c18 13.333 41 20 69 20h95v-140h-90c-60 0 -90 -30 -90 -90v-280h-150zM170 585l-120 145h130l55 -65l55 65h130l-120 -145h-130z" />
    <glyph glyph-name="Sacute" unicode="&#x15a;" horiz-adv-x="640" 
d="M30 230h160c0 -29.333 11.333 -53.333 34 -72s54.667 -28 96 -28c40 0 70 7 90 21s30 32 30 54c0 18.667 -7.5 34 -22.5 46s-40.833 21.667 -77.5 29l-110 20c-62.667 11.333 -109.167 32.833 -139.5 64.5s-45.5 75.167 -45.5 130.5c0 62 23.5 113.333 70.5 154
s111.833 61 194.5 61c90 0 160 -22 210 -66s75 -102 75 -174h-160c0 28.667 -11.333 52.5 -34 71.5s-53 28.5 -91 28.5c-34 0 -60 -7.16699 -78 -21.5s-27 -32.166 -27 -53.499c0 -18 6.16699 -31.833 18.5 -41.5s34.5 -17.5 66.5 -23.5l110 -20
c70 -12.667 120.833 -35 152.5 -67s47.5 -78 47.5 -138c0 -62.667 -24.333 -114.167 -73 -154.5s-117.667 -60.5 -207 -60.5s-160 22.667 -212 68s-78 102.666 -78 171.999zM255 770l95 145h150l-120 -145h-125z" />
    <glyph glyph-name="sacute" unicode="&#x15b;" horiz-adv-x="510" 
d="M25 160l145 0.00292969c1.33301 -12 5 -22 11 -30c14.667 -20 39.334 -30 74.001 -30c26 0 45.833 4.83301 59.5 14.5s20.5 21.5 20.5 35.5c0 15.333 -4.33301 26.666 -13 33.999s-24.334 12.666 -47.001 15.999l-75 10c-59.333 8 -102.5 24.167 -129.5 48.5
s-40.5 58.166 -40.5 101.499c0 45.333 19.333 83.333 58 114s92.667 46 162 46c90 0 154.333 -26.667 193 -80c17.333 -23.333 28 -50 32 -80h-145c-3.33301 8.66699 -8 16 -14 22c-15.333 15.333 -37.333 23 -66 23c-24.667 0 -43.334 -4.16699 -56.001 -12.5
s-19 -19.166 -19 -32.499c0 -20.667 20 -34 60 -40l75 -10c113.333 -14.667 170 -68 170 -160c0 -45.333 -19.667 -83.333 -59 -114s-94.666 -46 -165.999 -46c-94.667 0 -161.667 28.333 -201 85c-17.333 25.333 -27 53.666 -29 84.999zM190 585.003l95 145h150l-120 -145
h-125z" />
    <glyph glyph-name="Scircumflex" unicode="&#x15c;" horiz-adv-x="640" 
d="M30 230h160c0 -29.333 11.333 -53.333 34 -72s54.667 -28 96 -28c40 0 70 7 90 21s30 32 30 54c0 18.667 -7.5 34 -22.5 46s-40.833 21.667 -77.5 29l-110 20c-62.667 11.333 -109.167 32.833 -139.5 64.5s-45.5 75.167 -45.5 130.5c0 62 23.5 113.333 70.5 154
s111.833 61 194.5 61c90 0 160 -22 210 -66s75 -102 75 -174h-160c0 28.667 -11.333 52.5 -34 71.5s-53 28.5 -91 28.5c-34 0 -60 -7.16699 -78 -21.5s-27 -32.166 -27 -53.499c0 -18 6.16699 -31.833 18.5 -41.5s34.5 -17.5 66.5 -23.5l110 -20
c70 -12.667 120.833 -35 152.5 -67s47.5 -78 47.5 -138c0 -62.667 -24.333 -114.167 -73 -154.5s-117.667 -60.5 -207 -60.5s-160 22.667 -212 68s-78 102.666 -78 171.999zM130 770l120 145h130l120 -145h-130l-55 65l-55 -65h-130z" />
    <glyph glyph-name="scircumflex" unicode="&#x15d;" horiz-adv-x="510" 
d="M25 160l145 0.00292969c1.33301 -12 5 -22 11 -30c14.667 -20 39.334 -30 74.001 -30c26 0 45.833 4.83301 59.5 14.5s20.5 21.5 20.5 35.5c0 15.333 -4.33301 26.666 -13 33.999s-24.334 12.666 -47.001 15.999l-75 10c-59.333 8 -102.5 24.167 -129.5 48.5
s-40.5 58.166 -40.5 101.499c0 45.333 19.333 83.333 58 114s92.667 46 162 46c90 0 154.333 -26.667 193 -80c17.333 -23.333 28 -50 32 -80h-145c-3.33301 8.66699 -8 16 -14 22c-15.333 15.333 -37.333 23 -66 23c-24.667 0 -43.334 -4.16699 -56.001 -12.5
s-19 -19.166 -19 -32.499c0 -20.667 20 -34 60 -40l75 -10c113.333 -14.667 170 -68 170 -160c0 -45.333 -19.667 -83.333 -59 -114s-94.666 -46 -165.999 -46c-94.667 0 -161.667 28.333 -201 85c-17.333 25.333 -27 53.666 -29 84.999zM65 585.003l120 145h130l120 -145
h-130l-55 65l-55 -65h-130z" />
    <glyph glyph-name="Scedilla" unicode="&#x15e;" horiz-adv-x="640" 
d="M230 -235v85.001h45c26.667 0 40 10 40 30s-13.333 30 -40 30h-30v40l19 43c-76 11.333 -134 38.166 -174 80.499s-60 94.5 -60 156.5h160c0 -29.333 11.333 -53.333 34 -72s54.667 -28 96 -28c40 0 70 7 90 21s30 32 30 54c0 18.667 -7.5 34 -22.5 46
s-40.833 21.667 -77.5 29l-110 20c-62.667 11.333 -109.167 32.833 -139.5 64.5s-45.5 75.167 -45.5 130.5c0 62 23.5 113.333 70.5 154s111.833 61 194.5 61c90 0 160 -22 210 -66s75 -102 75 -174h-160c0 28.667 -11.333 52.5 -34 71.5s-53 28.5 -91 28.5
c-34 0 -60 -7.16699 -78 -21.5s-27 -32.166 -27 -53.499c0 -18 6.16699 -31.833 18.5 -41.5s34.5 -17.5 66.5 -23.5l110 -20c70 -12.667 120.833 -35 152.5 -67s47.5 -78 47.5 -138c0 -56.667 -20.5 -104.834 -61.5 -144.501s-99.167 -62.5 -174.5 -68.5l-14 -37
c12 -2.66699 23.667 -7.66699 35 -15c23.333 -18 35 -43 35 -75c0 -28.667 -11.167 -52.5 -33.5 -71.5s-52.833 -28.5 -91.5 -28.5h-65z" />
    <glyph glyph-name="scedilla" unicode="&#x15f;" horiz-adv-x="510" 
d="M165 -235l0.000976562 85.002h45c26.667 0 40 10 40 30s-13.333 30 -40 30h-30v40l19 44c-74 10 -124.667 40.667 -152 92c-12.667 21.333 -20 46 -22 74h145c1.33301 -12 5 -22 11 -30c14.667 -20 39.334 -30 74.001 -30c26 0 45.833 4.83301 59.5 14.5
s20.5 21.5 20.5 35.5c0 15.333 -4.33301 26.666 -13 33.999s-24.334 12.666 -47.001 15.999l-75 10c-59.333 8 -102.5 24.167 -129.5 48.5s-40.5 58.166 -40.5 101.499c0 45.333 19.333 83.333 58 114s92.667 46 162 46c90 0 154.333 -26.667 193 -80
c17.333 -23.333 28 -50 32 -80h-145c-3.33301 8.66699 -8 16 -14 22c-15.333 15.333 -37.333 23 -66 23c-24.667 0 -43.334 -4.16699 -56.001 -12.5s-19 -19.166 -19 -32.499c0 -20.667 20 -34 60 -40l75 -10c113.333 -14.667 170 -68 170 -160
c0 -40.667 -15.667 -75.667 -47 -105s-76 -47 -134 -53l-14 -37c12 -2.66699 23.667 -7.66699 35 -15c23.333 -18 35 -43 35 -75c0 -28.667 -11.167 -52.5 -33.5 -71.5s-52.833 -28.5 -91.5 -28.5h-65z" />
    <glyph glyph-name="Scaron" unicode="&#x160;" horiz-adv-x="640" 
d="M30 230h160c0 -29.333 11.333 -53.333 34 -72s54.667 -28 96 -28c40 0 70 7 90 21s30 32 30 54c0 18.667 -7.5 34 -22.5 46s-40.833 21.667 -77.5 29l-110 20c-62.667 11.333 -109.167 32.833 -139.5 64.5s-45.5 75.167 -45.5 130.5c0 62 23.5 113.333 70.5 154
s111.833 61 194.5 61c90 0 160 -22 210 -66s75 -102 75 -174h-160c0 28.667 -11.333 52.5 -34 71.5s-53 28.5 -91 28.5c-34 0 -60 -7.16699 -78 -21.5s-27 -32.166 -27 -53.499c0 -18 6.16699 -31.833 18.5 -41.5s34.5 -17.5 66.5 -23.5l110 -20
c70 -12.667 120.833 -35 152.5 -67s47.5 -78 47.5 -138c0 -62.667 -24.333 -114.167 -73 -154.5s-117.667 -60.5 -207 -60.5s-160 22.667 -212 68s-78 102.666 -78 171.999zM250 770l-120 145h130l55 -65l55 65h130l-120 -145h-130z" />
    <glyph glyph-name="scaron" unicode="&#x161;" horiz-adv-x="510" 
d="M25 160l145 0.00292969c1.33301 -12 5 -22 11 -30c14.667 -20 39.334 -30 74.001 -30c26 0 45.833 4.83301 59.5 14.5s20.5 21.5 20.5 35.5c0 15.333 -4.33301 26.666 -13 33.999s-24.334 12.666 -47.001 15.999l-75 10c-59.333 8 -102.5 24.167 -129.5 48.5
s-40.5 58.166 -40.5 101.499c0 45.333 19.333 83.333 58 114s92.667 46 162 46c90 0 154.333 -26.667 193 -80c17.333 -23.333 28 -50 32 -80h-145c-3.33301 8.66699 -8 16 -14 22c-15.333 15.333 -37.333 23 -66 23c-24.667 0 -43.334 -4.16699 -56.001 -12.5
s-19 -19.166 -19 -32.499c0 -20.667 20 -34 60 -40l75 -10c113.333 -14.667 170 -68 170 -160c0 -45.333 -19.667 -83.333 -59 -114s-94.666 -46 -165.999 -46c-94.667 0 -161.667 28.333 -201 85c-17.333 25.333 -27 53.666 -29 84.999zM185 585.003l-120 145h130l55 -65
l55 65h130l-120 -145h-130z" />
    <glyph glyph-name="uni0162" unicode="&#x162;" 
d="M235 -235v85h45c26.667 0 40 10 40 30s-13.333 30 -40 30h-30v40l25 50h-60v545h-195v155h550v-155h-195v-545l-20 -45c12 -2.66699 23.667 -7.66699 35 -15c23.333 -18 35 -43 35 -75c0 -28.667 -11.167 -52.5 -33.5 -71.5s-52.833 -28.5 -91.5 -28.5h-65z" />
    <glyph glyph-name="uni0163" unicode="&#x163;" horiz-adv-x="425" 
d="M165 -235v84.999h45c26.667 0 40 10 40 30s-13.333 30 -40 30h-30v40l24 56c-62.667 14.667 -94 59.334 -94 134.001v230h-80v140h80v160h150v-160h115v-140h-115v-195c0 -23.333 11.667 -35 35 -35h80v-140h-73l-17 -45c12 -2.66699 23.667 -7.66699 35 -15
c23.333 -18 35 -43 35 -75c0 -28.667 -11.167 -52.5 -33.5 -71.5s-52.833 -28.5 -91.5 -28.5h-65z" />
    <glyph glyph-name="Tcaron" unicode="&#x164;" 
d="M215 0v545h-195v155h550v-155h-195v-545h-160zM230 770l-120 145h130l55 -65l55 65h130l-120 -145h-130z" />
    <glyph glyph-name="tcaron" unicode="&#x165;" horiz-adv-x="510" 
d="M110 140v230h-80v140h80v160h150v-160h115v-140h-115v-195c0 -23.333 11.667 -35 35 -35h80v-140h-120c-96.667 0 -145 46.667 -145 140zM360 560l40 170h140l-65 -170h-115z" />
    <glyph glyph-name="Tbar" unicode="&#x166;" 
d="M215 0v320h-135v145h135v80h-195v155h550v-155h-195v-80h135v-145h-135v-320h-160z" />
    <glyph glyph-name="tbar" unicode="&#x167;" horiz-adv-x="425" 
d="M30 215v130h80v35h-80v130h80v160h150v-160h115v-130h-115v-35h115v-130h-115v-40c0 -23.333 11.667 -35 35 -35h80v-140h-120c-96.667 0 -145 46.667 -145 140v75h-80z" />
    <glyph glyph-name="Umacron" unicode="&#x16a;" horiz-adv-x="720" 
d="M65 290v410h160v-410c0 -42 13 -76.667 39 -104s58 -41 96 -41s70 13.667 96 41s39 62 39 104v410h160v-410c0 -92 -26.667 -165 -80 -219s-125 -81 -215 -81s-161.667 27 -215 81s-80 127 -80 219zM195 790v105h330v-105h-330z" />
    <glyph glyph-name="umacron" unicode="&#x16b;" horiz-adv-x="610" 
d="M60 200l-0.000976562 309.999h150v-280c0 -28 8.83301 -50.833 26.5 -68.5s40.5 -26.5 68.5 -26.5s50.833 8.83301 68.5 26.5s26.5 40.5 26.5 68.5v280h150v-510h-130l-10 45h-5c-8 -9.33301 -19.333 -18.666 -34 -27.999c-27.333 -18 -62.666 -27 -105.999 -27
c-60 0 -109.167 19.5 -147.5 58.5s-57.5 89.5 -57.5 151.5zM139.999 604.999v105h330v-105h-330z" />
    <glyph glyph-name="Ubreve" unicode="&#x16c;" horiz-adv-x="720" 
d="M65 290v410h160v-410c0 -42 13 -76.667 39 -104s58 -41 96 -41s70 13.667 96 41s39 62 39 104v410h160v-410c0 -92 -26.667 -165 -80 -219s-125 -81 -215 -81s-161.667 27 -215 81s-80 127 -80 219zM195 915h110.002c5.33301 -33.333 23.666 -50 54.999 -50
s49.666 16.667 54.999 50h110c-2.66699 -43.333 -18.5 -78.333 -47.5 -105s-68.167 -40 -117.5 -40s-88.5 13.333 -117.5 40s-44.833 61.667 -47.5 105z" />
    <glyph glyph-name="ubreve" unicode="&#x16d;" horiz-adv-x="610" 
d="M60 200l-0.000976562 309.999h150v-280c0 -28 8.83301 -50.833 26.5 -68.5s40.5 -26.5 68.5 -26.5s50.833 8.83301 68.5 26.5s26.5 40.5 26.5 68.5v280h150v-510h-130l-10 45h-5c-8 -9.33301 -19.333 -18.666 -34 -27.999c-27.333 -18 -62.666 -27 -105.999 -27
c-60 0 -109.167 19.5 -147.5 58.5s-57.5 89.5 -57.5 151.5zM139.999 724.999h110.002c5.33301 -33.333 23.666 -50 54.999 -50s49.666 16.667 54.999 50h110c-2.66699 -43.333 -18.5 -78.333 -47.5 -105s-68.167 -40 -117.5 -40s-88.5 13.333 -117.5 40
s-44.833 61.667 -47.5 105z" />
    <glyph glyph-name="Uring" unicode="&#x16e;" horiz-adv-x="720" 
d="M65 290v410h160v-410c0 -42 13 -76.667 39 -104s58 -41 96 -41s70 13.667 96 41s39 62 39 104v410h160v-410c0 -92 -26.667 -165 -80 -219s-125 -81 -215 -81s-161.667 27 -215 81s-80 127 -80 219zM250 850c0 30 10.333 55 31 75s47 30 79 30s58.333 -10 79 -30
s31 -45 31 -75s-10.333 -55 -31 -75s-47 -30 -79 -30s-58.333 10 -79 30s-31 45 -31 75zM360 815c10 0 18.333 3.33301 25 10s10 15 10 25s-3.33301 18.333 -10 25s-15 10 -25 10s-18.333 -3.33301 -25 -10s-10 -15 -10 -25s3.33301 -18.333 10 -25s15 -10 25 -10z" />
    <glyph glyph-name="uring" unicode="&#x16f;" horiz-adv-x="610" 
d="M60 200l-0.000976562 309.999h150v-280c0 -28 8.83301 -50.833 26.5 -68.5s40.5 -26.5 68.5 -26.5s50.833 8.83301 68.5 26.5s26.5 40.5 26.5 68.5v280h150v-510h-130l-10 45h-5c-8 -9.33301 -19.333 -18.666 -34 -27.999c-27.333 -18 -62.666 -27 -105.999 -27
c-60 0 -109.167 19.5 -147.5 58.5s-57.5 89.5 -57.5 151.5zM194.999 664.999c0 30 10.333 55 31 75s47 30 79 30s58.333 -10 79 -30s31 -45 31 -75s-10.333 -55 -31 -75s-47 -30 -79 -30s-58.333 10 -79 30s-31 45 -31 75zM304.999 629.999c10 0 18.333 3.33301 25 10
s10 15 10 25s-3.33301 18.333 -10 25s-15 10 -25 10s-18.333 -3.33301 -25 -10s-10 -15 -10 -25s3.33301 -18.333 10 -25s15 -10 25 -10z" />
    <glyph glyph-name="Uhungarumlaut" unicode="&#x170;" horiz-adv-x="720" 
d="M65 290v410h160v-410c0 -42 13 -76.667 39 -104s58 -41 96 -41s70 13.667 96 41s39 62 39 104v410h160v-410c0 -92 -26.667 -165 -80 -219s-125 -81 -215 -81s-161.667 27 -215 81s-80 127 -80 219zM205 770l100 145h135l-120 -145h-115zM400 770l100 145h135l-120 -145
h-115z" />
    <glyph glyph-name="uhungarumlaut" unicode="&#x171;" horiz-adv-x="610" 
d="M60 200l-0.000976562 309.999h150v-280c0 -28 8.83301 -50.833 26.5 -68.5s40.5 -26.5 68.5 -26.5s50.833 8.83301 68.5 26.5s26.5 40.5 26.5 68.5v280h150v-510h-130l-10 45h-5c-8 -9.33301 -19.333 -18.666 -34 -27.999c-27.333 -18 -62.666 -27 -105.999 -27
c-60 0 -109.167 19.5 -147.5 58.5s-57.5 89.5 -57.5 151.5zM139.999 584.999l100 145h135l-120 -145h-115zM334.999 584.999l100 145h135l-120 -145h-115z" />
    <glyph glyph-name="Uogonek" unicode="&#x172;" horiz-adv-x="720" 
d="M455 -180l-40.001 0.00195312c-93.333 0 -140 33.333 -140 100c0 28 14 52 42 72c-79.333 9.33301 -141.166 40.166 -185.499 92.499s-66.5 120.833 -66.5 205.5v410h160v-410c0 -42 13 -76.667 39 -104s58 -41 96 -41s70 13.667 96 41s39 62 39 104v410h160v-410
c0 -76 -18 -138.833 -54 -188.5s-84.667 -82.834 -146 -99.501l-31.5 -14.5c-6.33301 -3 -13.5 -9 -21.5 -18s-12 -18.833 -12 -29.5c0 -23.333 15 -35 45 -35h20v-85z" />
    <glyph glyph-name="uogonek" unicode="&#x173;" horiz-adv-x="610" 
d="M60 200l-0.000976562 310h150v-280c0 -28 8.83301 -50.833 26.5 -68.5s40.5 -26.5 68.5 -26.5s50.833 8.83301 68.5 26.5s26.5 40.5 26.5 68.5v280h150v-510h-5c-10.667 -2.66699 -21.667 -7 -33 -13c-21.333 -12 -32 -27.667 -32 -47c0 -23.333 15 -35 45 -35h20v-85
h-40c-93.333 0 -140 33.333 -140 100c0 25.333 9 45.666 27 60.999c10 8.66699 19.333 15 28 19l-10 45h-5c-8 -9.33301 -19.333 -18.666 -34 -27.999c-27.333 -18 -62.666 -27 -105.999 -27c-60 0 -109.167 19.5 -147.5 58.5s-57.5 89.5 -57.5 151.5z" />
    <glyph glyph-name="Wcircumflex" unicode="&#x174;" horiz-adv-x="990" 
d="M175 0l-170 700h175l100 -425h20l110 425h170l110 -425h20l100 425h175l-170 -700h-205l-105 420h-20l-105 -420h-205zM310 770l120 145h130l120 -145h-130l-55 65l-55 -65h-130z" />
    <glyph glyph-name="wcircumflex" unicode="&#x175;" horiz-adv-x="810" 
d="M140 0l-130 510h155l70 -290h20l75 290h150l75 -290h20l70 290h155l-130 -510h-185l-70 285h-20l-70 -285h-185zM220 585l120 145h130l120 -145h-130l-55 65l-55 -65h-130z" />
    <glyph glyph-name="Ycircumflex" unicode="&#x176;" horiz-adv-x="640" 
d="M240 0v225l-255 475h180l145 -280h20l145 280h180l-255 -475v-225h-160zM135 770l120 145h130l120 -145h-130l-55 65l-55 -65h-130z" />
    <glyph glyph-name="ycircumflex" unicode="&#x177;" horiz-adv-x="550" 
d="M60 -200v140h100c20 0 31.667 6.66699 35 20l5 15l-205 535h160l120 -320h20l100 320h160l-210 -590c-15.333 -44 -35.333 -75 -60 -93s-64.667 -27 -120 -27h-105zM90 585l120 145h130l120 -145h-130l-55 65l-55 -65h-130z" />
    <glyph glyph-name="Ydieresis" unicode="&#x178;" horiz-adv-x="640" 
d="M240 0v225l-255 475h180l145 -280h20l145 280h180l-255 -475v-225h-160zM355 780v125h130v-125h-130zM155 780v125h130v-125h-130z" />
    <glyph glyph-name="Zacute" unicode="&#x179;" horiz-adv-x="620" 
d="M40 0v145l320 400h-315v155h530v-145l-320 -400h325v-155h-540zM250 770l95 145h150l-120 -145h-125z" />
    <glyph glyph-name="zacute" unicode="&#x17a;" horiz-adv-x="505" 
d="M35 0v135l225 235h-220v140h425v-135l-225 -235h230v-140h-435zM190 585l95 145h150l-120 -145h-125z" />
    <glyph glyph-name="Zdotaccent" unicode="&#x17b;" horiz-adv-x="620" 
d="M40 0v145l320 400h-315v155h530v-145l-320 -400h325v-155h-540zM245 780v125h130v-125h-130z" />
    <glyph glyph-name="zdotaccent" unicode="&#x17c;" horiz-adv-x="505" 
d="M35 0v135l225 235h-220v140h425v-135l-225 -235h230v-140h-435zM190 590v125h130v-125h-130z" />
    <glyph glyph-name="Zcaron" unicode="&#x17d;" horiz-adv-x="620" 
d="M40 0v145l320 400h-315v155h530v-145l-320 -400h325v-155h-540zM245 770l-120 145h130l55 -65l55 65h130l-120 -145h-130z" />
    <glyph glyph-name="zcaron" unicode="&#x17e;" horiz-adv-x="505" 
d="M35 0v135l225 235h-220v140h425v-135l-225 -235h230v-140h-435zM190 585l-120 145h130l55 -65l55 65h130l-120 -145h-130z" />
    <glyph glyph-name="uni018F" unicode="&#x18f;" horiz-adv-x="750" 
d="M40 335v70h504c-10 46 -30.833 82.5 -62.5 109.5s-68.834 40.5 -111.501 40.5c-63.333 0 -111.666 -26.667 -144.999 -80h-175c24.667 75.333 66 133.333 124 174s123.333 61 196 61c96 0 176.667 -34 242 -102s98 -154 98 -258s-32.5 -190 -97.5 -258
s-144.167 -102 -237.5 -102c-94 0 -173.333 34 -238 102s-97 149 -97 243zM542 285h-333c10 -43.333 30.833 -77.5 62.5 -102.5s66.167 -37.5 103.5 -37.5c40 0 75 12.667 105 38s50.667 59.333 62 102z" />
    <glyph glyph-name="florin" unicode="&#x192;" horiz-adv-x="465" 
d="M-60 -200l30.0029 140h60c15.333 0 26.666 3.5 33.999 10.5s12.666 18.5 15.999 34.5l65 305h-95l30 140h95l31 150c10 44 29.167 78.333 57.5 103s65.833 37 112.5 37h114l-28 -125h-57c-28.667 0 -45.334 -15 -50.001 -45l-25 -120h100l-30 -140h-100l-75 -350
c-10 -44 -29.167 -78.333 -57.5 -103s-65.833 -37 -112.5 -37h-115z" />
    <glyph glyph-name="Aringacute" unicode="&#x1fa;" horiz-adv-x="700" 
d="M335 955l55 80.001h140l-95 -115c16.667 -22 25 -45.333 25 -70c0 -30 -10.333 -55 -31 -75s-47 -30 -79 -30s-58.333 10 -79 30s-31 45 -31 75c0 28 8.33301 51.167 25 69.5s40 30.166 70 35.499zM350 815.001c10 0 18.333 3.33301 25 10s10 15 10 25
s-3.33301 18.333 -10 25s-15 10 -25 10s-18.333 -3.33301 -25 -10s-10 -15 -10 -25s3.33301 -18.333 10 -25s15 -10 25 -10zM-5 0.000976562l240 700h230l240 -700h-175l-45 140h-270l-45 -140h-175zM260 280.001h180l-80 250h-20z" />
    <glyph glyph-name="aringacute" unicode="&#x1fb;" horiz-adv-x="565" 
d="M277 769l53 80.999h150l-98 -118c15.333 -19.333 23 -41.666 23 -66.999c0 -30 -10.333 -55 -31 -75s-47 -30 -79 -30s-58.333 10 -79 30s-31 45 -31 75c0 27.333 8.33301 50.5 25 69.5s39 30.5 67 34.5zM295 629.999c10 0 18.333 3.33301 25 10s10 15 10 25
s-3.33301 18.333 -10 25s-15 10 -25 10s-18.333 -3.33301 -25 -10s-10 -15 -10 -25s3.33301 -18.333 10 -25s15 -10 25 -10zM380 -0.000976562l-10.002 44.999h-5c-8 -9.33301 -19.333 -18.666 -34 -27.999c-27.333 -18 -62.666 -27 -105.999 -27c-58.667 0 -105 15 -139 45
s-51 68.333 -51 115c0 49.333 18 89.166 54 119.499s88 45.5 156 45.5h115v10c0 22.667 -7 40.834 -21 54.501s-33.667 20.5 -59 20.5c-26 0 -47.333 -7.66699 -64 -23c-8 -8 -13.333 -15.333 -16 -22h-145c6 48 28.333 87.5 67 118.5s91.334 46.5 158.001 46.5
c72.667 0 129.167 -17.667 169.5 -53s60.5 -82.333 60.5 -141v-326h-130zM359.998 204.998v10h-95c-26.667 0 -46.667 -5 -60 -15s-20 -23.333 -20 -40c0 -16 6.16699 -29.167 18.5 -39.5s29.5 -15.5 51.5 -15.5c32 0 57.5 9.16699 76.5 27.5s28.5 42.5 28.5 72.5z" />
    <glyph glyph-name="AEacute" unicode="&#x1fc;" horiz-adv-x="965" 
d="M-20 0l305 700h630v-145h-320v-135h300v-140h-300v-135h320v-145h-480v145h-220l-60 -145h-175zM275 285h160v270h-45zM455 770l95 145h150l-120 -145h-125z" />
    <glyph glyph-name="aeacute" unicode="&#x1fd;" horiz-adv-x="905" 
d="M200 355l-145 -0.000976562c6 48 27.667 87.5 65 118.5s87.333 46.5 150 46.5c52 0 96.667 -13.333 134 -40c16 -11.333 29.667 -24.666 41 -39.999c10.667 14 24.667 27.333 42 40c38.667 26.667 83 40 133 40c70 0 129.167 -24.5 177.5 -73.5s72.5 -109.5 72.5 -181.5
c0 -9.33301 -1 -22 -3 -38l-2 -12h-350c2.66699 -30 13.834 -55 33.501 -75s43.5 -30 71.5 -30c27.333 0 49.666 7.33301 66.999 22c8 8 14 15.667 18 23h150c-10.667 -32 -26 -59.667 -46 -83c-46.667 -54.667 -109.667 -82 -189 -82c-54.667 0 -102.667 14 -144 42
c-18 12 -33.333 26.333 -46 43c-12.667 -16.667 -28.667 -31 -48 -43c-44 -28 -96.333 -42 -157 -42c-58.667 0 -105 15 -139 45s-51 68.333 -51 115c0 49.333 18 89.166 54 119.499s88 45.5 156 45.5h115v10c0 22.667 -7 40.834 -21 54.501s-33.667 20.5 -59 20.5
c-26 0 -47.333 -7.66699 -64 -23c-8 -8 -13.333 -15.333 -16 -22zM360 204.999v10h-95c-26.667 0 -46.667 -5 -60 -15s-20 -23.333 -20 -40c0 -16 6.16699 -29.167 18.5 -39.5s29.5 -15.5 51.5 -15.5c32 0 57.5 9.16699 76.5 27.5s28.5 42.5 28.5 72.5zM515 304.999h209.998
c-7.33301 32 -20.166 56.667 -38.499 74s-40.5 26 -66.5 26s-48.167 -8.66699 -66.5 -26s-31.166 -42 -38.499 -74zM389.998 584.999l95 145h150l-120 -145h-125z" />
    <glyph glyph-name="Oslashacute" unicode="&#x1fe;" horiz-adv-x="770" 
d="M100 -35l60 109.999c-24 20 -44 42.667 -60 68c-40 60.667 -60 129.667 -60 207c0 104 33.333 190 100 258s148.334 102 245.001 102c26 0 51.667 -2.66699 77 -8l28 -7l20 40h160l-60 -110c24 -20 44 -42.667 60 -68c40 -60.667 60 -129.667 60 -207
c0 -104 -33.333 -190 -100 -258s-148.334 -102 -245.001 -102c-29.333 0 -55 2.33301 -77 7c-16 4.66699 -25.333 7.33398 -28 8.00098l-20 -40h-160zM235 224.999l180 325.001l-8 2c-10 2 -17.333 3 -22 3c-51.333 0 -95 -19 -131 -57s-54 -87.333 -54 -148
c0 -35.333 5.66699 -66.333 17 -93c5.33301 -12.667 11.333 -23.334 18 -32.001zM535 475l-180 -325l7 -3c9.33301 -1.33301 17 -2 23 -2c51.333 0 95 19 131 57s54 87.333 54 148c0 33.333 -6 64 -18 92c-4 10 -9.66699 21 -17 33zM320 770l95 145h150l-120 -145h-125z" />
    <glyph glyph-name="oslashacute" unicode="&#x1ff;" horiz-adv-x="600" 
d="M80 -35l45 84.999c-16.667 12.667 -31.667 29.334 -45 50.001c-30 45.333 -45 97 -45 155c0 77.333 24.833 140.833 74.5 190.5s113.167 74.5 190.5 74.5c22.667 0 41.334 -1.66699 56.001 -5l19 -5l20 35h125l-45 -85c16.667 -12.667 31.667 -29.334 45 -50.001
c30 -45.333 45 -97 45 -155c0 -77.333 -24.833 -140.833 -74.5 -190.5s-113.167 -74.5 -190.5 -74.5c-22.667 0 -41.334 1.66699 -56.001 5c-6.66699 0.666992 -13 2.33398 -19 5.00098l-20 -35h-125zM190 169.999l125 229.999h-15c-38 0 -70 -13.667 -96 -41
s-39 -62 -39 -104c0 -24.667 4 -45.667 12 -63c2 -5.33301 6.33301 -12.666 13 -21.999zM285 109.998l15 0.000976562c38 0 70 13.667 96 41s39 62 39 104c0 23.333 -4.33301 44.333 -13 63c-2.66699 7.33301 -6.66699 14.666 -12 21.999zM250 584.999l95 145h150l-120 -145
h-125z" />
    <glyph glyph-name="Scommaaccent" unicode="&#x218;" horiz-adv-x="640" 
d="M30 230h160c0 -29.333 11.333 -53.333 34 -72s54.667 -28 96 -28c40 0 70 7 90 21s30 32 30 54c0 18.667 -7.5 34 -22.5 46s-40.833 21.667 -77.5 29l-110 20c-62.667 11.333 -109.167 32.833 -139.5 64.5s-45.5 75.167 -45.5 130.5c0 62 23.5 113.333 70.5 154
s111.833 61 194.5 61c90 0 160 -22 210 -66s75 -102 75 -174h-160c0 28.667 -11.333 52.5 -34 71.5s-53 28.5 -91 28.5c-34 0 -60 -7.16699 -78 -21.5s-27 -32.166 -27 -53.499c0 -18 6.16699 -31.833 18.5 -41.5s34.5 -17.5 66.5 -23.5l110 -20
c70 -12.667 120.833 -35 152.5 -67s47.5 -78 47.5 -138c0 -62.667 -24.333 -114.167 -73 -154.5s-117.667 -60.5 -207 -60.5s-160 22.667 -212 68s-78 102.666 -78 171.999zM205 -240l40 170h140l-65 -170h-115z" />
    <glyph glyph-name="scommaaccent" unicode="&#x219;" horiz-adv-x="510" 
d="M25 160l145 0.00292969c1.33301 -12 5 -22 11 -30c14.667 -20 39.334 -30 74.001 -30c26 0 45.833 4.83301 59.5 14.5s20.5 21.5 20.5 35.5c0 15.333 -4.33301 26.666 -13 33.999s-24.334 12.666 -47.001 15.999l-75 10c-59.333 8 -102.5 24.167 -129.5 48.5
s-40.5 58.166 -40.5 101.499c0 45.333 19.333 83.333 58 114s92.667 46 162 46c90 0 154.333 -26.667 193 -80c17.333 -23.333 28 -50 32 -80h-145c-3.33301 8.66699 -8 16 -14 22c-15.333 15.333 -37.333 23 -66 23c-24.667 0 -43.334 -4.16699 -56.001 -12.5
s-19 -19.166 -19 -32.499c0 -20.667 20 -34 60 -40l75 -10c113.333 -14.667 170 -68 170 -160c0 -45.333 -19.667 -83.333 -59 -114s-94.666 -46 -165.999 -46c-94.667 0 -161.667 28.333 -201 85c-17.333 25.333 -27 53.666 -29 84.999zM140 -239.997l40 170h140l-65 -170
h-115z" />
    <glyph glyph-name="uni021A" unicode="&#x21a;" 
d="M215 0v545h-195v155h550v-155h-195v-545h-160zM180 -240l40 170h140l-65 -170h-115z" />
    <glyph glyph-name="uni021B" unicode="&#x21b;" horiz-adv-x="425" 
d="M110 140v230h-80v140h80v160h150v-160h115v-140h-115v-195c0 -23.333 11.667 -35 35 -35h80v-140h-120c-96.667 0 -145 46.667 -145 140zM140 -240l40 170h140l-65 -170h-115z" />
    <glyph glyph-name="uni0232" unicode="&#x232;" horiz-adv-x="640" 
d="M240 0v225l-255 475h180l145 -280h20l145 280h180l-255 -475v-225h-160zM155 790v105h330v-105h-330z" />
    <glyph glyph-name="uni0233" unicode="&#x233;" horiz-adv-x="550" 
d="M60 -200v140h100c20 0 31.667 6.66699 35 20l5 15l-205 535h160l120 -320h20l100 320h160l-210 -590c-15.333 -44 -35.333 -75 -60 -93s-64.667 -27 -120 -27h-105zM110 605v105h330v-105h-330z" />
    <glyph glyph-name="uni0244" unicode="&#x244;" horiz-adv-x="780" 
d="M95 290v100h-85v145h85v165h160v-165h270v165h160v-165h85v-145h-85v-100c0 -92 -26.667 -165 -80 -219s-125 -81 -215 -81s-161.667 27 -215 81s-80 127 -80 219zM255 390v-100c0 -42 13 -76.667 39 -104s58 -41 96 -41s70 13.667 96 41s39 62 39 104v100h-270z" />
    <glyph glyph-name="uni0259" unicode="&#x259;" horiz-adv-x="595" 
d="M40 295l370.001 -0.00292969c-2.66699 30.667 -14.5 55.834 -35.5 75.501s-47.5 29.5 -79.5 29.5c-26 0 -50 -7.66699 -72 -23c-10.667 -8 -18.334 -15.333 -23.001 -22h-150c12 30.667 29 58 51 82c50 55.333 114.667 83 194 83c77.333 0 140.833 -24.833 190.5 -74.5
s74.5 -113.167 74.5 -190.5s-24.833 -140.833 -74.5 -190.5s-113.167 -74.5 -190.5 -74.5c-74.667 0 -136.667 24.333 -186 73s-74 109.334 -74 182.001c0 14.667 0.666992 27.334 2 38.001zM410.001 204.997h-230c14.667 -66.667 53 -100 115 -100s100.333 33.333 115 100z
" />
    <glyph glyph-name="uni0289" unicode="&#x289;" horiz-adv-x="640" 
d="M75 200l-0.000976562 99.999h-65v130h65v80h150v-80h190v80h150v-80h65v-130h-65v-300h-130l-10 45h-5c-8 -9.33301 -19.333 -18.666 -34 -27.999c-27.333 -18 -62.666 -27 -105.999 -27c-60 0 -109.167 19.5 -147.5 58.5s-57.5 89.5 -57.5 151.5zM224.999 299.999v-70
c0 -28 8.83301 -50.833 26.5 -68.5s40.5 -26.5 68.5 -26.5s50.833 8.83301 68.5 26.5s26.5 40.5 26.5 68.5v70h-190z" />
    <glyph glyph-name="uni02BC" unicode="&#x2bc;" horiz-adv-x="240" 
d="M30 530l40 170h140l-65 -170h-115z" />
    <glyph glyph-name="circumflex" unicode="&#x2c6;" horiz-adv-x="430" 
d="M30 590l120 145h130l120 -145h-130l-55 65l-55 -65h-130z" />
    <glyph glyph-name="caron" unicode="&#x2c7;" horiz-adv-x="430" 
d="M150 590l-120 145h130l55 -65l55 65h130l-120 -145h-130z" />
    <glyph glyph-name="breve" unicode="&#x2d8;" horiz-adv-x="390" 
d="M30 730h110.002c5.33301 -33.333 23.666 -50 54.999 -50s49.666 16.667 54.999 50h110c-2.66699 -43.333 -18.5 -78.333 -47.5 -105s-68.167 -40 -117.5 -40s-88.5 13.333 -117.5 40s-44.833 61.667 -47.5 105z" />
    <glyph glyph-name="dotaccent" unicode="&#x2d9;" horiz-adv-x="190" 
d="M30 600v125h130v-125h-130z" />
    <glyph glyph-name="ring" unicode="&#x2da;" horiz-adv-x="280" 
d="M30 690c0 30 10.333 55 31 75s47 30 79 30s58.333 -10 79 -30s31 -45 31 -75s-10.333 -55 -31 -75s-47 -30 -79 -30s-58.333 10 -79 30s-31 45 -31 75zM140 655c10 0 18.333 3.33301 25 10s10 15 10 25s-3.33301 18.333 -10 25s-15 10 -25 10s-18.333 -3.33301 -25 -10
s-10 -15 -10 -25s3.33301 -18.333 10 -25s15 -10 25 -10z" />
    <glyph glyph-name="ogonek" unicode="&#x2db;" horiz-adv-x="240" 
d="M210 -180l-40 0.000976562c-93.333 0 -140 33.333 -140 100c0 25.333 9 45.666 27 60.999c10 8.66699 19.333 15 28 19h125c-10.667 -2.66699 -21.667 -7 -33 -13c-21.333 -12 -32 -27.667 -32 -47c0 -23.333 15 -35 45 -35h20v-85z" />
    <glyph glyph-name="tilde" unicode="&#x2dc;" horiz-adv-x="400" 
d="M125 595h-95c0 41.333 10 73.333 30 96s46.667 34 80 34c18.667 0 38 -5.83301 58 -17.5s34 -17.5 42 -17.5c10 0 18.333 3.33301 25 10s10 15 10 25h95c0 -41.333 -10 -73.333 -30 -96s-46.667 -34 -80 -34c-18.667 0 -38 5.83301 -58 17.5s-34 17.5 -42 17.5
c-10 0 -18.333 -3.33301 -25 -10s-10 -15 -10 -25z" />
    <glyph glyph-name="hungarumlaut" unicode="&#x2dd;" horiz-adv-x="490" 
d="M30 590l100 145h135l-120 -145h-115zM225 590l100 145h135l-120 -145h-115z" />
    <glyph glyph-name="acutecomb" unicode="&#x301;" horiz-adv-x="0" 
d="M-430 785l95 145h150l-120 -145h-125z" />
    <glyph glyph-name="uni0302" unicode="&#x302;" horiz-adv-x="0" 
d="M-550 785l120 145h130l120 -145h-130l-55 65l-55 -65h-130z" />
    <glyph glyph-name="uni0304" unicode="&#x304;" horiz-adv-x="0" 
d="M-525 805v105h330v-105h-330z" />
    <glyph glyph-name="uni0306" unicode="&#x306;" horiz-adv-x="0" 
d="M-530 920h110.002c5.33301 -33.333 23.666 -50 54.999 -50s49.666 16.667 54.999 50h110c-2.66699 -43.333 -18.5 -78.333 -47.5 -105s-68.167 -40 -117.5 -40s-88.5 13.333 -117.5 40s-44.833 61.667 -47.5 105z" />
    <glyph glyph-name="uni0307" unicode="&#x307;" horiz-adv-x="0" 
d="M-430 785v125h130v-125h-130z" />
    <glyph glyph-name="uni0308" unicode="&#x308;" horiz-adv-x="0" 
d="M-340 785v125h130v-125h-130zM-540 785v125h130v-125h-130z" />
    <glyph glyph-name="uni030A" unicode="&#x30a;" horiz-adv-x="0" 
d="M-475 870c0 30 10.333 55 31 75s47 30 79 30s58.333 -10 79 -30s31 -45 31 -75s-10.333 -55 -31 -75s-47 -30 -79 -30s-58.333 10 -79 30s-31 45 -31 75zM-365 835c10 0 18.333 3.33301 25 10s10 15 10 25s-3.33301 18.333 -10 25s-15 10 -25 10
s-18.333 -3.33301 -25 -10s-10 -15 -10 -25s3.33301 -18.333 10 -25s15 -10 25 -10z" />
    <glyph glyph-name="uni030C" unicode="&#x30c;" horiz-adv-x="0" 
d="M-430 785l-120 145h130l55 -65l55 65h130l-120 -145h-130z" />
    <glyph glyph-name="uni0326" unicode="&#x326;" horiz-adv-x="240" 
d="M30 -250l40 170h140l-65 -170h-115z" />
    <glyph glyph-name="uni0400" unicode="&#x400;" horiz-adv-x="600" 
d="M70 0v700h480v-145h-320v-135h300v-140h-300v-135h320v-145h-480zM250 770l-120 145h150l95 -145h-125z" />
    <glyph glyph-name="uni0401" unicode="&#x401;" horiz-adv-x="600" 
d="M70 0v700h480v-145h-320v-135h300v-140h-300v-135h320v-145h-480zM345 780v125h130v-125h-130zM145 780v125h130v-125h-130z" />
    <glyph glyph-name="uni0402" unicode="&#x402;" horiz-adv-x="740" 
d="M180 0l0.000976562 550h-180v150h520v-150h-180v-140c13.333 8.66699 25.666 15.334 36.999 20.001c29.333 13.333 65.333 20 108 20c68 0 122.5 -20.5 163.5 -61.5s61.5 -95.5 61.5 -163.5c0 -68.667 -21.5 -123.334 -64.5 -164.001s-101.5 -61 -175.5 -61h-50v145h38
c28 0 50.333 7.5 67 22.5s25 34.167 25 57.5s-8.5 42.5 -25.5 57.5s-40.167 22.5 -69.5 22.5c-27.333 0 -55.333 -5 -84 -15c-10.667 -4.66699 -21 -9.66699 -31 -15v-275h-160z" />
    <glyph glyph-name="uni0403" unicode="&#x403;" horiz-adv-x="555" 
d="M70 0v700h465v-155h-305v-545h-160zM240 770l95 145h150l-120 -145h-125z" />
    <glyph glyph-name="uni0404" unicode="&#x404;" horiz-adv-x="730" 
d="M210 420l239.999 0.000976562v-140h-240c7.33301 -26.667 18 -49.334 32 -68.001c32 -44.667 78 -67 138 -67c57.333 0 101 20 131 60c13.333 17.333 23 37.333 29 60h160c-10.667 -51.333 -29.667 -97.333 -57 -138c-59.333 -91.333 -147 -137 -263 -137
c-96 0 -176.667 34 -242 102s-98 154 -98 258s32.667 190 98 258s146 102 242 102c113.333 0 200.333 -45 261 -135c26 -38.667 45.667 -83.667 59 -135h-160c-7.33301 22 -17.666 41 -30.999 57c-32 38.667 -75 58 -129 58c-59.333 0 -105.333 -22.667 -138 -68
c-14 -18.667 -24.667 -41 -32 -67z" />
    <glyph glyph-name="uni0405" unicode="&#x405;" horiz-adv-x="640" 
d="M30 230h160c0 -29.333 11.333 -53.333 34 -72s54.667 -28 96 -28c40 0 70 7 90 21s30 32 30 54c0 18.667 -7.5 34 -22.5 46s-40.833 21.667 -77.5 29l-110 20c-62.667 11.333 -109.167 32.833 -139.5 64.5s-45.5 75.167 -45.5 130.5c0 62 23.5 113.333 70.5 154
s111.833 61 194.5 61c90 0 160 -22 210 -66s75 -102 75 -174h-160c0 28.667 -11.333 52.5 -34 71.5s-53 28.5 -91 28.5c-34 0 -60 -7.16699 -78 -21.5s-27 -32.166 -27 -53.499c0 -18 6.16699 -31.833 18.5 -41.5s34.5 -17.5 66.5 -23.5l110 -20
c70 -12.667 120.833 -35 152.5 -67s47.5 -78 47.5 -138c0 -62.667 -24.333 -114.167 -73 -154.5s-117.667 -60.5 -207 -60.5s-160 22.667 -212 68s-78 102.666 -78 171.999z" />
    <glyph glyph-name="uni0406" unicode="&#x406;" horiz-adv-x="300" 
d="M70 0v700h160v-700h-160z" />
    <glyph glyph-name="uni0407" unicode="&#x407;" horiz-adv-x="300" 
d="M70 0v700h160v-700h-160zM185 780v125h130v-125h-130zM-15 780v125h130v-125h-130z" />
    <glyph glyph-name="uni0408" unicode="&#x408;" horiz-adv-x="430" 
d="M10 0v155h150c30 0 45 15 45 45v500h160v-545c0 -50 -13.333 -88.333 -40 -115s-65 -40 -115 -40h-200z" />
    <glyph glyph-name="uni0409" unicode="&#x409;" horiz-adv-x="1040" 
d="M5 -5v154.999h20c48 0 74.667 26.667 80 80l40 470h485v-230h150c68 0 123.333 -21.667 166 -65s64 -100 64 -170s-21.333 -126.667 -64 -170s-98 -65 -166 -65h-310v545h-180l-30 -355c-5.33301 -63.333 -25.333 -111.666 -60 -144.999s-83 -50 -145 -50h-50z
M630 154.999h140c25.333 0 45 7 59 21s21 33.667 21 59s-7 45 -21 59s-33.667 21 -59 21h-140v-160z" />
    <glyph glyph-name="uni040A" unicode="&#x40a;" horiz-adv-x="1050" 
d="M70 0v700h160v-250h250v250h160v-250h150c69.333 0 125 -20.5 167 -61.5s63 -95.5 63 -163.5s-21 -122.5 -63 -163.5s-97.667 -61.5 -167 -61.5h-310v295h-250v-295h-160zM640 150l138 -0.00195312c25.333 0 45.333 6.83301 60 20.5s22 31.834 22 54.501
s-7.33301 40.834 -22 54.501s-34.667 20.5 -60 20.5h-138v-150z" />
    <glyph glyph-name="uni040B" unicode="&#x40b;" horiz-adv-x="750" 
d="M180 0l0.000976562 549.999h-180v150h520v-150h-180v-140c13.333 8.66699 25.666 15.334 36.999 20.001c29.333 13.333 65.333 20 108 20c66 0 117.5 -19.5 154.5 -58.5s55.5 -94.5 55.5 -166.5v-225h-160v210c0 30 -8.33301 53.333 -25 70s-40 25 -70 25
c-24.667 0 -49 -5 -73 -15c-11.333 -5.33301 -20.333 -10.333 -27 -15v-275h-160z" />
    <glyph glyph-name="uni040C" unicode="&#x40c;" horiz-adv-x="625" 
d="M70 0v700h160v-300l205 300h195l-240 -345l260 -355h-195l-225 315v-315h-160zM275 770l95 145h150l-120 -145h-125z" />
    <glyph glyph-name="uni040D" unicode="&#x40d;" horiz-adv-x="730" 
d="M70 0v700h160v-420h20l220 420h190v-700h-160v420h-20l-220 -420h-190zM305 770l-120 145h150l95 -145h-125z" />
    <glyph glyph-name="uni040E" unicode="&#x40e;" horiz-adv-x="635" 
d="M95 0l0.000976562 144.999h95c12 0 21 2.33301 27 7s12 12.334 18 23.001l7 15l-257 510h180l150 -315h20l140 315h175l-270 -585c-18.667 -40.667 -41.334 -70 -68.001 -88s-66.667 -27 -120 -27h-97zM160.001 919.999h110.002c5.33301 -33.333 23.666 -50 54.999 -50
s49.666 16.667 54.999 50h110c-2.66699 -43.333 -18.5 -78.333 -47.5 -105s-68.167 -40 -117.5 -40s-88.5 13.333 -117.5 40s-44.833 61.667 -47.5 105z" />
    <glyph glyph-name="uni040F" unicode="&#x40f;" horiz-adv-x="720" 
d="M70 0v700h160v-545h260v545h160v-700h-210v-140h-160v140h-210z" />
    <glyph glyph-name="uni0410" unicode="&#x410;" horiz-adv-x="700" 
d="M-5 0l240 700h230l240 -700h-175l-45 140h-270l-45 -140h-175zM260 280h180l-80 250h-20z" />
    <glyph glyph-name="uni0411" unicode="&#x411;" horiz-adv-x="665" 
d="M70 0v700h515v-140h-355v-130h180c65.333 0 118.333 -20.167 159 -60.5s61 -91.833 61 -154.5s-20.333 -114.167 -61 -154.5s-93.667 -60.5 -159 -60.5h-340zM230 140h170c20 0 36.667 7 50 21s20 32 20 54s-6.66699 40 -20 54s-30 21 -50 21h-170v-150z" />
    <glyph glyph-name="uni0412" unicode="&#x412;" horiz-adv-x="675" 
d="M70 0l-0.000976562 699.999h340c62 0 111.667 -18 149 -54s56 -83 56 -141c0 -42 -12.667 -79.667 -38 -113c-9.33301 -13.333 -21.666 -25.666 -36.999 -36.999v-5c17.333 -12 31.333 -24.667 42 -38c28.667 -36.667 43 -75.667 43 -117c0 -58 -18.667 -105 -56 -141
s-87 -54 -149 -54h-350zM229.999 419.999h155c20 0 36.667 6.66699 50 20s20 30 20 50s-6.66699 36.667 -20 50s-30 20 -50 20h-155v-140zM229.999 139.999h165c20 0 36.667 6.66699 50 20s20 30 20 50s-6.66699 36.667 -20 50s-30 20 -50 20h-165v-140z" />
    <glyph glyph-name="uni0413" unicode="&#x413;" horiz-adv-x="555" 
d="M70 0v700h465v-155h-305v-545h-160z" />
    <glyph glyph-name="uni0414" unicode="&#x414;" horiz-adv-x="720" 
d="M5 -140l-0.000976562 295c30 0 51.833 6.66699 65.5 20s21.834 35 24.501 65l40 460h490v-545h75v-295h-160v140h-375v-140h-160zM219.999 155h245.001v390h-185l-25 -305c-2.66699 -26.667 -9.33398 -49 -20.001 -67c-4.66699 -7.33301 -9.66699 -13.333 -15 -18z" />
    <glyph glyph-name="uni0415" unicode="&#x415;" horiz-adv-x="600" 
d="M70 0v700h480v-145h-320v-135h300v-140h-300v-135h320v-145h-480z" />
    <glyph glyph-name="uni0416" unicode="&#x416;" horiz-adv-x="880" 
d="M-10 0l210 355l-190 345h190l160 -305v305h160v-305l160 305h190l-190 -345l210 -355h-190l-180 320v-320h-160v320l-180 -320h-190z" />
    <glyph glyph-name="uni0417" unicode="&#x417;" horiz-adv-x="625" 
d="M30 225l160.002 0.00488281c0 -24 10.5 -44.167 31.5 -60.5s50.5 -24.5 88.5 -24.5s66.667 7.16699 86 21.5s29 32.166 29 53.499s-9 39.166 -27 53.499s-44 21.5 -78 21.5h-75v125h70c30.667 0 55 7 73 21s27 30.333 27 49c0 21.333 -9.33301 39.166 -28 53.499
s-46 21.5 -82 21.5c-34 0 -60 -7.5 -78 -22.5s-27 -34.167 -27 -57.5h-160c0 67.333 24.167 122.5 72.5 165.5s114.166 64.5 197.499 64.5c82 0 146.667 -20 194 -60s71 -90 71 -150c0 -46 -16 -83 -48 -111c-14.667 -12.667 -30.334 -22.334 -47.001 -29.001v-5
c20 -8.66699 37.333 -19.667 52 -33c35.333 -31.333 53 -72 53 -122c0 -60.667 -24.167 -110.834 -72.5 -150.501s-115.833 -59.5 -202.5 -59.5c-88 0 -156.667 21.667 -206 65s-74 100 -74 170z" />
    <glyph glyph-name="uni0418" unicode="&#x418;" horiz-adv-x="730" 
d="M70 0v700h160v-420h20l220 420h190v-700h-160v420h-20l-220 -420h-190z" />
    <glyph glyph-name="uni0419" unicode="&#x419;" horiz-adv-x="730" 
d="M70 0v700h160v-420h20l220 420h190v-700h-160v420h-20l-220 -420h-190zM200 920h110.002c5.33301 -33.333 23.666 -50 54.999 -50s49.666 16.667 54.999 50h110c-2.66699 -43.333 -18.5 -78.333 -47.5 -105s-68.167 -40 -117.5 -40s-88.5 13.333 -117.5 40
s-44.833 61.667 -47.5 105z" />
    <glyph glyph-name="uni041A" unicode="&#x41a;" horiz-adv-x="625" 
d="M70 0v700h160v-300l205 300h195l-240 -345l260 -355h-195l-225 315v-315h-160z" />
    <glyph glyph-name="uni041B" unicode="&#x41b;" horiz-adv-x="705" 
d="M5 -5v154.999h20c48 0 74.667 26.667 80 80l40 470h490v-700h-160v545h-185l-30 -355c-5.33301 -63.333 -25.333 -111.666 -60 -144.999s-83 -50 -145 -50h-50z" />
    <glyph glyph-name="uni041C" unicode="&#x41c;" horiz-adv-x="930" 
d="M70 0v700h245l140 -435h20l140 435h245v-700h-160v430h-20l-140 -430h-150l-140 430h-20v-430h-160z" />
    <glyph glyph-name="uni041D" unicode="&#x41d;" horiz-adv-x="730" 
d="M70 0v700h160v-265h270v265h160v-700h-160v270h-270v-270h-160z" />
    <glyph glyph-name="uni041E" unicode="&#x41e;" horiz-adv-x="760" 
d="M380 -10c-96 0 -176.667 34 -242 102s-98 154 -98 258s32.667 190 98 258s146 102 242 102s176.667 -34 242 -102s98 -154 98 -258s-32.667 -190 -98 -258s-146 -102 -242 -102zM380 145c51.333 0 94.166 18.833 128.499 56.5s51.5 87.167 51.5 148.5
s-17.167 110.833 -51.5 148.5s-77.166 56.5 -128.499 56.5s-94.166 -18.833 -128.499 -56.5s-51.5 -87.167 -51.5 -148.5s17.167 -110.833 51.5 -148.5s77.166 -56.5 128.499 -56.5z" />
    <glyph glyph-name="uni041F" unicode="&#x41f;" horiz-adv-x="720" 
d="M70 0v700h580v-700h-160v545h-260v-545h-160z" />
    <glyph glyph-name="uni0420" unicode="&#x420;" horiz-adv-x="660" 
d="M70 0v700h325c68 0 123.333 -22.333 166 -67s64 -104 64 -178s-21.333 -133.333 -64 -178s-98 -67 -166 -67h-165v-210h-160zM230 365l155 0.00195312c23.333 0 42.5 8.16699 57.5 24.5s22.5 38.166 22.5 65.499s-7.5 49.166 -22.5 65.499s-34.167 24.5 -57.5 24.5h-155
v-180z" />
    <glyph glyph-name="uni0421" unicode="&#x421;" horiz-adv-x="730" 
d="M540 265h159.999c-10.667 -51.333 -29.667 -97.333 -57 -138c-59.333 -91.333 -147 -137 -263 -137c-96 0 -176.667 34 -242 102s-98 154 -98 258s32.667 190 98 258s146 102 242 102c113.333 0 200.333 -45 261 -135c26 -38.667 45.667 -83.667 59 -135h-160
c-7.33301 22 -17.666 41 -30.999 57c-32 38.667 -75 58 -129 58c-51.333 0 -94.166 -18.833 -128.499 -56.5s-51.5 -87.167 -51.5 -148.5s17.167 -110.833 51.5 -148.5s77.166 -56.5 128.499 -56.5c57.333 0 101 20 131 60c13.333 17.333 23 37.333 29 60z" />
    <glyph glyph-name="uni0422" unicode="&#x422;" 
d="M215 0v545h-195v155h550v-155h-195v-545h-160z" />
    <glyph glyph-name="uni0423" unicode="&#x423;" horiz-adv-x="635" 
d="M95 0l0.000976562 144.999h95c12 0 21 2.33301 27 7s12 12.334 18 23.001l7 15l-257 510h180l150 -315h20l140 315h175l-270 -585c-18.667 -40.667 -41.334 -70 -68.001 -88s-66.667 -27 -120 -27h-97z" />
    <glyph glyph-name="uni0424" unicode="&#x424;" horiz-adv-x="850" 
d="M345 -20v110c-98 0 -175 25.167 -231 75.5s-84 115.166 -84 194.499s28 144.166 84 194.499s133 75.5 231 75.5v90h160v-90c98 0 175 -25.167 231 -75.5s84 -115.166 84 -194.499s-28 -144.166 -84 -194.499s-133 -75.5 -231 -75.5v-110h-160zM345 230v260
c-48.667 0 -86.667 -12 -114 -36s-41 -55.333 -41 -94s13.667 -70 41 -94s65.333 -36 114 -36zM505 490v-260c48.667 0 86.667 12 114 36s41 55.333 41 94s-13.667 70 -41 94s-65.333 36 -114 36z" />
    <glyph glyph-name="uni0425" unicode="&#x425;" horiz-adv-x="650" 
d="M-15 0l235 360l-220 340h190l125 -210h20l125 210h190l-220 -340l235 -360h-190l-140 225h-20l-140 -225h-190z" />
    <glyph glyph-name="uni0426" unicode="&#x426;" horiz-adv-x="735" 
d="M70 0v700h160v-545h250v545h160v-545h75v-295h-160v140h-485z" />
    <glyph glyph-name="uni0427" unicode="&#x427;" horiz-adv-x="690" 
d="M460 0l0.000976562 244.999c-16 -11.333 -30.333 -19.666 -43 -24.999c-36 -16.667 -75 -25 -117 -25c-76.667 0 -135.834 22.167 -177.501 66.5s-62.5 108.833 -62.5 193.5v245h160v-230c0 -80 38.333 -120 115 -120c34.667 0 66 7.33301 94 22
c12.667 7.33301 23 15 31 23v305h160v-700h-160z" />
    <glyph glyph-name="uni0428" unicode="&#x428;" horiz-adv-x="980" 
d="M70 0v700h160v-545h180v545h160v-545h180v545h160v-700h-840z" />
    <glyph glyph-name="uni0429" unicode="&#x429;" horiz-adv-x="1005" 
d="M70 0v700h160v-545h180v545h160v-545h180v545h160v-545h75v-295h-160v140h-755z" />
    <glyph glyph-name="uni042A" unicode="&#x42a;" horiz-adv-x="735" 
d="M160 0v545h-155v155h315v-220h155c68 0 123.333 -22 166 -66s64 -102 64 -174s-21.333 -130 -64 -174s-98 -66 -166 -66h-315zM320 155h145c22.667 0 41.667 7.83301 57 23.5s23 36.167 23 61.5s-7.66699 45.833 -23 61.5s-34.333 23.5 -57 23.5h-145v-170z" />
    <glyph glyph-name="uni042B" unicode="&#x42b;" horiz-adv-x="900" 
d="M670 0v700h160v-700h-160zM70 0v700h160v-220h145c68 0 123.333 -22 166 -66s64 -102 64 -174s-21.333 -130 -64 -174s-98 -66 -166 -66h-305zM230 155h135c22.667 0 41.667 7.83301 57 23.5s23 36.167 23 61.5s-7.66699 45.833 -23 61.5s-34.333 23.5 -57 23.5h-135
v-170z" />
    <glyph glyph-name="uni042C" unicode="&#x42c;" horiz-adv-x="655" 
d="M70 0v700h160v-220h165c68 0 123.333 -22 166 -66s64 -102 64 -174s-21.333 -130 -64 -174s-98 -66 -166 -66h-325zM230 155h155c22.667 0 41.667 7.83301 57 23.5s23 36.167 23 61.5s-7.66699 45.833 -23 61.5s-34.333 23.5 -57 23.5h-155v-170z" />
    <glyph glyph-name="uni042D" unicode="&#x42d;" horiz-adv-x="730" 
d="M30 265h160c6 -22.667 15.667 -42.667 29 -60c30 -40 73.667 -60 131 -60c59.333 0 105 22.333 137 67c14.667 20 25.667 42.667 33 68h-240v140h240c-6.66699 24.667 -17.667 47 -33 67c-32.667 45.333 -78.334 68 -137.001 68c-54 0 -97 -19.333 -129 -58
c-13.333 -16 -23.666 -35 -30.999 -57h-160c13.333 51.333 33 96.333 59 135c60.667 90 147.667 135 261 135c96 0 176.667 -34 242 -102s98 -154 98 -258s-32.667 -190 -98 -258s-146 -102 -242 -102c-116 0 -203.667 45.667 -263 137
c-27.333 40.667 -46.333 86.667 -57 138z" />
    <glyph glyph-name="uni042E" unicode="&#x42e;" horiz-adv-x="990" 
d="M70 0v699.998h160v-270h75c11.333 52.667 30.333 99.334 57 140.001c61.333 93.333 149 140 263 140c92 0 169.167 -33.5 231.5 -100.5s93.5 -153.5 93.5 -259.5s-31.167 -192.5 -93.5 -259.5s-139.5 -100.5 -231.5 -100.5c-116 0 -203.667 47.333 -263 142
c-26.667 40.667 -45.667 88.334 -57 143.001h-75v-275h-160zM625 144.998c47.333 0 86.666 18.333 117.999 55s47 86.667 47 150s-15.667 113.333 -47 150s-70.666 55 -117.999 55s-86.666 -18.333 -117.999 -55s-47 -86.667 -47 -150s15.667 -113.333 47 -150
s70.666 -55 117.999 -55z" />
    <glyph glyph-name="uni042F" unicode="&#x42f;" horiz-adv-x="680" 
d="M30 0l205 235c-35.333 6 -66.333 18 -93 36c-61.333 43.333 -92 106.333 -92 189c0 72 21.333 130 64 174s98 66 166 66h330v-700h-160v225h-30l-190 -225h-200zM290 370l160 -0.00195312v180h-160c-23.333 0 -42.5 -8.16699 -57.5 -24.5s-22.5 -38.166 -22.5 -65.499
s7.5 -49.166 22.5 -65.499s34.167 -24.5 57.5 -24.5z" />
    <glyph glyph-name="uni0430" unicode="&#x430;" horiz-adv-x="565" 
d="M380 0l-10.002 44.999h-5c-8 -9.33301 -19.333 -18.666 -34 -27.999c-27.333 -18 -62.666 -27 -105.999 -27c-58.667 0 -105 15 -139 45s-51 68.333 -51 115c0 49.333 18 89.166 54 119.499s88 45.5 156 45.5h115v10c0 22.667 -7 40.834 -21 54.501
s-33.667 20.5 -59 20.5c-26 0 -47.333 -7.66699 -64 -23c-8 -8 -13.333 -15.333 -16 -22h-145c6 48 28.333 87.5 67 118.5s91.334 46.5 158.001 46.5c72.667 0 129.167 -17.667 169.5 -53s60.5 -82.333 60.5 -141v-326h-130zM359.998 204.999v10h-95
c-26.667 0 -46.667 -5 -60 -15s-20 -23.333 -20 -40c0 -16 6.16699 -29.167 18.5 -39.5s29.5 -15.5 51.5 -15.5c32 0 57.5 9.16699 76.5 27.5s28.5 42.5 28.5 72.5z" />
    <glyph glyph-name="uni0431" unicode="&#x431;" horiz-adv-x="595" 
d="M40 280l-0.000976562 20.001c0 171.333 48.333 283 145 335c31.333 16.667 83 31.667 155 45c36.667 4.66699 55 24.667 55 60h140c0 -59.333 -8.33301 -101.666 -25 -126.999s-45 -43 -85 -53l-51 -12.5c-23.333 -5.66699 -39.666 -9.83398 -48.999 -12.501
s-22.666 -6.83398 -39.999 -12.501s-29.666 -11.167 -36.999 -16.5s-15.5 -12.166 -24.5 -20.499s-15.167 -17.833 -18.5 -28.5s-5 -23 -5 -37h5c11.333 11.333 21.666 19.666 30.999 24.999c29.333 16.667 60.666 25 93.999 25c67.333 0 122.5 -21.5 165.5 -64.5
s64.5 -98.167 64.5 -165.5c0 -70.667 -24.667 -130 -74 -178s-111.333 -72 -186 -72c-76.667 0 -139.167 26.167 -187.5 78.5s-72.5 122.833 -72.5 211.5zM299.999 130.001c30 0 55 10 75 30s30 45 30 75s-10 55 -30 75s-45 30 -75 30s-55 -10 -75 -30s-30 -45 -30 -75
s10 -55 30 -75s45 -30 75 -30z" />
    <glyph glyph-name="uni0432" unicode="&#x432;" horiz-adv-x="560" 
d="M60 0l-0.000976562 510.001h295c48.667 0 87.5 -13.167 116.5 -39.5s43.5 -59.833 43.5 -100.5c0 -34 -10 -61.667 -30 -83c-10 -10 -20 -17.333 -30 -22v-5c12.667 -6.66699 24.334 -15.334 35.001 -26.001c23.333 -26 35 -55.667 35 -89
c0 -40.667 -14.833 -75 -44.5 -103s-68.167 -42 -115.5 -42h-305zM209.999 105.001h110c17.333 0 30.833 4.5 40.5 13.5s14.5 21.167 14.5 36.5s-4.83301 27.5 -14.5 36.5s-23.167 13.5 -40.5 13.5h-110v-100zM209.999 315.001h105c33.333 0 50 15 50 45s-16.667 45 -50 45
h-105v-90z" />
    <glyph glyph-name="uni0433" unicode="&#x433;" horiz-adv-x="450" 
d="M60 0v510h370v-140h-220v-370h-150z" />
    <glyph glyph-name="uni0434" unicode="&#x434;" 
d="M5 -120v260c46 0 71 23.333 75 70l25 300h400v-370h70v-260h-150v120h-270v-120h-150zM195 140l160.001 -0.000976562v230h-115l-15 -160c-2.66699 -19.333 -8.33398 -36.666 -17.001 -51.999c-4.66699 -8 -9 -14 -13 -18z" />
    <glyph glyph-name="uni0435" unicode="&#x435;" horiz-adv-x="595" 
d="M395 155l149.999 0.00195312c-12 -31.333 -29 -59 -51 -83c-52 -54.667 -116.667 -82 -194 -82s-140.833 24.833 -190.5 74.5s-74.5 113.167 -74.5 190.5s24.833 140.833 74.5 190.5s113.167 74.5 190.5 74.5c74.667 0 136.667 -24.333 186 -73s74 -109.334 74 -182.001
c0 -9.33301 -1 -22 -3 -38l-2 -12h-370c2.66699 -30.667 14.5 -55.834 35.5 -75.501s47.5 -29.5 79.5 -29.5c26.667 0 50.667 7.33301 72 22c10.667 8 18.334 15.667 23.001 23zM184.999 305.002h230c-14.667 66.667 -53 100 -115 100s-100.333 -33.333 -115 -100z" />
    <glyph glyph-name="uni0436" unicode="&#x436;" horiz-adv-x="740" 
d="M-5 0l155 260l-145 250h165l125 -230v230h150v-230l125 230h165l-145 -250l155 -260h-165l-135 245v-245h-150v245l-135 -245h-165z" />
    <glyph glyph-name="uni0437" unicode="&#x437;" horiz-adv-x="520" 
d="M25 175l144.998 0.00195312c0 -18.667 7.83301 -34.167 23.5 -46.5s37.834 -18.5 66.501 -18.5c26 0 45.833 4.83301 59.5 14.5s20.5 21.5 20.5 35.5c0 33.333 -26.667 50 -80 50h-60v100h60c46.667 0 70 15 70 45c0 11.333 -6.33301 21.666 -19 30.999
s-29.667 14 -51 14c-28 0 -49.167 -4.83301 -63.5 -14.5s-21.5 -21.5 -21.5 -35.5h-145c0 45.333 21 85 63 119s97.667 51 167 51c67.333 0 120 -15.5 158 -46.5s57 -68.833 57 -113.5c0 -32.667 -11.667 -59.334 -35 -80.001c-10 -8 -21.667 -14.667 -35 -20v-5
c14.667 -4.66699 28 -11.667 40 -21c26.667 -21.333 40 -49.333 40 -84c0 -45.333 -19.667 -83.333 -59 -114s-94.666 -46 -165.999 -46c-72.667 0 -130 17.833 -172 53.5s-63 79.5 -63 131.5z" />
    <glyph glyph-name="uni0438" unicode="&#x438;" horiz-adv-x="600" 
d="M60 0v510h150v-265h20l130 265h180v-510h-150v265h-20l-130 -265h-180z" />
    <glyph glyph-name="uni0439" unicode="&#x439;" horiz-adv-x="600" 
d="M60 0v510h150v-265h20l130 265h180v-510h-150v265h-20l-130 -265h-180zM135 725h110.002c5.33301 -33.333 23.666 -50 54.999 -50s49.666 16.667 54.999 50h110c-2.66699 -43.333 -18.5 -78.333 -47.5 -105s-68.167 -40 -117.5 -40s-88.5 13.333 -117.5 40
s-44.833 61.667 -47.5 105z" />
    <glyph glyph-name="uni043A" unicode="&#x43a;" horiz-adv-x="545" 
d="M60 0v510h150v-230l175 230h170l-195 -250l205 -260h-170l-185 240v-240h-150z" />
    <glyph glyph-name="uni043B" unicode="&#x43b;" horiz-adv-x="580" 
d="M5 -5v140h20c22.667 0 39.5 5.33301 50.5 16s17.5 28.667 19.5 54l25 305h400v-510h-150v370h-115l-15 -185c-10 -126.667 -73.333 -190 -190 -190h-45z" />
    <glyph glyph-name="uni043C" unicode="&#x43c;" horiz-adv-x="770" 
d="M60 0v510h220l95 -290h20l95 290h220v-510h-150v280h-20l-95 -280h-120l-95 280h-20v-280h-150z" />
    <glyph glyph-name="uni043D" unicode="&#x43d;" 
d="M60 0v510h150v-185h170v185h150v-510h-150v185h-170v-185h-150z" />
    <glyph glyph-name="uni043E" unicode="&#x43e;" horiz-adv-x="600" 
d="M300 -10c-77.333 0 -140.833 24.833 -190.5 74.5s-74.5 113.167 -74.5 190.5s24.833 140.833 74.5 190.5s113.167 74.5 190.5 74.5s140.833 -24.833 190.5 -74.5s74.5 -113.167 74.5 -190.5s-24.833 -140.833 -74.5 -190.5s-113.167 -74.5 -190.5 -74.5zM300 130
c33.333 0 60.833 11.5 82.5 34.5s32.5 53.167 32.5 90.5s-10.833 67.5 -32.5 90.5s-49.167 34.5 -82.5 34.5s-60.833 -11.5 -82.5 -34.5s-32.5 -53.167 -32.5 -90.5s10.833 -67.5 32.5 -90.5s49.167 -34.5 82.5 -34.5z" />
    <glyph glyph-name="uni043F" unicode="&#x43f;" 
d="M60 0v510h470v-510h-150v370h-170v-370h-150z" />
    <glyph glyph-name="uni0440" unicode="&#x440;" horiz-adv-x="625" 
d="M60 -200l-0.000976562 710.001h130l10 -50h5c7.33301 10.667 18 20.667 32 30c30.667 20 66.667 30 108 30c68.667 0 126.667 -25 174 -75s71 -113.333 71 -190s-23.667 -140 -71 -190s-105.333 -75 -174 -75c-39.333 0 -72.333 8.33301 -99 25
c-9.33301 5.33301 -19.666 13.666 -30.999 24.999h-5v-240h-150zM324.999 130.001c33.333 0 60.833 11.5 82.5 34.5s32.5 53.167 32.5 90.5s-10.833 67.5 -32.5 90.5s-49.167 34.5 -82.5 34.5s-60.833 -11.5 -82.5 -34.5s-32.5 -53.167 -32.5 -90.5s10.833 -67.5 32.5 -90.5
s49.167 -34.5 82.5 -34.5z" />
    <glyph glyph-name="uni0441" unicode="&#x441;" horiz-adv-x="585" 
d="M400 200l155.001 -0.000976562c-6.66699 -37.333 -21 -72.333 -43 -105c-48.667 -70 -119.334 -105 -212.001 -105c-77.333 0 -140.833 24.833 -190.5 74.5s-74.5 113.167 -74.5 190.5s24.833 140.833 74.5 190.5s113.167 74.5 190.5 74.5c89.333 0 160 -35 212 -105
c22 -32.667 36.333 -67.667 43 -105h-155c-5.33301 13.333 -12 25 -20 35c-20.667 23.333 -47.334 35 -80.001 35c-33.333 0 -60.833 -11.5 -82.5 -34.5s-32.5 -53.167 -32.5 -90.5s10.833 -67.5 32.5 -90.5s49.167 -34.5 82.5 -34.5c34.667 0 61.334 11.667 80.001 35
c7.33301 8.66699 14 20.334 20 35.001z" />
    <glyph glyph-name="uni0442" unicode="&#x442;" horiz-adv-x="500" 
d="M175 0v370h-155v140h460v-140h-155v-370h-150z" />
    <glyph glyph-name="uni0443" unicode="&#x443;" horiz-adv-x="550" 
d="M60 -200v140h100c20 0 31.667 6.66699 35 20l5 15l-205 535h160l120 -320h20l100 320h160l-210 -590c-15.333 -44 -35.333 -75 -60 -93s-64.667 -27 -120 -27h-105z" />
    <glyph glyph-name="uni0444" unicode="&#x444;" horiz-adv-x="770" 
d="M310 -200v200c-86.667 -0 -154.167 22.833 -202.5 68.5s-72.5 107.834 -72.5 186.501s24.167 140.834 72.5 186.501s115.833 68.5 202.5 68.5v190h150v-190c86.667 0 154.167 -22.833 202.5 -68.5s72.5 -107.834 72.5 -186.501s-24.167 -140.834 -72.5 -186.501
s-115.833 -68.5 -202.5 -68.5v-200h-150zM310 140v230c-83.333 0 -125 -38.333 -125 -115s41.667 -115 125 -115zM460 370v-230c83.333 0 125 38.333 125 115s-41.667 115 -125 115z" />
    <glyph glyph-name="uni0445" unicode="&#x445;" horiz-adv-x="530" 
d="M-5 0l170 260l-160 250h165l85 -145h20l85 145h165l-160 -250l170 -260h-165l-95 160h-20l-95 -160h-165z" />
    <glyph glyph-name="uni0446" unicode="&#x446;" horiz-adv-x="615" 
d="M60 0v510h150v-370h170v370h150v-370h70v-260h-150v120h-390z" />
    <glyph glyph-name="uni0447" unicode="&#x447;" horiz-adv-x="570" 
d="M360 0l0.00292969 170.001c-12 -7.33301 -23.667 -13.333 -35 -18c-28.667 -11.333 -60.334 -17 -95.001 -17c-56.667 0 -100.834 17.167 -132.501 51.5s-47.5 83.833 -47.5 148.5v175h150v-155c0 -22.667 7 -40.834 21 -54.501s33.667 -20.5 59 -20.5
c26 0 46.333 4 61 12c7.33301 2.66699 13.666 7 18.999 13v205h150v-510h-150z" />
    <glyph glyph-name="uni0448" unicode="&#x448;" horiz-adv-x="820" 
d="M60 0v510h150v-370h125v370h150v-370h125v370h150v-510h-700z" />
    <glyph glyph-name="uni0449" unicode="&#x449;" horiz-adv-x="845" 
d="M60 0v510h150v-370h125v370h150v-370h125v370h150v-370h70v-260h-150v120h-620z" />
    <glyph glyph-name="uni044A" unicode="&#x44a;" horiz-adv-x="605" 
d="M135 0v370h-125v140h275v-150h110c54 0 98.333 -17 133 -51s52 -77 52 -129s-17.333 -95 -52 -129s-79 -51 -133 -51h-260zM285 120h80c20 0 35.833 5.5 47.5 16.5s17.5 25.5 17.5 43.5s-5.83301 32.5 -17.5 43.5s-27.5 16.5 -47.5 16.5h-80v-120z" />
    <glyph glyph-name="uni044B" unicode="&#x44b;" horiz-adv-x="765" 
d="M555 0v510h150v-510h-150zM60 0v510h150v-150h105c54 0 98.333 -17 133 -51s52 -77 52 -129s-17.333 -95 -52 -129s-79 -51 -133 -51h-255zM210 120h75c20 0 35.833 5.5 47.5 16.5s17.5 25.5 17.5 43.5s-5.83301 32.5 -17.5 43.5s-27.5 16.5 -47.5 16.5h-75v-120z" />
    <glyph glyph-name="uni044C" unicode="&#x44c;" horiz-adv-x="540" 
d="M60 0v510h150v-150h120c54 0 98.333 -17 133 -51s52 -77 52 -129s-17.333 -95 -52 -129s-79 -51 -133 -51h-270zM210 120h90c20 0 35.833 5.5 47.5 16.5s17.5 25.5 17.5 43.5s-5.83301 32.5 -17.5 43.5s-27.5 16.5 -47.5 16.5h-90v-120z" />
    <glyph glyph-name="uni044D" unicode="&#x44d;" horiz-adv-x="580" 
d="M25 190l144.998 0.000976562c5.33301 -14.667 12.333 -27.334 21 -38.001c20.667 -24.667 50.334 -37 89.001 -37c38 0 67.667 14 89 42c9.33301 12 16.333 26.333 21 43h-160v110h160c-5.33301 16 -12.333 30 -21 42c-22 28.667 -51.667 43 -89 43
c-33.333 0 -61.666 -11 -84.999 -33c-10 -8 -18.333 -18.667 -25 -32h-145c11.333 36 27.666 67.667 48.999 95c48.667 63.333 117.334 95 206.001 95c77.333 0 140.833 -24.833 190.5 -74.5s74.5 -113.167 74.5 -190.5s-24.833 -140.833 -74.5 -190.5
s-113.167 -74.5 -190.5 -74.5c-94 0 -164 33.333 -210 100c-20.667 28.667 -35.667 62 -45 100z" />
    <glyph glyph-name="uni044E" unicode="&#x44e;" horiz-adv-x="800" 
d="M60 0l-0.000976562 510.001h150v-185h55c8 35.333 22 67.666 42 96.999c46.667 65.333 114.334 98 203.001 98c75.333 0 136.666 -24.333 183.999 -73s71 -112.667 71 -192s-23.667 -143.333 -71 -192s-108.666 -73 -183.999 -73c-88 0 -155.667 32.333 -203 97
c-20 29.333 -34 62 -42 98h-55v-185h-150zM509.999 130.001c30.667 0 55.834 11 75.501 33s29.5 52.667 29.5 92s-9.83301 70 -29.5 92s-44.834 33 -75.501 33s-55.834 -11 -75.501 -33s-29.5 -52.667 -29.5 -92s9.83301 -70 29.5 -92s44.834 -33 75.501 -33z" />
    <glyph glyph-name="uni044F" unicode="&#x44f;" horiz-adv-x="560" 
d="M20 0l150 170c-24 4.66699 -46.667 14 -68 28c-44.667 29.333 -67 75 -67 137c0 50 17 91.667 51 125s77 50 129 50h285v-510h-150v170h-20l-145 -170h-165zM245 280h105v110h-105c-17.333 0 -31.666 -5.33301 -42.999 -16s-17 -23.667 -17 -39s5.66699 -28.333 17 -39
s25.666 -16 42.999 -16z" />
    <glyph glyph-name="uni0450" unicode="&#x450;" horiz-adv-x="595" 
d="M395 155l149.999 0.00195312c-12 -31.333 -29 -59 -51 -83c-52 -54.667 -116.667 -82 -194 -82s-140.833 24.833 -190.5 74.5s-74.5 113.167 -74.5 190.5s24.833 140.833 74.5 190.5s113.167 74.5 190.5 74.5c74.667 0 136.667 -24.333 186 -73s74 -109.334 74 -182.001
c0 -9.33301 -1 -22 -3 -38l-2 -12h-370c2.66699 -30.667 14.5 -55.834 35.5 -75.501s47.5 -29.5 79.5 -29.5c26.667 0 50.667 7.33301 72 22c10.667 8 18.334 15.667 23.001 23zM184.999 305.002h230c-14.667 66.667 -53 100 -115 100s-100.333 -33.333 -115 -100z
M239.999 585.002l-120 145h150l95 -145h-125z" />
    <glyph glyph-name="uni0451" unicode="&#x451;" horiz-adv-x="595" 
d="M395 155l149.999 0.00195312c-12 -31.333 -29 -59 -51 -83c-52 -54.667 -116.667 -82 -194 -82s-140.833 24.833 -190.5 74.5s-74.5 113.167 -74.5 190.5s24.833 140.833 74.5 190.5s113.167 74.5 190.5 74.5c74.667 0 136.667 -24.333 186 -73s74 -109.334 74 -182.001
c0 -9.33301 -1 -22 -3 -38l-2 -12h-370c2.66699 -30.667 14.5 -55.834 35.5 -75.501s47.5 -29.5 79.5 -29.5c26.667 0 50.667 7.33301 72 22c10.667 8 18.334 15.667 23.001 23zM184.999 305.002h230c-14.667 66.667 -53 100 -115 100s-100.333 -33.333 -115 -100z
M329.999 590.002v125h130v-125h-130zM129.999 590.002v125h130v-125h-130z" />
    <glyph glyph-name="uni0452" unicode="&#x452;" horiz-adv-x="625" 
d="M80 0l0.00195312 510.002h-75v130h75v70h150v-70h160v-130h-160v-100h5c11.333 11.333 21.666 19.666 30.999 24.999c29.333 16.667 62.333 25 99 25c60 0 109.167 -19.5 147.5 -58.5s57.5 -89.5 57.5 -151.5v-250c0 -62.667 -17.833 -111.667 -53.5 -147
s-86.167 -53 -151.5 -53h-55v140h50c17.333 0 31.666 5.66699 42.999 17s17 25.666 17 42.999v220c0 28 -8.83301 50.833 -26.5 68.5s-40.5 26.5 -68.5 26.5s-50.833 -8.83301 -68.5 -26.5s-26.5 -40.5 -26.5 -68.5v-220h-150z" />
    <glyph glyph-name="uni0453" unicode="&#x453;" horiz-adv-x="450" 
d="M60 0v510h370v-140h-220v-370h-150zM185 585l95 145h150l-120 -145h-125z" />
    <glyph glyph-name="uni0454" unicode="&#x454;" horiz-adv-x="580" 
d="M190 310l159.999 -0.000976562v-110h-160c4.66699 -16.667 11.667 -31 21 -43c21.333 -28 51 -42 89 -42c38.667 0 68.334 12.333 89.001 37c8.66699 10.667 15.667 23.334 21 38.001h145c-9.33301 -38 -24.333 -71.333 -45 -100
c-48.667 -66.667 -118.667 -100 -210 -100c-77.333 0 -140.833 24.833 -190.5 74.5s-74.5 113.167 -74.5 190.5s24.833 140.833 74.5 190.5s113.167 74.5 190.5 74.5c88.667 0 157.334 -31.667 206.001 -95c21.333 -27.333 37.666 -59 48.999 -95h-145
c-8 13.333 -16.333 24 -25 32c-26 22 -54.333 33 -85 33c-37.333 0 -67 -14.333 -89 -43c-8.66699 -12 -15.667 -26 -21 -42z" />
    <glyph glyph-name="uni0455" unicode="&#x455;" horiz-adv-x="510" 
d="M25 160l145 0.00292969c1.33301 -12 5 -22 11 -30c14.667 -20 39.334 -30 74.001 -30c26 0 45.833 4.83301 59.5 14.5s20.5 21.5 20.5 35.5c0 15.333 -4.33301 26.666 -13 33.999s-24.334 12.666 -47.001 15.999l-75 10c-59.333 8 -102.5 24.167 -129.5 48.5
s-40.5 58.166 -40.5 101.499c0 45.333 19.333 83.333 58 114s92.667 46 162 46c90 0 154.333 -26.667 193 -80c17.333 -23.333 28 -50 32 -80h-145c-3.33301 8.66699 -8 16 -14 22c-15.333 15.333 -37.333 23 -66 23c-24.667 0 -43.334 -4.16699 -56.001 -12.5
s-19 -19.166 -19 -32.499c0 -20.667 20 -34 60 -40l75 -10c113.333 -14.667 170 -68 170 -160c0 -45.333 -19.667 -83.333 -59 -114s-94.666 -46 -165.999 -46c-94.667 0 -161.667 28.333 -201 85c-17.333 25.333 -27 53.666 -29 84.999z" />
    <glyph glyph-name="uni0456" unicode="&#x456;" horiz-adv-x="270" 
d="M60 0v510h150v-510h-150zM60 584v130h150v-130h-150z" />
    <glyph glyph-name="uni0457" unicode="&#x457;" horiz-adv-x="270" 
d="M60 0v510h150v-510h-150zM170 590v125h130v-125h-130zM-30 590v125h130v-125h-130z" />
    <glyph glyph-name="uni0458" unicode="&#x458;" horiz-adv-x="270" 
d="M60 584v130h150v-130h-150zM-50 -200v140h75c23.333 0 35 11.667 35 35v535h150v-570c0 -93.333 -48.333 -140 -145 -140h-115z" />
    <glyph glyph-name="uni0459" unicode="&#x459;" horiz-adv-x="825" 
d="M5 -5v140h20c22.667 0 39.5 5.33301 50.5 16s17.5 28.667 19.5 54l25 305h395v-160h105c52 0 95 -16.667 129 -50s51 -75 51 -125s-17 -91.667 -51 -125s-77 -50 -129 -50h-255v370h-110l-15 -185c-10 -126.667 -73.333 -190 -190 -190h-45zM515 120h75
c17.333 0 31.666 5.33301 42.999 16s17 23.667 17 39s-5.66699 28.333 -17 39s-25.666 16 -42.999 16h-75v-110z" />
    <glyph glyph-name="uni045A" unicode="&#x45a;" horiz-adv-x="835" 
d="M60 0v510h150v-170h165v170h150v-170h110c52 0 94.167 -15.833 126.5 -47.5s48.5 -72.5 48.5 -122.5s-16.167 -90.833 -48.5 -122.5s-74.5 -47.5 -126.5 -47.5h-260v205h-165v-205h-150zM525 115h75c18 0 32.5 4.83301 43.5 14.5s16.5 23.167 16.5 40.5
s-5.5 30.833 -16.5 40.5s-25.5 14.5 -43.5 14.5h-75v-110z" />
    <glyph glyph-name="uni045B" unicode="&#x45b;" horiz-adv-x="625" 
d="M80 0l0.000976562 510.001h-75v130h75v70h150v-70h160v-130h-160v-100h5c11.333 11.333 21.666 19.666 30.999 24.999c29.333 16.667 62.333 25 99 25c60 0 109.167 -19.5 147.5 -58.5s57.5 -89.5 57.5 -151.5v-250h-150v220c0 28 -8.83301 50.833 -26.5 68.5
s-40.5 26.5 -68.5 26.5s-50.833 -8.83301 -68.5 -26.5s-26.5 -40.5 -26.5 -68.5v-220h-150z" />
    <glyph glyph-name="uni045C" unicode="&#x45c;" horiz-adv-x="545" 
d="M60 0v510h150v-230l175 230h170l-195 -250l205 -260h-170l-185 240v-240h-150zM240 585l95 145h150l-120 -145h-125z" />
    <glyph glyph-name="uni045D" unicode="&#x45d;" horiz-adv-x="600" 
d="M60 0v510h150v-265h20l130 265h180v-510h-150v265h-20l-130 -265h-180zM240 585l-120 145h150l95 -145h-125z" />
    <glyph glyph-name="uni045E" unicode="&#x45e;" horiz-adv-x="550" 
d="M60 -200v140h100c20 0 31.667 6.66699 35 20l5 15l-205 535h160l120 -320h20l100 320h160l-210 -590c-15.333 -44 -35.333 -75 -60 -93s-64.667 -27 -120 -27h-105zM110 725h110.002c5.33301 -33.333 23.666 -50 54.999 -50s49.666 16.667 54.999 50h110
c-2.66699 -43.333 -18.5 -78.333 -47.5 -105s-68.167 -40 -117.5 -40s-88.5 13.333 -117.5 40s-44.833 61.667 -47.5 105z" />
    <glyph glyph-name="uni045F" unicode="&#x45f;" 
d="M60 0v510h150v-370h170v370h150v-510h-160v-120h-150v120h-160z" />
    <glyph glyph-name="uni0462" unicode="&#x462;" horiz-adv-x="695" 
d="M120 0v499.998h-120v140h120v60h160v-60h185v-140h-185v-50h155c68 0 123.333 -20.667 166 -62s64 -95.666 64 -162.999s-21.333 -121.666 -64 -162.999s-98 -62 -166 -62h-315zM280 154.998h150c22.667 0 40.834 6.16699 54.501 18.5s20.5 29.5 20.5 51.5
s-6.83301 39.167 -20.5 51.5s-31.834 18.5 -54.501 18.5h-150v-140z" />
    <glyph glyph-name="uni0463" unicode="&#x463;" horiz-adv-x="585" 
d="M115 0v430h-115v140h115v130h150v-130h135v-140h-135v-70h110c54 0 98.333 -17 133 -51s52 -77 52 -129s-17.333 -95 -52 -129s-79 -51 -133 -51h-260zM265 120h80c20 0 35.833 5.5 47.5 16.5s17.5 25.5 17.5 43.5s-5.83301 32.5 -17.5 43.5s-27.5 16.5 -47.5 16.5h-80
v-120z" />
    <glyph glyph-name="uni046A" unicode="&#x46a;" horiz-adv-x="840" 
d="M35 0v80c0 80.667 17 147.167 51 199.5s90.333 90.833 169 115.5l-185 175v130h700v-130l-185 -175c78.667 -24.667 135 -63.167 169 -115.5s51 -118.833 51 -199.5v-80h-160v80c0 64.667 -13.333 112.5 -40 143.5s-61.667 46.5 -105 46.5v-270h-160v270
c-43.333 0 -78.333 -15.5 -105 -46.5s-40 -78.833 -40 -143.5v-80h-160zM265 555l155 -145l155 145h-310z" />
    <glyph glyph-name="uni046B" unicode="&#x46b;" horiz-adv-x="680" 
d="M230 385l108 -90h5l107 90h-220zM175 0h-150.002c0 77.333 15.167 140.333 45.5 189s73.5 80.667 129.5 96l-135 110v115h550v-115l-135 -110c56 -15.333 99.167 -47.333 129.5 -96s45.5 -111.667 45.5 -189h-150c0 60 -7.16699 102.667 -21.5 128s-37.166 41 -68.499 47
v-175h-150v175c-31.333 -5.33301 -54.166 -20.833 -68.499 -46.5s-21.5 -68.5 -21.5 -128.5z" />
    <glyph glyph-name="uni0472" unicode="&#x472;" horiz-adv-x="760" 
d="M380 -10c-96 0 -176.667 34 -242 102s-98 154 -98 258s32.667 190 98 258s146 102 242 102s176.667 -34 242 -102s98 -154 98 -258s-32.667 -190 -98 -258s-146 -102 -242 -102zM206 407c26 8.66699 49 12.999 69 12.999c29.333 0 64.833 -5 106.5 -15s74.5 -15 98.5 -15
c31.333 0 56 5 74 15c-8.66699 44.667 -29.167 80.834 -61.5 108.501s-69.833 41.5 -112.5 41.5s-80 -13.833 -112 -41.5s-52.667 -63.167 -62 -106.5zM206 294.999c8.66699 -44.667 29.167 -80.833 61.5 -108.5s69.833 -41.5 112.5 -41.5s80 13.5 112 40.5
s52.667 62.833 62 107.5c-26 -8.66699 -49 -13 -69 -13c-29.333 0 -64.833 5 -106.5 15s-74.5 15 -98.5 15c-31.333 0 -56 -5 -74 -15z" />
    <glyph glyph-name="uni0473" unicode="&#x473;" horiz-adv-x="600" 
d="M300 -10c-77.333 0 -140.833 24.833 -190.5 74.5s-74.5 113.167 -74.5 190.5s24.833 140.833 74.5 190.5s113.167 74.5 190.5 74.5s140.833 -24.833 190.5 -74.5s74.5 -113.167 74.5 -190.5s-24.833 -140.833 -74.5 -190.5s-113.167 -74.5 -190.5 -74.5zM190 298
l18 3.00098c10 2.66699 22.333 4 37 4c15.333 0 33 -1.66699 53 -5s37.333 -5 52 -5c16 0 29.333 1 40 3l10.5 2.5c4.33301 1 6.83301 1.5 7.5 1.5c-9.33301 25.333 -23.833 44.666 -43.5 57.999s-41.167 20 -64.5 20c-24 0 -46 -6.83301 -66 -20.5
s-34.667 -34.167 -44 -61.5zM410 212.001c-0.666992 0 -3.16699 -0.500977 -7.5 -1.50098l-10.5 -2.5c-10.667 -2 -23 -3 -37 -3c-15.333 0 -33 1.66699 -53 5s-37.333 5 -52 5c-16.667 0 -30 -1.33301 -40 -4l-18 -3c9.33301 -25.333 23.833 -44.666 43.5 -57.999
s41.167 -20 64.5 -20c24 0 46 6.83301 66 20.5s34.667 34.167 44 61.5z" />
    <glyph glyph-name="uni0474" unicode="&#x474;" horiz-adv-x="710" 
d="M230 0l-230.002 700h175l160 -500h20l103 323c20.667 65.333 46.334 112 77.001 140s67.334 42 110.001 42c21.333 0 39.333 -1.66699 54 -5l21 -4v-156l-10 5c-8 3.33301 -16.333 5 -25 5c-14 0 -26.333 -5.16699 -37 -15.5s-21.667 -31.5 -33 -63.5l-155 -471h-230z
" />
    <glyph glyph-name="uni0475" unicode="&#x475;" horiz-adv-x="570" 
d="M175 0l-170.001 509.999h155l105 -335h20l59 188c18 56.667 39 97 63 121s56.667 36 98 36c16 0 32.667 -2.66699 50 -8c2.66699 -1.33301 9.33398 -3.66602 20.001 -6.99902v-130c-2 0.666992 -5 2.33398 -9 5.00098c-8 3.33301 -15.667 5 -23 5
c-17.333 0 -30.333 -5.83301 -39 -17.5s-17 -29.834 -25 -54.501l-104 -313h-200z" />
    <glyph glyph-name="uni048A" unicode="&#x48a;" horiz-adv-x="745" 
d="M70 0v700h160v-420h20l220 420h190v-545h100v-25l-90 -270h-115l25 140h-80v420h-20l-220 -420h-190zM200 920h110.002c5.33301 -33.333 23.666 -50 54.999 -50s49.666 16.667 54.999 50h110c-2.66699 -43.333 -18.5 -78.333 -47.5 -105s-68.167 -40 -117.5 -40
s-88.5 13.333 -117.5 40s-44.833 61.667 -47.5 105z" />
    <glyph glyph-name="uni048B" unicode="&#x48b;" horiz-adv-x="620" 
d="M60 0v510h150v-265h20l130 265h180v-370h90v-30l-85 -230h-105l20 120h-70v265h-20l-130 -265h-180zM135 725h110.002c5.33301 -33.333 23.666 -50 54.999 -50s49.666 16.667 54.999 50h110c-2.66699 -43.333 -18.5 -78.333 -47.5 -105s-68.167 -40 -117.5 -40
s-88.5 13.333 -117.5 40s-44.833 61.667 -47.5 105z" />
    <glyph glyph-name="uni048C" unicode="&#x48c;" horiz-adv-x="695" 
d="M120 0v499.998h-120v140h120v60h160v-60h185v-140h-185v-50h155c68 0 123.333 -20.667 166 -62s64 -95.666 64 -162.999s-21.333 -121.666 -64 -162.999s-98 -62 -166 -62h-315zM280 154.998h150c22.667 0 40.834 6.16699 54.501 18.5s20.5 29.5 20.5 51.5
s-6.83301 39.167 -20.5 51.5s-31.834 18.5 -54.501 18.5h-150v-140z" />
    <glyph glyph-name="uni048D" unicode="&#x48d;" horiz-adv-x="585" 
d="M115 0v430h-115v140h115v130h150v-130h135v-140h-135v-70h110c54 0 98.333 -17 133 -51s52 -77 52 -129s-17.333 -95 -52 -129s-79 -51 -133 -51h-260zM265 120h80c20 0 35.833 5.5 47.5 16.5s17.5 25.5 17.5 43.5s-5.83301 32.5 -17.5 43.5s-27.5 16.5 -47.5 16.5h-80
v-120z" />
    <glyph glyph-name="uni048E" unicode="&#x48e;" horiz-adv-x="660" 
d="M70 0v700h325c68 0 123.333 -22.333 166 -67s64 -104 64 -178c0 -86 -27 -150.667 -81 -194l44 -64l-90 -52l-48 70c-18.667 -3.33301 -37 -5 -55 -5h-165v-210h-160zM230 365l117 0.00195312l-34 50l90 52l47 -67c10 13.333 15 31.666 15 54.999
c0 27.333 -7.5 49.166 -22.5 65.499s-34.167 24.5 -57.5 24.5h-155v-180z" />
    <glyph glyph-name="uni048F" unicode="&#x48f;" horiz-adv-x="625" 
d="M60 -200l-0.000976562 710.001h130l10 -50h5c7.33301 10.667 18 20.667 32 30c30.667 20 66.667 30 108 30c68.667 0 126.667 -25 174 -75s71 -113.333 71 -190c0 -80 -26.667 -146.667 -80 -200l51 -76l-81 -49l-50 75c-28 -10 -56.333 -15 -85 -15
c-39.333 0 -72.333 8.33301 -99 25c-9.33301 5.33301 -19.666 13.666 -30.999 24.999h-5v-240h-150zM344.999 132.001l-45 68l80 50l43 -64c11.333 19.333 17 42.333 17 69c0 37.333 -10.833 67.5 -32.5 90.5s-49.167 34.5 -82.5 34.5s-60.833 -11.5 -82.5 -34.5
s-32.5 -53.167 -32.5 -90.5s10.833 -67.5 32.5 -90.5s49.167 -34.5 82.5 -34.5c11.333 0 18 0.666992 20 2z" />
    <glyph glyph-name="uni0490" unicode="&#x490;" horiz-adv-x="555" 
d="M70 0v700h310v140h155v-295h-305v-545h-160z" />
    <glyph glyph-name="uni0491" unicode="&#x491;" horiz-adv-x="455" 
d="M60 0v510h235v125h140v-265h-225v-370h-150z" />
    <glyph glyph-name="uni0492" unicode="&#x492;" 
d="M110 0v275h-100v140h100v285h460v-145h-300v-140h185v-140h-185v-275h-160z" />
    <glyph glyph-name="uni0493" unicode="&#x493;" horiz-adv-x="475" 
d="M85 0v170h-80v120h80v220h370v-135h-220v-85h155v-120h-155v-170h-150z" />
    <glyph glyph-name="uni0494" unicode="&#x494;" horiz-adv-x="655" 
d="M70 0l-0.00195312 700.001h470v-155h-310v-160c8.66699 4.66699 20.334 9.66699 35.001 15c32.667 10 64.334 15 95.001 15c78.667 0 142.5 -25.833 191.5 -77.5s73.5 -120.834 73.5 -207.501c0 -88 -26.167 -157.5 -78.5 -208.5s-124.5 -76.5 -216.5 -76.5v155
c42 0 75 11.667 99 35s36 55 36 95s-11.667 71.667 -35 95s-55 35 -95 35c-22.667 0 -47.667 -5 -75 -15l-30 -15v-230h-160z" />
    <glyph glyph-name="uni0495" unicode="&#x495;" horiz-adv-x="545" 
d="M60 0v509.999h375v-140h-225v-90c6.66699 4 14.334 7.33301 23.001 10c20 6.66699 41 10 63 10c69.333 0 124 -20.833 164 -62.5s60 -102.5 60 -182.5c0 -79.333 -21.5 -141.666 -64.5 -186.999s-104.833 -68 -185.5 -68v140c66.667 2 100 38.667 100 110
c0 36.667 -8.5 64.167 -25.5 82.5s-40.167 27.5 -69.5 27.5c-17.333 0 -33.333 -3.33301 -48 -10c-6.66699 -2.66699 -12.334 -6 -17.001 -10v-140h-150z" />
    <glyph glyph-name="uni0496" unicode="&#x496;" horiz-adv-x="890" 
d="M-10 0l210 355l-190 345h190l160 -305v305h160v-305l160 305h190l-190 -345l119 -200h86v-295h-160v140h-25l-180 320v-320h-160v320l-180 -320h-190z" />
    <glyph glyph-name="uni0497" unicode="&#x497;" horiz-adv-x="740" 
d="M-5 0l155 260l-145 250h165l125 -230v230h150v-230l125 230h165l-145 -250l72 -120h78v-260h-150v120h-10l-135 245v-245h-150v245l-135 -245h-165z" />
    <glyph glyph-name="uni0498" unicode="&#x498;" horiz-adv-x="625" 
d="M235 -140l0.00195312 137.003c-65.333 12 -115.833 38.333 -151.5 79s-53.5 90.334 -53.5 149.001h160c0 -24 10.5 -44.167 31.5 -60.5s50.5 -24.5 88.5 -24.5s66.667 7.16699 86 21.5s29 32.166 29 53.499s-9 39.166 -27 53.499s-44 21.5 -78 21.5h-75v125h70
c30.667 0 55 7 73 21s27 30.333 27 49c0 21.333 -9.33301 39.166 -28 53.499s-46 21.5 -82 21.5c-34 0 -60 -7.5 -78 -22.5s-27 -34.167 -27 -57.5h-160c0 67.333 24.167 122.5 72.5 165.5s114.166 64.5 197.499 64.5c82 0 146.667 -20 194 -60s71 -90 71 -150
c0 -46 -16 -83 -48 -111c-14.667 -12.667 -30.334 -22.334 -47.001 -29.001v-5c20 -8.66699 37.333 -19.667 52 -33c35.333 -31.333 53 -72 53 -122c0 -51.333 -17 -95 -51 -131s-80.333 -59.667 -139 -71v-138h-160z" />
    <glyph glyph-name="uni0499" unicode="&#x499;" horiz-adv-x="520" 
d="M180 -120l-0.000976562 119.002c-48.667 12 -86.667 34 -114 66s-41 68.667 -41 110h145c0 -18.667 7.83301 -34.167 23.5 -46.5s37.834 -18.5 66.501 -18.5c26 0 45.833 4.83301 59.5 14.5s20.5 21.5 20.5 35.5c0 33.333 -26.667 50 -80 50h-60v100h60
c46.667 0 70 15 70 45c0 11.333 -6.33301 21.666 -19 30.999s-29.667 14 -51 14c-28 0 -49.167 -4.83301 -63.5 -14.5s-21.5 -21.5 -21.5 -35.5h-145c0 45.333 21 85 63 119s97.667 51 167 51c67.333 0 120 -15.5 158 -46.5s57 -68.833 57 -113.5
c0 -32.667 -11.667 -59.334 -35 -80.001c-10 -8 -21.667 -14.667 -35 -20v-5c14.667 -4.66699 28 -11.667 40 -21c26.667 -21.333 40 -49.333 40 -84c0 -36.667 -13.333 -69 -40 -97s-65 -47 -115 -57v-116h-150z" />
    <glyph glyph-name="uni049A" unicode="&#x49a;" horiz-adv-x="635" 
d="M70 0v700h160v-300l205 300h195l-240 -345l146 -200h89v-295h-160v140h-10l-225 315v-315h-160z" />
    <glyph glyph-name="uni049B" unicode="&#x49b;" horiz-adv-x="555" 
d="M60 0v510h150v-230l175 230h170l-195 -250l95 -120h100v-260h-150v120h-10l-185 240v-240h-150z" />
    <glyph glyph-name="uni049C" unicode="&#x49c;" horiz-adv-x="690" 
d="M70 0v700h160v-275h30v85h80v-85h20l145 275h185l-190 -345l210 -355h-190l-155 270h-25v-90h-80v90h-30v-270h-160z" />
    <glyph glyph-name="uni049D" unicode="&#x49d;" horiz-adv-x="595" 
d="M60 0v510h150v-195h25v70h65v-70h11l109 195h170l-145 -245l160 -265h-170l-125 215h-10v-75h-65v75h-25v-215h-150z" />
    <glyph glyph-name="uni049E" unicode="&#x49e;" horiz-adv-x="640" 
d="M85 0v525h-90v125h90v50h160v-50h50v-125h-50v-125l205 300h195l-240 -345l260 -355h-195l-225 315v-315h-160z" />
    <glyph glyph-name="uni049F" unicode="&#x49f;" horiz-adv-x="560" 
d="M75 0v515h-75v135h75v50h150v-50h100v-135h-100v-235l175 230h170l-195 -250l205 -260h-170l-185 240v-240h-150z" />
    <glyph glyph-name="uni04A0" unicode="&#x4a0;" horiz-adv-x="670" 
d="M115 0v555h-120v145h280v-300l205 300h195l-240 -345l260 -355h-195l-225 315v-315h-160z" />
    <glyph glyph-name="uni04A1" unicode="&#x4a1;" 
d="M105 0v375h-105v135h255v-230l175 230h170l-195 -250l205 -260h-170l-185 240v-240h-150z" />
    <glyph glyph-name="uni04A2" unicode="&#x4a2;" horiz-adv-x="755" 
d="M70 0v700h160v-265h270v265h160v-545h75v-295h-160v140h-75v270h-270v-270h-160z" />
    <glyph glyph-name="uni04A3" unicode="&#x4a3;" horiz-adv-x="615" 
d="M60 0v510h150v-185h170v185h150v-370h70v-260h-150v120h-70v185h-170v-185h-150z" />
    <glyph glyph-name="uni04A4" unicode="&#x4a4;" horiz-adv-x="950" 
d="M70 0v700h160v-265h250v265h450v-155h-290v-545h-160v270h-250v-270h-160z" />
    <glyph glyph-name="uni04A5" unicode="&#x4a5;" horiz-adv-x="740" 
d="M60 0v510h150v-185h155v185h355v-140h-205v-370h-150v185h-155v-185h-150z" />
    <glyph glyph-name="uni04A6" unicode="&#x4a6;" horiz-adv-x="1045" 
d="M70 0l-0.00195312 700.001h550v-315c8.66699 4.66699 20.334 9.66699 35.001 15c32.667 10 64.334 15 95.001 15c78.667 0 142.5 -25.833 191.5 -77.5s73.5 -120.834 73.5 -207.501c0 -88 -26.167 -157.5 -78.5 -208.5s-124.5 -76.5 -216.5 -76.5v155
c42 0 75 11.667 99 35s36 55 36 95s-11.667 71.667 -35 95s-55 35 -95 35c-22.667 0 -47.667 -5 -75 -15l-30 -15v-230h-160v545h-230v-545h-160z" />
    <glyph glyph-name="uni04A7" unicode="&#x4a7;" horiz-adv-x="845" 
d="M60 0v509.999h450v-230c6.66699 4 14.334 7.33301 23.001 10c20 6.66699 41 10 63 10c69.333 0 124 -20.833 164 -62.5s60 -102.5 60 -182.5c0 -79.333 -21.5 -141.666 -64.5 -186.999s-104.833 -68 -185.5 -68v140c66.667 2 100 38.667 100 110
c0 36.667 -8.5 64.167 -25.5 82.5s-40.167 27.5 -69.5 27.5c-17.333 0 -33.333 -3.33301 -48 -10c-6.66699 -2.66699 -12.334 -6 -17.001 -10v-140h-150v370h-150v-370h-150z" />
    <glyph glyph-name="uni04A8" unicode="&#x4a8;" horiz-adv-x="865" 
d="M800 145l-0.00195312 -155.001c-55.333 0 -98.666 2.83301 -129.999 8.5s-61.333 16.167 -90 31.5c-53.333 -26.667 -120 -40 -200 -40c-96 0 -176.667 34 -242 102s-98 154 -98 258c0 54 9.66699 104.167 29 150.5s44.5 84.5 75.5 114.5s65.167 53.333 102.5 70
s75 25 113 25v-155c-46 -5.33301 -84.167 -26.833 -114.5 -64.5s-45.5 -84.5 -45.5 -140.5c0 -60 17 -109.167 51 -147.5s77 -57.5 129 -57.5c25.333 0 45.333 3.33301 60 10c-34.667 24.667 -61.667 58.334 -81 101.001s-29 87.667 -29 135c0 84 23.333 150.667 70 200
s106.667 74 180 74c72 0 131.667 -24.5 179 -73.5s71 -116.167 71 -201.5c0 -48 -9.83301 -92.833 -29.5 -134.5s-46.5 -75.167 -80.5 -100.5c14.667 -6.66699 41.334 -10 80.001 -10zM579.998 194.999c21.333 11.333 41.668 33.833 61.001 67.5s29 71.167 29 112.5
c0 90 -30 135 -90 135s-90 -45 -90 -135c0 -41.333 9.66699 -78.833 29 -112.5s39.666 -56.167 60.999 -67.5z" />
    <glyph glyph-name="uni04A9" unicode="&#x4a9;" horiz-adv-x="695" 
d="M465 165c10 7.33301 19.999 22.168 29.999 44.501s15 44.166 15 65.499c0 24 -4 42.5 -12 55.5s-19 19.5 -33 19.5s-25 -6.5 -33 -19.5s-12 -31.5 -12 -55.5c0 -21.333 4.83301 -43 14.5 -65s19.834 -37 30.501 -45zM644.999 125.002l-0.000976562 -134.999
c-45.333 0 -80 2.5 -104 7.5s-49.333 15.833 -76 32.5c-40 -26.667 -90 -40 -150 -40c-75.333 0 -140.833 23 -196.5 69s-83.5 111.333 -83.5 196c0 76 23.333 137.667 70 185s103.334 74 170.001 80v-142c-27.333 -6.66699 -49.166 -20.334 -65.499 -41.001
s-24.5 -48 -24.5 -82c0 -37.333 10.833 -67.5 32.5 -90.5s49.167 -34.5 82.5 -34.5c10 0 21.667 1.66699 35 5c-43.333 37.333 -65 89 -65 155c0 59.333 18.5 107.5 55.5 144.5s83.5 55.5 139.5 55.5c55.333 0 101.666 -18.5 138.999 -55.5s56 -85.167 56 -144.5
c0 -60 -21.667 -111.667 -65 -155c9.33301 -6.66699 26 -10 50 -10z" />
    <glyph glyph-name="uni04AA" unicode="&#x4aa;" horiz-adv-x="730" 
d="M296 -140v140c-76 20.667 -137.667 62.167 -185 124.5s-71 137.5 -71 225.5c0 104 32.667 190 98 258s146 102 242 102c113.333 0 200.333 -45 261 -135c26 -38.667 45.667 -83.667 59 -135h-160c-7.33301 22 -17.666 41 -30.999 57c-32 38.667 -75 58 -129 58
c-51.333 0 -94.166 -18.833 -128.499 -56.5s-51.5 -87.167 -51.5 -148.5s17.167 -110.833 51.5 -148.5s77.166 -56.5 128.499 -56.5c57.333 0 101 20 131 60c13.333 17.333 23 37.333 29 60h160c-9.33301 -44 -24 -83 -44 -117c-46.667 -82 -113.334 -132 -200.001 -150
v-138h-160z" />
    <glyph glyph-name="uni04AB" unicode="&#x4ab;" horiz-adv-x="585" 
d="M225 -120v119c-58 14.667 -104.167 45 -138.5 91s-51.5 101 -51.5 165c0 77.333 24.833 140.833 74.5 190.5s113.167 74.5 190.5 74.5c89.333 0 160 -35 212 -105c22 -32.667 36.333 -67.667 43 -105h-155c-5.33301 13.333 -12 25 -20 35
c-20.667 23.333 -47.334 35 -80.001 35c-33.333 0 -60.833 -11.5 -82.5 -34.5s-32.5 -53.167 -32.5 -90.5s10.833 -67.5 32.5 -90.5s49.167 -34.5 82.5 -34.5c34.667 0 61.334 11.667 80.001 35c7.33301 8.66699 14 20.334 20 35.001h155
c-6 -30.667 -16.333 -59.334 -31 -86.001c-33.333 -60 -83 -98.333 -149 -115v-119h-150z" />
    <glyph glyph-name="uni04AC" unicode="&#x4ac;" 
d="M290 -140v140h-75v545h-195v155h550v-155h-195v-390h75v-295h-160z" />
    <glyph glyph-name="uni04AD" unicode="&#x4ad;" horiz-adv-x="500" 
d="M245 -120v120h-70v370h-155v140h460v-140h-155v-230h70v-260h-150z" />
    <glyph glyph-name="uni04AE" unicode="&#x4ae;" horiz-adv-x="640" 
d="M240 0v225l-255 475h180l145 -280h20l145 280h180l-255 -475v-225h-160z" />
    <glyph glyph-name="uni04AF" unicode="&#x4af;" horiz-adv-x="550" 
d="M200 -200v200h-20l-185 510h155l115 -335h20l115 335h155l-185 -510h-20v-200h-150z" />
    <glyph glyph-name="uni04B0" unicode="&#x4b0;" horiz-adv-x="640" 
d="M240 0v220h-165v135h95l-185 345h180l145 -280h20l145 280h180l-185 -345h95v-135h-165v-220h-160z" />
    <glyph glyph-name="uni04B1" unicode="&#x4b1;" horiz-adv-x="550" 
d="M200 -200v200h-140v130h73l-138 380h155l115 -335h20l115 335h155l-138 -380h73v-130h-140v-200h-150z" />
    <glyph glyph-name="uni04B2" unicode="&#x4b2;" horiz-adv-x="660" 
d="M-15 0l235 360l-220 340h190l125 -210h20l125 210h190l-220 -340l134 -205h91v-295h-160v140h-20l-140 225h-20l-140 -225h-190z" />
    <glyph glyph-name="uni04B3" unicode="&#x4b3;" horiz-adv-x="530" 
d="M-5 0l170 260l-160 250h165l85 -145h20l85 145h165l-160 -250l78 -120h87v-260h-150v120h-10l-95 160h-20l-95 -160h-165z" />
    <glyph glyph-name="uni04B4" unicode="&#x4b4;" horiz-adv-x="840" 
d="M185 0v545h-165v155h480v-155h-155v-390h240v545h160v-545h75v-295h-160v140h-475z" />
    <glyph glyph-name="uni04B5" unicode="&#x4b5;" horiz-adv-x="695" 
d="M145 0v370h-125v140h390v-140h-115v-230h165v370h150v-370h70v-260h-150v120h-385z" />
    <glyph glyph-name="uni04B6" unicode="&#x4b6;" horiz-adv-x="715" 
d="M535 -140l0.000976562 139.999h-75v245c-16 -11.333 -30.333 -19.666 -43 -24.999c-36 -16.667 -75 -25 -117 -25c-76.667 0 -135.834 22.167 -177.501 66.5s-62.5 108.833 -62.5 193.5v245h160v-230c0 -80 38.333 -120 115 -120c34.667 0 66 7.33301 94 22
c12.667 7.33301 23 15 31 23v305h160v-545h75v-295h-160z" />
    <glyph glyph-name="uni04B7" unicode="&#x4b7;" horiz-adv-x="595" 
d="M430 -120l0.00292969 120.001h-70v170c-12 -7.33301 -23.667 -13.333 -35 -18c-28.667 -11.333 -60.334 -17 -95.001 -17c-56.667 0 -100.834 17.167 -132.501 51.5s-47.5 83.833 -47.5 148.5v175h150v-155c0 -22.667 7 -40.834 21 -54.501s33.667 -20.5 59 -20.5
c26 0 46.333 4 61 12c7.33301 2.66699 13.666 7 18.999 13v205h150v-370h70v-260h-150z" />
    <glyph glyph-name="uni04B8" unicode="&#x4b8;" horiz-adv-x="690" 
d="M300 120l0.000976562 75.001c-76.667 0 -135.834 22.167 -177.501 66.5s-62.5 108.833 -62.5 193.5v245h160v-230c0 -66 26.667 -105 80 -117v97h80v-96c25.333 6.66699 45.333 15 60 25l20 16v305h160v-700h-160v245c-2.66699 -2.66699 -9.66699 -7.33398 -21 -14.001
c-22 -12 -41.667 -20.333 -59 -25v-86h-80z" />
    <glyph glyph-name="uni04B9" unicode="&#x4b9;" horiz-adv-x="570" 
d="M250 80l0.000976562 55h-20c-56.667 0 -100.834 17.167 -132.501 51.5s-47.5 83.833 -47.5 148.5v175h150v-155c0 -36 16.667 -59.667 50 -71v86h65v-87c11.333 2 22.666 6.66699 33.999 14c0.666992 0.666992 2.33398 1.83398 5.00098 3.50098s4.66699 3.16699 6 4.5
v205h150v-510h-150v170l-12 -7c-13.333 -6.66699 -24.333 -11.334 -33 -14.001v-69h-65z" />
    <glyph glyph-name="uni04BA" unicode="&#x4ba;" horiz-adv-x="690" 
d="M70 0l-0.000976562 699.999h160v-245c12.667 10.667 26.667 19 42 25c37.333 16.667 76.666 25 117.999 25c76.667 0 135.834 -22.167 177.501 -66.5s62.5 -108.833 62.5 -193.5v-245h-160v230c0 80 -38.333 120 -115 120c-33.333 0 -64.666 -7.66699 -93.999 -23
c-12 -7.33301 -22.333 -14.666 -31 -21.999v-305h-160z" />
    <glyph glyph-name="uni04BB" unicode="&#x4bb;" horiz-adv-x="610" 
d="M65 0l0.000976562 700.001h150v-230h5c11.333 11.333 21.666 19.666 30.999 24.999c29.333 16.667 62.333 25 99 25c60 0 109.167 -19.5 147.5 -58.5s57.5 -89.5 57.5 -151.5v-310h-150v280c0 28 -8.83301 50.833 -26.5 68.5s-40.5 26.5 -68.5 26.5
s-50.833 -8.83301 -68.5 -26.5s-26.5 -40.5 -26.5 -68.5v-280h-150z" />
    <glyph glyph-name="uni04BC" unicode="&#x4bc;" horiz-adv-x="885" 
d="M343 415h333c-10 43.333 -30.833 77.5 -62.5 102.5s-66.167 37.5 -103.5 37.5c-40 0 -75 -12.667 -105 -38s-50.667 -59.333 -62 -102zM0 435l-0.000976562 45h125v-15c0 -18 4.16699 -30.833 12.5 -38.5s22.5 -11.5 42.5 -11.5c13.333 87.333 51 158.333 113 213
s134.333 82 217 82c94 0 173.333 -34 238 -102s97 -149 97 -243v-70h-504c10 -46 30.833 -82.5 62.5 -109.5s68.834 -40.5 111.501 -40.5c63.333 0 111.666 26.667 144.999 80h175c-24.667 -75.333 -66 -133.333 -124 -174s-123.333 -61 -196 -61
c-87.333 0 -162.666 28.833 -225.999 86.5s-100.333 130.5 -111 218.5h-28c-100 0 -150 46.667 -150 140z" />
    <glyph glyph-name="uni04BD" unicode="&#x4bd;" horiz-adv-x="690" 
d="M0 310v45.001h95v-14c0 -13.333 2.66699 -22.666 8 -27.999s14.333 -8 27 -8h4c10.667 64.667 39.667 116.667 87 156s105.333 59 174 59c74.667 0 136.667 -24.333 186 -73s74 -109.334 74 -182.001c0 -9.33301 -1 -22 -3 -38l-2 -12h-370
c2.66699 -30.667 14.5 -55.834 35.5 -75.501s47.5 -29.5 79.5 -29.5c26.667 0 50.667 7.33301 72 22c10.667 8 18.334 15.667 23.001 23h150c-12 -31.333 -29 -59 -51 -83c-52 -54.667 -116.667 -82 -194 -82c-70.667 0 -129.834 20.5 -177.501 61.5
s-76.167 95.5 -85.5 163.5h-33c-32 0 -56.5 8.33301 -73.5 25s-25.5 40 -25.5 70zM280 305.001h230c-14.667 66.667 -53 100 -115 100s-100.333 -33.333 -115 -100z" />
    <glyph glyph-name="uni04BE" unicode="&#x4be;" horiz-adv-x="885" 
d="M426 -140l0.000976562 140.999c-66.667 17.333 -122.334 52.5 -167.001 105.5s-71.667 115.833 -81 188.5h-28c-100 0 -150 46.667 -150 140v45h125v-15c0 -18 4.16699 -30.833 12.5 -38.5s22.5 -11.5 42.5 -11.5c13.333 87.333 51 158.333 113 213s134.333 82 217 82
c94 0 173.333 -34 238 -102s97 -149 97 -243v-70h-504c10 -46 30.833 -82.5 62.5 -109.5s68.834 -40.5 111.501 -40.5c63.333 0 111.666 26.667 144.999 80h175c-20.667 -63.333 -53 -114.166 -97 -152.499s-94.667 -63.5 -152 -75.5v-137h-160zM343.001 414.999h333
c-10 43.333 -30.833 77.5 -62.5 102.5s-66.167 37.5 -103.5 37.5c-40 0 -75 -12.667 -105 -38s-50.667 -59.333 -62 -102z" />
    <glyph glyph-name="uni04BF" unicode="&#x4bf;" horiz-adv-x="690" 
d="M320 -120v119c-51.333 14 -93.833 39.833 -127.5 77.5s-53.834 83.834 -60.501 138.501h-33c-32 0 -56.5 8.33301 -73.5 25s-25.5 40 -25.5 70v45h95v-14c0 -13.333 2.66699 -22.666 8 -27.999s14.333 -8 27 -8h4c10.667 64.667 39.667 116.667 87 156s105.333 59 174 59
c74.667 0 136.667 -24.333 186 -73s74 -109.334 74 -182.001c0 -9.33301 -1 -22 -3 -38l-2 -12h-370c2.66699 -30.667 14.5 -55.834 35.5 -75.501s47.5 -29.5 79.5 -29.5c26.667 0 50.667 7.33301 72 22c10.667 8 18.334 15.667 23.001 23h150
c-9.33301 -24 -21.333 -45.667 -36 -65c-35.333 -46 -80 -76 -134 -90v-120h-150zM280 305h230c-14.667 66.667 -53 100 -115 100s-100.333 -33.333 -115 -100z" />
    <glyph glyph-name="uni04C0" unicode="&#x4c0;" horiz-adv-x="300" 
d="M70 0v700h160v-700h-160z" />
    <glyph glyph-name="uni04C1" unicode="&#x4c1;" horiz-adv-x="880" 
d="M-10 0l210 355l-190 345h190l160 -305v305h160v-305l160 305h190l-190 -345l210 -355h-190l-180 320v-320h-160v320l-180 -320h-190zM275 915h110.002c5.33301 -33.333 23.666 -50 54.999 -50s49.666 16.667 54.999 50h110c-2.66699 -43.333 -18.5 -78.333 -47.5 -105
s-68.167 -40 -117.5 -40s-88.5 13.333 -117.5 40s-44.833 61.667 -47.5 105z" />
    <glyph glyph-name="uni04C2" unicode="&#x4c2;" horiz-adv-x="740" 
d="M-5 0l155 260l-145 250h165l125 -230v230h150v-230l125 230h165l-145 -250l155 -260h-165l-135 245v-245h-150v245l-135 -245h-165zM205 725h110.002c5.33301 -33.333 23.666 -50 54.999 -50s49.666 16.667 54.999 50h110c-2.66699 -43.333 -18.5 -78.333 -47.5 -105
s-68.167 -40 -117.5 -40s-88.5 13.333 -117.5 40s-44.833 61.667 -47.5 105z" />
    <glyph glyph-name="uni04C3" unicode="&#x4c3;" horiz-adv-x="655" 
d="M70 0v700.001h160v-300l205 300h195l-205 -293c60 -10.667 108.333 -41.5 145 -92.5s55 -112.5 55 -184.5c0 -90.667 -26.667 -160.834 -80 -210.501s-130 -74.5 -230 -74.5v155c100 -0 150 43.333 150 130c0 40 -11.667 71.667 -35 95s-55 35 -95 35
c-22.667 0 -47.667 -5 -75 -15l-30 -15v-230h-160z" />
    <glyph glyph-name="uni04C4" unicode="&#x4c4;" horiz-adv-x="575" 
d="M60 0l-0.000976562 510.001h150v-230l175 230h170l-165 -210c100 -26.667 150 -108.334 150 -245.001c0 -87.333 -21.333 -153.333 -64 -198s-104.667 -67 -186 -67v140c66.667 0 100 40 100 120s-31.667 120 -95 120c-15.333 0 -31.666 -4.16699 -48.999 -12.5
s-29.333 -15.833 -36 -22.5v-135h-150z" />
    <glyph glyph-name="uni04C5" unicode="&#x4c5;" horiz-adv-x="720" 
d="M5 -5v154.999h20c48 0 74.667 26.667 80 80l40 470h490v-545h100v-25l-90 -270h-115l25 140h-80v545h-185l-30 -355c-5.33301 -63.333 -25.333 -111.666 -60 -144.999s-83 -50 -145 -50h-50z" />
    <glyph glyph-name="uni04C6" unicode="&#x4c6;" horiz-adv-x="600" 
d="M5 -5v140h20c22.667 0 39.5 5.33301 50.5 16s17.5 28.667 19.5 54l25 305h400v-370h90v-30l-85 -230h-105l20 120h-70v370h-115l-15 -185c-10 -126.667 -73.333 -190 -190 -190h-45z" />
    <glyph glyph-name="uni04C7" unicode="&#x4c7;" horiz-adv-x="730" 
d="M70 0v700h160v-265h270v265h160v-655c0 -92 -17.667 -157.5 -53 -196.5s-94.333 -58.5 -177 -58.5h-30v165h20c53.333 0 80 25 80 75v240h-270v-270h-160z" />
    <glyph glyph-name="uni04C8" unicode="&#x4c8;" 
d="M60 0l-0.000976562 510.001h150v-185h170v185h150v-540c0 -58.667 -15.167 -103.334 -45.5 -134.001s-70.166 -46 -119.499 -46h-60v140h25c33.333 0 50 18.333 50 55v200h-170v-185h-150z" />
    <glyph glyph-name="uni04C9" unicode="&#x4c9;" horiz-adv-x="745" 
d="M70 0v700h160v-265h270v265h160v-545h100v-25l-90 -270h-115l25 140h-80v270h-270v-270h-160z" />
    <glyph glyph-name="uni04CA" unicode="&#x4ca;" horiz-adv-x="610" 
d="M60 0v510h150v-185h170v185h150v-370h90v-30l-85 -230h-105l20 120h-70v185h-170v-185h-150z" />
    <glyph glyph-name="uni04CB" unicode="&#x4cb;" horiz-adv-x="690" 
d="M385 -140l0.000976562 254.999h75v130c-16 -11.333 -30.333 -19.666 -43 -24.999c-36 -16.667 -75 -25 -117 -25c-76.667 0 -135.834 22.167 -177.501 66.5s-62.5 108.833 -62.5 193.5v245h160v-230c0 -80 38.333 -120 115 -120c34.667 0 66 7.33301 94 22
c12.667 7.33301 23 15 31 23v305h160v-700h-75v-140h-160z" />
    <glyph glyph-name="uni04CC" unicode="&#x4cc;" horiz-adv-x="570" 
d="M280 -120l0.00292969 210.001h80v80c-12 -7.33301 -23.667 -13.333 -35 -18c-28.667 -11.333 -60.334 -17 -95.001 -17c-56.667 0 -100.834 17.167 -132.501 51.5s-47.5 83.833 -47.5 148.5v175h150v-155c0 -22.667 7 -40.834 21 -54.501s33.667 -20.5 59 -20.5
c26 0 46.333 4 61 12c7.33301 2.66699 13.666 7 18.999 13v205h150v-510h-70v-120h-160z" />
    <glyph glyph-name="uni04CD" unicode="&#x4cd;" horiz-adv-x="945" 
d="M70 0v700h245l140 -435h20l140 435h245v-545h100v-25l-90 -270h-115l25 140h-80v430h-20l-140 -430h-150l-140 430h-20v-430h-160z" />
    <glyph glyph-name="uni04CE" unicode="&#x4ce;" horiz-adv-x="790" 
d="M60 0v510h220l95 -290h20l95 290h220v-370h90v-30l-85 -230h-105l20 120h-70v280h-20l-95 -280h-120l-95 280h-20v-280h-150z" />
    <glyph glyph-name="uni04CF" unicode="&#x4cf;" horiz-adv-x="280" 
d="M65 0v700h150v-700h-150z" />
    <glyph glyph-name="uni04D0" unicode="&#x4d0;" horiz-adv-x="700" 
d="M-5 0l240 700h230l240 -700h-175l-45 140h-270l-45 -140h-175zM260 280h180l-80 250h-20zM185 915h110.002c5.33301 -33.333 23.666 -50 54.999 -50s49.666 16.667 54.999 50h110c-2.66699 -43.333 -18.5 -78.333 -47.5 -105s-68.167 -40 -117.5 -40
s-88.5 13.333 -117.5 40s-44.833 61.667 -47.5 105z" />
    <glyph glyph-name="uni04D1" unicode="&#x4d1;" horiz-adv-x="565" 
d="M380 0l-10.002 44.999h-5c-8 -9.33301 -19.333 -18.666 -34 -27.999c-27.333 -18 -62.666 -27 -105.999 -27c-58.667 0 -105 15 -139 45s-51 68.333 -51 115c0 49.333 18 89.166 54 119.499s88 45.5 156 45.5h115v10c0 22.667 -7 40.834 -21 54.501
s-33.667 20.5 -59 20.5c-26 0 -47.333 -7.66699 -64 -23c-8 -8 -13.333 -15.333 -16 -22h-145c6 48 28.333 87.5 67 118.5s91.334 46.5 158.001 46.5c72.667 0 129.167 -17.667 169.5 -53s60.5 -82.333 60.5 -141v-326h-130zM359.998 204.999v10h-95
c-26.667 0 -46.667 -5 -60 -15s-20 -23.333 -20 -40c0 -16 6.16699 -29.167 18.5 -39.5s29.5 -15.5 51.5 -15.5c32 0 57.5 9.16699 76.5 27.5s28.5 42.5 28.5 72.5zM129.998 724.999h110.002c5.33301 -33.333 23.666 -50 54.999 -50s49.666 16.667 54.999 50h110
c-2.66699 -43.333 -18.5 -78.333 -47.5 -105s-68.167 -40 -117.5 -40s-88.5 13.333 -117.5 40s-44.833 61.667 -47.5 105z" />
    <glyph glyph-name="uni04D2" unicode="&#x4d2;" horiz-adv-x="700" 
d="M-5 0l240 700h230l240 -700h-175l-45 140h-270l-45 -140h-175zM260 280h180l-80 250h-20zM385 780v125h130v-125h-130zM185 780v125h130v-125h-130z" />
    <glyph glyph-name="uni04D3" unicode="&#x4d3;" horiz-adv-x="565" 
d="M380 0l-10.002 44.999h-5c-8 -9.33301 -19.333 -18.666 -34 -27.999c-27.333 -18 -62.666 -27 -105.999 -27c-58.667 0 -105 15 -139 45s-51 68.333 -51 115c0 49.333 18 89.166 54 119.499s88 45.5 156 45.5h115v10c0 22.667 -7 40.834 -21 54.501
s-33.667 20.5 -59 20.5c-26 0 -47.333 -7.66699 -64 -23c-8 -8 -13.333 -15.333 -16 -22h-145c6 48 28.333 87.5 67 118.5s91.334 46.5 158.001 46.5c72.667 0 129.167 -17.667 169.5 -53s60.5 -82.333 60.5 -141v-326h-130zM359.998 204.999v10h-95
c-26.667 0 -46.667 -5 -60 -15s-20 -23.333 -20 -40c0 -16 6.16699 -29.167 18.5 -39.5s29.5 -15.5 51.5 -15.5c32 0 57.5 9.16699 76.5 27.5s28.5 42.5 28.5 72.5zM329.998 589.999v125h130v-125h-130zM129.998 589.999v125h130v-125h-130z" />
    </font>
</defs>
</svg>
