<?xml version="1.0" standalone="no"?>
<!DOCTYPE svg PUBLIC "-//W3C//DTD SVG 1.1//EN" "http://www.w3.org/Graphics/SVG/1.1/DTD/svg11.dtd" >
<svg>
<metadata>
Created by FontForge 20090914 at Sat Sep  4 10:12:04 2021
 By www-data
Copyright (c) 2019 by TypeType. Designers Ivan Gladkikh, Pavel Emelyanov. Technical designers Marina Khodak, Nadezhda Polomoshnova, Kseniya Karataeva, Olexa Volochay, Nadyr Rakhimov. All rights reserved. |DCNT
</metadata>
<defs>
<font id="TTHoves-Light" horiz-adv-x="560" >
  <font-face 
    font-family="TT Hoves Light"
    font-weight="300"
    font-stretch="normal"
    units-per-em="1000"
    panose-1="2 0 5 3 2 0 0 2 0 4"
    ascent="700"
    descent="-300"
    x-height="500"
    cap-height="700"
    bbox="-500 -240 1438 970"
    underline-thickness="50"
    underline-position="-150"
    unicode-range="U+000D-U+FB04"
  />
<missing-glyph horiz-adv-x="0" 
 />
    <glyph glyph-name="f_f" unicode="ff" horiz-adv-x="545" 
d="M110 0v445h-80v55h80v95c0 26 8 46.667 24 62s38 23 66 23h85v-60h-80c-23.333 0 -35 -11.667 -35 -35v-85h175v95c0 26 8 46.667 24 62s38 23 66 23h85v-60h-80c-23.333 0 -35 -11.667 -35 -35v-85h115v-55h-115v-445h-60v445h-175v-445h-60z" />
    <glyph glyph-name="uniFB01" unicode="fi" horiz-adv-x="490" 
d="M110 0v445h-80v55h80v95c0 26 8 46.667 24 62s38 23 66 23h75v-60h-70c-23.333 0 -35 -11.667 -35 -35v-85h235v-500h-60v445h-175v-445h-60zM340 610v70h70v-70h-70z" />
    <glyph glyph-name="uniFB02" unicode="fl" horiz-adv-x="490" 
d="M110 0v445h-80v55h80v95c0 26 8 46.667 24 62s38 23 66 23h205v-680h-60v620h-140c-23.333 0 -35 -11.667 -35 -35v-85h105v-55h-105v-445h-60z" />
    <glyph glyph-name="f_f_i" unicode="ffi" horiz-adv-x="725" 
d="M110 0v445h-80v55h80v95c0 26 8 46.667 24 62s38 23 66 23h85v-60h-80c-23.333 0 -35 -11.667 -35 -35v-85h175v95c0 26 8 46.667 24 62s38 23 66 23h75v-60h-70c-23.333 0 -35 -11.667 -35 -35v-85h235v-500h-60v445h-175v-445h-60v445h-175v-445h-60zM575 610v70h70
v-70h-70z" />
    <glyph glyph-name="f_f_l" unicode="ffl" horiz-adv-x="725" 
d="M110 0v445h-80v55h80v95c0 26 8 46.667 24 62s38 23 66 23h85v-60h-80c-23.333 0 -35 -11.667 -35 -35v-85h175v95c0 26 8 46.667 24 62s38 23 66 23h205v-680h-60v620h-140c-23.333 0 -35 -11.667 -35 -35v-85h105v-55h-105v-445h-60v445h-175v-445h-60z" />
    <glyph glyph-name="f_f_j" unicode="ffj" horiz-adv-x="725" 
d="M575 610v70h70v-70h-70zM110 0v445h-80v55h80v95c0 26 8 46.667 24 62s38 23 66 23h85v-60h-80c-23.333 0 -35 -11.667 -35 -35v-85h175v95c0 26 8 46.667 24 62s38 23 66 23h75v-60h-70c-23.333 0 -35 -11.667 -35 -35v-85h235v-615c0 -26 -8 -46.667 -24 -62
s-38 -23 -66 -23h-85v60h80c23.333 0 35 11.667 35 35v550h-175v-445h-60v445h-175v-445h-60z" />
    <glyph glyph-name="f_j" unicode="fj" horiz-adv-x="490" 
d="M230 -200v60h80c23.333 0 35 11.667 35 35v550h-175v-445h-60v445h-80v55h80v95c0 26 8 46.667 24 62s38 23 66 23h75v-60h-70c-23.333 0 -35 -11.667 -35 -35v-85h235v-615c0 -26 -8 -46.667 -24 -62s-38 -23 -66 -23h-85zM340 610v70h70v-70h-70z" />
    <glyph glyph-name=".notdef" horiz-adv-x="0" 
 />
    <glyph glyph-name="NULL" horiz-adv-x="0" 
 />
    <glyph glyph-name="NULL" horiz-adv-x="0" 
 />
    <glyph glyph-name="CR" unicode="&#xd;" horiz-adv-x="0" 
 />
    <glyph glyph-name="space" unicode=" " horiz-adv-x="225" 
 />
    <glyph glyph-name="exclam" unicode="!" horiz-adv-x="250" 
d="M100 155l-5 240v305h60v-305l-5 -240h-50zM90 0v70h70v-70h-70z" />
    <glyph glyph-name="quotedbl" unicode="&#x22;" horiz-adv-x="340" 
d="M210 500v200h60v-200h-60zM70 500v200h60v-200h-60z" />
    <glyph glyph-name="numbersign" unicode="#" horiz-adv-x="680" 
d="M120 0l41 190h-146l12 60h147l43 200h-147l13 60h147l40 190h60l-41 -190h166l40 190h60l-41 -190h151l-13 -60h-151l-42 -200h150l-12 -60h-151l-41 -190h-60l41 190h-166l-40 -190h-60zM233 250h166l42 200h-165z" />
    <glyph glyph-name="dollar" unicode="$" horiz-adv-x="625" 
d="M275 -110l0.000976562 102.001c-67.333 8 -120.833 32 -160.5 72s-59.5 87 -59.5 141h60c0 -42 18.333 -78.333 55 -109s85 -46 145 -46c62 0 109.167 12.5 141.5 37.5s48.5 57.5 48.5 97.5c0 69.333 -46.333 112 -139 128l-111 19
c-62.667 10.667 -109.167 30.834 -139.5 60.501s-45.5 70.5 -45.5 122.5s18.167 95.833 54.5 131.5s86.5 56.167 150.5 61.5v102h60v-101c69.333 -5.33301 124.166 -28 164.499 -68s60.5 -88.667 60.5 -146h-60c0 44 -17.5 80.833 -52.5 110.5s-82.5 44.5 -142.5 44.5
c-56 0 -99.167 -12.667 -129.5 -38s-45.5 -57.666 -45.5 -96.999c0 -35.333 11 -63 33 -83s56 -34 102 -42l101 -18c70 -12.667 120.667 -33.834 152 -63.501s47 -70.834 47 -123.501c0 -55.333 -20 -100.833 -60 -136.5s-96.667 -54.834 -170 -57.501v-101h-60z" />
    <glyph glyph-name="percent" unicode="%" horiz-adv-x="760" 
d="M130 0l435 700h60l-435 -700h-60zM195 710c42.667 0 78.334 -14.5 107.001 -43.5s43 -66.167 43 -111.5s-14.333 -82.5 -43 -111.5s-64.334 -43.5 -107.001 -43.5s-78.334 14.5 -107.001 43.5s-43 66.167 -43 111.5s14.333 82.5 43 111.5s64.334 43.5 107.001 43.5z
M195 455c28 0 50.833 9.16699 68.5 27.5s26.5 42.5 26.5 72.5s-8.83301 54.167 -26.5 72.5s-40.5 27.5 -68.5 27.5s-50.833 -9.16699 -68.5 -27.5s-26.5 -42.5 -26.5 -72.5s8.83301 -54.167 26.5 -72.5s40.5 -27.5 68.5 -27.5zM565 -10
c-42.667 0 -78.334 14.5 -107.001 43.5s-43 66.167 -43 111.5s14.333 82.5 43 111.5s64.334 43.5 107.001 43.5s78.334 -14.5 107.001 -43.5s43 -66.167 43 -111.5s-14.333 -82.5 -43 -111.5s-64.334 -43.5 -107.001 -43.5zM565 45c28 0 50.833 9.16699 68.5 27.5
s26.5 42.5 26.5 72.5s-8.83301 54.167 -26.5 72.5s-40.5 27.5 -68.5 27.5s-50.833 -9.16699 -68.5 -27.5s-26.5 -42.5 -26.5 -72.5s8.83301 -54.167 26.5 -72.5s40.5 -27.5 68.5 -27.5z" />
    <glyph glyph-name="ampersand" unicode="&#x26;" horiz-adv-x="625" 
d="M151 331l46.001 36.002l-52 58c-20.667 23.333 -35.834 43.666 -45.501 60.999s-14.5 38.666 -14.5 63.999c0 46 16.167 84.167 48.5 114.5s74.5 45.5 126.5 45.5c49.333 0 90.833 -16 124.5 -48s50.5 -71 50.5 -117c0 -52.667 -30 -99.667 -90 -141l-65 -45l176 -189
c9.33301 10.667 17.333 24.667 24 42c16.667 37.333 25 76.666 25 117.999h60c0 -52.667 -11.333 -102.334 -34 -149.001c-10 -21.333 -21.333 -39.666 -34 -54.999l118 -126h-75l-76 81c-18 -19.333 -36.333 -34.666 -55 -45.999c-45.333 -30 -95 -45 -149 -45
c-64 0 -114.167 16.333 -150.5 49s-54.5 74.667 -54.5 126c0 35.333 8 65.833 24 91.5s40 50.5 72 74.5zM243.001 399.002l67 46.002c43.333 29.333 65 62.666 65 99.999c0 30.667 -10.5 55.834 -31.5 75.501s-48.833 29.5 -83.5 29.5s-62.5 -9.5 -83.5 -28.5
s-31.5 -42.833 -31.5 -71.5c0 -18.667 3.83301 -35.334 11.5 -50.001s20.5 -31.334 38.5 -50.001zM424.001 124.004l-188 202l-46 -36c-26 -20 -45 -39 -57 -57s-18 -40.667 -18 -68c0 -34 12.5 -61.667 37.5 -83s60.833 -32 107.5 -32c60 0 114.667 24.667 164 74z" />
    <glyph glyph-name="quotesingle" unicode="'" horiz-adv-x="200" 
d="M70 500v200h60v-200h-60z" />
    <glyph glyph-name="parenleft" unicode="(" horiz-adv-x="325" 
d="M295 -200l-65 -0.00195312c-37.333 48.667 -70.833 114 -100.5 196s-44.5 171.667 -44.5 269s14.833 187 44.5 269s63.167 147.333 100.5 196h65c-39.333 -51.333 -74.166 -116.666 -104.499 -195.999s-45.5 -169 -45.5 -269s15.167 -189.667 45.5 -269
s65.166 -144.666 104.499 -195.999z" />
    <glyph glyph-name="parenright" unicode=")" horiz-adv-x="325" 
d="M95 -200l-65 0.00195312c100 137.333 150 292.333 150 465s-50 327.667 -150 465h65c38 -52 71.667 -118.333 101 -199s44 -169.334 44 -266.001s-14.667 -185.334 -44 -266.001s-63 -147 -101 -199z" />
    <glyph glyph-name="asterisk" unicode="*" horiz-adv-x="470" 
d="M100 375l90 122l-145 43l20 55l143 -50l-3 155h60l-3 -155l143 50l20 -55l-145 -43l90 -122l-45 -35l-90 125l-90 -125z" />
    <glyph glyph-name="plus" unicode="+" horiz-adv-x="540" 
d="M240 65v200h-185v55h185v200h60v-200h185v-55h-185v-200h-60z" />
    <glyph glyph-name="comma" unicode="," horiz-adv-x="210" 
d="M50 -80l25 150h65l-40 -150h-50z" />
    <glyph glyph-name="hyphen" unicode="-" horiz-adv-x="420" 
d="M50 260v55h320v-55h-320z" />
    <glyph glyph-name="period" unicode="." horiz-adv-x="210" 
d="M70 0v70h70v-70h-70z" />
    <glyph glyph-name="slash" unicode="/" horiz-adv-x="335" 
d="M0 -200l275 930h60l-275 -930h-60z" />
    <glyph glyph-name="zero" unicode="0" horiz-adv-x="650" 
d="M590 350c0 -112.667 -25.667 -200.834 -77 -264.501s-114 -95.5 -188 -95.5s-136.667 31.833 -188 95.5s-77 151.834 -77 264.501s25.667 200.834 77 264.501s114 95.5 188 95.5s136.667 -31.833 188 -95.5s77 -151.834 77 -264.501zM120 350
c0 -95.333 20.167 -169.166 60.5 -221.499s88.5 -78.5 144.5 -78.5s104.167 26.167 144.5 78.5s60.5 126.166 60.5 221.499c0 94 -20.167 167.5 -60.5 220.5s-88.5 79.5 -144.5 79.5s-104.167 -26.5 -144.5 -79.5s-60.5 -126.5 -60.5 -220.5z" />
    <glyph glyph-name="one" unicode="1" horiz-adv-x="330" 
d="M180 0v560h-150v60h120c20 0 30 10 30 30v50h60v-700h-60z" />
    <glyph glyph-name="two" unicode="2" horiz-adv-x="540" 
d="M60 0l-0.00390625 55.0049l290 305c43.333 43.333 65 90 65 140c0 45.333 -13.667 81.666 -41 108.999s-63.666 41 -108.999 41c-43.333 0 -79.166 -15.167 -107.499 -45.5s-42.5 -70.166 -42.5 -119.499h-60c0 67.333 19.833 121.666 59.5 162.999s89.834 62 150.501 62
c62.667 0 113.334 -19.333 152.001 -58s58 -89.334 58 -152.001c0 -28.667 -4.5 -54.834 -13.5 -78.501s-18.333 -41.834 -28 -54.501s-24.167 -29.334 -43.5 -50.001l-240 -252v-5h340v-60h-430z" />
    <glyph glyph-name="three" unicode="3" horiz-adv-x="555" 
d="M45 185h59.999c0 -38.667 14.833 -70.834 44.5 -96.501s69.834 -38.5 120.501 -38.5s90.834 12.833 120.501 38.5s44.5 57.834 44.5 96.501c0 41.333 -15.167 75.833 -45.5 103.5s-70.166 41.5 -119.499 41.5h-50v60h50c46 0 83.333 12.667 112 38s43 56 43 92
s-14.333 66.667 -43 92s-66 38 -112 38s-83.333 -12.667 -112 -38s-43 -56 -43 -92h-60c0 54 19.833 99.167 59.5 135.5s91.5 54.5 155.5 54.5s115.833 -18.167 155.5 -54.5s59.5 -81.5 59.5 -135.5c0 -50 -19.333 -91.667 -58 -125c-15.333 -14 -34.333 -25.667 -57 -35v-5
c22 -6.66699 42.667 -18 62 -34c42 -36.667 63 -82 63 -136c0 -56.667 -20.333 -103.334 -61 -140.001s-95.334 -55 -164.001 -55s-123.334 18.333 -164.001 55s-61 83.334 -61 140.001z" />
    <glyph glyph-name="four" unicode="4" horiz-adv-x="540" 
d="M30 165v50l275 485h110v-475h100v-60h-100v-165h-60v165h-325zM110 225h245v405h-20l-225 -400v-5z" />
    <glyph glyph-name="five" unicode="5" horiz-adv-x="565" 
d="M55 185l60 0.000976562c6 -38.667 24 -70.834 54 -96.501s67 -38.5 111 -38.5c50 0 91.667 16.667 125 50s50 75 50 125s-16.333 91.667 -49 125s-73 50 -121 50c-58 0 -106.333 -21.667 -145 -65h-70l40 365h365v-60h-315l-25 -235h5c42 36.667 92 55 150 55
c63.333 0 116.666 -22.333 159.999 -67s65 -100.667 65 -168c0 -68 -22.167 -124.167 -66.5 -168.5s-100.5 -66.5 -168.5 -66.5c-59.333 0 -109.666 18 -150.999 54s-66 83 -74 141z" />
    <glyph glyph-name="six" unicode="6" 
d="M90 365l217.999 335.002h67l-90 -138l-90 -137h5c6.66699 3.33301 15.667 6.66602 27 9.99902c22.667 6.66699 45.334 10 68.001 10c62 0 114.167 -21.333 156.5 -64s63.5 -96.334 63.5 -161.001c0 -66 -22.167 -120.833 -66.5 -164.5s-100.5 -65.5 -168.5 -65.5
s-124.167 21.833 -168.5 65.5s-66.5 98.5 -66.5 164.5c0 50 15 98.333 45 145zM279.999 50.002c52 0 94.167 15.833 126.5 47.5s48.5 72.5 48.5 122.5s-16.167 90.833 -48.5 122.5s-74.5 47.5 -126.5 47.5s-94.167 -15.833 -126.5 -47.5s-48.5 -72.5 -48.5 -122.5
s16.167 -90.833 48.5 -122.5s74.5 -47.5 126.5 -47.5z" />
    <glyph glyph-name="seven" unicode="7" horiz-adv-x="490" 
d="M139 0l256 640h-365v60h430v-50l-260 -650h-61z" />
    <glyph glyph-name="eight" unicode="8" horiz-adv-x="570" 
d="M435 520c0 35.333 -14 65.833 -42 91.5s-64 38.5 -108 38.5s-80 -12.833 -108 -38.5s-42 -56.167 -42 -91.5s14 -65.833 42 -91.5s64 -38.5 108 -38.5s80 12.833 108 38.5s42 56.167 42 91.5zM120 190c0 -38.667 15.333 -71.667 46 -99s70.334 -41 119.001 -41
s88.334 13.667 119.001 41s46 60.333 46 99s-15.333 71.667 -46 99s-70.334 41 -119.001 41s-88.334 -13.667 -119.001 -41s-46 -60.333 -46 -99zM180 360l0.00292969 5c-21.333 9.33301 -39 20.666 -53 33.999c-34.667 30.667 -52 71 -52 121
c0 53.333 19.667 98.333 59 135s89.666 55 150.999 55s111.666 -18.333 150.999 -55s59 -81.667 59 -135c0 -49.333 -17.667 -89.666 -53 -120.999c-13.333 -12.667 -30.666 -24 -51.999 -34v-5c22.667 -8.66699 42.667 -21.334 60 -38.001c40 -34.667 60 -78.667 60 -132
c0 -56 -20.833 -103.333 -62.5 -142s-95.834 -58 -162.501 -58s-120.834 19.333 -162.501 58s-62.5 86 -62.5 142c0 53.333 20 97.333 60 132c17.333 16.667 37.333 29.334 60 38.001z" />
    <glyph glyph-name="nine" unicode="9" 
d="M252 0l-66.999 -0.00195312l90 137.5l90 137.5h-5c-6.66699 -3.33301 -15.667 -6.66602 -27 -9.99902c-22.667 -6.66699 -45.334 -10 -68.001 -10c-62 0 -114.167 21.333 -156.5 64s-63.5 96.334 -63.5 161.001c0 66 22.167 120.833 66.5 164.5s100.5 65.5 168.5 65.5
s124.167 -21.833 168.5 -65.5s66.5 -98.5 66.5 -164.5c0 -50 -15 -98.333 -45 -145zM105.001 479.998c0 -50 16.167 -90.833 48.5 -122.5s74.5 -47.5 126.5 -47.5s94.167 15.833 126.5 47.5s48.5 72.5 48.5 122.5s-16.167 90.833 -48.5 122.5s-74.5 47.5 -126.5 47.5
s-94.167 -15.833 -126.5 -47.5s-48.5 -72.5 -48.5 -122.5z" />
    <glyph glyph-name="colon" unicode=":" horiz-adv-x="210" 
d="M70 0v70h70v-70h-70zM70 430v70h70v-70h-70z" />
    <glyph glyph-name="semicolon" unicode=";" horiz-adv-x="210" 
d="M70 430v70h70v-70h-70zM50 -80l25 150h65l-40 -150h-50z" />
    <glyph glyph-name="less" unicode="&#x3c;" horiz-adv-x="540" 
d="M55 263v54l420 183v-60l-350 -150l350 -150v-60z" />
    <glyph glyph-name="equal" unicode="=" horiz-adv-x="530" 
d="M80 340v55h370v-55h-370zM80 185v55h370v-55h-370z" />
    <glyph glyph-name="greater" unicode="&#x3e;" horiz-adv-x="540" 
d="M65 80v60l350 150l-350 150v60l420 -180v-60z" />
    <glyph glyph-name="question" unicode="?" horiz-adv-x="510" 
d="M215 160l-0.000976562 60c0 36.667 7.5 65.834 22.5 87.501s40.833 41.834 77.5 60.501c30.667 16 53.334 35 68.001 57s22 50.333 22 85c0 40.667 -14.167 74.167 -42.5 100.5s-65.833 39.5 -112.5 39.5s-84.167 -12.833 -112.5 -38.5s-42.5 -57.834 -42.5 -96.501h-60
c0 55.333 19.833 101.666 59.5 138.999s91.5 56 155.5 56c61.333 0 112.5 -19.5 153.5 -58.5s61.5 -86.167 61.5 -141.5c0 -84 -36.667 -145.667 -110 -185c-31.333 -17.333 -52.5 -33.333 -63.5 -48s-16.5 -33.667 -16.5 -57v-60h-60zM209.999 0v70h70v-70h-70z" />
    <glyph glyph-name="at" unicode="@" horiz-adv-x="925" 
d="M460 -30l205.001 0.000976562v-60h-205c-117.333 0 -212.5 35.833 -285.5 107.5s-109.5 164.167 -109.5 277.5c0 114.667 37.167 209.167 111.5 283.5s168.833 111.5 283.5 111.5c121.333 0 220 -36.333 296 -109s114 -164.667 114 -276
c0 -74.667 -15 -130.834 -45 -168.501s-70 -56.5 -120 -56.5c-36.667 0 -64.667 11.667 -84 35c-8.66699 10 -15.667 21.667 -21 35h-5c-10.667 -14 -22.667 -25.667 -36 -35c-29.333 -23.333 -67.333 -35 -114 -35c-58 0 -105.833 19.5 -143.5 58.5s-56.5 89.5 -56.5 151.5
s18.833 112.5 56.5 151.5s85.5 58.5 143.5 58.5c27.333 0 52.333 -5.16699 75 -15.5s38.667 -20.5 48 -30.5s16.666 -19.667 21.999 -29h5l10 65h50v-285c0 -43.333 16.667 -65 50 -65c70 0 105 55 105 165c0 93.333 -32.333 170.833 -97 232.5s-149 92.5 -253 92.5
c-97.333 0 -177.5 -31.5 -240.5 -94.5s-94.5 -143.167 -94.5 -240.5c0 -98.667 30.333 -177.5 91 -236.5s142 -88.5 244 -88.5zM450.001 140.001c42.667 0 77.5 13.667 104.5 41s40.5 63.666 40.5 108.999s-13.5 81.666 -40.5 108.999s-61.833 41 -104.5 41
s-77.5 -13.667 -104.5 -41s-40.5 -63.666 -40.5 -108.999s13.5 -81.666 40.5 -108.999s61.833 -41 104.5 -41z" />
    <glyph glyph-name="A" unicode="A" horiz-adv-x="630" 
d="M5 0l265 700h90l265 -700h-60l-72 190h-356l-72 -190h-60zM160 250h310l-145 385h-20z" />
    <glyph glyph-name="B" unicode="B" horiz-adv-x="635" 
d="M90 0v699.999h285c55.333 0 100.833 -18 136.5 -54s53.5 -81.333 53.5 -136c0 -48 -14.333 -88.333 -43 -121c-11.333 -13.333 -25.333 -24.666 -42 -33.999v-5c17.333 -8 33 -19 47 -33c32 -32 48 -74.333 48 -127c0 -54.667 -17.833 -100 -53.5 -136
s-81.167 -54 -136.5 -54h-295zM150 59.999h235c38 0 69.167 12.167 93.5 36.5s36.5 55.5 36.5 93.5c0 40 -11.667 71.667 -35 95s-55 35 -95 35h-235v-260zM150 379.999h225c38 0 69.167 12.167 93.5 36.5s36.5 55.5 36.5 93.5s-12.167 69.167 -36.5 93.5
s-55.5 36.5 -93.5 36.5h-225v-260z" />
    <glyph glyph-name="C" unicode="C" horiz-adv-x="735" 
d="M625 230l65 0.00390625c-16.667 -62.667 -52 -118.334 -106 -167.001s-120.333 -73 -199 -73c-94 0 -172.5 33.5 -235.5 100.5s-94.5 153.5 -94.5 259.5s31.5 192.5 94.5 259.5s141.5 100.5 235.5 100.5c80 0 146.5 -23.833 199.5 -71.5s88.167 -102.167 105.5 -163.5
h-65c-5.33301 13.333 -11.333 26.5 -18 39.5s-17 28.167 -31 45.5s-29.167 32.166 -45.5 44.499s-37.333 23 -63 32s-53.167 13.5 -82.5 13.5c-76.667 0 -140.834 -27.833 -192.501 -83.5s-77.5 -127.834 -77.5 -216.501s25.833 -160.834 77.5 -216.501
s115.834 -83.5 192.501 -83.5c37.333 0 71.333 6.66699 102 20s55.167 30.5 73.5 51.5s32.333 40.167 42 57.5s17.167 34.333 22.5 51z" />
    <glyph glyph-name="D" unicode="D" horiz-adv-x="705" 
d="M150 60h165c82.667 0 149.167 26 199.5 78s75.5 122.667 75.5 212s-25.167 160 -75.5 212s-116.833 78 -199.5 78h-165v-580zM90 0v700h225c95.333 0 175 -33 239 -99s96 -149.667 96 -251s-32 -185 -96 -251s-143.667 -99 -239 -99h-225z" />
    <glyph glyph-name="E" unicode="E" horiz-adv-x="595" 
d="M90 0v700h440v-60h-380v-260h360v-60h-360v-260h380v-60h-440z" />
    <glyph glyph-name="F" unicode="F" horiz-adv-x="575" 
d="M90 0v700h430v-60h-370v-260h350v-60h-350v-320h-60z" />
    <glyph glyph-name="G" unicode="G" horiz-adv-x="770" 
d="M645 0l-9.99805 115.005h-5c-15.333 -23.333 -35 -44.333 -59 -63c-53.333 -41.333 -115.333 -62 -186 -62c-94 0 -172.5 33.5 -235.5 100.5s-94.5 153.5 -94.5 259.5s31.5 192.5 94.5 259.5s141.5 100.5 235.5 100.5c43.333 0 83.666 -7.5 120.999 -22.5
s68.166 -34.333 92.499 -58s44 -47.334 59 -71.001s25.833 -46.5 32.5 -68.5h-65c-9.33301 23.333 -23 46.166 -41 68.499s-44.833 43.166 -80.5 62.499s-75.167 29 -118.5 29c-76.667 0 -140.834 -27.833 -192.501 -83.5s-77.5 -127.834 -77.5 -216.501
s25.833 -160.834 77.5 -216.501s115.834 -83.5 192.501 -83.5c68.667 0 127.5 23 176.5 69s73.5 99.667 73.5 161v15h-230v60h290v-355h-50z" />
    <glyph glyph-name="H" unicode="H" horiz-adv-x="715" 
d="M90 0v700h60v-315h415v315h60v-700h-60v325h-415v-325h-60z" />
    <glyph glyph-name="I" unicode="I" horiz-adv-x="240" 
d="M90 0v700h60v-700h-60z" />
    <glyph glyph-name="J" unicode="J" horiz-adv-x="390" 
d="M15 0v60h170c40 0 60 18.333 60 55v585h60v-590c0 -73.333 -38.333 -110 -115 -110h-175z" />
    <glyph glyph-name="K" unicode="K" horiz-adv-x="565" 
d="M90 0v700h60v-330l315 330h80l-330 -345l350 -355h-80l-335 340v-340h-60z" />
    <glyph glyph-name="L" unicode="L" horiz-adv-x="535" 
d="M90 0v700h60v-640h360v-60h-420z" />
    <glyph glyph-name="M" unicode="M" horiz-adv-x="900" 
d="M90 0v700h115l235 -640h20l235 640h115v-700h-60v625h-20l-230 -625h-100l-230 625h-20v-625h-60z" />
    <glyph glyph-name="N" unicode="N" horiz-adv-x="715" 
d="M90 0v700h110l345 -630h20v630h60v-700h-110l-345 630h-20v-630h-60z" />
    <glyph glyph-name="O" unicode="O" horiz-adv-x="770" 
d="M385 710c94 0 172.5 -33.5 235.5 -100.5s94.5 -153.5 94.5 -259.5s-31.5 -192.5 -94.5 -259.5s-141.5 -100.5 -235.5 -100.5s-172.5 33.5 -235.5 100.5s-94.5 153.5 -94.5 259.5s31.5 192.5 94.5 259.5s141.5 100.5 235.5 100.5zM385 50
c76.667 0 140.834 27.833 192.501 83.5s77.5 127.834 77.5 216.501s-25.833 160.834 -77.5 216.501s-115.834 83.5 -192.501 83.5s-140.834 -27.833 -192.501 -83.5s-77.5 -127.834 -77.5 -216.501s25.833 -160.834 77.5 -216.501s115.834 -83.5 192.501 -83.5z" />
    <glyph glyph-name="P" unicode="P" horiz-adv-x="640" 
d="M90 0v700h290c58 0 106.667 -20.333 146 -61s59 -92 59 -154s-19.167 -112.5 -57.5 -151.5s-87.5 -58.5 -147.5 -58.5h-230v-275h-60zM150 335l230 0.000976562c42.667 0 77.5 13.667 104.5 41s40.5 63.666 40.5 108.999c0 47.333 -13.333 85 -40 113s-61.667 42 -105 42
h-230v-305z" />
    <glyph glyph-name="Q" unicode="Q" horiz-adv-x="770" 
d="M630 -10l-59 57c-54.667 -38 -116.667 -57 -186 -57c-94 0 -172.5 33.5 -235.5 100.5s-94.5 153.5 -94.5 259.5s31.5 192.5 94.5 259.5s141.5 100.5 235.5 100.5s172.5 -33.5 235.5 -100.5s94.5 -153.5 94.5 -259.5c0 -110 -34 -199 -102 -267l97 -93h-80zM350 260
l80.001 0.000976562l139 -135c57.333 57.333 86 132.333 86 225c0 88.667 -25.833 160.834 -77.5 216.501s-115.834 83.5 -192.501 83.5s-140.834 -27.833 -192.501 -83.5s-77.5 -127.834 -77.5 -216.501s25.833 -160.834 77.5 -216.501s115.834 -83.5 192.501 -83.5
c52.667 0 99.667 13.333 141 40z" />
    <glyph glyph-name="R" unicode="R" horiz-adv-x="645" 
d="M90 0v700h290c60 0 109.167 -19.5 147.5 -58.5s57.5 -89.5 57.5 -151.5c0 -64 -19.5 -115.833 -58.5 -155.5s-87.833 -59.5 -146.5 -59.5h-70l290 -275h-80l-290 275h-80v-275h-60zM150 335l230 0.000976562c43.333 0 78.333 14 105 42s40 65.667 40 113
c0 45.333 -13.5 81.666 -40.5 108.999s-61.833 41 -104.5 41h-230v-305z" />
    <glyph glyph-name="S" unicode="S" horiz-adv-x="625" 
d="M55 205l60 -0.00195312c0 -42 18.333 -78.333 55 -109s85 -46 145 -46c62 0 109.167 12.5 141.5 37.5s48.5 57.5 48.5 97.5c0 69.333 -46.333 112 -139 128l-111 19c-62.667 10.667 -109.167 30.834 -139.5 60.501s-45.5 70.5 -45.5 122.5
c0 56.667 21 103.334 63 140.001s99.333 55 172 55c78 0 140 -20.333 186 -61s69 -92 69 -154h-60c0 44 -17.5 80.833 -52.5 110.5s-82.5 44.5 -142.5 44.5c-56 0 -99.167 -12.667 -129.5 -38s-45.5 -57.666 -45.5 -96.999c0 -35.333 11 -63 33 -83s56 -34 102 -42l101 -18
c70 -12.667 120.667 -33.834 152 -63.501s47 -70.834 47 -123.501c0 -57.333 -21.833 -104.166 -65.5 -140.499s-105.167 -54.5 -184.5 -54.5c-77.333 0 -140 21 -188 63s-72 92.667 -72 152z" />
    <glyph glyph-name="T" unicode="T" horiz-adv-x="600" 
d="M270 0v640h-240v60h540v-60h-240v-640h-60z" />
    <glyph glyph-name="U" unicode="U" horiz-adv-x="700" 
d="M80 275v425h60v-425c0 -67.333 19.833 -121.666 59.5 -162.999s89.834 -62 150.501 -62s110.834 20.667 150.501 62s59.5 95.666 59.5 162.999v425h60v-425c0 -84.667 -25.333 -153.334 -76 -206.001s-115.334 -79 -194.001 -79s-143.334 26.333 -194.001 79
s-76 121.334 -76 206.001z" />
    <glyph glyph-name="V" unicode="V" horiz-adv-x="630" 
d="M265 0l-255 700h63l232 -640h20l232 640h63l-255 -700h-100z" />
    <glyph glyph-name="W" unicode="W" horiz-adv-x="950" 
d="M195 0l-175 700h63l159 -640h21l162 640h100l162 -640h21l159 640h63l-175 -700h-115l-155 615h-20l-155 -615h-115z" />
    <glyph glyph-name="X" unicode="X" horiz-adv-x="600" 
d="M10 0l243 360l-228 340h70l195 -290h20l195 290h70l-228 -340l243 -360h-70l-210 310h-20l-210 -310h-70z" />
    <glyph glyph-name="Y" unicode="Y" horiz-adv-x="590" 
d="M265 0v263l-260 437h67l213 -360h20l213 360h67l-260 -437v-263h-60z" />
    <glyph glyph-name="Z" unicode="Z" horiz-adv-x="585" 
d="M45 0v55l410 585h-405v60h485v-55l-410 -585h415v-60h-495z" />
    <glyph glyph-name="bracketleft" unicode="[" horiz-adv-x="325" 
d="M95 -200v930h195v-60h-135v-810h135v-60h-195z" />
    <glyph glyph-name="backslash" unicode="\" horiz-adv-x="335" 
d="M275 -200l-275 930h60l275 -930h-60z" />
    <glyph glyph-name="bracketright" unicode="]" horiz-adv-x="325" 
d="M35 -200v60h135v810h-135v60h195v-930h-195z" />
    <glyph glyph-name="asciicircum" unicode="^" horiz-adv-x="405" 
d="M65 430l110 270h55l110 -270h-55l-80 200h-5l-80 -200h-55z" />
    <glyph glyph-name="underscore" unicode="_" horiz-adv-x="350" 
d="M-20 -155v55h390v-55h-390z" />
    <glyph glyph-name="grave" unicode="`" horiz-adv-x="220" 
d="M135 600l-105 130h70l90 -130h-55z" />
    <glyph glyph-name="a" unicode="a" horiz-adv-x="535" 
d="M405 0l-9.99902 70h-5c-10 -14 -23.667 -27.333 -41 -40c-37.333 -26.667 -78.666 -40 -123.999 -40c-51.333 0 -92.5 14.333 -123.5 43s-46.5 66 -46.5 112c0 47.333 16.667 85 50 113s81.666 42 144.999 42h145v20c0 86.667 -43.333 130 -130 130
c-39.333 0 -70.833 -8.66699 -94.5 -26s-37.167 -40.333 -40.5 -69h-60c6 44.667 25.667 81.667 59 111s78.666 44 135.999 44c60.667 0 107.5 -16.5 140.5 -49.5s49.5 -79.833 49.5 -140.5v-320h-50zM395.001 220v25h-145c-44 0 -77.5 -9.33301 -100.5 -28
s-34.5 -42.667 -34.5 -72c0 -28.667 9.66699 -51.667 29 -69s46.333 -26 81 -26c52.667 0 94.167 15.167 124.5 45.5s45.5 71.833 45.5 124.5z" />
    <glyph glyph-name="b" unicode="b" horiz-adv-x="590" 
d="M315 50c49.333 0 90 18 122 54s48 84.667 48 146s-16 110 -48 146s-72.667 54 -122 54s-90 -18 -122 -54s-48 -84.667 -48 -146s16 -110 48 -146s72.667 -54 122 -54zM85 0v700.002h60v-280h5c13.333 21.333 34.666 41.666 63.999 60.999s64.666 29 105.999 29
c64 0 117.5 -23.833 160.5 -71.5s64.5 -110.5 64.5 -188.5s-21.5 -140.833 -64.5 -188.5s-96.5 -71.5 -160.5 -71.5c-41.333 0 -76.666 9.66699 -105.999 29s-50.666 39.666 -63.999 60.999h-5l-10 -80h-50z" />
    <glyph glyph-name="c" unicode="c" horiz-adv-x="540" 
d="M435 165h65.002c-12.667 -55.333 -38.5 -98.333 -77.5 -129s-86.5 -46 -142.5 -46c-69.333 0 -125.833 23.667 -169.5 71s-65.5 110.333 -65.5 189s21.833 141.667 65.5 189s100.167 71 169.5 71c55.333 0 102.666 -15.167 141.999 -45.5s65.333 -71.833 78 -124.5h-65
c-7.33301 26.667 -23.833 51.667 -49.5 75s-60.834 35 -105.501 35c-51.333 0 -93.333 -18 -126 -54s-49 -84.667 -49 -146s16.333 -110 49 -146s74.667 -54 126 -54c44 0 79 12.333 105 37s42.667 50.667 50 78z" />
    <glyph glyph-name="d" unicode="d" horiz-adv-x="590" 
d="M275 50c49.333 0 90 18 122 54s48 84.667 48 146s-16 110 -48 146s-72.667 54 -122 54s-90 -18 -122 -54s-48 -84.667 -48 -146s16 -110 48 -146s72.667 -54 122 -54zM455 0l-10 80h-5c-43.333 -60 -100 -90 -170 -90c-64 0 -117.5 23.833 -160.5 71.5
s-64.5 110.5 -64.5 188.5s21.5 140.833 64.5 188.5s96.5 71.5 160.5 71.5c70 0 126.667 -30 170 -90h5v280h60v-700h-50z" />
    <glyph glyph-name="e" unicode="e" horiz-adv-x="555" 
d="M105 280h345.001c-2.66699 50 -19.834 90.833 -51.501 122.5s-71.167 47.5 -118.5 47.5c-48 0 -87.833 -15.167 -119.5 -45.5s-50.167 -71.833 -55.5 -124.5zM430.001 140h65c-14.667 -41.333 -39.5 -76.666 -74.5 -105.999s-81.833 -44 -140.5 -44
c-69.333 0 -125.833 23.667 -169.5 71s-65.5 110.333 -65.5 189s21.833 141.667 65.5 189s100.167 71 169.5 71c66 0 120.833 -23.167 164.5 -69.5s65.5 -106.5 65.5 -180.5c0 -10 -0.666992 -19.667 -2 -29c-0.666992 -2.66699 -1 -6.33398 -1 -11.001h-402
c5.33301 -51.333 24.333 -92.5 57 -123.5s72 -46.5 118 -46.5c36.667 0 67.667 9 93 27s44.333 39 57 63z" />
    <glyph glyph-name="f" unicode="f" horiz-adv-x="310" 
d="M110 0v440h-80v60h80v95c0 26 8 46.667 24 62s38 23 66 23h85v-60h-80c-23.333 0 -35 -11.667 -35 -35v-85h115v-60h-115v-440h-60z" />
    <glyph glyph-name="g" unicode="g" horiz-adv-x="585" 
d="M275 80c48.667 0 89.167 17.333 121.5 52s48.5 79 48.5 133s-16.167 98.333 -48.5 133s-72.833 52 -121.5 52s-89.167 -17.333 -121.5 -52s-48.5 -79 -48.5 -133s16.167 -98.333 48.5 -133s72.833 -52 121.5 -52zM70 -40l59.999 0.000976562
c2.66699 -32 17.334 -58.333 44.001 -79s63.667 -31 111 -31c49.333 0 88.333 13.5 117 40.5s43 63.5 43 109.5v110h-5c-43.333 -60 -100 -90 -170 -90c-63.333 0 -116.666 23 -159.999 69s-65 104.667 -65 176s21.667 130 65 176s96.666 69 159.999 69
c70 0 126.667 -30 170 -90h5l10 80h50v-500c0 -62.667 -19.833 -113.334 -59.5 -152.001s-93.167 -58 -160.5 -58c-62.667 0 -113.167 16.5 -151.5 49.5s-59.5 73.167 -63.5 120.5z" />
    <glyph glyph-name="h" unicode="h" horiz-adv-x="585" 
d="M85 0v700.002h60v-265h5c10 14.667 22 27 36 37c33.333 25.333 73 38 119 38c58 0 105.833 -19.5 143.5 -58.5s56.5 -89.5 56.5 -151.5v-300h-60v300c0 45.333 -13.5 81.666 -40.5 108.999s-61.833 41 -104.5 41c-45.333 0 -82.5 -14.333 -111.5 -43
s-43.5 -64.334 -43.5 -107.001v-300h-60z" />
    <glyph glyph-name="i" unicode="i" horiz-adv-x="230" 
d="M85 0v500h60v-500h-60zM80 615v70h70v-70h-70z" />
    <glyph glyph-name="j" unicode="j" horiz-adv-x="230" 
d="M-30 -200v60h80c23.333 0 35 11.667 35 35v605h60v-615c0 -26 -8 -46.667 -24 -62s-38 -23 -66 -23h-85zM80 615v70h70v-70h-70z" />
    <glyph glyph-name="k" unicode="k" horiz-adv-x="480" 
d="M85 0v700h60v-430l243 230h82l-260 -245l270 -255h-82l-253 240v-240h-60z" />
    <glyph glyph-name="l" unicode="l" horiz-adv-x="230" 
d="M85 0v700h60v-700h-60z" />
    <glyph glyph-name="m" unicode="m" horiz-adv-x="850" 
d="M80 0l-0.000976562 500.001h50l10 -65h5c9.33301 13.333 20.666 25.666 33.999 36.999c30.667 25.333 64.334 38 101.001 38c48 0 87.333 -16 118 -48c13.333 -14.667 24 -30.334 32 -47.001h5c8.66699 16.667 21 32.334 37 47.001c36 32 77 48 123 48
c50.667 0 92.5 -17.833 125.5 -53.5s49.5 -82.834 49.5 -141.501v-315h-60v315c0 42 -11 75 -33 99s-51 36 -87 36c-40 0 -72.5 -12.5 -97.5 -37.5s-37.5 -57.5 -37.5 -97.5v-315h-60v315c0 42 -11 75 -33 99s-51 36 -87 36c-37.333 0 -69.166 -13.167 -95.499 -39.5
s-39.5 -58.166 -39.5 -95.499v-315h-60z" />
    <glyph glyph-name="n" unicode="n" horiz-adv-x="580" 
d="M80 0v500.002h50l10 -65h5c10 14.667 22 27 36 37c33.333 25.333 73 38 119 38c58 0 105.833 -19.5 143.5 -58.5s56.5 -89.5 56.5 -151.5v-300h-60v300c0 45.333 -13.5 81.666 -40.5 108.999s-61.833 41 -104.5 41c-45.333 0 -82.5 -14.333 -111.5 -43
s-43.5 -64.334 -43.5 -107.001v-300h-60z" />
    <glyph glyph-name="o" unicode="o" 
d="M280 -10c-66 0 -121.667 24.333 -167 73s-68 111 -68 187s22.667 138.333 68 187s101 73 167 73s121.667 -24.333 167 -73s68 -111 68 -187s-22.667 -138.333 -68 -187s-101 -73 -167 -73zM455 250c0 58.667 -17 106.667 -51 144s-75.333 56 -124 56
s-90 -18.667 -124 -56s-51 -85.333 -51 -144s17 -106.667 51 -144s75.333 -56 124 -56s90 18.667 124 56s51 85.333 51 144z" />
    <glyph glyph-name="p" unicode="p" horiz-adv-x="585" 
d="M310 50c49.333 0 90 18 122 54s48 84.667 48 146s-16 110 -48 146s-72.667 54 -122 54s-90 -18 -122 -54s-48 -84.667 -48 -146s16 -110 48 -146s72.667 -54 122 -54zM80 -200v700.002h50l10 -80h5c13.333 21.333 34.666 41.666 63.999 60.999s64.666 29 105.999 29
c64 0 117.5 -23.833 160.5 -71.5s64.5 -110.5 64.5 -188.5s-21.5 -140.833 -64.5 -188.5s-96.5 -71.5 -160.5 -71.5c-41.333 0 -76.666 9.66699 -105.999 29s-50.666 39.666 -63.999 60.999h-5v-280h-60z" />
    <glyph glyph-name="q" unicode="q" horiz-adv-x="585" 
d="M275 50c49.333 0 90 18 122 54s48 84.667 48 146s-16 110 -48 146s-72.667 54 -122 54s-90 -18 -122 -54s-48 -84.667 -48 -146s16 -110 48 -146s72.667 -54 122 -54zM445 -200v280h-5c-43.333 -60 -100 -90 -170 -90c-64 0 -117.5 23.833 -160.5 71.5
s-64.5 110.5 -64.5 188.5s21.5 140.833 64.5 188.5s96.5 71.5 160.5 71.5c70 0 126.667 -30 170 -90h5l10 80h50v-700h-60z" />
    <glyph glyph-name="r" unicode="r" horiz-adv-x="340" 
d="M80 0l0.000976562 500h50l5 -50h5c22.667 33.333 56 50 100 50h90v-60h-85c-32.667 0 -58.334 -9.5 -77.001 -28.5s-28 -46.167 -28 -81.5v-330h-60z" />
    <glyph glyph-name="s" unicode="s" horiz-adv-x="470" 
d="M40 145l57.002 -0.000976562c0 -26.667 12.667 -49.167 38 -67.5s58.666 -27.5 99.999 -27.5c42.667 0 75 8 97 24s33 36.333 33 61c0 40.667 -28.333 66.667 -85 78l-100 20c-43.333 8.66699 -75.833 23.834 -97.5 45.501s-32.5 52.167 -32.5 91.5
s16.167 72.5 48.5 99.5s76.166 40.5 131.499 40.5c58 0 104.167 -14.833 138.5 -44.5s51.5 -66.5 51.5 -110.5h-60c0 26.667 -11.5 49.167 -34.5 67.5s-54.833 27.5 -95.5 27.5c-38 0 -67.5 -8 -88.5 -24s-31.5 -34.667 -31.5 -56c0 -42.667 26.667 -69.334 80 -80.001
l100 -20c48 -9.33301 82.5 -24.666 103.5 -45.999s31.5 -51 31.5 -89c0 -42 -16.667 -76.667 -50 -104s-80 -41 -140 -41c-58 0 -105 15.333 -141 46s-54 67 -54 109z" />
    <glyph glyph-name="t" unicode="t" horiz-adv-x="340" 
d="M110 85v355h-80v60h80v140h60v-140h125v-60h-125v-345c0 -23.333 11.667 -35 35 -35h90v-60h-95c-28 0 -50 7.66699 -66 23s-24 36 -24 62z" />
    <glyph glyph-name="u" unicode="u" horiz-adv-x="580" 
d="M80 200l0.000976562 299.999h60v-300c0 -45.333 13.5 -81.666 40.5 -108.999s61.833 -41 104.5 -41c45.333 0 82.5 14.333 111.5 43s43.5 64.334 43.5 107.001v300h60v-500h-50l-10 65h-5c-9.33301 -14.667 -21.333 -27.334 -36 -38.001
c-32.667 -24.667 -72.334 -37 -119.001 -37c-58 0 -105.833 19.5 -143.5 58.5s-56.5 89.5 -56.5 151.5z" />
    <glyph glyph-name="v" unicode="v" horiz-adv-x="480" 
d="M195 0l-185 500h60l160 -435h20l160 435h60l-185 -500h-90z" />
    <glyph glyph-name="w" unicode="w" horiz-adv-x="760" 
d="M155 0l-135 500h60l115 -435h20l115 435h100l115 -435h20l115 435h60l-135 -500h-100l-115 425h-20l-116 -425h-99z" />
    <glyph glyph-name="x" unicode="x" horiz-adv-x="460" 
d="M10 0l168 255l-163 245h70l135 -205h20l135 205h70l-163 -245l168 -255h-70l-140 215h-20l-140 -215h-70z" />
    <glyph glyph-name="y" unicode="y" horiz-adv-x="470" 
d="M60 -200v60h85c11.333 0 19.833 2.66699 25.5 8s10.5 13.333 14.5 24l27 76l-202 532h60l160 -425h20l150 425h60l-225 -635c-16 -43.333 -46 -65 -90 -65h-85z" />
    <glyph glyph-name="z" unicode="z" horiz-adv-x="440" 
d="M35 0v50l285 390h-280v60h360v-50l-285 -390h290v-60h-370z" />
    <glyph glyph-name="braceleft" unicode="{" horiz-adv-x="320" 
d="M135 -100l0.000976562 269.998c0 18 -6.16699 32.5 -18.5 43.5s-29.5 16.5 -51.5 16.5v70c22 0 39.167 5.5 51.5 16.5s18.5 25.5 18.5 43.5v270c0 66.667 35 100 105 100h45v-60h-40c-20 0 -33.333 -3.16699 -40 -9.5s-10 -18.166 -10 -35.499v-265
c0 -34 -13.333 -58.333 -40 -73c-12 -7.33301 -25.333 -11.333 -40 -12v-20c15.333 -2 28.666 -6.33301 39.999 -13c26.667 -14.667 40 -38.667 40 -72v-265c0 -17.333 3.33301 -29.166 10 -35.499s20 -9.5 40 -9.5h40v-60h-45c-70 0 -105 33.333 -105 100z" />
    <glyph glyph-name="bar" unicode="|" horiz-adv-x="300" 
d="M120 -200v930h60v-930h-60z" />
    <glyph glyph-name="braceright" unicode="}" horiz-adv-x="320" 
d="M35 -200l0.000976562 60.002h40c20 0 33.333 3.16699 40 9.5s10 18.166 10 35.499v265c0 33.333 13.333 57.333 40 72c11.333 6.66699 24.666 11 39.999 13v20c-14.667 0.666992 -28 4.66699 -40 12c-26.667 14.667 -40 39 -40 73v265
c0 17.333 -3.33301 29.166 -10 35.499s-20 9.5 -40 9.5h-40v60h45c70 0 105 -33.333 105 -100v-270c0 -18 6.16699 -32.5 18.5 -43.5s29.5 -16.5 51.5 -16.5v-70c-22 0 -39.167 -5.5 -51.5 -16.5s-18.5 -25.5 -18.5 -43.5v-270c0 -66.667 -35 -100 -105 -100h-45z" />
    <glyph glyph-name="asciitilde" unicode="~" horiz-adv-x="565" 
d="M110 200h-60c0 49.333 12.333 87.5 37 114.5s57.334 40.5 98.001 40.5c21.333 0 41.666 -5.16699 60.999 -15.5s34.833 -21.833 46.5 -34.5s25.334 -24.167 41.001 -34.5s31.167 -15.5 46.5 -15.5c23.333 0 41.666 8 54.999 24s20 39.667 20 71h60
c0 -49.333 -12.333 -87.5 -37 -114.5s-57.334 -40.5 -98.001 -40.5c-21.333 0 -41.666 5.16699 -60.999 15.5s-34.833 21.833 -46.5 34.5s-25.334 24.167 -41.001 34.5s-31.167 15.5 -46.5 15.5c-23.333 0 -41.666 -8 -54.999 -24s-20 -39.667 -20 -71z" />
    <glyph glyph-name="nbspace" unicode="&#xa0;" horiz-adv-x="225" 
 />
    <glyph glyph-name="exclamdown" unicode="&#xa1;" horiz-adv-x="250" 
d="M95 -200v305l5 240h50l5 -240v-305h-60zM90 430v70h70v-70h-70z" />
    <glyph glyph-name="cent" unicode="&#xa2;" horiz-adv-x="540" 
d="M245 -110v103.002c-59.333 8 -107.5 34.833 -144.5 80.5s-55.5 104.5 -55.5 176.5c0 71.333 18.5 130 55.5 176s85.167 73 144.5 81v103h60v-101c49.333 -4.66699 91.333 -21.834 126 -51.501s57.667 -68.834 69 -117.501h-65c-7.33301 26.667 -23.833 51.667 -49.5 75
s-60.834 35 -105.501 35c-51.333 0 -93.333 -18 -126 -54s-49 -84.667 -49 -146s16.333 -110 49 -146s74.667 -54 126 -54c44 0 79 12.333 105 37s42.667 50.667 50 78h65c-11.333 -51.333 -34.166 -92 -68.499 -122s-76.5 -47.333 -126.5 -52v-101h-60z" />
    <glyph glyph-name="sterling" unicode="&#xa3;" horiz-adv-x="595" 
d="M45 0v59.999h25c36.667 0 55 20 55 60v185h-80v60h80v140c0 60 19.5 109.167 58.5 147.5s89.5 57.5 151.5 57.5c61.333 0 111.666 -18.667 150.999 -56s59 -83.666 59 -138.999h-60c0 38 -14 70 -42 96s-64 39 -108 39c-45.333 0 -81.666 -13.5 -108.999 -40.5
s-41 -61.833 -41 -104.5v-140h205v-60h-205v-185c0 -20 -4.33301 -35.667 -13 -47c-3.33301 -6 -7.33301 -10.333 -12 -13h400v-60h-515z" />
    <glyph glyph-name="currency" unicode="&#xa4;" horiz-adv-x="570" 
d="M160 350c0 -34.667 12 -64.167 36 -88.5s53.667 -36.5 89 -36.5s65 12.167 89 36.5s36 53.833 36 88.5s-12 64.167 -36 88.5s-53.667 36.5 -89 36.5s-65 -12.167 -89 -36.5s-36 -53.833 -36 -88.5zM80 185l57.002 62c-5.33301 6 -10.666 15 -15.999 27
c-10.667 25.333 -16 50.666 -16 75.999s5.33301 50.666 16 75.999c5.33301 12 10.666 21 15.999 27l-57 62l45 40l55 -60c9.33301 7.33301 18.666 13 27.999 17c25.333 12 51 18 77 18s51.667 -6 77 -18c9.33301 -4 18.666 -9.66699 27.999 -17l55 60l45 -40l-57 -62
c5.33301 -6 10.666 -15 15.999 -27c10.667 -25.333 16 -50.666 16 -75.999s-5.33301 -50.666 -16 -75.999c-5.33301 -12 -10.666 -21 -15.999 -27l57 -62l-45 -40l-55 60c-8.66699 -7.33301 -18 -13.333 -28 -18c-24 -11.333 -49.667 -17 -77 -17s-53 5.66699 -77 17
c-10 4.66699 -19.333 10.667 -28 18l-55 -60z" />
    <glyph glyph-name="yen" unicode="&#xa5;" horiz-adv-x="570" 
d="M75 140v60h180v90h-180v60h132l-197 350h67l198 -350h20l198 350h67l-197 -350h132v-60h-180v-90h180v-60h-180v-140h-60v140h-180z" />
    <glyph glyph-name="brokenbar" unicode="&#xa6;" horiz-adv-x="300" 
d="M120 360v370h60v-370h-60zM120 -200v370h60v-370h-60z" />
    <glyph glyph-name="section" unicode="&#xa7;" horiz-adv-x="620" 
d="M80 35h60c0 -43.333 15.5 -78.333 46.5 -105s73.833 -40 128.5 -40c52 0 91.667 10.333 119 31s41 47 41 79c0 63.333 -40 102.666 -120 117.999l-105 20c-120 23.333 -180 79 -180 167c0 36.667 11 68.667 33 96c9.33301 12.667 20.333 23.334 33 32.001
c-8 6 -15.667 14.333 -23 25c-15.333 22 -23 49.333 -23 82c0 50 18.833 90.833 56.5 122.5s90.5 47.5 158.5 47.5c68.667 0 124.167 -19.5 166.5 -58.5s63.5 -87.833 63.5 -146.5h-60c0 41.333 -15.667 75.833 -47 103.5s-72.333 41.5 -123 41.5
c-50 0 -88.333 -10.333 -115 -31s-40 -47 -40 -79c0 -28 9.16699 -50.5 27.5 -67.5s47.5 -29.167 87.5 -36.5l102 -19c64 -12 110.5 -31.333 139.5 -58s43.5 -63 43.5 -109c0 -34.667 -10.667 -67.334 -32 -98.001c-8.66699 -12 -19 -23.667 -31 -35
c8.66699 -7.33301 16.667 -17 24 -29c16 -25.333 24 -54.666 24 -87.999c0 -50 -19.167 -90.833 -57.5 -122.5s-92.5 -47.5 -162.5 -47.5c-70.667 0 -127.5 19.5 -170.5 58.5s-64.5 87.833 -64.5 146.5zM250 196l114.999 -21c15.333 -2.66699 33.333 -8 54 -16l21 -9
c10.667 8 19 16 25 24c16.667 22 25 47.333 25 76s-9.66699 51.667 -29 69s-50.666 30.666 -93.999 39.999l-110 22c-22 4 -40.667 8.66699 -56 14l-13 6c-12 -7.33301 -21.667 -15.333 -29 -24c-19.333 -20.667 -29 -44.667 -29 -72c0 -57.333 40 -93.666 120 -108.999z
" />
    <glyph glyph-name="dieresis" unicode="&#xa8;" horiz-adv-x="300" 
d="M30 615v70h70v-70h-70zM200 615v70h70v-70h-70z" />
    <glyph glyph-name="copyright" unicode="&#xa9;" horiz-adv-x="840" 
d="M530 290l54.999 -0.00195312c-7.33301 -30 -24.666 -59.167 -51.999 -87.5s-63.333 -42.5 -108 -42.5c-50.667 0 -92.5 17.5 -125.5 52.5s-49.5 80.833 -49.5 137.5s16.5 102.5 49.5 137.5s74.833 52.5 125.5 52.5c44 0 79.667 -13.833 107 -41.5s45 -55.5 53 -83.5h-55
c-20 46.667 -55 70 -105 70c-33.333 0 -61.666 -12.667 -84.999 -38s-35 -57.666 -35 -96.999s11.667 -71.666 35 -96.999s51.666 -38 84.999 -38c54 0 89 25 105 75zM719.999 349.998c0 88 -28.167 160.833 -84.5 218.5s-128.166 86.5 -215.499 86.5
s-159.166 -28.833 -215.499 -86.5s-84.5 -130.5 -84.5 -218.5s28.167 -160.833 84.5 -218.5s128.166 -86.5 215.499 -86.5s159.166 28.833 215.499 86.5s84.5 130.5 84.5 218.5zM419.999 -10.002c-102 0 -186.667 34.333 -254 103s-101 154.334 -101 257.001
s33.667 188.334 101 257.001s152 103 254 103s186.667 -34.333 254 -103s101 -154.334 101 -257.001s-33.667 -188.334 -101 -257.001s-152 -103 -254 -103z" />
    <glyph glyph-name="ordfeminine" unicode="&#xaa;" horiz-adv-x="335" 
d="M255 395l-10.002 40.001h-5l-4 -4l-6 -6c-1.33301 -1.33301 -3.66602 -3.5 -6.99902 -6.5s-6.33301 -5.33301 -9 -7l-10 -6.5c-4 -2.66699 -8 -4.66699 -12 -6l-13.5 -4.5c-5 -1.66699 -10.333 -2.83398 -16 -3.50098s-11.5 -1 -17.5 -1
c-32.667 0 -59.167 9.16699 -79.5 27.5s-30.5 42.5 -30.5 72.5c0 28.667 10.333 51.667 31 69s50.334 26 89.001 26h85v10c0 19.333 -6.5 35 -19.5 47s-29.833 18 -50.5 18c-36.667 0 -60 -15 -70 -45h-55c6 28.667 19.667 51.667 41 69s49.333 26 84 26
c36 0 65 -10.5 87 -31.5s33 -48.5 33 -82.5v-201h-35zM239.998 530.001v5h-85c-43.333 0 -65 -15 -65 -45c0 -15.333 5.5 -27.5 16.5 -36.5s25.5 -13.5 43.5 -13.5c28 0 50 8 66 24s24 38 24 66z" />
    <glyph glyph-name="guillemotleft" unicode="&#xab;" horiz-adv-x="495" 
d="M373 60l-138 190l138 190h67l-140 -190l140 -190h-67zM193 60l-138 190l138 190h67l-140 -190l140 -190h-67z" />
    <glyph glyph-name="logicalnot" unicode="&#xac;" horiz-adv-x="530" 
d="M75 310v55h375v-200h-60v145h-315z" />
    <glyph glyph-name="uni00AD" unicode="&#xad;" horiz-adv-x="420" 
d="M50 260v55h320v-55h-320z" />
    <glyph glyph-name="registered" unicode="&#xae;" horiz-adv-x="840" 
d="M280 165v375h160c39.333 0 71.666 -12 96.999 -36s38 -53.667 38 -89c0 -32.667 -11.167 -60.167 -33.5 -82.5s-51.166 -34.833 -86.499 -37.5l130 -130h-70l-130 130h-50v-130h-55zM335 350h105c53.333 0 80 21.667 80 65c0 20.667 -7.16699 37.5 -21.5 50.5
s-33.833 19.5 -58.5 19.5h-105v-135zM420 45c87.333 0 159.166 28.833 215.499 86.5s84.5 130.5 84.5 218.5s-28.167 160.833 -84.5 218.5s-128.166 86.5 -215.499 86.5s-159.166 -28.833 -215.499 -86.5s-84.5 -130.5 -84.5 -218.5s28.167 -160.833 84.5 -218.5
s128.166 -86.5 215.499 -86.5zM420 -10c-102 0 -186.667 34.333 -254 103s-101 154.334 -101 257.001s33.667 188.334 101 257.001s152 103 254 103s186.667 -34.333 254 -103s101 -154.334 101 -257.001s-33.667 -188.334 -101 -257.001s-152 -103 -254 -103z" />
    <glyph glyph-name="overscore" unicode="&#xaf;" horiz-adv-x="340" 
d="M30 625v50h280v-50h-280z" />
    <glyph glyph-name="degree" unicode="&#xb0;" horiz-adv-x="380" 
d="M190 450c-38 0 -69.167 12.167 -93.5 36.5s-36.5 55.5 -36.5 93.5s12.167 69.167 36.5 93.5s55.5 36.5 93.5 36.5s69.167 -12.167 93.5 -36.5s36.5 -55.5 36.5 -93.5s-12.167 -69.167 -36.5 -93.5s-55.5 -36.5 -93.5 -36.5zM190 655
c-22.667 0 -40.834 -6.83301 -54.501 -20.5s-20.5 -31.834 -20.5 -54.501s6.83301 -40.834 20.5 -54.501s31.834 -20.5 54.501 -20.5s40.834 6.83301 54.501 20.5s20.5 31.834 20.5 54.501s-6.83301 40.834 -20.5 54.501s-31.834 20.5 -54.501 20.5z" />
    <glyph glyph-name="plusminus" unicode="&#xb1;" horiz-adv-x="540" 
d="M60 0v55h420v-55h-420zM240 140v190h-185v55h185v195h60v-195h185v-55h-185v-190h-60z" />
    <glyph glyph-name="uni00B2" unicode="&#xb2;" horiz-adv-x="335" 
d="M55 440v45.001l140 145c23.333 23.333 35 45 35 65c0 17.333 -5.66699 31.666 -17 42.999s-25.666 17 -42.999 17c-20 0 -35.833 -5.83301 -47.5 -17.5s-17.5 -27.5 -17.5 -47.5h-55c0 32.667 11.167 60 33.5 82s51.166 33 86.499 33s63.333 -10.167 84 -30.5
s31 -46.833 31 -79.5c0 -31.333 -16 -63 -48 -95l-102 -105v-5h155v-50h-235z" />
    <glyph glyph-name="uni00B3" unicode="&#xb3;" horiz-adv-x="335" 
d="M45 540l55.002 -0.000976562c0 -16 6 -29.167 18 -39.5s27.667 -15.5 47 -15.5s35 5.16699 47 15.5s18 23.5 18 39.5c0 40 -23.333 60 -70 60h-30v50h30c19.333 0 35 5.16699 47 15.5s18 23.5 18 39.5c0 13.333 -5.33301 25 -16 35s-25.334 15 -44.001 15
s-33.334 -5 -44.001 -15s-16 -21.667 -16 -35h-55c0 28.667 10.5 52.5 31.5 71.5s48.833 28.5 83.5 28.5s62.5 -9.5 83.5 -28.5s31.5 -42.833 31.5 -71.5c0 -15.333 -5.33301 -30.333 -16 -45s-23.667 -24.667 -39 -30v-5c40 -14 60 -42.333 60 -85
c0 -30 -11.333 -55 -34 -75s-51.334 -30 -86.001 -30c-37.333 0 -66.666 9.83301 -87.999 29.5s-32 44.834 -32 75.501z" />
    <glyph glyph-name="acute" unicode="&#xb4;" horiz-adv-x="220" 
d="M30 600l90 130h70l-105 -130h-55z" />
    <glyph glyph-name="uni00B5" unicode="&#xb5;" horiz-adv-x="580" 
d="M80 -200v699.998h60v-300c0 -45.333 13.5 -81.666 40.5 -108.999s61.833 -41 104.5 -41c45.333 0 82.5 14.333 111.5 43s43.5 64.334 43.5 107.001v300h60v-500h-50l-10 65h-5c-9.33301 -14 -21 -26.667 -35 -38c-31.333 -24.667 -68 -37 -110 -37
c-48 0 -86.667 11.667 -116 35c-12.667 9.33301 -24 21 -34 35v-260h-60z" />
    <glyph glyph-name="paragraph" unicode="&#xb6;" horiz-adv-x="515" 
d="M215 -100v465.001c-43.333 0 -80.833 16.5 -112.5 49.5s-47.5 73.167 -47.5 120.5s15.333 86.666 46 117.999s68.667 47 114 47h210v-800h-60v740h-90v-740h-60z" />
    <glyph glyph-name="middot" unicode="&#xb7;" horiz-adv-x="225" 
d="M77 230v70h70v-70h-70z" />
    <glyph glyph-name="cedilla" unicode="&#xb8;" horiz-adv-x="195" 
d="M30 -200l-0.000976562 44.999h40c30 0 45 11.667 45 35s-15 35 -45 35h-25v35l20 45h50l-20 -45c20 -2.66699 36.667 -10.667 50 -24s20 -28.666 20 -45.999c0 -23.333 -8.16699 -42.5 -24.5 -57.5s-38.166 -22.5 -65.499 -22.5h-45z" />
    <glyph glyph-name="uni00B9" unicode="&#xb9;" horiz-adv-x="255" 
d="M125 440v260h-90v50h60c20 0 30 10 30 30v20h55v-360h-55z" />
    <glyph glyph-name="ordmasculine" unicode="&#xba;" horiz-adv-x="360" 
d="M180 440c26.667 0 48.334 9.66699 65.001 29s25 46.333 25 81s-8.33301 61.667 -25 81s-38.334 29 -65.001 29s-48.334 -9.66699 -65.001 -29s-25 -46.333 -25 -81s8.33301 -61.667 25 -81s38.334 -29 65.001 -29zM40 550c0 49.333 13.167 88.333 39.5 117
s59.833 43 100.5 43s74.167 -14.333 100.5 -43s39.5 -67.667 39.5 -117s-13.167 -88.333 -39.5 -117s-59.833 -43 -100.5 -43s-74.167 14.333 -100.5 43s-39.5 67.667 -39.5 117z" />
    <glyph glyph-name="guillemotright" unicode="&#xbb;" horiz-adv-x="495" 
d="M235 60l140 190l-140 190h67l138 -190l-138 -190h-67zM55 60l140 190l-140 190h67l138 -190l-138 -190h-67z" />
    <glyph glyph-name="onequarter" unicode="&#xbc;" horiz-adv-x="660" 
d="M60 0l435 700h60l-435 -700h-60zM130 340v260h-90v50h60c20 0 30 10 30 30v20h55v-360h-55zM345 80v40l140 240h85v-230h50v-50h-50v-80h-55v80h-170zM410 130h105v170h-10l-95 -165v-5z" />
    <glyph glyph-name="onehalf" unicode="&#xbd;" horiz-adv-x="680" 
d="M60 0l435 700h60l-435 -700h-60zM130 340v260h-90v50h60c20 0 30 10 30 30v20h55v-360h-55zM395 0v45.001l140 145c23.333 23.333 35 45 35 65c0 17.333 -5.66699 31.666 -17 42.999s-25.666 17 -42.999 17c-20 0 -35.833 -5.83301 -47.5 -17.5s-17.5 -27.5 -17.5 -47.5
h-55c0 32.667 11.167 60 33.5 82s51.166 33 86.499 33s63.333 -10.167 84 -30.5s31 -46.833 31 -79.5c0 -31.333 -16 -63 -48 -95l-102 -105v-5h155v-50h-235z" />
    <glyph glyph-name="threequarters" unicode="&#xbe;" horiz-adv-x="725" 
d="M125 0l435 700h60l-435 -700h-60zM40 440l55.002 -0.000976562c0 -16 6 -29.167 18 -39.5s27.667 -15.5 47 -15.5s35 5.16699 47 15.5s18 23.5 18 39.5c0 40 -23.333 60 -70 60h-30v50h30c19.333 0 35 5.16699 47 15.5s18 23.5 18 39.5c0 13.333 -5.33301 25 -16 35
s-25.334 15 -44.001 15s-33.334 -5 -44.001 -15s-16 -21.667 -16 -35h-55c0 28.667 10.5 52.5 31.5 71.5s48.833 28.5 83.5 28.5s62.5 -9.5 83.5 -28.5s31.5 -42.833 31.5 -71.5c0 -15.333 -5.33301 -30.333 -16 -45s-23.667 -24.667 -39 -30v-5c40 -14 60 -42.333 60 -85
c0 -30 -11.333 -55 -34 -75s-51.334 -30 -86.001 -30c-37.333 0 -66.666 9.83301 -87.999 29.5s-32 44.834 -32 75.501zM410.002 79.999v40l140 240h85v-230h50v-50h-50v-80h-55v80h-170zM475.002 129.999h105v170h-10l-95 -165v-5z" />
    <glyph glyph-name="questiondown" unicode="&#xbf;" horiz-adv-x="510" 
d="M415 -15l60.001 0.000976562c0 -56 -19.833 -102.5 -59.5 -139.5s-91.5 -55.5 -155.5 -55.5c-61.333 0 -112.5 19.5 -153.5 58.5s-61.5 86.167 -61.5 141.5c0 84 36.667 145.667 110 185c31.333 17.333 52.5 33.333 63.5 48s16.5 33.667 16.5 57v60h60v-60
c0 -36.667 -7.5 -65.834 -22.5 -87.501s-40.833 -41.834 -77.5 -60.501c-30.667 -16 -53.334 -35 -68.001 -57s-22 -50.333 -22 -85c0 -40.667 14.167 -74.167 42.5 -100.5s65.833 -39.5 112.5 -39.5s84.167 12.833 112.5 38.5s42.5 57.834 42.5 96.501zM230.001 430.001v70
h70v-70h-70z" />
    <glyph glyph-name="Agrave" unicode="&#xc0;" horiz-adv-x="630" 
d="M5 0l265 700h90l265 -700h-60l-72 190h-356l-72 -190h-60zM160 250h310l-145 385h-20zM285 775l-105 130h70l90 -130h-55z" />
    <glyph glyph-name="Aacute" unicode="&#xc1;" horiz-adv-x="630" 
d="M5 0l265 700h90l265 -700h-60l-72 190h-356l-72 -190h-60zM160 250h310l-145 385h-20zM290 775l90 130h70l-105 -130h-55z" />
    <glyph glyph-name="Acircumflex" unicode="&#xc2;" horiz-adv-x="630" 
d="M5 0l265 700h90l265 -700h-60l-72 190h-356l-72 -190h-60zM160 250h310l-145 385h-20zM170 775l113 130h64l113 -130h-65l-80 93l-80 -93h-65z" />
    <glyph glyph-name="Atilde" unicode="&#xc3;" horiz-adv-x="630" 
d="M5 0l265 700h90l265 -700h-60l-72 190h-356l-72 -190h-60zM160 250h310l-145 385h-20zM215 790h-50c0 29.333 8.5 53.333 25.5 72s38.5 28 64.5 28c20 0 42.833 -8.33301 68.5 -25s44.5 -25 56.5 -25c10.667 0 20 4.66699 28 14s12 21.333 12 36h50
c0 -29.333 -8.5 -53.333 -25.5 -72s-38.5 -28 -64.5 -28c-20 0 -42.833 8.33301 -68.5 25s-44.5 25 -56.5 25c-10.667 0 -20 -4.66699 -28 -14s-12 -21.333 -12 -36z" />
    <glyph glyph-name="Adieresis" unicode="&#xc4;" horiz-adv-x="630" 
d="M5 0l265 700h90l265 -700h-60l-72 190h-356l-72 -190h-60zM160 250h310l-145 385h-20zM195 810v70h70v-70h-70zM365 810v70h70v-70h-70z" />
    <glyph glyph-name="Aring" unicode="&#xc5;" horiz-adv-x="630" 
d="M5 0l265 700h90l265 -700h-60l-72 190h-356l-72 -190h-60zM160 250h310l-145 385h-20zM225 855c0 25.333 8.66699 46.666 26 63.999s38.666 26 63.999 26s46.666 -8.66699 63.999 -26s26 -38.666 26 -63.999s-8.66699 -46.666 -26 -63.999s-38.666 -26 -63.999 -26
s-46.666 8.66699 -63.999 26s-26 38.666 -26 63.999zM315 810c14.667 0 25.834 4.16699 33.501 12.5s11.5 19.166 11.5 32.499s-3.83301 24.166 -11.5 32.499s-18.834 12.5 -33.501 12.5s-25.834 -4.16699 -33.501 -12.5s-11.5 -19.166 -11.5 -32.499
s3.83301 -24.166 11.5 -32.499s18.834 -12.5 33.501 -12.5z" />
    <glyph glyph-name="AE" unicode="&#xc6;" horiz-adv-x="925" 
d="M-15 0l305 700h570v-60h-385v-260h365v-60h-365v-260h385v-60h-445v190h-285l-83 -190h-62zM156 250h259v390h-89z" />
    <glyph glyph-name="Ccedilla" unicode="&#xc7;" horiz-adv-x="735" 
d="M320 -200v45.002h40c30 0 45 11.667 45 35s-15 35 -45 35h-25v35l18 42c-86 8 -157.167 44.667 -213.5 110s-84.5 148 -84.5 248c0 106 31.5 192.5 94.5 259.5s141.5 100.5 235.5 100.5c80 0 146.5 -23.833 199.5 -71.5s88.167 -102.167 105.5 -163.5h-65
c-5.33301 13.333 -11.333 26.5 -18 39.5s-17 28.167 -31 45.5s-29.167 32.166 -45.5 44.499s-37.333 23 -63 32s-53.167 13.5 -82.5 13.5c-76.667 0 -140.834 -27.833 -192.501 -83.5s-77.5 -127.834 -77.5 -216.501s25.833 -160.834 77.5 -216.501
s115.834 -83.5 192.501 -83.5c37.333 0 71.333 6.66699 102 20s55.167 30.5 73.5 51.5s32.333 40.167 42 57.5s17.167 34.333 22.5 51h65c-16.667 -60 -50.334 -113.833 -101.001 -161.5s-112.667 -73.5 -186 -77.5l-18 -41c20 -2.66699 36.667 -10.667 50 -24
s20 -28.666 20 -45.999c0 -23.333 -8.16699 -42.5 -24.5 -57.5s-38.166 -22.5 -65.499 -22.5h-45z" />
    <glyph glyph-name="Egrave" unicode="&#xc8;" horiz-adv-x="595" 
d="M90 0v700h440v-60h-380v-260h360v-60h-360v-260h380v-60h-440zM280 775l-105 130h70l90 -130h-55z" />
    <glyph glyph-name="Eacute" unicode="&#xc9;" horiz-adv-x="595" 
d="M90 0v700h440v-60h-380v-260h360v-60h-360v-260h380v-60h-440zM285 775l90 130h70l-105 -130h-55z" />
    <glyph glyph-name="Ecircumflex" unicode="&#xca;" horiz-adv-x="595" 
d="M90 0v700h440v-60h-380v-260h360v-60h-360v-260h380v-60h-440zM165 775l113 130h64l113 -130h-65l-80 93l-80 -93h-65z" />
    <glyph glyph-name="Edieresis" unicode="&#xcb;" horiz-adv-x="595" 
d="M90 0v700h440v-60h-380v-260h360v-60h-360v-260h380v-60h-440zM190 810v70h70v-70h-70zM360 810v70h70v-70h-70z" />
    <glyph glyph-name="Igrave" unicode="&#xcc;" horiz-adv-x="240" 
d="M90 0v700h60v-700h-60zM90 775l-105 130h70l90 -130h-55z" />
    <glyph glyph-name="Iacute" unicode="&#xcd;" horiz-adv-x="240" 
d="M90 0v700h60v-700h-60zM95 775l90 130h70l-105 -130h-55z" />
    <glyph glyph-name="Icircumflex" unicode="&#xce;" horiz-adv-x="240" 
d="M90 0v700h60v-700h-60zM-25 775l113 130h64l113 -130h-65l-80 93l-80 -93h-65z" />
    <glyph glyph-name="Idieresis" unicode="&#xcf;" horiz-adv-x="240" 
d="M90 0v700h60v-700h-60zM0 810v70h70v-70h-70zM170 810v70h70v-70h-70z" />
    <glyph glyph-name="Eth" unicode="&#xd0;" horiz-adv-x="730" 
d="M115 0v325h-95v55h95v320h225c95.333 0 175 -33 239 -99s96 -149.667 96 -251s-32 -185 -96 -251s-143.667 -99 -239 -99h-225zM175 60h165c82.667 0 149.167 26 199.5 78s75.5 122.667 75.5 212s-25.167 160 -75.5 212s-116.833 78 -199.5 78h-165v-260h195v-55h-195
v-265z" />
    <glyph glyph-name="Ntilde" unicode="&#xd1;" horiz-adv-x="715" 
d="M90 0v700h110l345 -630h20v630h60v-700h-110l-345 630h-20v-630h-60zM255 790h-50c0 29.333 8.5 53.333 25.5 72s38.5 28 64.5 28c20 0 42.833 -8.33301 68.5 -25s44.5 -25 56.5 -25c10.667 0 20 4.66699 28 14s12 21.333 12 36h50c0 -29.333 -8.5 -53.333 -25.5 -72
s-38.5 -28 -64.5 -28c-20 0 -42.833 8.33301 -68.5 25s-44.5 25 -56.5 25c-10.667 0 -20 -4.66699 -28 -14s-12 -21.333 -12 -36z" />
    <glyph glyph-name="Ograve" unicode="&#xd2;" horiz-adv-x="770" 
d="M385 710c94 0 172.5 -33.5 235.5 -100.5s94.5 -153.5 94.5 -259.5s-31.5 -192.5 -94.5 -259.5s-141.5 -100.5 -235.5 -100.5s-172.5 33.5 -235.5 100.5s-94.5 153.5 -94.5 259.5s31.5 192.5 94.5 259.5s141.5 100.5 235.5 100.5zM385 50
c76.667 0 140.834 27.833 192.501 83.5s77.5 127.834 77.5 216.501s-25.833 160.834 -77.5 216.501s-115.834 83.5 -192.501 83.5s-140.834 -27.833 -192.501 -83.5s-77.5 -127.834 -77.5 -216.501s25.833 -160.834 77.5 -216.501s115.834 -83.5 192.501 -83.5zM355 775
l-105 130h70l90 -130h-55z" />
    <glyph glyph-name="Oacute" unicode="&#xd3;" horiz-adv-x="770" 
d="M385 710c94 0 172.5 -33.5 235.5 -100.5s94.5 -153.5 94.5 -259.5s-31.5 -192.5 -94.5 -259.5s-141.5 -100.5 -235.5 -100.5s-172.5 33.5 -235.5 100.5s-94.5 153.5 -94.5 259.5s31.5 192.5 94.5 259.5s141.5 100.5 235.5 100.5zM385 50
c76.667 0 140.834 27.833 192.501 83.5s77.5 127.834 77.5 216.501s-25.833 160.834 -77.5 216.501s-115.834 83.5 -192.501 83.5s-140.834 -27.833 -192.501 -83.5s-77.5 -127.834 -77.5 -216.501s25.833 -160.834 77.5 -216.501s115.834 -83.5 192.501 -83.5zM360 775
l90 130h70l-105 -130h-55z" />
    <glyph glyph-name="Ocircumflex" unicode="&#xd4;" horiz-adv-x="770" 
d="M385 710c94 0 172.5 -33.5 235.5 -100.5s94.5 -153.5 94.5 -259.5s-31.5 -192.5 -94.5 -259.5s-141.5 -100.5 -235.5 -100.5s-172.5 33.5 -235.5 100.5s-94.5 153.5 -94.5 259.5s31.5 192.5 94.5 259.5s141.5 100.5 235.5 100.5zM385 50
c76.667 0 140.834 27.833 192.501 83.5s77.5 127.834 77.5 216.501s-25.833 160.834 -77.5 216.501s-115.834 83.5 -192.501 83.5s-140.834 -27.833 -192.501 -83.5s-77.5 -127.834 -77.5 -216.501s25.833 -160.834 77.5 -216.501s115.834 -83.5 192.501 -83.5zM240 775
l113 130h64l113 -130h-65l-80 93l-80 -93h-65z" />
    <glyph glyph-name="Otilde" unicode="&#xd5;" horiz-adv-x="770" 
d="M385 710c94 0 172.5 -33.5 235.5 -100.5s94.5 -153.5 94.5 -259.5s-31.5 -192.5 -94.5 -259.5s-141.5 -100.5 -235.5 -100.5s-172.5 33.5 -235.5 100.5s-94.5 153.5 -94.5 259.5s31.5 192.5 94.5 259.5s141.5 100.5 235.5 100.5zM385 50
c76.667 0 140.834 27.833 192.501 83.5s77.5 127.834 77.5 216.501s-25.833 160.834 -77.5 216.501s-115.834 83.5 -192.501 83.5s-140.834 -27.833 -192.501 -83.5s-77.5 -127.834 -77.5 -216.501s25.833 -160.834 77.5 -216.501s115.834 -83.5 192.501 -83.5zM285 790h-50
c0 29.333 8.5 53.333 25.5 72s38.5 28 64.5 28c20 0 42.833 -8.33301 68.5 -25s44.5 -25 56.5 -25c10.667 0 20 4.66699 28 14s12 21.333 12 36h50c0 -29.333 -8.5 -53.333 -25.5 -72s-38.5 -28 -64.5 -28c-20 0 -42.833 8.33301 -68.5 25s-44.5 25 -56.5 25
c-10.667 0 -20 -4.66699 -28 -14s-12 -21.333 -12 -36z" />
    <glyph glyph-name="Odieresis" unicode="&#xd6;" horiz-adv-x="770" 
d="M385 710c94 0 172.5 -33.5 235.5 -100.5s94.5 -153.5 94.5 -259.5s-31.5 -192.5 -94.5 -259.5s-141.5 -100.5 -235.5 -100.5s-172.5 33.5 -235.5 100.5s-94.5 153.5 -94.5 259.5s31.5 192.5 94.5 259.5s141.5 100.5 235.5 100.5zM385 50
c76.667 0 140.834 27.833 192.501 83.5s77.5 127.834 77.5 216.501s-25.833 160.834 -77.5 216.501s-115.834 83.5 -192.501 83.5s-140.834 -27.833 -192.501 -83.5s-77.5 -127.834 -77.5 -216.501s25.833 -160.834 77.5 -216.501s115.834 -83.5 192.501 -83.5zM265 810v70
h70v-70h-70zM435 810v70h70v-70h-70z" />
    <glyph glyph-name="multiply" unicode="&#xd7;" horiz-adv-x="530" 
d="M80 150l145 145l-145 145l40 40l145 -145l145 145l40 -40l-145 -145l145 -145l-40 -40l-145 145l-145 -145z" />
    <glyph glyph-name="Oslash" unicode="&#xd8;" horiz-adv-x="770" 
d="M150 -35l45 85c-44 32.667 -78.333 74.667 -103 126s-37 109.333 -37 174c0 106 31.5 192.5 94.5 259.5s141.5 100.5 235.5 100.5c51.333 0 98 -10.333 140 -31l30 56h65l-45 -86c93.333 -69.333 140 -169 140 -299c0 -106 -31.5 -192.5 -94.5 -259.5
s-141.5 -100.5 -235.5 -100.5c-50 0 -97 10.333 -141 31l-29 -56h-65zM546 595l-274.001 -521.002c34 -16 71.667 -24 113 -24c76.667 0 140.834 27.833 192.501 83.5s77.5 127.834 77.5 216.501c0 106.667 -36.333 188.334 -109 245.001zM222.999 104.998l274.001 520.001
c-34 16.667 -71.333 25 -112 25c-76.667 0 -140.834 -27.833 -192.501 -83.5s-77.5 -127.834 -77.5 -216.501c0 -107.333 36 -189 108 -245z" />
    <glyph glyph-name="Ugrave" unicode="&#xd9;" horiz-adv-x="700" 
d="M80 275v425h60v-425c0 -67.333 19.833 -121.666 59.5 -162.999s89.834 -62 150.501 -62s110.834 20.667 150.501 62s59.5 95.666 59.5 162.999v425h60v-425c0 -84.667 -25.333 -153.334 -76 -206.001s-115.334 -79 -194.001 -79s-143.334 26.333 -194.001 79
s-76 121.334 -76 206.001zM320 775l-105 130h70l90 -130h-55z" />
    <glyph glyph-name="Uacute" unicode="&#xda;" horiz-adv-x="700" 
d="M80 275v425h60v-425c0 -67.333 19.833 -121.666 59.5 -162.999s89.834 -62 150.501 -62s110.834 20.667 150.501 62s59.5 95.666 59.5 162.999v425h60v-425c0 -84.667 -25.333 -153.334 -76 -206.001s-115.334 -79 -194.001 -79s-143.334 26.333 -194.001 79
s-76 121.334 -76 206.001zM325 775l90 130h70l-105 -130h-55z" />
    <glyph glyph-name="Ucircumflex" unicode="&#xdb;" horiz-adv-x="700" 
d="M80 275v425h60v-425c0 -67.333 19.833 -121.666 59.5 -162.999s89.834 -62 150.501 -62s110.834 20.667 150.501 62s59.5 95.666 59.5 162.999v425h60v-425c0 -84.667 -25.333 -153.334 -76 -206.001s-115.334 -79 -194.001 -79s-143.334 26.333 -194.001 79
s-76 121.334 -76 206.001zM205 775l113 130h64l113 -130h-65l-80 93l-80 -93h-65z" />
    <glyph glyph-name="Udieresis" unicode="&#xdc;" horiz-adv-x="700" 
d="M80 275v425h60v-425c0 -67.333 19.833 -121.666 59.5 -162.999s89.834 -62 150.501 -62s110.834 20.667 150.501 62s59.5 95.666 59.5 162.999v425h60v-425c0 -84.667 -25.333 -153.334 -76 -206.001s-115.334 -79 -194.001 -79s-143.334 26.333 -194.001 79
s-76 121.334 -76 206.001zM230 810v70h70v-70h-70zM400 810v70h70v-70h-70z" />
    <glyph glyph-name="Yacute" unicode="&#xdd;" horiz-adv-x="590" 
d="M265 0v263l-260 437h67l213 -360h20l213 360h67l-260 -437v-263h-60zM270 775l90 130h70l-105 -130h-55z" />
    <glyph glyph-name="Thorn" unicode="&#xde;" horiz-adv-x="695" 
d="M150 220h300c40 0 72.5 12.167 97.5 36.5s37.5 55.5 37.5 93.5s-12.5 69.167 -37.5 93.5s-57.5 36.5 -97.5 36.5h-300v-260zM90 0v700h60v-160h300c57.333 0 104.166 -17.833 140.499 -53.5s54.5 -81.167 54.5 -136.5s-18.167 -100.833 -54.5 -136.5
s-83.166 -53.5 -140.499 -53.5h-300v-160h-60z" />
    <glyph glyph-name="germandbls" unicode="&#xdf;" horiz-adv-x="555" 
d="M80 0v515c0 58 18.333 105 55 141s85 54 145 54c62 0 111.667 -17.667 149 -53s56 -81 56 -137c0 -50.667 -16.667 -92 -50 -124c-15.333 -14.667 -32 -25.667 -50 -33v-5c24 -7.33301 44.667 -17.666 62 -30.999c42 -32.667 63 -76.667 63 -132
c0 -56.667 -20.667 -103.334 -62 -140.001s-97.333 -55 -168 -55h-30v60h30c56 0 98.333 12.167 127 36.5s43 57.166 43 98.499c0 39.333 -14 70.833 -42 94.5s-69 35.5 -123 35.5h-35v60h30c44 0 79.167 12.333 105.5 37s39.5 57.334 39.5 98.001c0 38.667 -13 70 -39 94
s-61.333 36 -106 36c-42 0 -75.833 -12.5 -101.5 -37.5s-38.5 -57.5 -38.5 -97.5v-515h-60z" />
    <glyph glyph-name="agrave" unicode="&#xe0;" horiz-adv-x="535" 
d="M405 0l-9.99902 70h-5c-10 -14 -23.667 -27.333 -41 -40c-37.333 -26.667 -78.666 -40 -123.999 -40c-51.333 0 -92.5 14.333 -123.5 43s-46.5 66 -46.5 112c0 47.333 16.667 85 50 113s81.666 42 144.999 42h145v20c0 86.667 -43.333 130 -130 130
c-39.333 0 -70.833 -8.66699 -94.5 -26s-37.167 -40.333 -40.5 -69h-60c6 44.667 25.667 81.667 59 111s78.666 44 135.999 44c60.667 0 107.5 -16.5 140.5 -49.5s49.5 -79.833 49.5 -140.5v-320h-50zM395.001 220v25h-145c-44 0 -77.5 -9.33301 -100.5 -28
s-34.5 -42.667 -34.5 -72c0 -28.667 9.66699 -51.667 29 -69s46.333 -26 81 -26c52.667 0 94.167 15.167 124.5 45.5s45.5 71.833 45.5 124.5zM240.001 585l-105 130h70l90 -130h-55z" />
    <glyph glyph-name="aacute" unicode="&#xe1;" horiz-adv-x="535" 
d="M405 0l-9.99902 70h-5c-10 -14 -23.667 -27.333 -41 -40c-37.333 -26.667 -78.666 -40 -123.999 -40c-51.333 0 -92.5 14.333 -123.5 43s-46.5 66 -46.5 112c0 47.333 16.667 85 50 113s81.666 42 144.999 42h145v20c0 86.667 -43.333 130 -130 130
c-39.333 0 -70.833 -8.66699 -94.5 -26s-37.167 -40.333 -40.5 -69h-60c6 44.667 25.667 81.667 59 111s78.666 44 135.999 44c60.667 0 107.5 -16.5 140.5 -49.5s49.5 -79.833 49.5 -140.5v-320h-50zM395.001 220v25h-145c-44 0 -77.5 -9.33301 -100.5 -28
s-34.5 -42.667 -34.5 -72c0 -28.667 9.66699 -51.667 29 -69s46.333 -26 81 -26c52.667 0 94.167 15.167 124.5 45.5s45.5 71.833 45.5 124.5zM240.001 585l90 130h70l-105 -130h-55z" />
    <glyph glyph-name="acircumflex" unicode="&#xe2;" horiz-adv-x="535" 
d="M405 0l-9.99902 70h-5c-10 -14 -23.667 -27.333 -41 -40c-37.333 -26.667 -78.666 -40 -123.999 -40c-51.333 0 -92.5 14.333 -123.5 43s-46.5 66 -46.5 112c0 47.333 16.667 85 50 113s81.666 42 144.999 42h145v20c0 86.667 -43.333 130 -130 130
c-39.333 0 -70.833 -8.66699 -94.5 -26s-37.167 -40.333 -40.5 -69h-60c6 44.667 25.667 81.667 59 111s78.666 44 135.999 44c60.667 0 107.5 -16.5 140.5 -49.5s49.5 -79.833 49.5 -140.5v-320h-50zM395.001 220v25h-145c-44 0 -77.5 -9.33301 -100.5 -28
s-34.5 -42.667 -34.5 -72c0 -28.667 9.66699 -51.667 29 -69s46.333 -26 81 -26c52.667 0 94.167 15.167 124.5 45.5s45.5 71.833 45.5 124.5zM120.001 585l113 130h64l113 -130h-65l-80 93l-80 -93h-65z" />
    <glyph glyph-name="atilde" unicode="&#xe3;" horiz-adv-x="535" 
d="M405 0l-9.99902 70h-5c-10 -14 -23.667 -27.333 -41 -40c-37.333 -26.667 -78.666 -40 -123.999 -40c-51.333 0 -92.5 14.333 -123.5 43s-46.5 66 -46.5 112c0 47.333 16.667 85 50 113s81.666 42 144.999 42h145v20c0 86.667 -43.333 130 -130 130
c-39.333 0 -70.833 -8.66699 -94.5 -26s-37.167 -40.333 -40.5 -69h-60c6 44.667 25.667 81.667 59 111s78.666 44 135.999 44c60.667 0 107.5 -16.5 140.5 -49.5s49.5 -79.833 49.5 -140.5v-320h-50zM395.001 220v25h-145c-44 0 -77.5 -9.33301 -100.5 -28
s-34.5 -42.667 -34.5 -72c0 -28.667 9.66699 -51.667 29 -69s46.333 -26 81 -26c52.667 0 94.167 15.167 124.5 45.5s45.5 71.833 45.5 124.5zM165.001 600h-50c0 29.333 8.5 53.333 25.5 72s38.5 28 64.5 28c20 0 42.833 -8.33301 68.5 -25s44.5 -25 56.5 -25
c10.667 0 20 4.66699 28 14s12 21.333 12 36h50c0 -29.333 -8.5 -53.333 -25.5 -72s-38.5 -28 -64.5 -28c-20 0 -42.833 8.33301 -68.5 25s-44.5 25 -56.5 25c-10.667 0 -20 -4.66699 -28 -14s-12 -21.333 -12 -36z" />
    <glyph glyph-name="adieresis" unicode="&#xe4;" horiz-adv-x="535" 
d="M405 0l-9.99902 70h-5c-10 -14 -23.667 -27.333 -41 -40c-37.333 -26.667 -78.666 -40 -123.999 -40c-51.333 0 -92.5 14.333 -123.5 43s-46.5 66 -46.5 112c0 47.333 16.667 85 50 113s81.666 42 144.999 42h145v20c0 86.667 -43.333 130 -130 130
c-39.333 0 -70.833 -8.66699 -94.5 -26s-37.167 -40.333 -40.5 -69h-60c6 44.667 25.667 81.667 59 111s78.666 44 135.999 44c60.667 0 107.5 -16.5 140.5 -49.5s49.5 -79.833 49.5 -140.5v-320h-50zM395.001 220v25h-145c-44 0 -77.5 -9.33301 -100.5 -28
s-34.5 -42.667 -34.5 -72c0 -28.667 9.66699 -51.667 29 -69s46.333 -26 81 -26c52.667 0 94.167 15.167 124.5 45.5s45.5 71.833 45.5 124.5zM145.001 615v70h70v-70h-70zM315.001 615v70h70v-70h-70z" />
    <glyph glyph-name="aring" unicode="&#xe5;" horiz-adv-x="535" 
d="M405 0l-9.99902 70h-5c-10 -14 -23.667 -27.333 -41 -40c-37.333 -26.667 -78.666 -40 -123.999 -40c-51.333 0 -92.5 14.333 -123.5 43s-46.5 66 -46.5 112c0 47.333 16.667 85 50 113s81.666 42 144.999 42h145v20c0 86.667 -43.333 130 -130 130
c-39.333 0 -70.833 -8.66699 -94.5 -26s-37.167 -40.333 -40.5 -69h-60c6 44.667 25.667 81.667 59 111s78.666 44 135.999 44c60.667 0 107.5 -16.5 140.5 -49.5s49.5 -79.833 49.5 -140.5v-320h-50zM395.001 220v25h-145c-44 0 -77.5 -9.33301 -100.5 -28
s-34.5 -42.667 -34.5 -72c0 -28.667 9.66699 -51.667 29 -69s46.333 -26 81 -26c52.667 0 94.167 15.167 124.5 45.5s45.5 71.833 45.5 124.5zM175.001 660c0 25.333 8.66699 46.666 26 63.999s38.666 26 63.999 26s46.666 -8.66699 63.999 -26s26 -38.666 26 -63.999
s-8.66699 -46.666 -26 -63.999s-38.666 -26 -63.999 -26s-46.666 8.66699 -63.999 26s-26 38.666 -26 63.999zM265.001 615c14.667 0 25.834 4.16699 33.501 12.5s11.5 19.166 11.5 32.499s-3.83301 24.166 -11.5 32.499s-18.834 12.5 -33.501 12.5
s-25.834 -4.16699 -33.501 -12.5s-11.5 -19.166 -11.5 -32.499s3.83301 -24.166 11.5 -32.499s18.834 -12.5 33.501 -12.5z" />
    <glyph glyph-name="ae" unicode="&#xe6;" horiz-adv-x="895" 
d="M130 355l-59.9961 -0.00292969c6 44.667 25.667 81.667 59 111s78.666 44 135.999 44c80 0 136.667 -36.667 170 -110c43.333 73.333 108.333 110 195 110c61.333 0 113.333 -23.333 156 -70s64 -106.667 64 -180c0 -7.33301 -0.666992 -15.666 -2 -24.999
c-0.666992 -2 -1 -5.33301 -1 -10h-392c8 -54 27.5 -96.667 58.5 -128s68.167 -47 111.5 -47c65.333 0 113.666 30 144.999 90h65c-36 -100 -106 -150 -210 -150c-60.667 0 -112 21.667 -154 65c-18.667 18.667 -34 40.334 -46 65.001c-10 -23.333 -24.667 -45 -44 -65
c-40.667 -43.333 -92.667 -65 -156 -65c-50.667 0 -91.667 13.833 -123 41.5s-47 62.167 -47 103.5c0 46.667 16.167 83.334 48.5 110.001s81.166 40 146.499 40h145v35c0 86.667 -43.333 130 -130 130c-38 0 -69.333 -8.83301 -94 -26.5s-38.334 -40.5 -41.001 -68.5z
M395.004 219.997v4.99902h-145c-46 0 -80 -8.16699 -102 -24.5s-33 -38.166 -33 -65.499c0 -24 9.83301 -44.167 29.5 -60.5s46.5 -24.5 80.5 -24.5c52.667 0 94.167 15.167 124.5 45.5s45.5 71.833 45.5 124.5zM456.004 284.996h333.999
c-4 48.667 -21.667 88.334 -53 119.001s-68.666 46 -111.999 46c-42.667 0 -80.5 -15.833 -113.5 -47.5s-51.5 -70.834 -55.5 -117.501z" />
    <glyph glyph-name="ccedilla" unicode="&#xe7;" horiz-adv-x="540" 
d="M220 -200l0.00195312 44.999h40c30 0 45 11.667 45 35s-15 35 -45 35h-25v35l18 41c-61.333 5.33301 -111.333 31.5 -150 78.5s-58 107.167 -58 180.5c0 78.667 21.833 141.667 65.5 189s100.167 71 169.5 71c55.333 0 102.666 -15.167 141.999 -45.5
s65.333 -71.833 78 -124.5h-65c-7.33301 26.667 -23.833 51.667 -49.5 75s-60.834 35 -105.501 35c-51.333 0 -93.333 -18 -126 -54s-49 -84.667 -49 -146s16.333 -110 49 -146s74.667 -54 126 -54c44 0 79 12.333 105 37s42.667 50.667 50 78h65
c-11.333 -51.333 -34.333 -92 -69 -122s-77.334 -47.333 -128.001 -52l-18 -41c20 -2.66699 36.667 -10.667 50 -24s20 -28.666 20 -45.999c0 -23.333 -8.16699 -42.5 -24.5 -57.5s-38.166 -22.5 -65.499 -22.5h-45z" />
    <glyph glyph-name="egrave" unicode="&#xe8;" horiz-adv-x="555" 
d="M105 280h345.001c-2.66699 50 -19.834 90.833 -51.501 122.5s-71.167 47.5 -118.5 47.5c-48 0 -87.833 -15.167 -119.5 -45.5s-50.167 -71.833 -55.5 -124.5zM430.001 140h65c-14.667 -41.333 -39.5 -76.666 -74.5 -105.999s-81.833 -44 -140.5 -44
c-69.333 0 -125.833 23.667 -169.5 71s-65.5 110.333 -65.5 189s21.833 141.667 65.5 189s100.167 71 169.5 71c66 0 120.833 -23.167 164.5 -69.5s65.5 -106.5 65.5 -180.5c0 -10 -0.666992 -19.667 -2 -29c-0.666992 -2.66699 -1 -6.33398 -1 -11.001h-402
c5.33301 -51.333 24.333 -92.5 57 -123.5s72 -46.5 118 -46.5c36.667 0 67.667 9 93 27s44.333 39 57 63zM250.001 585l-105 130h70l90 -130h-55z" />
    <glyph glyph-name="eacute" unicode="&#xe9;" horiz-adv-x="555" 
d="M105 280h345.001c-2.66699 50 -19.834 90.833 -51.501 122.5s-71.167 47.5 -118.5 47.5c-48 0 -87.833 -15.167 -119.5 -45.5s-50.167 -71.833 -55.5 -124.5zM430.001 140h65c-14.667 -41.333 -39.5 -76.666 -74.5 -105.999s-81.833 -44 -140.5 -44
c-69.333 0 -125.833 23.667 -169.5 71s-65.5 110.333 -65.5 189s21.833 141.667 65.5 189s100.167 71 169.5 71c66 0 120.833 -23.167 164.5 -69.5s65.5 -106.5 65.5 -180.5c0 -10 -0.666992 -19.667 -2 -29c-0.666992 -2.66699 -1 -6.33398 -1 -11.001h-402
c5.33301 -51.333 24.333 -92.5 57 -123.5s72 -46.5 118 -46.5c36.667 0 67.667 9 93 27s44.333 39 57 63zM250.001 585l90 130h70l-105 -130h-55z" />
    <glyph glyph-name="ecircumflex" unicode="&#xea;" horiz-adv-x="555" 
d="M105 280h345.001c-2.66699 50 -19.834 90.833 -51.501 122.5s-71.167 47.5 -118.5 47.5c-48 0 -87.833 -15.167 -119.5 -45.5s-50.167 -71.833 -55.5 -124.5zM430.001 140h65c-14.667 -41.333 -39.5 -76.666 -74.5 -105.999s-81.833 -44 -140.5 -44
c-69.333 0 -125.833 23.667 -169.5 71s-65.5 110.333 -65.5 189s21.833 141.667 65.5 189s100.167 71 169.5 71c66 0 120.833 -23.167 164.5 -69.5s65.5 -106.5 65.5 -180.5c0 -10 -0.666992 -19.667 -2 -29c-0.666992 -2.66699 -1 -6.33398 -1 -11.001h-402
c5.33301 -51.333 24.333 -92.5 57 -123.5s72 -46.5 118 -46.5c36.667 0 67.667 9 93 27s44.333 39 57 63zM135.001 585l113 130h64l113 -130h-65l-80 93l-80 -93h-65z" />
    <glyph glyph-name="edieresis" unicode="&#xeb;" horiz-adv-x="555" 
d="M105 280h345.001c-2.66699 50 -19.834 90.833 -51.501 122.5s-71.167 47.5 -118.5 47.5c-48 0 -87.833 -15.167 -119.5 -45.5s-50.167 -71.833 -55.5 -124.5zM430.001 140h65c-14.667 -41.333 -39.5 -76.666 -74.5 -105.999s-81.833 -44 -140.5 -44
c-69.333 0 -125.833 23.667 -169.5 71s-65.5 110.333 -65.5 189s21.833 141.667 65.5 189s100.167 71 169.5 71c66 0 120.833 -23.167 164.5 -69.5s65.5 -106.5 65.5 -180.5c0 -10 -0.666992 -19.667 -2 -29c-0.666992 -2.66699 -1 -6.33398 -1 -11.001h-402
c5.33301 -51.333 24.333 -92.5 57 -123.5s72 -46.5 118 -46.5c36.667 0 67.667 9 93 27s44.333 39 57 63zM160.001 615v70h70v-70h-70zM330.001 615v70h70v-70h-70z" />
    <glyph glyph-name="igrave" unicode="&#xec;" horiz-adv-x="220" 
d="M80 0v500h60v-500h-60zM80 585l-105 130h70l90 -130h-55z" />
    <glyph glyph-name="iacute" unicode="&#xed;" horiz-adv-x="220" 
d="M80 0v500h60v-500h-60zM85 585l90 130h70l-105 -130h-55z" />
    <glyph glyph-name="icircumflex" unicode="&#xee;" horiz-adv-x="220" 
d="M80 0v500h60v-500h-60zM-35 585l113 130h64l113 -130h-65l-80 93l-80 -93h-65z" />
    <glyph glyph-name="idieresis" unicode="&#xef;" horiz-adv-x="220" 
d="M80 0v500h60v-500h-60zM-10 615v70h70v-70h-70zM160 615v70h70v-70h-70z" />
    <glyph glyph-name="eth" unicode="&#xf0;" horiz-adv-x="545" 
d="M270 50c48 0 87.5 16.167 118.5 48.5s46.5 74.5 46.5 126.5s-15.5 94.167 -46.5 126.5s-70.5 48.5 -118.5 48.5s-87.5 -16.167 -118.5 -48.5s-46.5 -74.5 -46.5 -126.5s15.5 -94.167 46.5 -126.5s70.5 -48.5 118.5 -48.5zM167 505l-25 44.001l109 58
c-12 10 -37.667 29 -77 57l-34 21l50 30c10 -6 22.333 -14 37 -24c24 -16 49.333 -35.667 76 -59l117 63l25 -45l-104 -54c102.667 -105.333 154 -224 154 -356c0 -76 -21 -136.667 -63 -182s-96 -68 -162 -68c-65.333 0 -119.166 21.833 -161.499 65.5
s-63.5 100.167 -63.5 169.5s21.167 125.833 63.5 169.5s96.166 65.5 161.499 65.5c22 0 42.833 -4 62.5 -12s32.5 -14.333 38.5 -19s15.667 -12.667 29 -24h5c-22.667 55.333 -61 110.666 -115 165.999z" />
    <glyph glyph-name="ntilde" unicode="&#xf1;" horiz-adv-x="580" 
d="M80 0v500.002h50l10 -65h5c10 14.667 22 27 36 37c33.333 25.333 73 38 119 38c58 0 105.833 -19.5 143.5 -58.5s56.5 -89.5 56.5 -151.5v-300h-60v300c0 45.333 -13.5 81.666 -40.5 108.999s-61.833 41 -104.5 41c-45.333 0 -82.5 -14.333 -111.5 -43
s-43.5 -64.334 -43.5 -107.001v-300h-60zM195 600.002h-50c0 29.333 8.5 53.333 25.5 72s38.5 28 64.5 28c20 0 42.833 -8.33301 68.5 -25s44.5 -25 56.5 -25c10.667 0 20 4.66699 28 14s12 21.333 12 36h50c0 -29.333 -8.5 -53.333 -25.5 -72s-38.5 -28 -64.5 -28
c-20 0 -42.833 8.33301 -68.5 25s-44.5 25 -56.5 25c-10.667 0 -20 -4.66699 -28 -14s-12 -21.333 -12 -36z" />
    <glyph glyph-name="ograve" unicode="&#xf2;" 
d="M280 -10c-66 0 -121.667 24.333 -167 73s-68 111 -68 187s22.667 138.333 68 187s101 73 167 73s121.667 -24.333 167 -73s68 -111 68 -187s-22.667 -138.333 -68 -187s-101 -73 -167 -73zM455 250c0 58.667 -17 106.667 -51 144s-75.333 56 -124 56
s-90 -18.667 -124 -56s-51 -85.333 -51 -144s17 -106.667 51 -144s75.333 -56 124 -56s90 18.667 124 56s51 85.333 51 144zM255 585l-105 130h70l90 -130h-55z" />
    <glyph glyph-name="oacute" unicode="&#xf3;" 
d="M280 -10c-66 0 -121.667 24.333 -167 73s-68 111 -68 187s22.667 138.333 68 187s101 73 167 73s121.667 -24.333 167 -73s68 -111 68 -187s-22.667 -138.333 -68 -187s-101 -73 -167 -73zM455 250c0 58.667 -17 106.667 -51 144s-75.333 56 -124 56
s-90 -18.667 -124 -56s-51 -85.333 -51 -144s17 -106.667 51 -144s75.333 -56 124 -56s90 18.667 124 56s51 85.333 51 144zM250 585l90 130h70l-105 -130h-55z" />
    <glyph glyph-name="ocircumflex" unicode="&#xf4;" 
d="M280 -10c-66 0 -121.667 24.333 -167 73s-68 111 -68 187s22.667 138.333 68 187s101 73 167 73s121.667 -24.333 167 -73s68 -111 68 -187s-22.667 -138.333 -68 -187s-101 -73 -167 -73zM455 250c0 58.667 -17 106.667 -51 144s-75.333 56 -124 56
s-90 -18.667 -124 -56s-51 -85.333 -51 -144s17 -106.667 51 -144s75.333 -56 124 -56s90 18.667 124 56s51 85.333 51 144zM135 585l113 130h64l113 -130h-65l-80 93l-80 -93h-65z" />
    <glyph glyph-name="otilde" unicode="&#xf5;" 
d="M280 -10c-66 0 -121.667 24.333 -167 73s-68 111 -68 187s22.667 138.333 68 187s101 73 167 73s121.667 -24.333 167 -73s68 -111 68 -187s-22.667 -138.333 -68 -187s-101 -73 -167 -73zM455 250c0 58.667 -17 106.667 -51 144s-75.333 56 -124 56
s-90 -18.667 -124 -56s-51 -85.333 -51 -144s17 -106.667 51 -144s75.333 -56 124 -56s90 18.667 124 56s51 85.333 51 144zM180 600h-50c0 29.333 8.5 53.333 25.5 72s38.5 28 64.5 28c20 0 42.833 -8.33301 68.5 -25s44.5 -25 56.5 -25c10.667 0 20 4.66699 28 14
s12 21.333 12 36h50c0 -29.333 -8.5 -53.333 -25.5 -72s-38.5 -28 -64.5 -28c-20 0 -42.833 8.33301 -68.5 25s-44.5 25 -56.5 25c-10.667 0 -20 -4.66699 -28 -14s-12 -21.333 -12 -36z" />
    <glyph glyph-name="odieresis" unicode="&#xf6;" 
d="M280 -10c-66 0 -121.667 24.333 -167 73s-68 111 -68 187s22.667 138.333 68 187s101 73 167 73s121.667 -24.333 167 -73s68 -111 68 -187s-22.667 -138.333 -68 -187s-101 -73 -167 -73zM455 250c0 58.667 -17 106.667 -51 144s-75.333 56 -124 56
s-90 -18.667 -124 -56s-51 -85.333 -51 -144s17 -106.667 51 -144s75.333 -56 124 -56s90 18.667 124 56s51 85.333 51 144zM160 615v70h70v-70h-70zM330 615v70h70v-70h-70z" />
    <glyph glyph-name="divide" unicode="&#xf7;" horiz-adv-x="530" 
d="M65 265v55h400v-55h-400zM265 175c11.333 0 20.5 -3.5 27.5 -10.5s10.5 -15.833 10.5 -26.5c0 -11.333 -3.5 -20.5 -10.5 -27.5s-16.167 -10.5 -27.5 -10.5s-20.5 3.5 -27.5 10.5s-10.5 16.167 -10.5 27.5c0 10.667 3.5 19.5 10.5 26.5s16.167 10.5 27.5 10.5zM227 448
c0 10.667 3.5 19.5 10.5 26.5s16.167 10.5 27.5 10.5s20.5 -3.5 27.5 -10.5s10.5 -15.833 10.5 -26.5c0 -11.333 -3.5 -20.5 -10.5 -27.5s-16.167 -10.5 -27.5 -10.5s-20.5 3.5 -27.5 10.5s-10.5 16.167 -10.5 27.5z" />
    <glyph glyph-name="oslash" unicode="&#xf8;" 
d="M95 -35l39.999 76.001c-60 48 -90 117.667 -90 209c0 76 22.667 138.333 68 187s101 73 167 73c34.667 0 66.334 -7 95.001 -21l25 46h65l-41 -76c60.667 -50.667 91 -120.334 91 -209.001c0 -76 -22.667 -138.333 -68 -187s-101 -73 -167 -73
c-33.333 0 -65.333 6.66699 -96 20l-24 -45h-65zM393.999 403.001l-181 -339c22 -9.33301 44.333 -14 67 -14c48.667 0 90 18.667 124 56s51 85.333 51 144c0 63.333 -20.333 114.333 -61 153zM164.999 96.001l182 340c-22.667 9.33301 -45 14 -67 14
c-48.667 0 -90 -18.667 -124 -56s-51 -85.333 -51 -144c0 -64.667 20 -116 60 -154z" />
    <glyph glyph-name="ugrave" unicode="&#xf9;" horiz-adv-x="580" 
d="M80 200l0.000976562 299.999h60v-300c0 -45.333 13.5 -81.666 40.5 -108.999s61.833 -41 104.5 -41c45.333 0 82.5 14.333 111.5 43s43.5 64.334 43.5 107.001v300h60v-500h-50l-10 65h-5c-9.33301 -14.667 -21.333 -27.334 -36 -38.001
c-32.667 -24.667 -72.334 -37 -119.001 -37c-58 0 -105.833 19.5 -143.5 58.5s-56.5 89.5 -56.5 151.5zM265.001 584.999l-105 130h70l90 -130h-55z" />
    <glyph glyph-name="uacute" unicode="&#xfa;" horiz-adv-x="580" 
d="M80 200l0.000976562 299.999h60v-300c0 -45.333 13.5 -81.666 40.5 -108.999s61.833 -41 104.5 -41c45.333 0 82.5 14.333 111.5 43s43.5 64.334 43.5 107.001v300h60v-500h-50l-10 65h-5c-9.33301 -14.667 -21.333 -27.334 -36 -38.001
c-32.667 -24.667 -72.334 -37 -119.001 -37c-58 0 -105.833 19.5 -143.5 58.5s-56.5 89.5 -56.5 151.5zM260.001 584.999l90 130h70l-105 -130h-55z" />
    <glyph glyph-name="ucircumflex" unicode="&#xfb;" horiz-adv-x="580" 
d="M80 200l0.000976562 299.999h60v-300c0 -45.333 13.5 -81.666 40.5 -108.999s61.833 -41 104.5 -41c45.333 0 82.5 14.333 111.5 43s43.5 64.334 43.5 107.001v300h60v-500h-50l-10 65h-5c-9.33301 -14.667 -21.333 -27.334 -36 -38.001
c-32.667 -24.667 -72.334 -37 -119.001 -37c-58 0 -105.833 19.5 -143.5 58.5s-56.5 89.5 -56.5 151.5zM145.001 584.999l113 130h64l113 -130h-65l-80 93l-80 -93h-65z" />
    <glyph glyph-name="udieresis" unicode="&#xfc;" horiz-adv-x="580" 
d="M80 200l0.000976562 299.999h60v-300c0 -45.333 13.5 -81.666 40.5 -108.999s61.833 -41 104.5 -41c45.333 0 82.5 14.333 111.5 43s43.5 64.334 43.5 107.001v300h60v-500h-50l-10 65h-5c-9.33301 -14.667 -21.333 -27.334 -36 -38.001
c-32.667 -24.667 -72.334 -37 -119.001 -37c-58 0 -105.833 19.5 -143.5 58.5s-56.5 89.5 -56.5 151.5zM170.001 614.999v70h70v-70h-70zM340.001 614.999v70h70v-70h-70z" />
    <glyph glyph-name="yacute" unicode="&#xfd;" horiz-adv-x="470" 
d="M60 -200v60h85c11.333 0 19.833 2.66699 25.5 8s10.5 13.333 14.5 24l27 76l-202 532h60l160 -425h20l150 425h60l-225 -635c-16 -43.333 -46 -65 -90 -65h-85zM210 585l90 130h70l-105 -130h-55z" />
    <glyph glyph-name="thorn" unicode="&#xfe;" horiz-adv-x="585" 
d="M310 50c49.333 0 90 18 122 54s48 84.667 48 146s-16 110 -48 146s-72.667 54 -122 54s-90 -18 -122 -54s-48 -84.667 -48 -146s16 -110 48 -146s72.667 -54 122 -54zM80 -200v900.002h60v-280h5c13.333 21.333 34.666 41.666 63.999 60.999s64.666 29 105.999 29
c64 0 117.5 -23.833 160.5 -71.5s64.5 -110.5 64.5 -188.5s-21.5 -140.833 -64.5 -188.5s-96.5 -71.5 -160.5 -71.5c-41.333 0 -76.666 9.66699 -105.999 29s-50.666 39.666 -63.999 60.999h-5v-280h-60z" />
    <glyph glyph-name="ydieresis" unicode="&#xff;" horiz-adv-x="470" 
d="M60 -200v60h85c11.333 0 19.833 2.66699 25.5 8s10.5 13.333 14.5 24l27 76l-202 532h60l160 -425h20l150 425h60l-225 -635c-16 -43.333 -46 -65 -90 -65h-85zM120 615v70h70v-70h-70zM290 615v70h70v-70h-70z" />
    <glyph glyph-name="Amacron" unicode="&#x100;" horiz-adv-x="630" 
d="M5 0l265 700h90l265 -700h-60l-72 190h-356l-72 -190h-60zM160 250h310l-145 385h-20zM175 815v50h280v-50h-280z" />
    <glyph glyph-name="amacron" unicode="&#x101;" horiz-adv-x="535" 
d="M405 0l-9.99902 70h-5c-10 -14 -23.667 -27.333 -41 -40c-37.333 -26.667 -78.666 -40 -123.999 -40c-51.333 0 -92.5 14.333 -123.5 43s-46.5 66 -46.5 112c0 47.333 16.667 85 50 113s81.666 42 144.999 42h145v20c0 86.667 -43.333 130 -130 130
c-39.333 0 -70.833 -8.66699 -94.5 -26s-37.167 -40.333 -40.5 -69h-60c6 44.667 25.667 81.667 59 111s78.666 44 135.999 44c60.667 0 107.5 -16.5 140.5 -49.5s49.5 -79.833 49.5 -140.5v-320h-50zM395.001 220v25h-145c-44 0 -77.5 -9.33301 -100.5 -28
s-34.5 -42.667 -34.5 -72c0 -28.667 9.66699 -51.667 29 -69s46.333 -26 81 -26c52.667 0 94.167 15.167 124.5 45.5s45.5 71.833 45.5 124.5zM125.001 625v50h280v-50h-280z" />
    <glyph glyph-name="Abreve" unicode="&#x102;" horiz-adv-x="630" 
d="M5 0l265 700h90l265 -700h-60l-72 190h-356l-72 -190h-60zM160 250h310l-145 385h-20zM180 900h55c2.66699 -22 11 -39.167 25 -51.5s32.333 -18.5 55 -18.5s41 6.16699 55 18.5s22.333 29.5 25 51.5h55c-2.66699 -37.333 -16.167 -66.666 -40.5 -87.999
s-55.833 -32 -94.5 -32s-70.167 10.667 -94.5 32s-37.833 50.666 -40.5 87.999z" />
    <glyph glyph-name="abreve" unicode="&#x103;" horiz-adv-x="535" 
d="M405 0l-9.99902 70h-5c-10 -14 -23.667 -27.333 -41 -40c-37.333 -26.667 -78.666 -40 -123.999 -40c-51.333 0 -92.5 14.333 -123.5 43s-46.5 66 -46.5 112c0 47.333 16.667 85 50 113s81.666 42 144.999 42h145v20c0 86.667 -43.333 130 -130 130
c-39.333 0 -70.833 -8.66699 -94.5 -26s-37.167 -40.333 -40.5 -69h-60c6 44.667 25.667 81.667 59 111s78.666 44 135.999 44c60.667 0 107.5 -16.5 140.5 -49.5s49.5 -79.833 49.5 -140.5v-320h-50zM395.001 220v25h-145c-44 0 -77.5 -9.33301 -100.5 -28
s-34.5 -42.667 -34.5 -72c0 -28.667 9.66699 -51.667 29 -69s46.333 -26 81 -26c52.667 0 94.167 15.167 124.5 45.5s45.5 71.833 45.5 124.5zM130.001 710h55c2.66699 -22 11 -39.167 25 -51.5s32.333 -18.5 55 -18.5s41 6.16699 55 18.5s22.333 29.5 25 51.5h55
c-2.66699 -37.333 -16.167 -66.666 -40.5 -87.999s-55.833 -32 -94.5 -32s-70.167 10.667 -94.5 32s-37.833 50.666 -40.5 87.999z" />
    <glyph glyph-name="Aogonek" unicode="&#x104;" horiz-adv-x="630" 
d="M5 0l264.999 700h90l265 -700h-5c-40 -20 -60 -45 -60 -75c0 -23.333 15 -35 45 -35h15v-50h-20c-27.333 0 -49.166 7.5 -65.499 22.5s-24.5 34.167 -24.5 57.5c0 18.667 5.5 35.167 16.5 49.5s23.833 24.5 38.5 30.5l-72 190h-356l-72 -190h-60zM159.999 250h310
l-145 385h-20z" />
    <glyph glyph-name="aogonek" unicode="&#x105;" horiz-adv-x="535" 
d="M455 -160h-19.999c-27.333 0 -49.166 7.5 -65.499 22.5s-24.5 34.167 -24.5 57.5c0 18.667 6.66699 36 20 52s26.666 25.333 39.999 28l-10 70h-5c-10 -14 -23.667 -27.333 -41 -40c-37.333 -26.667 -78.666 -40 -123.999 -40c-51.333 0 -92.5 14.333 -123.5 43
s-46.5 66 -46.5 112c0 47.333 16.667 85 50 113s81.666 42 144.999 42h145v20c0 86.667 -43.333 130 -130 130c-39.333 0 -70.833 -8.66699 -94.5 -26s-37.167 -40.333 -40.5 -69h-60c6 44.667 25.667 81.667 59 111s78.666 44 135.999 44c60.667 0 107.5 -16.5 140.5 -49.5
s49.5 -79.833 49.5 -140.5v-320c-40 -20 -60 -45 -60 -75c0 -23.333 15 -35 45 -35h15v-50zM395.001 220v25h-145c-44 0 -77.5 -9.33301 -100.5 -28s-34.5 -42.667 -34.5 -72c0 -28.667 9.66699 -51.667 29 -69s46.333 -26 81 -26c52.667 0 94.167 15.167 124.5 45.5
s45.5 71.833 45.5 124.5z" />
    <glyph glyph-name="Cacute" unicode="&#x106;" horiz-adv-x="735" 
d="M625 230l65 0.00390625c-16.667 -62.667 -52 -118.334 -106 -167.001s-120.333 -73 -199 -73c-94 0 -172.5 33.5 -235.5 100.5s-94.5 153.5 -94.5 259.5s31.5 192.5 94.5 259.5s141.5 100.5 235.5 100.5c80 0 146.5 -23.833 199.5 -71.5s88.167 -102.167 105.5 -163.5
h-65c-5.33301 13.333 -11.333 26.5 -18 39.5s-17 28.167 -31 45.5s-29.167 32.166 -45.5 44.499s-37.333 23 -63 32s-53.167 13.5 -82.5 13.5c-76.667 0 -140.834 -27.833 -192.501 -83.5s-77.5 -127.834 -77.5 -216.501s25.833 -160.834 77.5 -216.501
s115.834 -83.5 192.501 -83.5c37.333 0 71.333 6.66699 102 20s55.167 30.5 73.5 51.5s32.333 40.167 42 57.5s17.167 34.333 22.5 51zM350 775.004l90 130h70l-105 -130h-55z" />
    <glyph glyph-name="cacute" unicode="&#x107;" horiz-adv-x="540" 
d="M435 165h65.002c-12.667 -55.333 -38.5 -98.333 -77.5 -129s-86.5 -46 -142.5 -46c-69.333 0 -125.833 23.667 -169.5 71s-65.5 110.333 -65.5 189s21.833 141.667 65.5 189s100.167 71 169.5 71c55.333 0 102.666 -15.167 141.999 -45.5s65.333 -71.833 78 -124.5h-65
c-7.33301 26.667 -23.833 51.667 -49.5 75s-60.834 35 -105.501 35c-51.333 0 -93.333 -18 -126 -54s-49 -84.667 -49 -146s16.333 -110 49 -146s74.667 -54 126 -54c44 0 79 12.333 105 37s42.667 50.667 50 78zM255.002 585l90 130h70l-105 -130h-55z" />
    <glyph glyph-name="Ccircumflex" unicode="&#x108;" horiz-adv-x="735" 
d="M625 230l65 0.00390625c-16.667 -62.667 -52 -118.334 -106 -167.001s-120.333 -73 -199 -73c-94 0 -172.5 33.5 -235.5 100.5s-94.5 153.5 -94.5 259.5s31.5 192.5 94.5 259.5s141.5 100.5 235.5 100.5c80 0 146.5 -23.833 199.5 -71.5s88.167 -102.167 105.5 -163.5
h-65c-5.33301 13.333 -11.333 26.5 -18 39.5s-17 28.167 -31 45.5s-29.167 32.166 -45.5 44.499s-37.333 23 -63 32s-53.167 13.5 -82.5 13.5c-76.667 0 -140.834 -27.833 -192.501 -83.5s-77.5 -127.834 -77.5 -216.501s25.833 -160.834 77.5 -216.501
s115.834 -83.5 192.501 -83.5c37.333 0 71.333 6.66699 102 20s55.167 30.5 73.5 51.5s32.333 40.167 42 57.5s17.167 34.333 22.5 51zM230 775.004l113 130h64l113 -130h-65l-80 93l-80 -93h-65z" />
    <glyph glyph-name="ccircumflex" unicode="&#x109;" horiz-adv-x="540" 
d="M435 165h65.002c-12.667 -55.333 -38.5 -98.333 -77.5 -129s-86.5 -46 -142.5 -46c-69.333 0 -125.833 23.667 -169.5 71s-65.5 110.333 -65.5 189s21.833 141.667 65.5 189s100.167 71 169.5 71c55.333 0 102.666 -15.167 141.999 -45.5s65.333 -71.833 78 -124.5h-65
c-7.33301 26.667 -23.833 51.667 -49.5 75s-60.834 35 -105.501 35c-51.333 0 -93.333 -18 -126 -54s-49 -84.667 -49 -146s16.333 -110 49 -146s74.667 -54 126 -54c44 0 79 12.333 105 37s42.667 50.667 50 78zM135.002 585l113 130h64l113 -130h-65l-80 93l-80 -93h-65z
" />
    <glyph glyph-name="Cdotaccent" unicode="&#x10a;" horiz-adv-x="735" 
d="M625 230l65 0.00390625c-16.667 -62.667 -52 -118.334 -106 -167.001s-120.333 -73 -199 -73c-94 0 -172.5 33.5 -235.5 100.5s-94.5 153.5 -94.5 259.5s31.5 192.5 94.5 259.5s141.5 100.5 235.5 100.5c80 0 146.5 -23.833 199.5 -71.5s88.167 -102.167 105.5 -163.5
h-65c-5.33301 13.333 -11.333 26.5 -18 39.5s-17 28.167 -31 45.5s-29.167 32.166 -45.5 44.499s-37.333 23 -63 32s-53.167 13.5 -82.5 13.5c-76.667 0 -140.834 -27.833 -192.501 -83.5s-77.5 -127.834 -77.5 -216.501s25.833 -160.834 77.5 -216.501
s115.834 -83.5 192.501 -83.5c37.333 0 71.333 6.66699 102 20s55.167 30.5 73.5 51.5s32.333 40.167 42 57.5s17.167 34.333 22.5 51zM345 810.004v70h70v-70h-70z" />
    <glyph glyph-name="cdotaccent" unicode="&#x10b;" horiz-adv-x="540" 
d="M435 165h65.002c-12.667 -55.333 -38.5 -98.333 -77.5 -129s-86.5 -46 -142.5 -46c-69.333 0 -125.833 23.667 -169.5 71s-65.5 110.333 -65.5 189s21.833 141.667 65.5 189s100.167 71 169.5 71c55.333 0 102.666 -15.167 141.999 -45.5s65.333 -71.833 78 -124.5h-65
c-7.33301 26.667 -23.833 51.667 -49.5 75s-60.834 35 -105.501 35c-51.333 0 -93.333 -18 -126 -54s-49 -84.667 -49 -146s16.333 -110 49 -146s74.667 -54 126 -54c44 0 79 12.333 105 37s42.667 50.667 50 78zM245.002 615v70h70v-70h-70z" />
    <glyph glyph-name="Ccaron" unicode="&#x10c;" horiz-adv-x="735" 
d="M625 230l65 0.00390625c-16.667 -62.667 -52 -118.334 -106 -167.001s-120.333 -73 -199 -73c-94 0 -172.5 33.5 -235.5 100.5s-94.5 153.5 -94.5 259.5s31.5 192.5 94.5 259.5s141.5 100.5 235.5 100.5c80 0 146.5 -23.833 199.5 -71.5s88.167 -102.167 105.5 -163.5
h-65c-5.33301 13.333 -11.333 26.5 -18 39.5s-17 28.167 -31 45.5s-29.167 32.166 -45.5 44.499s-37.333 23 -63 32s-53.167 13.5 -82.5 13.5c-76.667 0 -140.834 -27.833 -192.501 -83.5s-77.5 -127.834 -77.5 -216.501s25.833 -160.834 77.5 -216.501
s115.834 -83.5 192.501 -83.5c37.333 0 71.333 6.66699 102 20s55.167 30.5 73.5 51.5s32.333 40.167 42 57.5s17.167 34.333 22.5 51zM343 775.004l-113 130h65l80 -93l80 93h65l-113 -130h-64z" />
    <glyph glyph-name="ccaron" unicode="&#x10d;" horiz-adv-x="540" 
d="M435 165h65.002c-12.667 -55.333 -38.5 -98.333 -77.5 -129s-86.5 -46 -142.5 -46c-69.333 0 -125.833 23.667 -169.5 71s-65.5 110.333 -65.5 189s21.833 141.667 65.5 189s100.167 71 169.5 71c55.333 0 102.666 -15.167 141.999 -45.5s65.333 -71.833 78 -124.5h-65
c-7.33301 26.667 -23.833 51.667 -49.5 75s-60.834 35 -105.501 35c-51.333 0 -93.333 -18 -126 -54s-49 -84.667 -49 -146s16.333 -110 49 -146s74.667 -54 126 -54c44 0 79 12.333 105 37s42.667 50.667 50 78zM248.002 585l-113 130h65l80 -93l80 93h65l-113 -130h-64z
" />
    <glyph glyph-name="Dcaron" unicode="&#x10e;" horiz-adv-x="705" 
d="M150 60h165c82.667 0 149.167 26 199.5 78s75.5 122.667 75.5 212s-25.167 160 -75.5 212s-116.833 78 -199.5 78h-165v-580zM90 0v700h225c95.333 0 175 -33 239 -99s96 -149.667 96 -251s-32 -185 -96 -251s-143.667 -99 -239 -99h-225zM313 775l-113 130h65l80 -93
l80 93h65l-113 -130h-64z" />
    <glyph glyph-name="dcaron" unicode="&#x10f;" horiz-adv-x="630" 
d="M275 50c49.333 0 90 18 122 54s48 84.667 48 146s-16 110 -48 146s-72.667 54 -122 54s-90 -18 -122 -54s-48 -84.667 -48 -146s16 -110 48 -146s72.667 -54 122 -54zM455 0l-10 80h-5c-43.333 -60 -100 -90 -170 -90c-64 0 -117.5 23.833 -160.5 71.5
s-64.5 110.5 -64.5 188.5s21.5 140.833 64.5 188.5s96.5 71.5 160.5 71.5c70 0 126.667 -30 170 -90h5v280h60v-700h-50zM570 550l35 150h65l-55 -150h-45z" />
    <glyph glyph-name="Dcroat" unicode="&#x110;" horiz-adv-x="730" 
d="M115 0v325h-95v55h95v320h225c95.333 0 175 -33 239 -99s96 -149.667 96 -251s-32 -185 -96 -251s-143.667 -99 -239 -99h-225zM175 60h165c82.667 0 149.167 26 199.5 78s75.5 122.667 75.5 212s-25.167 160 -75.5 212s-116.833 78 -199.5 78h-165v-260h195v-55h-195
v-265z" />
    <glyph glyph-name="dslash" unicode="&#x111;" horiz-adv-x="580" 
d="M445 0l-10 75h-5c-41.333 -56.667 -96.333 -85 -165 -85c-62.667 0 -115 21.833 -157 65.5s-63 100.167 -63 169.5s21 125.833 63 169.5s94.333 65.5 157 65.5c68.667 0 123.667 -28.333 165 -85h5v180h-170v60h170v85h60v-85h85v-60h-85v-555h-50zM270 50
c48 0 87.5 16.167 118.5 48.5s46.5 74.5 46.5 126.5s-15.5 94.167 -46.5 126.5s-70.5 48.5 -118.5 48.5s-87.5 -16.167 -118.5 -48.5s-46.5 -74.5 -46.5 -126.5s15.5 -94.167 46.5 -126.5s70.5 -48.5 118.5 -48.5z" />
    <glyph glyph-name="Emacron" unicode="&#x112;" horiz-adv-x="595" 
d="M90 0v700h440v-60h-380v-260h360v-60h-360v-260h380v-60h-440zM170 815v50h280v-50h-280z" />
    <glyph glyph-name="emacron" unicode="&#x113;" horiz-adv-x="555" 
d="M105 280h345.001c-2.66699 50 -19.834 90.833 -51.501 122.5s-71.167 47.5 -118.5 47.5c-48 0 -87.833 -15.167 -119.5 -45.5s-50.167 -71.833 -55.5 -124.5zM430.001 140h65c-14.667 -41.333 -39.5 -76.666 -74.5 -105.999s-81.833 -44 -140.5 -44
c-69.333 0 -125.833 23.667 -169.5 71s-65.5 110.333 -65.5 189s21.833 141.667 65.5 189s100.167 71 169.5 71c66 0 120.833 -23.167 164.5 -69.5s65.5 -106.5 65.5 -180.5c0 -10 -0.666992 -19.667 -2 -29c-0.666992 -2.66699 -1 -6.33398 -1 -11.001h-402
c5.33301 -51.333 24.333 -92.5 57 -123.5s72 -46.5 118 -46.5c36.667 0 67.667 9 93 27s44.333 39 57 63zM140.001 625v50h280v-50h-280z" />
    <glyph glyph-name="Ebreve" unicode="&#x114;" horiz-adv-x="595" 
d="M90 0v700h440v-60h-380v-260h360v-60h-360v-260h380v-60h-440zM175 905h55c2.66699 -22 11 -39.167 25 -51.5s32.333 -18.5 55 -18.5s41 6.16699 55 18.5s22.333 29.5 25 51.5h55c-2.66699 -37.333 -16.167 -66.666 -40.5 -87.999s-55.833 -32 -94.5 -32
s-70.167 10.667 -94.5 32s-37.833 50.666 -40.5 87.999z" />
    <glyph glyph-name="ebreve" unicode="&#x115;" horiz-adv-x="555" 
d="M105 280h345.001c-2.66699 50 -19.834 90.833 -51.501 122.5s-71.167 47.5 -118.5 47.5c-48 0 -87.833 -15.167 -119.5 -45.5s-50.167 -71.833 -55.5 -124.5zM430.001 140h65c-14.667 -41.333 -39.5 -76.666 -74.5 -105.999s-81.833 -44 -140.5 -44
c-69.333 0 -125.833 23.667 -169.5 71s-65.5 110.333 -65.5 189s21.833 141.667 65.5 189s100.167 71 169.5 71c66 0 120.833 -23.167 164.5 -69.5s65.5 -106.5 65.5 -180.5c0 -10 -0.666992 -19.667 -2 -29c-0.666992 -2.66699 -1 -6.33398 -1 -11.001h-402
c5.33301 -51.333 24.333 -92.5 57 -123.5s72 -46.5 118 -46.5c36.667 0 67.667 9 93 27s44.333 39 57 63zM145.001 710h55c2.66699 -22 11 -39.167 25 -51.5s32.333 -18.5 55 -18.5s41 6.16699 55 18.5s22.333 29.5 25 51.5h55
c-2.66699 -37.333 -16.167 -66.666 -40.5 -87.999s-55.833 -32 -94.5 -32s-70.167 10.667 -94.5 32s-37.833 50.666 -40.5 87.999z" />
    <glyph glyph-name="Edotaccent" unicode="&#x116;" horiz-adv-x="595" 
d="M90 0v700h440v-60h-380v-260h360v-60h-360v-260h380v-60h-440zM275 810v70h70v-70h-70z" />
    <glyph glyph-name="edotaccent" unicode="&#x117;" horiz-adv-x="555" 
d="M105 280h345.001c-2.66699 50 -19.834 90.833 -51.501 122.5s-71.167 47.5 -118.5 47.5c-48 0 -87.833 -15.167 -119.5 -45.5s-50.167 -71.833 -55.5 -124.5zM430.001 140h65c-14.667 -41.333 -39.5 -76.666 -74.5 -105.999s-81.833 -44 -140.5 -44
c-69.333 0 -125.833 23.667 -169.5 71s-65.5 110.333 -65.5 189s21.833 141.667 65.5 189s100.167 71 169.5 71c66 0 120.833 -23.167 164.5 -69.5s65.5 -106.5 65.5 -180.5c0 -10 -0.666992 -19.667 -2 -29c-0.666992 -2.66699 -1 -6.33398 -1 -11.001h-402
c5.33301 -51.333 24.333 -92.5 57 -123.5s72 -46.5 118 -46.5c36.667 0 67.667 9 93 27s44.333 39 57 63zM245.001 615v70h70v-70h-70z" />
    <glyph glyph-name="Eogonek" unicode="&#x118;" horiz-adv-x="595" 
d="M90 0l-0.000976562 700h440v-60h-380v-260h360v-60h-360v-260h380v-60c-40 -20 -60 -45 -60 -75c0 -23.333 15 -35 45 -35h15v-50h-20c-27.333 0 -49.166 7.5 -65.499 22.5s-24.5 34.167 -24.5 57.5c0 18.667 5.5 35.167 16.5 49.5s23.833 24.5 38.5 30.5h-385z" />
    <glyph glyph-name="eogonek" unicode="&#x119;" horiz-adv-x="555" 
d="M335 -160l-20 0.000976562c-27.333 0 -49.166 7.5 -65.499 22.5s-24.5 34.167 -24.5 57.5c0 28 12.667 51.667 38 71c-64.667 4 -117.167 29.333 -157.5 76s-60.5 107.667 -60.5 183c0 78.667 21.833 141.667 65.5 189s100.167 71 169.5 71
c66 0 120.833 -23.167 164.5 -69.5s65.5 -106.5 65.5 -180.5c0 -10 -0.666992 -19.667 -2 -29c-0.666992 -2.66699 -1 -6.33398 -1 -11.001h-402c5.33301 -51.333 24.333 -92.5 57 -123.5s72 -46.5 118 -46.5c36.667 0 67.667 9 93 27s44.333 39 57 63h65
c-12.667 -34.667 -33.334 -66 -62.001 -94s-65.667 -45.667 -111 -53c-31.333 -17.333 -47 -40 -47 -68c0 -23.333 15 -35 45 -35h15v-50zM105 280.001h345.001c-2.66699 50 -19.834 90.833 -51.501 122.5s-71.167 47.5 -118.5 47.5c-48 0 -87.833 -15.167 -119.5 -45.5
s-50.167 -71.833 -55.5 -124.5z" />
    <glyph glyph-name="Ecaron" unicode="&#x11a;" horiz-adv-x="595" 
d="M90 0v700h440v-60h-380v-260h360v-60h-360v-260h380v-60h-440zM278 775l-113 130h65l80 -93l80 93h65l-113 -130h-64z" />
    <glyph glyph-name="ecaron" unicode="&#x11b;" horiz-adv-x="555" 
d="M105 280h345.001c-2.66699 50 -19.834 90.833 -51.501 122.5s-71.167 47.5 -118.5 47.5c-48 0 -87.833 -15.167 -119.5 -45.5s-50.167 -71.833 -55.5 -124.5zM430.001 140h65c-14.667 -41.333 -39.5 -76.666 -74.5 -105.999s-81.833 -44 -140.5 -44
c-69.333 0 -125.833 23.667 -169.5 71s-65.5 110.333 -65.5 189s21.833 141.667 65.5 189s100.167 71 169.5 71c66 0 120.833 -23.167 164.5 -69.5s65.5 -106.5 65.5 -180.5c0 -10 -0.666992 -19.667 -2 -29c-0.666992 -2.66699 -1 -6.33398 -1 -11.001h-402
c5.33301 -51.333 24.333 -92.5 57 -123.5s72 -46.5 118 -46.5c36.667 0 67.667 9 93 27s44.333 39 57 63zM248.001 585l-113 130h65l80 -93l80 93h65l-113 -130h-64z" />
    <glyph glyph-name="Gcircumflex" unicode="&#x11c;" horiz-adv-x="770" 
d="M645 0l-9.99805 115.005h-5c-15.333 -23.333 -35 -44.333 -59 -63c-53.333 -41.333 -115.333 -62 -186 -62c-94 0 -172.5 33.5 -235.5 100.5s-94.5 153.5 -94.5 259.5s31.5 192.5 94.5 259.5s141.5 100.5 235.5 100.5c43.333 0 83.666 -7.5 120.999 -22.5
s68.166 -34.333 92.499 -58s44 -47.334 59 -71.001s25.833 -46.5 32.5 -68.5h-65c-9.33301 23.333 -23 46.166 -41 68.499s-44.833 43.166 -80.5 62.499s-75.167 29 -118.5 29c-76.667 0 -140.834 -27.833 -192.501 -83.5s-77.5 -127.834 -77.5 -216.501
s25.833 -160.834 77.5 -216.501s115.834 -83.5 192.501 -83.5c68.667 0 127.5 23 176.5 69s73.5 99.667 73.5 161v15h-230v60h290v-355h-50zM235.002 775.005l113 130h64l113 -130h-65l-80 93l-80 -93h-65z" />
    <glyph glyph-name="gcircumflex" unicode="&#x11d;" horiz-adv-x="585" 
d="M275 80c48.667 0 89.167 17.333 121.5 52s48.5 79 48.5 133s-16.167 98.333 -48.5 133s-72.833 52 -121.5 52s-89.167 -17.333 -121.5 -52s-48.5 -79 -48.5 -133s16.167 -98.333 48.5 -133s72.833 -52 121.5 -52zM70 -40l59.999 0.000976562
c2.66699 -32 17.334 -58.333 44.001 -79s63.667 -31 111 -31c49.333 0 88.333 13.5 117 40.5s43 63.5 43 109.5v110h-5c-43.333 -60 -100 -90 -170 -90c-63.333 0 -116.666 23 -159.999 69s-65 104.667 -65 176s21.667 130 65 176s96.666 69 159.999 69
c70 0 126.667 -30 170 -90h5l10 80h50v-500c0 -62.667 -19.833 -113.334 -59.5 -152.001s-93.167 -58 -160.5 -58c-62.667 0 -113.167 16.5 -151.5 49.5s-59.5 73.167 -63.5 120.5zM144.999 585.001l113 130h64l113 -130h-65l-80 93l-80 -93h-65z" />
    <glyph glyph-name="Gbreve" unicode="&#x11e;" horiz-adv-x="770" 
d="M645 0l-9.99805 115.005h-5c-15.333 -23.333 -35 -44.333 -59 -63c-53.333 -41.333 -115.333 -62 -186 -62c-94 0 -172.5 33.5 -235.5 100.5s-94.5 153.5 -94.5 259.5s31.5 192.5 94.5 259.5s141.5 100.5 235.5 100.5c43.333 0 83.666 -7.5 120.999 -22.5
s68.166 -34.333 92.499 -58s44 -47.334 59 -71.001s25.833 -46.5 32.5 -68.5h-65c-9.33301 23.333 -23 46.166 -41 68.499s-44.833 43.166 -80.5 62.499s-75.167 29 -118.5 29c-76.667 0 -140.834 -27.833 -192.501 -83.5s-77.5 -127.834 -77.5 -216.501
s25.833 -160.834 77.5 -216.501s115.834 -83.5 192.501 -83.5c68.667 0 127.5 23 176.5 69s73.5 99.667 73.5 161v15h-230v60h290v-355h-50zM245.002 905.005h55c2.66699 -22 11 -39.167 25 -51.5s32.333 -18.5 55 -18.5s41 6.16699 55 18.5s22.333 29.5 25 51.5h55
c-2.66699 -37.333 -16.167 -66.666 -40.5 -87.999s-55.833 -32 -94.5 -32s-70.167 10.667 -94.5 32s-37.833 50.666 -40.5 87.999z" />
    <glyph glyph-name="gbreve" unicode="&#x11f;" horiz-adv-x="585" 
d="M275 80c48.667 0 89.167 17.333 121.5 52s48.5 79 48.5 133s-16.167 98.333 -48.5 133s-72.833 52 -121.5 52s-89.167 -17.333 -121.5 -52s-48.5 -79 -48.5 -133s16.167 -98.333 48.5 -133s72.833 -52 121.5 -52zM70 -40l59.999 0.000976562
c2.66699 -32 17.334 -58.333 44.001 -79s63.667 -31 111 -31c49.333 0 88.333 13.5 117 40.5s43 63.5 43 109.5v110h-5c-43.333 -60 -100 -90 -170 -90c-63.333 0 -116.666 23 -159.999 69s-65 104.667 -65 176s21.667 130 65 176s96.666 69 159.999 69
c70 0 126.667 -30 170 -90h5l10 80h50v-500c0 -62.667 -19.833 -113.334 -59.5 -152.001s-93.167 -58 -160.5 -58c-62.667 0 -113.167 16.5 -151.5 49.5s-59.5 73.167 -63.5 120.5zM154.999 710.001h55c2.66699 -22 11 -39.167 25 -51.5s32.333 -18.5 55 -18.5
s41 6.16699 55 18.5s22.333 29.5 25 51.5h55c-2.66699 -37.333 -16.167 -66.666 -40.5 -87.999s-55.833 -32 -94.5 -32s-70.167 10.667 -94.5 32s-37.833 50.666 -40.5 87.999z" />
    <glyph glyph-name="Gdotaccent" unicode="&#x120;" horiz-adv-x="770" 
d="M645 0l-9.99805 115.005h-5c-15.333 -23.333 -35 -44.333 -59 -63c-53.333 -41.333 -115.333 -62 -186 -62c-94 0 -172.5 33.5 -235.5 100.5s-94.5 153.5 -94.5 259.5s31.5 192.5 94.5 259.5s141.5 100.5 235.5 100.5c43.333 0 83.666 -7.5 120.999 -22.5
s68.166 -34.333 92.499 -58s44 -47.334 59 -71.001s25.833 -46.5 32.5 -68.5h-65c-9.33301 23.333 -23 46.166 -41 68.499s-44.833 43.166 -80.5 62.499s-75.167 29 -118.5 29c-76.667 0 -140.834 -27.833 -192.501 -83.5s-77.5 -127.834 -77.5 -216.501
s25.833 -160.834 77.5 -216.501s115.834 -83.5 192.501 -83.5c68.667 0 127.5 23 176.5 69s73.5 99.667 73.5 161v15h-230v60h290v-355h-50zM350.002 810.005v70h70v-70h-70z" />
    <glyph glyph-name="gdotaccent" unicode="&#x121;" horiz-adv-x="585" 
d="M275 80c48.667 0 89.167 17.333 121.5 52s48.5 79 48.5 133s-16.167 98.333 -48.5 133s-72.833 52 -121.5 52s-89.167 -17.333 -121.5 -52s-48.5 -79 -48.5 -133s16.167 -98.333 48.5 -133s72.833 -52 121.5 -52zM70 -40l59.999 0.000976562
c2.66699 -32 17.334 -58.333 44.001 -79s63.667 -31 111 -31c49.333 0 88.333 13.5 117 40.5s43 63.5 43 109.5v110h-5c-43.333 -60 -100 -90 -170 -90c-63.333 0 -116.666 23 -159.999 69s-65 104.667 -65 176s21.667 130 65 176s96.666 69 159.999 69
c70 0 126.667 -30 170 -90h5l10 80h50v-500c0 -62.667 -19.833 -113.334 -59.5 -152.001s-93.167 -58 -160.5 -58c-62.667 0 -113.167 16.5 -151.5 49.5s-59.5 73.167 -63.5 120.5zM254.999 615.001v70h70v-70h-70z" />
    <glyph glyph-name="Gcommaaccent" unicode="&#x122;" horiz-adv-x="770" 
d="M645 0l-9.99805 115.005h-5c-15.333 -23.333 -35 -44.333 -59 -63c-53.333 -41.333 -115.333 -62 -186 -62c-94 0 -172.5 33.5 -235.5 100.5s-94.5 153.5 -94.5 259.5s31.5 192.5 94.5 259.5s141.5 100.5 235.5 100.5c43.333 0 83.666 -7.5 120.999 -22.5
s68.166 -34.333 92.499 -58s44 -47.334 59 -71.001s25.833 -46.5 32.5 -68.5h-65c-9.33301 23.333 -23 46.166 -41 68.499s-44.833 43.166 -80.5 62.499s-75.167 29 -118.5 29c-76.667 0 -140.834 -27.833 -192.501 -83.5s-77.5 -127.834 -77.5 -216.501
s25.833 -160.834 77.5 -216.501s115.834 -83.5 192.501 -83.5c68.667 0 127.5 23 176.5 69s73.5 99.667 73.5 161v15h-230v60h290v-355h-50zM320.002 -229.995l30 150h70l-55 -150h-45z" />
    <glyph glyph-name="gcommaaccent" unicode="&#x123;" horiz-adv-x="585" 
d="M250 585l55 150h45l-30 -150h-70zM275 80c48.667 0 89.167 17.333 121.5 52s48.5 79 48.5 133s-16.167 98.333 -48.5 133s-72.833 52 -121.5 52s-89.167 -17.333 -121.5 -52s-48.5 -79 -48.5 -133s16.167 -98.333 48.5 -133s72.833 -52 121.5 -52zM70 -40
l59.999 0.000976562c2.66699 -32 17.334 -58.333 44.001 -79s63.667 -31 111 -31c49.333 0 88.333 13.5 117 40.5s43 63.5 43 109.5v110h-5c-43.333 -60 -100 -90 -170 -90c-63.333 0 -116.666 23 -159.999 69s-65 104.667 -65 176s21.667 130 65 176s96.666 69 159.999 69
c70 0 126.667 -30 170 -90h5l10 80h50v-500c0 -62.667 -19.833 -113.334 -59.5 -152.001s-93.167 -58 -160.5 -58c-62.667 0 -113.167 16.5 -151.5 49.5s-59.5 73.167 -63.5 120.5z" />
    <glyph glyph-name="Hcircumflex" unicode="&#x124;" horiz-adv-x="715" 
d="M90 0v700h60v-315h415v315h60v-700h-60v325h-415v-325h-60zM215 775l113 130h64l113 -130h-65l-80 93l-80 -93h-65z" />
    <glyph glyph-name="hcircumflex" unicode="&#x125;" horiz-adv-x="585" 
d="M85 0v700.002h60v-265h5c10 14.667 22 27 36 37c33.333 25.333 73 38 119 38c58 0 105.833 -19.5 143.5 -58.5s56.5 -89.5 56.5 -151.5v-300h-60v300c0 45.333 -13.5 81.666 -40.5 108.999s-61.833 41 -104.5 41c-45.333 0 -82.5 -14.333 -111.5 -43
s-43.5 -64.334 -43.5 -107.001v-300h-60zM160 775.002l113 130h64l113 -130h-65l-80 93l-80 -93h-65z" />
    <glyph glyph-name="Hbar" unicode="&#x126;" horiz-adv-x="750" 
d="M105 0v510h-85v60h85v130h60v-130h420v130h60v-130h85v-60h-85v-510h-60v325h-420v-325h-60zM165 385h420v125h-420v-125z" />
    <glyph glyph-name="hbar" unicode="&#x127;" horiz-adv-x="580" 
d="M85 0v560.002h-85v55h85v85h60v-85h170v-55h-170v-185h5c10 14.667 22 27 36 37c33.333 25.333 73 38 119 38c58 0 105.833 -19.5 143.5 -58.5s56.5 -89.5 56.5 -151.5v-240h-60v240c0 45.333 -13.5 81.666 -40.5 108.999s-61.833 41 -104.5 41
c-45.333 0 -82.5 -14.333 -111.5 -43s-43.5 -64.334 -43.5 -107.001v-240h-60z" />
    <glyph glyph-name="Imacron" unicode="&#x12a;" horiz-adv-x="240" 
d="M90 0v700h60v-700h-60zM-20 815v50h280v-50h-280z" />
    <glyph glyph-name="imacron" unicode="&#x12b;" horiz-adv-x="220" 
d="M80 0v500h60v-500h-60zM-30 625v50h280v-50h-280z" />
    <glyph glyph-name="Ibreve" unicode="&#x12c;" horiz-adv-x="240" 
d="M90 0v700h60v-700h-60zM-15 905h55c2.66699 -22 11 -39.167 25 -51.5s32.333 -18.5 55 -18.5s41 6.16699 55 18.5s22.333 29.5 25 51.5h55c-2.66699 -37.333 -16.167 -66.666 -40.5 -87.999s-55.833 -32 -94.5 -32s-70.167 10.667 -94.5 32s-37.833 50.666 -40.5 87.999z
" />
    <glyph glyph-name="ibreve" unicode="&#x12d;" horiz-adv-x="220" 
d="M80 0v500h60v-500h-60zM-25 710h55c2.66699 -22 11 -39.167 25 -51.5s32.333 -18.5 55 -18.5s41 6.16699 55 18.5s22.333 29.5 25 51.5h55c-2.66699 -37.333 -16.167 -66.666 -40.5 -87.999s-55.833 -32 -94.5 -32s-70.167 10.667 -94.5 32s-37.833 50.666 -40.5 87.999z
" />
    <glyph glyph-name="Iogonek" unicode="&#x12e;" horiz-adv-x="240" 
d="M145 -160h-20.001c-27.333 0 -49.166 7.5 -65.499 22.5s-24.5 34.167 -24.5 57.5c0 18.667 5.5 35.167 16.5 49.5s23.833 24.5 38.5 30.5v700h60v-700h-5c-40 -20 -60 -45 -60 -75c0 -23.333 15 -35 45 -35h15v-50z" />
    <glyph glyph-name="iogonek" unicode="&#x12f;" horiz-adv-x="220" 
d="M75 615v70h70v-70h-70zM135 -160h-20.001c-27.333 0 -49.166 7.5 -65.499 22.5s-24.5 34.167 -24.5 57.5c0 18.667 5.5 35.167 16.5 49.5s23.833 24.5 38.5 30.5v500h60v-500h-5c-40 -20 -60 -45 -60 -75c0 -23.333 15 -35 45 -35h15v-50z" />
    <glyph glyph-name="Idot" unicode="&#x130;" horiz-adv-x="240" 
d="M90 0v700h60v-700h-60zM85 810v70h70v-70h-70z" />
    <glyph glyph-name="dotlessi" unicode="&#x131;" horiz-adv-x="220" 
d="M80 0v500h60v-500h-60z" />
    <glyph glyph-name="uni0132" unicode="&#x132;" horiz-adv-x="580" 
d="M90 0v700h60v-700h-60zM205 0v60h170c40 0 60 18.333 60 55v585h60v-590c0 -73.333 -38.333 -110 -115 -110h-175z" />
    <glyph glyph-name="uni0133" unicode="&#x133;" horiz-adv-x="425" 
d="M80 0v500h60v-500h-60zM75 615v70h70v-70h-70zM170 -200v60h80c23.333 0 35 11.667 35 35v605h60v-615c0 -26 -8 -46.667 -24 -62s-38 -23 -66 -23h-85zM280 615v70h70v-70h-70z" />
    <glyph glyph-name="Jcircumflex" unicode="&#x134;" horiz-adv-x="390" 
d="M15 0v60h170c40 0 60 18.333 60 55v585h60v-590c0 -73.333 -38.333 -110 -115 -110h-175zM130 775l113 130h64l113 -130h-65l-80 93l-80 -93h-65z" />
    <glyph glyph-name="jcircumflex" unicode="&#x135;" horiz-adv-x="220" 
d="M-35 -200v60h80c23.333 0 35 11.667 35 35v605h60v-615c0 -26 -8 -46.667 -24 -62s-38 -23 -66 -23h-85zM-35 585l113 130h64l113 -130h-65l-80 93l-80 -93h-65z" />
    <glyph glyph-name="Kcommaaccent" unicode="&#x136;" horiz-adv-x="565" 
d="M90 0v700h60v-330l315 330h80l-330 -345l350 -355h-80l-335 340v-340h-60zM240 -230l30 150h70l-55 -150h-45z" />
    <glyph glyph-name="kcommaaccent" unicode="&#x137;" horiz-adv-x="480" 
d="M85 0v700h60v-430l243 230h82l-260 -245l270 -255h-82l-253 240v-240h-60zM195 -230l30 150h70l-55 -150h-45z" />
    <glyph glyph-name="Lacute" unicode="&#x139;" horiz-adv-x="535" 
d="M90 0v700h60v-640h360v-60h-420zM95 775l90 130h70l-105 -130h-55z" />
    <glyph glyph-name="lacute" unicode="&#x13a;" horiz-adv-x="230" 
d="M85 0v700h60v-700h-60zM90 775l90 130h70l-105 -130h-55z" />
    <glyph glyph-name="Lcommaaccent" unicode="&#x13b;" horiz-adv-x="535" 
d="M90 0v700h60v-640h360v-60h-420zM230 -230l30 150h70l-55 -150h-45z" />
    <glyph glyph-name="lcommaaccent" unicode="&#x13c;" horiz-adv-x="230" 
d="M85 0v700h60v-700h-60zM50 -230l30 150h70l-55 -150h-45z" />
    <glyph glyph-name="Lcaron" unicode="&#x13d;" horiz-adv-x="535" 
d="M90 0v700h60v-640h360v-60h-420zM230 550l35 150h65l-55 -150h-45z" />
    <glyph glyph-name="lcaron" unicode="&#x13e;" horiz-adv-x="270" 
d="M85 0v700h60v-700h-60zM210 550l35 150h65l-55 -150h-45z" />
    <glyph glyph-name="Ldot" unicode="&#x13f;" horiz-adv-x="535" 
d="M345 345v70h70v-70h-70zM90 0v700h60v-640h360v-60h-420z" />
    <glyph glyph-name="ldot" unicode="&#x140;" horiz-adv-x="345" 
d="M250 325v70h70v-70h-70zM85 0v700h60v-700h-60z" />
    <glyph glyph-name="Lslash" unicode="&#x141;" horiz-adv-x="555" 
d="M110 0v302l-85 -32v60l85 32v338h60v-315l170 65v-60l-170 -65v-265h360v-60h-420z" />
    <glyph glyph-name="lslash" unicode="&#x142;" horiz-adv-x="265" 
d="M100 0v312l-80 -32v55l80 32v333h60v-309l85 34v-55l-85 -34v-336h-60z" />
    <glyph glyph-name="Nacute" unicode="&#x143;" horiz-adv-x="715" 
d="M90 0v700h110l345 -630h20v630h60v-700h-110l-345 630h-20v-630h-60zM330 775l90 130h70l-105 -130h-55z" />
    <glyph glyph-name="nacute" unicode="&#x144;" horiz-adv-x="580" 
d="M80 0v500.002h50l10 -65h5c10 14.667 22 27 36 37c33.333 25.333 73 38 119 38c58 0 105.833 -19.5 143.5 -58.5s56.5 -89.5 56.5 -151.5v-300h-60v300c0 45.333 -13.5 81.666 -40.5 108.999s-61.833 41 -104.5 41c-45.333 0 -82.5 -14.333 -111.5 -43
s-43.5 -64.334 -43.5 -107.001v-300h-60zM270 585.002l90 130h70l-105 -130h-55z" />
    <glyph glyph-name="Ncommaaccent" unicode="&#x145;" horiz-adv-x="715" 
d="M90 0v700h110l345 -630h20v630h60v-700h-110l-345 630h-20v-630h-60zM290 -230l30 150h70l-55 -150h-45z" />
    <glyph glyph-name="ncommaaccent" unicode="&#x146;" horiz-adv-x="580" 
d="M80 0v500.002h50l10 -65h5c10 14.667 22 27 36 37c33.333 25.333 73 38 119 38c58 0 105.833 -19.5 143.5 -58.5s56.5 -89.5 56.5 -151.5v-300h-60v300c0 45.333 -13.5 81.666 -40.5 108.999s-61.833 41 -104.5 41c-45.333 0 -82.5 -14.333 -111.5 -43
s-43.5 -64.334 -43.5 -107.001v-300h-60zM226 -229.998l30 150h70l-55 -150h-45z" />
    <glyph glyph-name="Ncaron" unicode="&#x147;" horiz-adv-x="715" 
d="M90 0v700h110l345 -630h20v630h60v-700h-110l-345 630h-20v-630h-60zM328 775l-113 130h65l80 -93l80 93h65l-113 -130h-64z" />
    <glyph glyph-name="ncaron" unicode="&#x148;" horiz-adv-x="580" 
d="M80 0v500.002h50l10 -65h5c10 14.667 22 27 36 37c33.333 25.333 73 38 119 38c58 0 105.833 -19.5 143.5 -58.5s56.5 -89.5 56.5 -151.5v-300h-60v300c0 45.333 -13.5 81.666 -40.5 108.999s-61.833 41 -104.5 41c-45.333 0 -82.5 -14.333 -111.5 -43
s-43.5 -64.334 -43.5 -107.001v-300h-60zM263 585.002l-113 130h65l80 -93l80 93h65l-113 -130h-64z" />
    <glyph glyph-name="napostrophe" unicode="&#x149;" horiz-adv-x="595" 
d="M95 0v500.002h50l10 -65h5c10 14.667 22 27 36 37c33.333 25.333 73 38 119 38c58 0 105.833 -19.5 143.5 -58.5s56.5 -89.5 56.5 -151.5v-300h-60v300c0 45.333 -13.5 81.666 -40.5 108.999s-61.833 41 -104.5 41c-45.333 0 -82.5 -14.333 -111.5 -43
s-43.5 -64.334 -43.5 -107.001v-300h-60zM30 570.002l35 150h65l-55 -150h-45z" />
    <glyph glyph-name="Eng" unicode="&#x14a;" horiz-adv-x="715" 
d="M90 0v700h115l340 -640h20v640h60v-790c0 -33.333 -9.66699 -60 -29 -80s-46.333 -30 -81 -30h-95v60h85c40 0 60 20 60 60v80h-55l-340 640h-20v-640h-60z" />
    <glyph glyph-name="eng" unicode="&#x14b;" horiz-adv-x="580" 
d="M80 0l0.000976562 500.003h50l10 -65h5c10 14.667 22 27 36 37c33.333 25.333 73 38 119 38c58 0 105.833 -19.5 143.5 -58.5s56.5 -89.5 56.5 -151.5v-395c0 -32.667 -9.33301 -58.334 -28 -77.001s-44.334 -28 -77.001 -28h-85v60h80c15.333 0 27.5 4.5 36.5 13.5
s13.5 21.167 13.5 36.5v390c0 45.333 -13.5 81.666 -40.5 108.999s-61.833 41 -104.5 41c-45.333 0 -82.5 -14.333 -111.5 -43s-43.5 -64.334 -43.5 -107.001v-300h-60z" />
    <glyph glyph-name="Omacron" unicode="&#x14c;" horiz-adv-x="770" 
d="M385 710c94 0 172.5 -33.5 235.5 -100.5s94.5 -153.5 94.5 -259.5s-31.5 -192.5 -94.5 -259.5s-141.5 -100.5 -235.5 -100.5s-172.5 33.5 -235.5 100.5s-94.5 153.5 -94.5 259.5s31.5 192.5 94.5 259.5s141.5 100.5 235.5 100.5zM385 50
c76.667 0 140.834 27.833 192.501 83.5s77.5 127.834 77.5 216.501s-25.833 160.834 -77.5 216.501s-115.834 83.5 -192.501 83.5s-140.834 -27.833 -192.501 -83.5s-77.5 -127.834 -77.5 -216.501s25.833 -160.834 77.5 -216.501s115.834 -83.5 192.501 -83.5zM245 815v50
h280v-50h-280z" />
    <glyph glyph-name="omacron" unicode="&#x14d;" 
d="M280 -10c-66 0 -121.667 24.333 -167 73s-68 111 -68 187s22.667 138.333 68 187s101 73 167 73s121.667 -24.333 167 -73s68 -111 68 -187s-22.667 -138.333 -68 -187s-101 -73 -167 -73zM455 250c0 58.667 -17 106.667 -51 144s-75.333 56 -124 56
s-90 -18.667 -124 -56s-51 -85.333 -51 -144s17 -106.667 51 -144s75.333 -56 124 -56s90 18.667 124 56s51 85.333 51 144zM140 625v50h280v-50h-280z" />
    <glyph glyph-name="Obreve" unicode="&#x14e;" horiz-adv-x="770" 
d="M385 710c94 0 172.5 -33.5 235.5 -100.5s94.5 -153.5 94.5 -259.5s-31.5 -192.5 -94.5 -259.5s-141.5 -100.5 -235.5 -100.5s-172.5 33.5 -235.5 100.5s-94.5 153.5 -94.5 259.5s31.5 192.5 94.5 259.5s141.5 100.5 235.5 100.5zM385 50
c76.667 0 140.834 27.833 192.501 83.5s77.5 127.834 77.5 216.501s-25.833 160.834 -77.5 216.501s-115.834 83.5 -192.501 83.5s-140.834 -27.833 -192.501 -83.5s-77.5 -127.834 -77.5 -216.501s25.833 -160.834 77.5 -216.501s115.834 -83.5 192.501 -83.5zM250 905h55
c2.66699 -22 11 -39.167 25 -51.5s32.333 -18.5 55 -18.5s41 6.16699 55 18.5s22.333 29.5 25 51.5h55c-2.66699 -37.333 -16.167 -66.666 -40.5 -87.999s-55.833 -32 -94.5 -32s-70.167 10.667 -94.5 32s-37.833 50.666 -40.5 87.999z" />
    <glyph glyph-name="obreve" unicode="&#x14f;" 
d="M280 -10c-66 0 -121.667 24.333 -167 73s-68 111 -68 187s22.667 138.333 68 187s101 73 167 73s121.667 -24.333 167 -73s68 -111 68 -187s-22.667 -138.333 -68 -187s-101 -73 -167 -73zM455 250c0 58.667 -17 106.667 -51 144s-75.333 56 -124 56
s-90 -18.667 -124 -56s-51 -85.333 -51 -144s17 -106.667 51 -144s75.333 -56 124 -56s90 18.667 124 56s51 85.333 51 144zM145 710h55c2.66699 -22 11 -39.167 25 -51.5s32.333 -18.5 55 -18.5s41 6.16699 55 18.5s22.333 29.5 25 51.5h55
c-2.66699 -37.333 -16.167 -66.666 -40.5 -87.999s-55.833 -32 -94.5 -32s-70.167 10.667 -94.5 32s-37.833 50.666 -40.5 87.999z" />
    <glyph glyph-name="Ohungarumlaut" unicode="&#x150;" horiz-adv-x="770" 
d="M385 710c94 0 172.5 -33.5 235.5 -100.5s94.5 -153.5 94.5 -259.5s-31.5 -192.5 -94.5 -259.5s-141.5 -100.5 -235.5 -100.5s-172.5 33.5 -235.5 100.5s-94.5 153.5 -94.5 259.5s31.5 192.5 94.5 259.5s141.5 100.5 235.5 100.5zM385 50
c76.667 0 140.834 27.833 192.501 83.5s77.5 127.834 77.5 216.501s-25.833 160.834 -77.5 216.501s-115.834 83.5 -192.501 83.5s-140.834 -27.833 -192.501 -83.5s-77.5 -127.834 -77.5 -216.501s25.833 -160.834 77.5 -216.501s115.834 -83.5 192.501 -83.5zM285 775
l90 130h70l-105 -130h-55zM430 775l90 130h70l-105 -130h-55z" />
    <glyph glyph-name="ohungarumlaut" unicode="&#x151;" 
d="M280 -10c-66 0 -121.667 24.333 -167 73s-68 111 -68 187s22.667 138.333 68 187s101 73 167 73s121.667 -24.333 167 -73s68 -111 68 -187s-22.667 -138.333 -68 -187s-101 -73 -167 -73zM455 250c0 58.667 -17 106.667 -51 144s-75.333 56 -124 56
s-90 -18.667 -124 -56s-51 -85.333 -51 -144s17 -106.667 51 -144s75.333 -56 124 -56s90 18.667 124 56s51 85.333 51 144zM180 585l90 130h70l-105 -130h-55zM325 585l90 130h70l-105 -130h-55z" />
    <glyph glyph-name="OE" unicode="&#x152;" horiz-adv-x="1120" 
d="M615 0v135.002h-5c-60 -96.667 -141.667 -145 -245 -145c-88 0 -161.667 33.167 -221 99.5s-89 153.166 -89 260.499s29.667 194.166 89 260.499s133 99.5 221 99.5c103.333 0 185 -48.333 245 -145h5v135h440v-60h-380v-260h360v-60h-360v-260h380v-60h-440zM365 50.002
c72 0 131.667 26.833 179 80.5s71 126.834 71 219.501s-23.667 165.834 -71 219.501s-107 80.5 -179 80.5s-131.667 -26.833 -179 -80.5s-71 -126.834 -71 -219.501s23.667 -165.834 71 -219.501s107 -80.5 179 -80.5z" />
    <glyph glyph-name="oe" unicode="&#x153;" horiz-adv-x="935" 
d="M270 50c46.667 0 85.834 18.167 117.501 54.5s47.5 84.833 47.5 145.5s-15.833 109.167 -47.5 145.5s-70.834 54.5 -117.501 54.5s-85.834 -18.167 -117.501 -54.5s-47.5 -84.833 -47.5 -145.5s15.833 -109.167 47.5 -145.5s70.834 -54.5 117.501 -54.5zM500 280h330
c-4 51.333 -21.5 92.5 -52.5 123.5s-68.5 46.5 -112.5 46.5s-81.5 -15.5 -112.5 -46.5s-48.5 -72.167 -52.5 -123.5zM810 140l65.0029 -0.000976562c-36 -100 -106 -150 -210 -150c-47.333 0 -89 13.5 -125 40.5s-61 56.833 -75 89.5c-14.667 -33.333 -39 -63.333 -73 -90
s-74.667 -40 -122 -40c-64 0 -117.5 23.833 -160.5 71.5s-64.5 110.5 -64.5 188.5s21.5 140.833 64.5 188.5s96.5 71.5 160.5 71.5c47.333 0 88 -13.333 122 -40s58.333 -56.667 73 -90c14.667 34.667 39.167 65 73.5 91s78.166 39 131.499 39
c61.333 0 113.333 -23.333 156 -70s64 -106.667 64 -180c0 -9.33301 -0.666992 -18.666 -2 -27.999l-2 -12h-390c6.66699 -51.333 25.667 -92.5 57 -123.5s68.666 -46.5 111.999 -46.5c65.333 0 113.666 30 144.999 90z" />
    <glyph glyph-name="Racute" unicode="&#x154;" horiz-adv-x="645" 
d="M90 0v700h290c60 0 109.167 -19.5 147.5 -58.5s57.5 -89.5 57.5 -151.5c0 -64 -19.5 -115.833 -58.5 -155.5s-87.833 -59.5 -146.5 -59.5h-70l290 -275h-80l-290 275h-80v-275h-60zM150 335l230 0.000976562c43.333 0 78.333 14 105 42s40 65.667 40 113
c0 45.333 -13.5 81.666 -40.5 108.999s-61.833 41 -104.5 41h-230v-305zM300 775.001l90 130h70l-105 -130h-55z" />
    <glyph glyph-name="racute" unicode="&#x155;" horiz-adv-x="340" 
d="M80 0l0.000976562 500h50l5 -50h5c22.667 33.333 56 50 100 50h90v-60h-85c-32.667 0 -58.334 -9.5 -77.001 -28.5s-28 -46.167 -28 -81.5v-330h-60zM180.001 585l90 130h70l-105 -130h-55z" />
    <glyph glyph-name="Rcommaaccent" unicode="&#x156;" horiz-adv-x="645" 
d="M90 0v700h290c60 0 109.167 -19.5 147.5 -58.5s57.5 -89.5 57.5 -151.5c0 -64 -19.5 -115.833 -58.5 -155.5s-87.833 -59.5 -146.5 -59.5h-70l290 -275h-80l-290 275h-80v-275h-60zM150 335l230 0.000976562c43.333 0 78.333 14 105 42s40 65.667 40 113
c0 45.333 -13.5 81.666 -40.5 108.999s-61.833 41 -104.5 41h-230v-305zM260 -229.999l30 150h70l-55 -150h-45z" />
    <glyph glyph-name="rcommaaccent" unicode="&#x157;" horiz-adv-x="340" 
d="M80 0l0.000976562 500h50l5 -50h5c22.667 33.333 56 50 100 50h90v-60h-85c-32.667 0 -58.334 -9.5 -77.001 -28.5s-28 -46.167 -28 -81.5v-330h-60zM45.001 -230l30 150h70l-55 -150h-45z" />
    <glyph glyph-name="Rcaron" unicode="&#x158;" horiz-adv-x="645" 
d="M90 0v700h290c60 0 109.167 -19.5 147.5 -58.5s57.5 -89.5 57.5 -151.5c0 -64 -19.5 -115.833 -58.5 -155.5s-87.833 -59.5 -146.5 -59.5h-70l290 -275h-80l-290 275h-80v-275h-60zM150 335l230 0.000976562c43.333 0 78.333 14 105 42s40 65.667 40 113
c0 45.333 -13.5 81.666 -40.5 108.999s-61.833 41 -104.5 41h-230v-305zM293 775.001l-113 130h65l80 -93l80 93h65l-113 -130h-64z" />
    <glyph glyph-name="rcaron" unicode="&#x159;" horiz-adv-x="340" 
d="M80 0l0.000976562 500h50l5 -50h5c22.667 33.333 56 50 100 50h90v-60h-85c-32.667 0 -58.334 -9.5 -77.001 -28.5s-28 -46.167 -28 -81.5v-330h-60zM178.001 585l-113 130h65l80 -93l80 93h65l-113 -130h-64z" />
    <glyph glyph-name="Sacute" unicode="&#x15a;" horiz-adv-x="625" 
d="M55 205l60 -0.00195312c0 -42 18.333 -78.333 55 -109s85 -46 145 -46c62 0 109.167 12.5 141.5 37.5s48.5 57.5 48.5 97.5c0 69.333 -46.333 112 -139 128l-111 19c-62.667 10.667 -109.167 30.834 -139.5 60.501s-45.5 70.5 -45.5 122.5
c0 56.667 21 103.334 63 140.001s99.333 55 172 55c78 0 140 -20.333 186 -61s69 -92 69 -154h-60c0 44 -17.5 80.833 -52.5 110.5s-82.5 44.5 -142.5 44.5c-56 0 -99.167 -12.667 -129.5 -38s-45.5 -57.666 -45.5 -96.999c0 -35.333 11 -63 33 -83s56 -34 102 -42l101 -18
c70 -12.667 120.667 -33.834 152 -63.501s47 -70.834 47 -123.501c0 -57.333 -21.833 -104.166 -65.5 -140.499s-105.167 -54.5 -184.5 -54.5c-77.333 0 -140 21 -188 63s-72 92.667 -72 152zM285 774.998l90 130h70l-105 -130h-55z" />
    <glyph glyph-name="sacute" unicode="&#x15b;" horiz-adv-x="470" 
d="M40 145l57.002 -0.000976562c0 -26.667 12.667 -49.167 38 -67.5s58.666 -27.5 99.999 -27.5c42.667 0 75 8 97 24s33 36.333 33 61c0 40.667 -28.333 66.667 -85 78l-100 20c-43.333 8.66699 -75.833 23.834 -97.5 45.501s-32.5 52.167 -32.5 91.5
s16.167 72.5 48.5 99.5s76.166 40.5 131.499 40.5c58 0 104.167 -14.833 138.5 -44.5s51.5 -66.5 51.5 -110.5h-60c0 26.667 -11.5 49.167 -34.5 67.5s-54.833 27.5 -95.5 27.5c-38 0 -67.5 -8 -88.5 -24s-31.5 -34.667 -31.5 -56c0 -42.667 26.667 -69.334 80 -80.001
l100 -20c48 -9.33301 82.5 -24.666 103.5 -45.999s31.5 -51 31.5 -89c0 -42 -16.667 -76.667 -50 -104s-80 -41 -140 -41c-58 0 -105 15.333 -141 46s-54 67 -54 109zM205.002 584.999l90 130h70l-105 -130h-55z" />
    <glyph glyph-name="Scircumflex" unicode="&#x15c;" horiz-adv-x="625" 
d="M55 205l60 -0.00195312c0 -42 18.333 -78.333 55 -109s85 -46 145 -46c62 0 109.167 12.5 141.5 37.5s48.5 57.5 48.5 97.5c0 69.333 -46.333 112 -139 128l-111 19c-62.667 10.667 -109.167 30.834 -139.5 60.501s-45.5 70.5 -45.5 122.5
c0 56.667 21 103.334 63 140.001s99.333 55 172 55c78 0 140 -20.333 186 -61s69 -92 69 -154h-60c0 44 -17.5 80.833 -52.5 110.5s-82.5 44.5 -142.5 44.5c-56 0 -99.167 -12.667 -129.5 -38s-45.5 -57.666 -45.5 -96.999c0 -35.333 11 -63 33 -83s56 -34 102 -42l101 -18
c70 -12.667 120.667 -33.834 152 -63.501s47 -70.834 47 -123.501c0 -57.333 -21.833 -104.166 -65.5 -140.499s-105.167 -54.5 -184.5 -54.5c-77.333 0 -140 21 -188 63s-72 92.667 -72 152zM165 774.998l113 130h64l113 -130h-65l-80 93l-80 -93h-65z" />
    <glyph glyph-name="scircumflex" unicode="&#x15d;" horiz-adv-x="470" 
d="M40 145l57.002 -0.000976562c0 -26.667 12.667 -49.167 38 -67.5s58.666 -27.5 99.999 -27.5c42.667 0 75 8 97 24s33 36.333 33 61c0 40.667 -28.333 66.667 -85 78l-100 20c-43.333 8.66699 -75.833 23.834 -97.5 45.501s-32.5 52.167 -32.5 91.5
s16.167 72.5 48.5 99.5s76.166 40.5 131.499 40.5c58 0 104.167 -14.833 138.5 -44.5s51.5 -66.5 51.5 -110.5h-60c0 26.667 -11.5 49.167 -34.5 67.5s-54.833 27.5 -95.5 27.5c-38 0 -67.5 -8 -88.5 -24s-31.5 -34.667 -31.5 -56c0 -42.667 26.667 -69.334 80 -80.001
l100 -20c48 -9.33301 82.5 -24.666 103.5 -45.999s31.5 -51 31.5 -89c0 -42 -16.667 -76.667 -50 -104s-80 -41 -140 -41c-58 0 -105 15.333 -141 46s-54 67 -54 109zM90.002 584.999l113 130h64l113 -130h-65l-80 93l-80 -93h-65z" />
    <glyph glyph-name="Scedilla" unicode="&#x15e;" horiz-adv-x="625" 
d="M250 -200l-0.000976562 44.998h40c30 0 45 11.667 45 35s-15 35 -45 35h-25v35l18 41c-68 5.33301 -123 28.5 -165 69.5s-63 89.167 -63 144.5h60c0 -42 18.333 -78.333 55 -109s85 -46 145 -46c62 0 109.167 12.5 141.5 37.5s48.5 57.5 48.5 97.5
c0 69.333 -46.333 112 -139 128l-111 19c-62.667 10.667 -109.167 30.834 -139.5 60.501s-45.5 70.5 -45.5 122.5c0 56.667 21 103.334 63 140.001s99.333 55 172 55c78 0 140 -20.333 186 -61s69 -92 69 -154h-60c0 44 -17.5 80.833 -52.5 110.5s-82.5 44.5 -142.5 44.5
c-56 0 -99.167 -12.667 -129.5 -38s-45.5 -57.666 -45.5 -96.999c0 -35.333 11 -63 33 -83s56 -34 102 -42l101 -18c70 -12.667 120.667 -33.834 152 -63.501s47 -70.834 47 -123.501c0 -55.333 -20.167 -101 -60.5 -137s-97.5 -55.333 -171.5 -58l-18 -40
c20 -2.66699 36.667 -10.667 50 -24s20 -28.666 20 -45.999c0 -23.333 -8.16699 -42.5 -24.5 -57.5s-38.166 -22.5 -65.499 -22.5h-45z" />
    <glyph glyph-name="scedilla" unicode="&#x15f;" horiz-adv-x="470" 
d="M178 -200l0.00195312 44.998h40c30 0 45 11.667 45 35s-15 35 -45 35h-25v35l18 41c-50.667 4 -91.834 21 -123.501 51s-47.5 64.333 -47.5 103h57c0 -26.667 12.667 -49.167 38 -67.5s58.666 -27.5 99.999 -27.5c42.667 0 75 8 97 24s33 36.333 33 61
c0 40.667 -28.333 66.667 -85 78l-100 20c-43.333 8.66699 -75.833 23.834 -97.5 45.501s-32.5 52.167 -32.5 91.5s16.167 72.5 48.5 99.5s76.166 40.5 131.499 40.5c58 0 104.167 -14.833 138.5 -44.5s51.5 -66.5 51.5 -110.5h-60c0 26.667 -11.5 49.167 -34.5 67.5
s-54.833 27.5 -95.5 27.5c-38 0 -67.5 -8 -88.5 -24s-31.5 -34.667 -31.5 -56c0 -42.667 26.667 -69.334 80 -80.001l100 -20c48 -9.33301 82.5 -24.666 103.5 -45.999s31.5 -51 31.5 -89c0 -38.667 -14.167 -71.167 -42.5 -97.5s-68.833 -41.833 -121.5 -46.5l-18 -41
c20 -2.66699 36.667 -10.667 50 -24s20 -28.666 20 -45.999c0 -23.333 -8.16699 -42.5 -24.5 -57.5s-38.166 -22.5 -65.499 -22.5h-45z" />
    <glyph glyph-name="Scaron" unicode="&#x160;" horiz-adv-x="625" 
d="M55 205l60 -0.00195312c0 -42 18.333 -78.333 55 -109s85 -46 145 -46c62 0 109.167 12.5 141.5 37.5s48.5 57.5 48.5 97.5c0 69.333 -46.333 112 -139 128l-111 19c-62.667 10.667 -109.167 30.834 -139.5 60.501s-45.5 70.5 -45.5 122.5
c0 56.667 21 103.334 63 140.001s99.333 55 172 55c78 0 140 -20.333 186 -61s69 -92 69 -154h-60c0 44 -17.5 80.833 -52.5 110.5s-82.5 44.5 -142.5 44.5c-56 0 -99.167 -12.667 -129.5 -38s-45.5 -57.666 -45.5 -96.999c0 -35.333 11 -63 33 -83s56 -34 102 -42l101 -18
c70 -12.667 120.667 -33.834 152 -63.501s47 -70.834 47 -123.501c0 -57.333 -21.833 -104.166 -65.5 -140.499s-105.167 -54.5 -184.5 -54.5c-77.333 0 -140 21 -188 63s-72 92.667 -72 152zM278 774.998l-113 130h65l80 -93l80 93h65l-113 -130h-64z" />
    <glyph glyph-name="scaron" unicode="&#x161;" horiz-adv-x="470" 
d="M40 145l57.002 -0.000976562c0 -26.667 12.667 -49.167 38 -67.5s58.666 -27.5 99.999 -27.5c42.667 0 75 8 97 24s33 36.333 33 61c0 40.667 -28.333 66.667 -85 78l-100 20c-43.333 8.66699 -75.833 23.834 -97.5 45.501s-32.5 52.167 -32.5 91.5
s16.167 72.5 48.5 99.5s76.166 40.5 131.499 40.5c58 0 104.167 -14.833 138.5 -44.5s51.5 -66.5 51.5 -110.5h-60c0 26.667 -11.5 49.167 -34.5 67.5s-54.833 27.5 -95.5 27.5c-38 0 -67.5 -8 -88.5 -24s-31.5 -34.667 -31.5 -56c0 -42.667 26.667 -69.334 80 -80.001
l100 -20c48 -9.33301 82.5 -24.666 103.5 -45.999s31.5 -51 31.5 -89c0 -42 -16.667 -76.667 -50 -104s-80 -41 -140 -41c-58 0 -105 15.333 -141 46s-54 67 -54 109zM203.002 584.999l-113 130h65l80 -93l80 93h65l-113 -130h-64z" />
    <glyph glyph-name="uni0162" unicode="&#x162;" horiz-adv-x="600" 
d="M240 -200l-0.000976562 44.999h40c30 0 45 11.667 45 35s-15 35 -45 35h-25v35l25 50h-10v640h-240v60h540v-60h-240v-640l-25 -50c20 -2.66699 36.667 -10.667 50 -24s20 -28.666 20 -45.999c0 -23.333 -8.16699 -42.5 -24.5 -57.5s-38.166 -22.5 -65.499 -22.5h-45z
" />
    <glyph glyph-name="uni0163" unicode="&#x163;" horiz-adv-x="340" 
d="M140 -200l-0.000976562 44.999h40c30 0 45 11.667 45 35s-15 35 -45 35h-25v35l23 52c-21.333 4 -38 13.333 -50 28s-18 33 -18 55v355h-80v60h80v140h60v-140h125v-60h-125v-345c0 -23.333 11.667 -35 35 -35h90v-60h-68l-22 -50c20 -2.66699 36.667 -10.667 50 -24
s20 -28.666 20 -45.999c0 -23.333 -8.16699 -42.5 -24.5 -57.5s-38.166 -22.5 -65.499 -22.5h-45z" />
    <glyph glyph-name="Tcaron" unicode="&#x164;" horiz-adv-x="600" 
d="M270 0v640h-240v60h540v-60h-240v-640h-60zM268 775l-113 130h65l80 -93l80 93h65l-113 -130h-64z" />
    <glyph glyph-name="tcaron" unicode="&#x165;" horiz-adv-x="355" 
d="M110 85v355h-80v60h80v140h60v-140h125v-60h-125v-345c0 -23.333 11.667 -35 35 -35h90v-60h-95c-28 0 -50 7.66699 -66 23s-24 36 -24 62zM295 550l35 150h65l-55 -150h-45z" />
    <glyph glyph-name="Tbar" unicode="&#x166;" horiz-adv-x="600" 
d="M270 0v430h-165v60h165v150h-240v60h540v-60h-240v-150h165v-60h-165v-430h-60z" />
    <glyph glyph-name="tbar" unicode="&#x167;" horiz-adv-x="340" 
d="M110 85v165h-80v60h80v130h-80v60h80v140h60v-140h125v-60h-125v-130h125v-60h-125v-155c0 -23.333 11.667 -35 35 -35h90v-60h-95c-28 0 -50 7.66699 -66 23s-24 36 -24 62z" />
    <glyph glyph-name="Umacron" unicode="&#x16a;" horiz-adv-x="700" 
d="M80 275v425h60v-425c0 -67.333 19.833 -121.666 59.5 -162.999s89.834 -62 150.501 -62s110.834 20.667 150.501 62s59.5 95.666 59.5 162.999v425h60v-425c0 -84.667 -25.333 -153.334 -76 -206.001s-115.334 -79 -194.001 -79s-143.334 26.333 -194.001 79
s-76 121.334 -76 206.001zM210 815v50h280v-50h-280z" />
    <glyph glyph-name="umacron" unicode="&#x16b;" horiz-adv-x="580" 
d="M80 200l0.000976562 299.999h60v-300c0 -45.333 13.5 -81.666 40.5 -108.999s61.833 -41 104.5 -41c45.333 0 82.5 14.333 111.5 43s43.5 64.334 43.5 107.001v300h60v-500h-50l-10 65h-5c-9.33301 -14.667 -21.333 -27.334 -36 -38.001
c-32.667 -24.667 -72.334 -37 -119.001 -37c-58 0 -105.833 19.5 -143.5 58.5s-56.5 89.5 -56.5 151.5zM150.001 624.999v50h280v-50h-280z" />
    <glyph glyph-name="Ubreve" unicode="&#x16c;" horiz-adv-x="700" 
d="M80 275v425h60v-425c0 -67.333 19.833 -121.666 59.5 -162.999s89.834 -62 150.501 -62s110.834 20.667 150.501 62s59.5 95.666 59.5 162.999v425h60v-425c0 -84.667 -25.333 -153.334 -76 -206.001s-115.334 -79 -194.001 -79s-143.334 26.333 -194.001 79
s-76 121.334 -76 206.001zM215 905h55c2.66699 -22 11 -39.167 25 -51.5s32.333 -18.5 55 -18.5s41 6.16699 55 18.5s22.333 29.5 25 51.5h55c-2.66699 -37.333 -16.167 -66.666 -40.5 -87.999s-55.833 -32 -94.5 -32s-70.167 10.667 -94.5 32s-37.833 50.666 -40.5 87.999z
" />
    <glyph glyph-name="ubreve" unicode="&#x16d;" horiz-adv-x="580" 
d="M80 200l0.000976562 299.999h60v-300c0 -45.333 13.5 -81.666 40.5 -108.999s61.833 -41 104.5 -41c45.333 0 82.5 14.333 111.5 43s43.5 64.334 43.5 107.001v300h60v-500h-50l-10 65h-5c-9.33301 -14.667 -21.333 -27.334 -36 -38.001
c-32.667 -24.667 -72.334 -37 -119.001 -37c-58 0 -105.833 19.5 -143.5 58.5s-56.5 89.5 -56.5 151.5zM155.001 709.999h55c2.66699 -22 11 -39.167 25 -51.5s32.333 -18.5 55 -18.5s41 6.16699 55 18.5s22.333 29.5 25 51.5h55
c-2.66699 -37.333 -16.167 -66.666 -40.5 -87.999s-55.833 -32 -94.5 -32s-70.167 10.667 -94.5 32s-37.833 50.666 -40.5 87.999z" />
    <glyph glyph-name="Uring" unicode="&#x16e;" horiz-adv-x="700" 
d="M80 275v425h60v-425c0 -67.333 19.833 -121.666 59.5 -162.999s89.834 -62 150.501 -62s110.834 20.667 150.501 62s59.5 95.666 59.5 162.999v425h60v-425c0 -84.667 -25.333 -153.334 -76 -206.001s-115.334 -79 -194.001 -79s-143.334 26.333 -194.001 79
s-76 121.334 -76 206.001zM260 850c0 25.333 8.66699 46.666 26 63.999s38.666 26 63.999 26s46.666 -8.66699 63.999 -26s26 -38.666 26 -63.999s-8.66699 -46.666 -26 -63.999s-38.666 -26 -63.999 -26s-46.666 8.66699 -63.999 26s-26 38.666 -26 63.999zM350 805
c14.667 0 25.834 4.16699 33.501 12.5s11.5 19.166 11.5 32.499s-3.83301 24.166 -11.5 32.499s-18.834 12.5 -33.501 12.5s-25.834 -4.16699 -33.501 -12.5s-11.5 -19.166 -11.5 -32.499s3.83301 -24.166 11.5 -32.499s18.834 -12.5 33.501 -12.5z" />
    <glyph glyph-name="uring" unicode="&#x16f;" horiz-adv-x="580" 
d="M80 200l0.000976562 299.999h60v-300c0 -45.333 13.5 -81.666 40.5 -108.999s61.833 -41 104.5 -41c45.333 0 82.5 14.333 111.5 43s43.5 64.334 43.5 107.001v300h60v-500h-50l-10 65h-5c-9.33301 -14.667 -21.333 -27.334 -36 -38.001
c-32.667 -24.667 -72.334 -37 -119.001 -37c-58 0 -105.833 19.5 -143.5 58.5s-56.5 89.5 -56.5 151.5zM200.001 659.999c0 25.333 8.66699 46.666 26 63.999s38.666 26 63.999 26s46.666 -8.66699 63.999 -26s26 -38.666 26 -63.999s-8.66699 -46.666 -26 -63.999
s-38.666 -26 -63.999 -26s-46.666 8.66699 -63.999 26s-26 38.666 -26 63.999zM290.001 614.999c14.667 0 25.834 4.16699 33.501 12.5s11.5 19.166 11.5 32.499s-3.83301 24.166 -11.5 32.499s-18.834 12.5 -33.501 12.5s-25.834 -4.16699 -33.501 -12.5
s-11.5 -19.166 -11.5 -32.499s3.83301 -24.166 11.5 -32.499s18.834 -12.5 33.501 -12.5z" />
    <glyph glyph-name="Uhungarumlaut" unicode="&#x170;" horiz-adv-x="700" 
d="M80 275v425h60v-425c0 -67.333 19.833 -121.666 59.5 -162.999s89.834 -62 150.501 -62s110.834 20.667 150.501 62s59.5 95.666 59.5 162.999v425h60v-425c0 -84.667 -25.333 -153.334 -76 -206.001s-115.334 -79 -194.001 -79s-143.334 26.333 -194.001 79
s-76 121.334 -76 206.001zM250 775l90 130h70l-105 -130h-55zM395 775l90 130h70l-105 -130h-55z" />
    <glyph glyph-name="uhungarumlaut" unicode="&#x171;" horiz-adv-x="580" 
d="M80 200l0.000976562 299.999h60v-300c0 -45.333 13.5 -81.666 40.5 -108.999s61.833 -41 104.5 -41c45.333 0 82.5 14.333 111.5 43s43.5 64.334 43.5 107.001v300h60v-500h-50l-10 65h-5c-9.33301 -14.667 -21.333 -27.334 -36 -38.001
c-32.667 -24.667 -72.334 -37 -119.001 -37c-58 0 -105.833 19.5 -143.5 58.5s-56.5 89.5 -56.5 151.5zM190.001 584.999l90 130h70l-105 -130h-55zM335.001 584.999l90 130h70l-105 -130h-55z" />
    <glyph glyph-name="Uogonek" unicode="&#x172;" horiz-adv-x="700" 
d="M410 -160l-20.0029 -0.000976562c-27.333 0 -49.166 7.5 -65.499 22.5s-24.5 34.167 -24.5 57.5c0 28 12.333 51.333 37 70c-74.667 2.66699 -136.167 30.334 -184.5 83.001s-72.5 120 -72.5 202v425h60v-425c0 -67.333 19.833 -121.666 59.5 -162.999
s89.834 -62 150.501 -62s110.834 20.667 150.501 62s59.5 95.666 59.5 162.999v425h60v-425c0 -75.333 -20.667 -138.5 -62 -189.5s-95 -81.833 -161 -92.5c-31.333 -17.333 -47 -40 -47 -68c0 -23.333 15 -35 45 -35h15v-50z" />
    <glyph glyph-name="uogonek" unicode="&#x173;" horiz-adv-x="580" 
d="M80 200l0.000976562 299.999h60v-300c0 -45.333 13.5 -81.666 40.5 -108.999s61.833 -41 104.5 -41c45.333 0 82.5 14.333 111.5 43s43.5 64.334 43.5 107.001v300h60v-500c-40 -20 -60 -45 -60 -75c0 -23.333 15 -35 45 -35h15v-50h-20
c-27.333 0 -49.166 7.5 -65.499 22.5s-24.5 34.167 -24.5 57.5c0 18.667 6.66699 36 20 52s26.666 25.333 39.999 28l-10 65h-5c-9.33301 -14.667 -21.333 -27.334 -36 -38.001c-32.667 -24.667 -72.334 -37 -119.001 -37c-58 0 -105.833 19.5 -143.5 58.5
s-56.5 89.5 -56.5 151.5z" />
    <glyph glyph-name="Wcircumflex" unicode="&#x174;" horiz-adv-x="950" 
d="M195 0l-175 700h63l159 -640h21l162 640h100l162 -640h21l159 640h63l-175 -700h-115l-155 615h-20l-155 -615h-115zM330 775l113 130h64l113 -130h-65l-80 93l-80 -93h-65z" />
    <glyph glyph-name="wcircumflex" unicode="&#x175;" horiz-adv-x="760" 
d="M155 0l-135 500h60l115 -435h20l115 435h100l115 -435h20l115 435h60l-135 -500h-100l-115 425h-20l-116 -425h-99zM235 585l113 130h64l113 -130h-65l-80 93l-80 -93h-65z" />
    <glyph glyph-name="Ycircumflex" unicode="&#x176;" horiz-adv-x="590" 
d="M265 0v263l-260 437h67l213 -360h20l213 360h67l-260 -437v-263h-60zM150 775l113 130h64l113 -130h-65l-80 93l-80 -93h-65z" />
    <glyph glyph-name="ycircumflex" unicode="&#x177;" horiz-adv-x="470" 
d="M60 -200v60h85c11.333 0 19.833 2.66699 25.5 8s10.5 13.333 14.5 24l27 76l-202 532h60l160 -425h20l150 425h60l-225 -635c-16 -43.333 -46 -65 -90 -65h-85zM95 585l113 130h64l113 -130h-65l-80 93l-80 -93h-65z" />
    <glyph glyph-name="Ydieresis" unicode="&#x178;" horiz-adv-x="590" 
d="M265 0v263l-260 437h67l213 -360h20l213 360h67l-260 -437v-263h-60zM175 810v70h70v-70h-70zM345 810v70h70v-70h-70z" />
    <glyph glyph-name="Zacute" unicode="&#x179;" horiz-adv-x="585" 
d="M45 0v55l410 585h-405v60h485v-55l-410 -585h415v-60h-495zM265 775l90 130h70l-105 -130h-55z" />
    <glyph glyph-name="zacute" unicode="&#x17a;" horiz-adv-x="440" 
d="M35 0v50l285 390h-280v60h360v-50l-285 -390h290v-60h-370zM195 585l90 130h70l-105 -130h-55z" />
    <glyph glyph-name="Zdotaccent" unicode="&#x17b;" horiz-adv-x="585" 
d="M45 0v55l410 585h-405v60h485v-55l-410 -585h415v-60h-495zM255 810v70h70v-70h-70z" />
    <glyph glyph-name="zdotaccent" unicode="&#x17c;" horiz-adv-x="440" 
d="M35 0v50l285 390h-280v60h360v-50l-285 -390h290v-60h-370zM185 615v70h70v-70h-70z" />
    <glyph glyph-name="Zcaron" unicode="&#x17d;" horiz-adv-x="585" 
d="M45 0v55l410 585h-405v60h485v-55l-410 -585h415v-60h-495zM258 775l-113 130h65l80 -93l80 93h65l-113 -130h-64z" />
    <glyph glyph-name="zcaron" unicode="&#x17e;" horiz-adv-x="440" 
d="M35 0v50l285 390h-280v60h360v-50l-285 -390h290v-60h-370zM188 585l-113 130h65l80 -93l80 93h65l-113 -130h-64z" />
    <glyph glyph-name="uni018F" unicode="&#x18f;" horiz-adv-x="760" 
d="M645 320l-530 -0.000976562c2.66699 -80 29.167 -145 79.5 -195s110.5 -75 180.5 -75c71.333 0 132.5 24.833 183.5 74.5s79.833 114.834 86.5 195.501zM55 329.999l0.00195312 49.999h590c-6.66699 78.667 -34.834 143.334 -84.501 194.001s-111.5 76 -185.5 76
c-52.667 0 -100.834 -14.333 -144.501 -43s-76.167 -67.667 -97.5 -117h-65c24 67.333 63.667 120.833 119 160.5s118 59.5 188 59.5c94 0 172.5 -33.5 235.5 -100.5s94.5 -153.5 94.5 -259.5s-31.5 -192.5 -94.5 -259.5s-141.5 -100.5 -235.5 -100.5
c-90.667 0 -166.667 32.333 -228 97s-92 145.667 -92 243z" />
    <glyph glyph-name="florin" unicode="&#x192;" horiz-adv-x="375" 
d="M-65 -200l13.001 60h62c28 0 44.667 13.333 50 40l99 455h-99l13 60h97l38 175c12.667 60 50 90 112 90h75l-13 -60h-62c-29.333 0 -46.333 -13.333 -51 -40l-36 -165h106l-13 -60h-106l-100 -465c-12.667 -60 -49.334 -90 -110.001 -90h-75z" />
    <glyph glyph-name="Aringacute" unicode="&#x1fa;" horiz-adv-x="630" 
d="M308 920l26.998 50h60l-43 -58c35.333 -17.333 53 -44.666 53 -81.999c0 -25.333 -8.66699 -46.666 -26 -63.999s-38.666 -26 -63.999 -26s-46.666 8.66699 -63.999 26s-26 38.666 -26 63.999c0 23.333 8 43.666 24 60.999s35.667 27 59 29zM314.998 785
c14.667 0 25.834 4.16699 33.501 12.5s11.5 19.166 11.5 32.499s-3.83301 24.166 -11.5 32.499s-18.834 12.5 -33.501 12.5s-25.834 -4.16699 -33.501 -12.5s-11.5 -19.166 -11.5 -32.499s3.83301 -24.166 11.5 -32.499s18.834 -12.5 33.501 -12.5zM4.99805 0l265 700h90
l265 -700h-60l-72 190h-356l-72 -190h-60zM159.998 250h310l-145 385h-20z" />
    <glyph glyph-name="aringacute" unicode="&#x1fb;" horiz-adv-x="535" 
d="M258 730l26.998 50h60l-43 -58c35.333 -17.333 53 -44.666 53 -81.999c0 -25.333 -8.66699 -46.666 -26 -63.999s-38.666 -26 -63.999 -26s-46.666 8.66699 -63.999 26s-26 38.666 -26 63.999c0 23.333 8 43.666 24 60.999s35.667 27 59 29zM264.998 595
c14.667 0 25.834 4.16699 33.501 12.5s11.5 19.166 11.5 32.499s-3.83301 24.166 -11.5 32.499s-18.834 12.5 -33.501 12.5s-25.834 -4.16699 -33.501 -12.5s-11.5 -19.166 -11.5 -32.499s3.83301 -24.166 11.5 -32.499s18.834 -12.5 33.501 -12.5zM404.998 0l-9.99902 70
h-5c-10 -14 -23.667 -27.333 -41 -40c-37.333 -26.667 -78.666 -40 -123.999 -40c-51.333 0 -92.5 14.333 -123.5 43s-46.5 66 -46.5 112c0 47.333 16.667 85 50 113s81.666 42 144.999 42h145v20c0 86.667 -43.333 130 -130 130c-39.333 0 -70.833 -8.66699 -94.5 -26
s-37.167 -40.333 -40.5 -69h-60c6 44.667 25.667 81.667 59 111s78.666 44 135.999 44c60.667 0 107.5 -16.5 140.5 -49.5s49.5 -79.833 49.5 -140.5v-320h-50zM394.999 220v25h-145c-44 0 -77.5 -9.33301 -100.5 -28s-34.5 -42.667 -34.5 -72
c0 -28.667 9.66699 -51.667 29 -69s46.333 -26 81 -26c52.667 0 94.167 15.167 124.5 45.5s45.5 71.833 45.5 124.5z" />
    <glyph glyph-name="AEacute" unicode="&#x1fc;" horiz-adv-x="925" 
d="M-15 0l305 700h570v-60h-385v-260h365v-60h-365v-260h385v-60h-445v190h-285l-83 -190h-62zM156 250h259v390h-89zM430 775l90 130h70l-105 -130h-55z" />
    <glyph glyph-name="aeacute" unicode="&#x1fd;" horiz-adv-x="895" 
d="M130 355l-59.9961 -0.00292969c6 44.667 25.667 81.667 59 111s78.666 44 135.999 44c80 0 136.667 -36.667 170 -110c43.333 73.333 108.333 110 195 110c61.333 0 113.333 -23.333 156 -70s64 -106.667 64 -180c0 -7.33301 -0.666992 -15.666 -2 -24.999
c-0.666992 -2 -1 -5.33301 -1 -10h-392c8 -54 27.5 -96.667 58.5 -128s68.167 -47 111.5 -47c65.333 0 113.666 30 144.999 90h65c-36 -100 -106 -150 -210 -150c-60.667 0 -112 21.667 -154 65c-18.667 18.667 -34 40.334 -46 65.001c-10 -23.333 -24.667 -45 -44 -65
c-40.667 -43.333 -92.667 -65 -156 -65c-50.667 0 -91.667 13.833 -123 41.5s-47 62.167 -47 103.5c0 46.667 16.167 83.334 48.5 110.001s81.166 40 146.499 40h145v35c0 86.667 -43.333 130 -130 130c-38 0 -69.333 -8.83301 -94 -26.5s-38.334 -40.5 -41.001 -68.5z
M395.004 219.997v4.99902h-145c-46 0 -80 -8.16699 -102 -24.5s-33 -38.166 -33 -65.499c0 -24 9.83301 -44.167 29.5 -60.5s46.5 -24.5 80.5 -24.5c52.667 0 94.167 15.167 124.5 45.5s45.5 71.833 45.5 124.5zM456.004 284.996h333.999
c-4 48.667 -21.667 88.334 -53 119.001s-68.666 46 -111.999 46c-42.667 0 -80.5 -15.833 -113.5 -47.5s-51.5 -70.834 -55.5 -117.501zM425.003 584.996l90 130h70l-105 -130h-55z" />
    <glyph glyph-name="Oslashacute" unicode="&#x1fe;" horiz-adv-x="770" 
d="M150 -35l45 85c-44 32.667 -78.333 74.667 -103 126s-37 109.333 -37 174c0 106 31.5 192.5 94.5 259.5s141.5 100.5 235.5 100.5c51.333 0 98 -10.333 140 -31l30 56h65l-45 -86c93.333 -69.333 140 -169 140 -299c0 -106 -31.5 -192.5 -94.5 -259.5
s-141.5 -100.5 -235.5 -100.5c-50 0 -97 10.333 -141 31l-29 -56h-65zM546 595l-274.001 -521.002c34 -16 71.667 -24 113 -24c76.667 0 140.834 27.833 192.501 83.5s77.5 127.834 77.5 216.501c0 106.667 -36.333 188.334 -109 245.001zM222.999 104.998l274.001 520.001
c-34 16.667 -71.333 25 -112 25c-76.667 0 -140.834 -27.833 -192.501 -83.5s-77.5 -127.834 -77.5 -216.501c0 -107.333 36 -189 108 -245zM360 774.999l90 130h70l-105 -130h-55z" />
    <glyph glyph-name="oslashacute" unicode="&#x1ff;" 
d="M95 -35l39.999 76.001c-60 48 -90 117.667 -90 209c0 76 22.667 138.333 68 187s101 73 167 73c34.667 0 66.334 -7 95.001 -21l25 46h65l-41 -76c60.667 -50.667 91 -120.334 91 -209.001c0 -76 -22.667 -138.333 -68 -187s-101 -73 -167 -73
c-33.333 0 -65.333 6.66699 -96 20l-24 -45h-65zM393.999 403.001l-181 -339c22 -9.33301 44.333 -14 67 -14c48.667 0 90 18.667 124 56s51 85.333 51 144c0 63.333 -20.333 114.333 -61 153zM164.999 96.001l182 340c-22.667 9.33301 -45 14 -67 14
c-48.667 0 -90 -18.667 -124 -56s-51 -85.333 -51 -144c0 -64.667 20 -116 60 -154zM249.999 585.001l90 130h70l-105 -130h-55z" />
    <glyph glyph-name="Scommaaccent" unicode="&#x218;" horiz-adv-x="625" 
d="M55 205l60 -0.00195312c0 -42 18.333 -78.333 55 -109s85 -46 145 -46c62 0 109.167 12.5 141.5 37.5s48.5 57.5 48.5 97.5c0 69.333 -46.333 112 -139 128l-111 19c-62.667 10.667 -109.167 30.834 -139.5 60.501s-45.5 70.5 -45.5 122.5
c0 56.667 21 103.334 63 140.001s99.333 55 172 55c78 0 140 -20.333 186 -61s69 -92 69 -154h-60c0 44 -17.5 80.833 -52.5 110.5s-82.5 44.5 -142.5 44.5c-56 0 -99.167 -12.667 -129.5 -38s-45.5 -57.666 -45.5 -96.999c0 -35.333 11 -63 33 -83s56 -34 102 -42l101 -18
c70 -12.667 120.667 -33.834 152 -63.501s47 -70.834 47 -123.501c0 -57.333 -21.833 -104.166 -65.5 -140.499s-105.167 -54.5 -184.5 -54.5c-77.333 0 -140 21 -188 63s-72 92.667 -72 152zM245 -230.002l30 150h70l-55 -150h-45z" />
    <glyph glyph-name="scommaaccent" unicode="&#x219;" horiz-adv-x="470" 
d="M40 145l57.002 -0.000976562c0 -26.667 12.667 -49.167 38 -67.5s58.666 -27.5 99.999 -27.5c42.667 0 75 8 97 24s33 36.333 33 61c0 40.667 -28.333 66.667 -85 78l-100 20c-43.333 8.66699 -75.833 23.834 -97.5 45.501s-32.5 52.167 -32.5 91.5
s16.167 72.5 48.5 99.5s76.166 40.5 131.499 40.5c58 0 104.167 -14.833 138.5 -44.5s51.5 -66.5 51.5 -110.5h-60c0 26.667 -11.5 49.167 -34.5 67.5s-54.833 27.5 -95.5 27.5c-38 0 -67.5 -8 -88.5 -24s-31.5 -34.667 -31.5 -56c0 -42.667 26.667 -69.334 80 -80.001
l100 -20c48 -9.33301 82.5 -24.666 103.5 -45.999s31.5 -51 31.5 -89c0 -42 -16.667 -76.667 -50 -104s-80 -41 -140 -41c-58 0 -105 15.333 -141 46s-54 67 -54 109zM170.002 -230.001l30 150h70l-55 -150h-45z" />
    <glyph glyph-name="uni021A" unicode="&#x21a;" horiz-adv-x="600" 
d="M270 0v640h-240v60h540v-60h-240v-640h-60zM235 -230l30 150h70l-55 -150h-45z" />
    <glyph glyph-name="uni021B" unicode="&#x21b;" horiz-adv-x="340" 
d="M110 85v355h-80v60h80v140h60v-140h125v-60h-125v-345c0 -23.333 11.667 -35 35 -35h90v-60h-95c-28 0 -50 7.66699 -66 23s-24 36 -24 62zM135 -230l30 150h70l-55 -150h-45z" />
    <glyph glyph-name="uni0232" unicode="&#x232;" horiz-adv-x="590" 
d="M265 0v263l-260 437h67l213 -360h20l213 360h67l-260 -437v-263h-60zM155 815v50h280v-50h-280z" />
    <glyph glyph-name="uni0233" unicode="&#x233;" horiz-adv-x="470" 
d="M60 -200v60h85c11.333 0 19.833 2.66699 25.5 8s10.5 13.333 14.5 24l27 76l-202 532h60l160 -425h20l150 425h60l-225 -635c-16 -43.333 -46 -65 -90 -65h-85zM100 625v50h280v-50h-280z" />
    <glyph glyph-name="uni0244" unicode="&#x244;" horiz-adv-x="750" 
d="M105 275v155h-90v60h90v210h60v-210h420v210h60v-210h90v-60h-90v-155c0 -84.667 -25.5 -153.334 -76.5 -206.001s-115.5 -79 -193.5 -79s-142.5 26.333 -193.5 79s-76.5 121.334 -76.5 206.001zM165 430l-0.00195312 -155c0 -67.333 19.833 -121.666 59.5 -162.999
s89.834 -62 150.501 -62s110.834 20.667 150.501 62s59.5 95.666 59.5 162.999v155h-420z" />
    <glyph glyph-name="uni0259" unicode="&#x259;" horiz-adv-x="555" 
d="M48 280l401.999 -0.000976562c-5.33301 51.333 -24.333 92.5 -57 123.5s-72 46.5 -118 46.5c-36 0 -67.167 -9.16699 -93.5 -27.5s-45.166 -39.166 -56.499 -62.499h-65c14.667 41.333 39.5 76.666 74.5 105.999s81.833 44 140.5 44c69.333 0 125.833 -23.667 169.5 -71
s65.5 -110.333 65.5 -189s-21.833 -141.667 -65.5 -189s-100.167 -71 -169.5 -71c-66 0 -120.833 23.167 -164.5 69.5s-65.5 106.5 -65.5 180.5c0 14.667 0.333008 24.334 1 29.001zM449.999 219.999h-345.001c2.66699 -50 19.834 -90.833 51.501 -122.5
s71.167 -47.5 118.5 -47.5c48 0 87.833 15.167 119.5 45.5s50.167 71.833 55.5 124.5z" />
    <glyph glyph-name="uni0289" unicode="&#x289;" horiz-adv-x="595" 
d="M85 200l0.000976562 125.001h-70v60h70v115h60v-115h300v115h60v-115h75v-60h-75v-325h-50l-10 65h-5c-9.33301 -14.667 -21.333 -27.334 -36 -38.001c-32.667 -24.667 -72.334 -37 -119.001 -37c-58 0 -105.833 19.5 -143.5 58.5s-56.5 89.5 -56.5 151.5z
M145.001 325.001v-125.002c0 -45.333 13.5 -81.666 40.5 -108.999s61.833 -41 104.5 -41c45.333 0 82.5 14.333 111.5 43s43.5 64.334 43.5 107.001v125h-300z" />
    <glyph glyph-name="uni02BC" unicode="&#x2bc;" horiz-adv-x="160" 
d="M30 550l35 150h65l-55 -150h-45z" />
    <glyph glyph-name="circumflex" unicode="&#x2c6;" horiz-adv-x="350" 
d="M30 600l113 130h64l113 -130h-65l-80 93l-80 -93h-65z" />
    <glyph glyph-name="caron" unicode="&#x2c7;" horiz-adv-x="350" 
d="M143 600l-113 130h65l80 -93l80 93h65l-113 -130h-64z" />
    <glyph glyph-name="breve" unicode="&#x2d8;" horiz-adv-x="330" 
d="M30 710h55c2.66699 -22 11 -39.167 25 -51.5s32.333 -18.5 55 -18.5s41 6.16699 55 18.5s22.333 29.5 25 51.5h55c-2.66699 -37.333 -16.167 -66.666 -40.5 -87.999s-55.833 -32 -94.5 -32s-70.167 10.667 -94.5 32s-37.833 50.666 -40.5 87.999z" />
    <glyph glyph-name="dotaccent" unicode="&#x2d9;" horiz-adv-x="130" 
d="M30 615v70h70v-70h-70z" />
    <glyph glyph-name="ring" unicode="&#x2da;" horiz-adv-x="240" 
d="M30 680c0 25.333 8.66699 46.666 26 63.999s38.666 26 63.999 26s46.666 -8.66699 63.999 -26s26 -38.666 26 -63.999s-8.66699 -46.666 -26 -63.999s-38.666 -26 -63.999 -26s-46.666 8.66699 -63.999 26s-26 38.666 -26 63.999zM120 635
c14.667 0 25.834 4.16699 33.501 12.5s11.5 19.166 11.5 32.499s-3.83301 24.166 -11.5 32.499s-18.834 12.5 -33.501 12.5s-25.834 -4.16699 -33.501 -12.5s-11.5 -19.166 -11.5 -32.499s3.83301 -24.166 11.5 -32.499s18.834 -12.5 33.501 -12.5z" />
    <glyph glyph-name="ogonek" unicode="&#x2db;" horiz-adv-x="170" 
d="M140 -160h-20.001c-27.333 0 -49.166 7.5 -65.499 22.5s-24.5 34.167 -24.5 57.5c0 18.667 5.5 35.167 16.5 49.5s23.833 24.5 38.5 30.5v10h55v-10c-40 -20 -60 -45 -60 -75c0 -23.333 15 -35 45 -35h15v-50z" />
    <glyph glyph-name="tilde" unicode="&#x2dc;" horiz-adv-x="365" 
d="M80 600h-50c0 29.333 8.5 53.333 25.5 72s38.5 28 64.5 28c20 0 42.833 -8.33301 68.5 -25s44.5 -25 56.5 -25c10.667 0 20 4.66699 28 14s12 21.333 12 36h50c0 -29.333 -8.5 -53.333 -25.5 -72s-38.5 -28 -64.5 -28c-20 0 -42.833 8.33301 -68.5 25s-44.5 25 -56.5 25
c-10.667 0 -20 -4.66699 -28 -14s-12 -21.333 -12 -36z" />
    <glyph glyph-name="hungarumlaut" unicode="&#x2dd;" horiz-adv-x="365" 
d="M30 600l90 130h70l-105 -130h-55zM175 600l90 130h70l-105 -130h-55z" />
    <glyph glyph-name="acutecomb" unicode="&#x301;" horiz-adv-x="0" 
d="M-380 800l90 130h70l-105 -130h-55z" />
    <glyph glyph-name="uni0302" unicode="&#x302;" horiz-adv-x="0" 
d="M-500 795l113 130h64l113 -130h-65l-80 93l-80 -93h-65z" />
    <glyph glyph-name="uni0304" unicode="&#x304;" horiz-adv-x="0" 
d="M-500 825v50h280v-50h-280z" />
    <glyph glyph-name="uni0306" unicode="&#x306;" horiz-adv-x="0" 
d="M-490 910h55c2.66699 -22 11 -39.167 25 -51.5s32.333 -18.5 55 -18.5s41 6.16699 55 18.5s22.333 29.5 25 51.5h55c-2.66699 -37.333 -16.167 -66.666 -40.5 -87.999s-55.833 -32 -94.5 -32s-70.167 10.667 -94.5 32s-37.833 50.666 -40.5 87.999z" />
    <glyph glyph-name="uni0307" unicode="&#x307;" horiz-adv-x="0" 
d="M-385 815v70h70v-70h-70z" />
    <glyph glyph-name="uni0308" unicode="&#x308;" horiz-adv-x="0" 
d="M-475 815v70h70v-70h-70zM-305 815v70h70v-70h-70z" />
    <glyph glyph-name="uni030A" unicode="&#x30a;" horiz-adv-x="0" 
d="M-445 880c0 25.333 8.66699 46.666 26 63.999s38.666 26 63.999 26s46.666 -8.66699 63.999 -26s26 -38.666 26 -63.999s-8.66699 -46.666 -26 -63.999s-38.666 -26 -63.999 -26s-46.666 8.66699 -63.999 26s-26 38.666 -26 63.999zM-355 835
c14.667 0 25.834 4.16699 33.501 12.5s11.5 19.166 11.5 32.499s-3.83301 24.166 -11.5 32.499s-18.834 12.5 -33.501 12.5s-25.834 -4.16699 -33.501 -12.5s-11.5 -19.166 -11.5 -32.499s3.83301 -24.166 11.5 -32.499s18.834 -12.5 33.501 -12.5z" />
    <glyph glyph-name="uni030C" unicode="&#x30c;" horiz-adv-x="0" 
d="M-387 795l-113 130h65l80 -93l80 93h65l-113 -130h-64z" />
    <glyph glyph-name="uni0326" unicode="&#x326;" horiz-adv-x="160" 
d="M30 -240l30 150h70l-55 -150h-45z" />
    <glyph glyph-name="uni0400" unicode="&#x400;" horiz-adv-x="595" 
d="M90 0v700h440v-60h-380v-260h360v-60h-360v-260h380v-60h-440zM280 775l-105 130h70l90 -130h-55z" />
    <glyph glyph-name="uni0401" unicode="&#x401;" horiz-adv-x="595" 
d="M90 0v700h440v-60h-380v-260h360v-60h-360v-260h380v-60h-440zM190 810v70h70v-70h-70zM360 810v70h70v-70h-70z" />
    <glyph glyph-name="uni0402" unicode="&#x402;" horiz-adv-x="700" 
d="M190 0l-0.000976562 639.999h-190v60h440v-60h-190v-245c39.333 33.333 94.333 50 165 50c66.667 0 121.667 -21 165 -63s65 -94.333 65 -157c0 -65.333 -21.833 -119.166 -65.5 -161.499s-100.167 -63.5 -169.5 -63.5h-45v60h45c52 0 94.167 15.5 126.5 46.5
s48.5 70.5 48.5 118.5c0 45.333 -16 83.333 -48 114s-72.667 46 -122 46c-39.333 0 -73.166 -5.33301 -101.499 -16s-49.5 -22 -63.5 -34v-335h-60z" />
    <glyph glyph-name="uni0403" unicode="&#x403;" horiz-adv-x="540" 
d="M90 0v700h430v-60h-370v-640h-60zM275 775l90 130h70l-105 -130h-55z" />
    <glyph glyph-name="uni0404" unicode="&#x404;" horiz-adv-x="740" 
d="M116 380l359.001 -0.000976562v-60h-359c6.66699 -80 35.167 -145 85.5 -195s111.5 -75 183.5 -75c37.333 0 71.5 6.66699 102.5 20s56 30.5 75 51.5s33.667 39.833 44 56.5s18.166 32.334 23.499 47.001h65c-4.66699 -18 -11.5 -36.5 -20.5 -55.5
s-22.333 -39.5 -40 -61.5s-37.5 -41.5 -59.5 -58.5s-49.667 -31.167 -83 -42.5s-69 -17 -107 -17c-94 0 -172.5 33.5 -235.5 100.5s-94.5 153.5 -94.5 259.5s31.5 192.5 94.5 259.5s141.5 100.5 235.5 100.5c46 0 88.333 -8 127 -24s70.167 -36.5 94.5 -61.5
s43.666 -49.667 57.999 -74s24.5 -47.833 30.5 -70.5h-65c-5.33301 14.667 -13.166 30.167 -23.499 46.5s-25 34.5 -44 54.5s-44 36.5 -75 49.5s-65.167 19.5 -102.5 19.5c-72 0 -133.167 -25 -183.5 -75s-78.833 -115 -85.5 -195z" />
    <glyph glyph-name="uni0405" unicode="&#x405;" horiz-adv-x="625" 
d="M55 205l60 -0.00195312c0 -42 18.333 -78.333 55 -109s85 -46 145 -46c62 0 109.167 12.5 141.5 37.5s48.5 57.5 48.5 97.5c0 69.333 -46.333 112 -139 128l-111 19c-62.667 10.667 -109.167 30.834 -139.5 60.501s-45.5 70.5 -45.5 122.5
c0 56.667 21 103.334 63 140.001s99.333 55 172 55c78 0 140 -20.333 186 -61s69 -92 69 -154h-60c0 44 -17.5 80.833 -52.5 110.5s-82.5 44.5 -142.5 44.5c-56 0 -99.167 -12.667 -129.5 -38s-45.5 -57.666 -45.5 -96.999c0 -35.333 11 -63 33 -83s56 -34 102 -42l101 -18
c70 -12.667 120.667 -33.834 152 -63.501s47 -70.834 47 -123.501c0 -57.333 -21.833 -104.166 -65.5 -140.499s-105.167 -54.5 -184.5 -54.5c-77.333 0 -140 21 -188 63s-72 92.667 -72 152z" />
    <glyph glyph-name="uni0406" unicode="&#x406;" horiz-adv-x="240" 
d="M90 0v700h60v-700h-60z" />
    <glyph glyph-name="uni0407" unicode="&#x407;" horiz-adv-x="240" 
d="M90 0v700h60v-700h-60zM0 810v70h70v-70h-70zM170 810v70h70v-70h-70z" />
    <glyph glyph-name="uni0408" unicode="&#x408;" horiz-adv-x="390" 
d="M15 0v60h170c40 0 60 18.333 60 55v585h60v-590c0 -73.333 -38.333 -110 -115 -110h-175z" />
    <glyph glyph-name="uni0409" unicode="&#x409;" horiz-adv-x="1020" 
d="M0 -5l-0.000976562 60.001h30c26 0 46.833 7.66699 62.5 23s24.834 37.666 27.501 66.999l47 555h398v-290h205c58 0 105.833 -19.5 143.5 -58.5s56.5 -89.5 56.5 -151.5c0 -57.333 -19 -105 -57 -143s-85.667 -57 -143 -57h-265v640h-283l-42 -495
c-9.33301 -100 -59.333 -150 -150 -150h-30zM564.999 60.001l205 0.000976562c42.667 0 76.667 12.667 102 38s38 59.333 38 102c0 47.333 -12.5 84.166 -37.5 110.499s-59.167 39.5 -102.5 39.5h-205v-290z" />
    <glyph glyph-name="uni040A" unicode="&#x40a;" horiz-adv-x="1040" 
d="M90 0l0.000976562 699.999h60v-305h375v305h60v-305h210c57.333 0 104.166 -18.167 140.499 -54.5s54.5 -83.166 54.5 -140.499c0 -60 -18 -108.333 -54 -145s-83 -55 -141 -55h-270v335h-375v-335h-60zM585.001 59.999h210c38 0 70 13.333 96 40s39 60 39 100
s-12.5 72.5 -37.5 97.5s-57.5 37.5 -97.5 37.5h-210v-275z" />
    <glyph glyph-name="uni040B" unicode="&#x40b;" horiz-adv-x="715" 
d="M190 0l-0.000976562 640h-190v60h440v-60h-190v-245c39.333 33.333 94.333 50 165 50c65.333 0 118.333 -20.333 159 -61s61 -93.667 61 -159v-225h-60v225c0 50 -14.167 89.167 -42.5 117.5s-67.5 42.5 -117.5 42.5c-39.333 0 -73.166 -5.33301 -101.499 -16
s-49.5 -22 -63.5 -34v-335h-60z" />
    <glyph glyph-name="uni040C" unicode="&#x40c;" horiz-adv-x="565" 
d="M90 0v700h60v-330l315 330h80l-330 -345l350 -355h-80l-335 340v-340h-60zM280 775l90 130h70l-105 -130h-55z" />
    <glyph glyph-name="uni040D" unicode="&#x40d;" horiz-adv-x="715" 
d="M90 0v700h60v-635h20l345 635h110v-700h-60v635h-20l-345 -635h-110zM330 775l-105 130h70l90 -130h-55z" />
    <glyph glyph-name="uni040E" unicode="&#x40e;" horiz-adv-x="600" 
d="M100 0l0.000976562 60.001h90c26 0 44.333 11.333 55 34l29 64l-259 542h65l215 -450h21l204 450h65l-290 -640c-10 -20.667 -22.833 -35.834 -38.5 -45.501s-37.834 -14.5 -66.501 -14.5h-90zM170.001 905.001h55c2.66699 -22 11 -39.167 25 -51.5
s32.333 -18.5 55 -18.5s41 6.16699 55 18.5s22.333 29.5 25 51.5h55c-2.66699 -37.333 -16.167 -66.666 -40.5 -87.999s-55.833 -32 -94.5 -32s-70.167 10.667 -94.5 32s-37.833 50.666 -40.5 87.999z" />
    <glyph glyph-name="uni040F" unicode="&#x40f;" horiz-adv-x="700" 
d="M90 0v700h60v-640h400v640h60v-700h-230v-140h-60v140h-230z" />
    <glyph glyph-name="uni0410" unicode="&#x410;" horiz-adv-x="630" 
d="M5 0l265 700h90l265 -700h-60l-72 190h-356l-72 -190h-60zM160 250h310l-145 385h-20z" />
    <glyph glyph-name="uni0411" unicode="&#x411;" horiz-adv-x="640" 
d="M90 0v700h460v-60h-400v-240h240c58 0 105 -18.333 141 -55s54 -85 54 -145s-18 -108.333 -54 -145s-83 -55 -141 -55h-300zM150 60h240c40 0 72.5 12.833 97.5 38.5s37.5 59.5 37.5 101.5s-12.5 75.833 -37.5 101.5s-57.5 38.5 -97.5 38.5h-240v-280z" />
    <glyph glyph-name="uni0412" unicode="&#x412;" horiz-adv-x="635" 
d="M90 0v699.999h285c55.333 0 100.833 -18 136.5 -54s53.5 -81.333 53.5 -136c0 -48 -14.333 -88.333 -43 -121c-11.333 -13.333 -25.333 -24.666 -42 -33.999v-5c17.333 -8 33 -19 47 -33c32 -32 48 -74.333 48 -127c0 -54.667 -17.833 -100 -53.5 -136
s-81.167 -54 -136.5 -54h-295zM150 59.999h235c38 0 69.167 12.167 93.5 36.5s36.5 55.5 36.5 93.5c0 40 -11.667 71.667 -35 95s-55 35 -95 35h-235v-260zM150 379.999h225c38 0 69.167 12.167 93.5 36.5s36.5 55.5 36.5 93.5s-12.167 69.167 -36.5 93.5
s-55.5 36.5 -93.5 36.5h-225v-260z" />
    <glyph glyph-name="uni0413" unicode="&#x413;" horiz-adv-x="540" 
d="M90 0v700h430v-60h-370v-640h-60z" />
    <glyph glyph-name="uni0414" unicode="&#x414;" horiz-adv-x="675" 
d="M0 -140l-0.000976562 199.999h5c31.333 0 54.333 7.33301 69 22s23.334 37.334 26.001 68.001l48 550h417v-640h80v-200h-60v140h-525v-140h-60zM124.999 59.999h380v580h-302l-43 -490c-3.33301 -32.667 -10 -57 -20 -73c-5.33301 -8 -10.333 -13.667 -15 -17z" />
    <glyph glyph-name="uni0415" unicode="&#x415;" horiz-adv-x="595" 
d="M90 0v700h440v-60h-380v-260h360v-60h-360v-260h380v-60h-440z" />
    <glyph glyph-name="uni0416" unicode="&#x416;" horiz-adv-x="800" 
d="M5 0l299 355l-279 345h75l270 -335v335h60v-335l270 335h75l-279 -345l299 -355h-75l-290 345v-345h-60v345l-290 -345h-75z" />
    <glyph glyph-name="uni0417" unicode="&#x417;" horiz-adv-x="605" 
d="M45 190l60 0.000976562c0 -39.333 16.667 -72.5 50 -99.5s80 -40.5 140 -40.5c57.333 0 103.333 14 138 42s52 60.667 52 98c0 36 -14.667 66.667 -44 92s-68 38 -116 38h-80v60h80c41.333 0 75.833 12.833 103.5 38.5s41.5 56.167 41.5 91.5c0 38.667 -16 71.667 -48 99
s-74.333 41 -127 41s-95 -13.667 -127 -41s-48 -60.333 -48 -99h-60c0 56 21.667 103.333 65 142s100 58 170 58s126.667 -19.333 170 -58s65 -86 65 -142c0 -49.333 -18.333 -90.333 -55 -123c-18 -14.667 -36.333 -25.334 -55 -32.001v-5c23.333 -8 44 -19 62 -33
c42 -32.667 63 -75 63 -127c0 -56.667 -22.333 -104.167 -67 -142.5s-105.667 -57.5 -183 -57.5s-138.333 19.167 -183 57.5s-67 85.833 -67 142.5z" />
    <glyph glyph-name="uni0418" unicode="&#x418;" horiz-adv-x="715" 
d="M90 0v700h60v-635h20l345 635h110v-700h-60v635h-20l-345 -635h-110z" />
    <glyph glyph-name="uni0419" unicode="&#x419;" horiz-adv-x="715" 
d="M90 0v700h60v-635h20l345 635h110v-700h-60v635h-20l-345 -635h-110zM225 905h55c2.66699 -22 11 -39.167 25 -51.5s32.333 -18.5 55 -18.5s41 6.16699 55 18.5s22.333 29.5 25 51.5h55c-2.66699 -37.333 -16.167 -66.666 -40.5 -87.999s-55.833 -32 -94.5 -32
s-70.167 10.667 -94.5 32s-37.833 50.666 -40.5 87.999z" />
    <glyph glyph-name="uni041A" unicode="&#x41a;" horiz-adv-x="565" 
d="M90 0v700h60v-330l315 330h80l-330 -345l350 -355h-80l-335 340v-340h-60z" />
    <glyph glyph-name="uni041B" unicode="&#x41b;" horiz-adv-x="675" 
d="M0 -5l-0.000976562 60.001h30c26 0 46.833 7.66699 62.5 23s24.834 37.666 27.501 66.999l47 555h418v-700h-60v640h-303l-42 -495c-9.33301 -100 -59.333 -150 -150 -150h-30z" />
    <glyph glyph-name="uni041C" unicode="&#x41c;" horiz-adv-x="900" 
d="M90 0v700h115l235 -640h20l235 640h115v-700h-60v625h-20l-230 -625h-100l-230 625h-20v-625h-60z" />
    <glyph glyph-name="uni041D" unicode="&#x41d;" horiz-adv-x="715" 
d="M90 0v700h60v-315h415v315h60v-700h-60v325h-415v-325h-60z" />
    <glyph glyph-name="uni041E" unicode="&#x41e;" horiz-adv-x="770" 
d="M385 710c94 0 172.5 -33.5 235.5 -100.5s94.5 -153.5 94.5 -259.5s-31.5 -192.5 -94.5 -259.5s-141.5 -100.5 -235.5 -100.5s-172.5 33.5 -235.5 100.5s-94.5 153.5 -94.5 259.5s31.5 192.5 94.5 259.5s141.5 100.5 235.5 100.5zM385 50
c76.667 0 140.834 27.833 192.501 83.5s77.5 127.834 77.5 216.501s-25.833 160.834 -77.5 216.501s-115.834 83.5 -192.501 83.5s-140.834 -27.833 -192.501 -83.5s-77.5 -127.834 -77.5 -216.501s25.833 -160.834 77.5 -216.501s115.834 -83.5 192.501 -83.5z" />
    <glyph glyph-name="uni041F" unicode="&#x41f;" horiz-adv-x="715" 
d="M90 0v700h535v-700h-60v640h-415v-640h-60z" />
    <glyph glyph-name="uni0420" unicode="&#x420;" horiz-adv-x="640" 
d="M90 0v700h290c58 0 106.667 -20.333 146 -61s59 -92 59 -154s-19.167 -112.5 -57.5 -151.5s-87.5 -58.5 -147.5 -58.5h-230v-275h-60zM150 335l230 0.000976562c42.667 0 77.5 13.667 104.5 41s40.5 63.666 40.5 108.999c0 47.333 -13.333 85 -40 113s-61.667 42 -105 42
h-230v-305z" />
    <glyph glyph-name="uni0421" unicode="&#x421;" horiz-adv-x="735" 
d="M625 230l65 0.00390625c-16.667 -62.667 -52 -118.334 -106 -167.001s-120.333 -73 -199 -73c-94 0 -172.5 33.5 -235.5 100.5s-94.5 153.5 -94.5 259.5s31.5 192.5 94.5 259.5s141.5 100.5 235.5 100.5c80 0 146.5 -23.833 199.5 -71.5s88.167 -102.167 105.5 -163.5
h-65c-5.33301 13.333 -11.333 26.5 -18 39.5s-17 28.167 -31 45.5s-29.167 32.166 -45.5 44.499s-37.333 23 -63 32s-53.167 13.5 -82.5 13.5c-76.667 0 -140.834 -27.833 -192.501 -83.5s-77.5 -127.834 -77.5 -216.501s25.833 -160.834 77.5 -216.501
s115.834 -83.5 192.501 -83.5c37.333 0 71.333 6.66699 102 20s55.167 30.5 73.5 51.5s32.333 40.167 42 57.5s17.167 34.333 22.5 51z" />
    <glyph glyph-name="uni0422" unicode="&#x422;" horiz-adv-x="600" 
d="M270 0v640h-240v60h540v-60h-240v-640h-60z" />
    <glyph glyph-name="uni0423" unicode="&#x423;" horiz-adv-x="600" 
d="M100 0l0.000976562 60.001h90c26 0 44.333 11.333 55 34l29 64l-259 542h65l215 -450h21l204 450h65l-290 -640c-10 -20.667 -22.833 -35.834 -38.5 -45.501s-37.834 -14.5 -66.501 -14.5h-90z" />
    <glyph glyph-name="uni0424" unicode="&#x424;" horiz-adv-x="810" 
d="M375 -20v110h-15c-98 0 -174.167 24.5 -228.5 73.5s-81.5 114.5 -81.5 196.5s27.167 147.5 81.5 196.5s130.5 73.5 228.5 73.5h15v90h60v-90h15c98 0 174.167 -24.5 228.5 -73.5s81.5 -114.5 81.5 -196.5s-27.167 -147.5 -81.5 -196.5s-130.5 -73.5 -228.5 -73.5h-15
v-110h-60zM435 570v-420h15c80 0 141.667 19 185 57s65 89 65 153s-21.667 115 -65 153s-105 57 -185 57h-15zM375 150v420h-15c-80 0 -141.667 -19 -185 -57s-65 -89 -65 -153s21.667 -115 65 -153s105 -57 185 -57h15z" />
    <glyph glyph-name="uni0425" unicode="&#x425;" horiz-adv-x="600" 
d="M10 0l243 360l-228 340h70l195 -290h20l195 290h70l-228 -340l243 -360h-70l-210 310h-20l-210 -310h-70z" />
    <glyph glyph-name="uni0426" unicode="&#x426;" horiz-adv-x="720" 
d="M90 0v700h60v-640h400v640h60v-640h80v-200h-60v140h-540z" />
    <glyph glyph-name="uni0427" unicode="&#x427;" horiz-adv-x="675" 
d="M525 0l-0.000976562 310.002c-21.333 -14.667 -41.666 -26.334 -60.999 -35.001c-48 -23.333 -99.333 -35 -154 -35c-156.667 0 -235 81.667 -235 245v215h60v-215c0 -65.333 14 -112.5 42 -141.5s72.333 -43.5 133 -43.5c57.333 0 110 12.333 158 37
c22.667 11.333 41.667 23.666 57 36.999v326h60v-700h-60z" />
    <glyph glyph-name="uni0428" unicode="&#x428;" horiz-adv-x="960" 
d="M90 0v700h60v-640h300v640h60v-640h300v640h60v-700h-780z" />
    <glyph glyph-name="uni0429" unicode="&#x429;" horiz-adv-x="980" 
d="M90 0v700h60v-640h300v640h60v-640h300v640h60v-640h80v-200h-60v140h-800z" />
    <glyph glyph-name="uni042A" unicode="&#x42a;" horiz-adv-x="695" 
d="M170 0v640h-160v60h220v-265h210c58.667 0 107.5 -20.5 146.5 -61.5s58.5 -93.833 58.5 -158.5c0 -62 -19.667 -113.333 -59 -154s-88 -61 -146 -61h-270zM230 60h210c43.333 0 78.333 14 105 42s40 65.667 40 113c0 49.333 -13.333 88.333 -40 117s-61.667 43 -105 43
h-210v-315z" />
    <glyph glyph-name="uni042B" unicode="&#x42b;" horiz-adv-x="795" 
d="M645 0v700h60v-700h-60zM90 0v700h60v-265h200c58.667 0 107.5 -20.5 146.5 -61.5s58.5 -93.833 58.5 -158.5c0 -62 -19.667 -113.333 -59 -154s-88 -61 -146 -61h-260zM150 60h200c43.333 0 78.333 14 105 42s40 65.667 40 113c0 49.333 -13.333 88.333 -40 117
s-61.667 43 -105 43h-200v-315z" />
    <glyph glyph-name="uni042C" unicode="&#x42c;" horiz-adv-x="625" 
d="M90 0v700h60v-265h220c58.667 0 107.5 -20.5 146.5 -61.5s58.5 -93.833 58.5 -158.5c0 -62 -19.667 -113.333 -59 -154s-88 -61 -146 -61h-280zM150 60h220c43.333 0 78.333 14 105 42s40 65.667 40 113c0 49.333 -13.333 88.333 -40 117s-61.667 43 -105 43h-220v-315z
" />
    <glyph glyph-name="uni042D" unicode="&#x42d;" horiz-adv-x="740" 
d="M45 225l64.9971 0.00292969c5.33301 -14.667 13.166 -30.334 23.499 -47.001s25 -35.5 44 -56.5s44 -38.167 75 -51.5s65.167 -20 102.5 -20c72 0 133.167 25 183.5 75s78.833 115 85.5 195h-359v60h359c-6.66699 80 -35.167 145 -85.5 195s-111.5 75 -183.5 75
c-37.333 0 -71.5 -6.5 -102.5 -19.5s-56 -29.5 -75 -49.5s-33.667 -38.167 -44 -54.5s-18.166 -31.833 -23.499 -46.5h-65c4 17.333 10.833 35.666 20.5 54.999s23.334 39.5 41.001 60.5s37.834 39.833 60.501 56.5s50.334 30.5 83.001 41.5s67.667 16.5 105 16.5
c94 0 172.5 -33.5 235.5 -100.5s94.5 -153.5 94.5 -259.5s-31.5 -192.5 -94.5 -259.5s-141.5 -100.5 -235.5 -100.5c-38 0 -73.5 5.66699 -106.5 17s-60.667 25.5 -83 42.5s-42.333 36.5 -60 58.5s-31.167 42.667 -40.5 62s-16 37.666 -20 54.999z" />
    <glyph glyph-name="uni042E" unicode="&#x42e;" horiz-adv-x="945" 
d="M90 0v700.002h60v-320h121c5.33301 101.333 36.833 181.666 94.5 240.999s129.167 89 214.5 89c90 0 164.167 -32.5 222.5 -97.5s87.5 -152.5 87.5 -262.5s-29.167 -197.5 -87.5 -262.5s-132.5 -97.5 -222.5 -97.5c-85.333 0 -156.833 29.667 -214.5 89
s-89.167 139.666 -94.5 240.999h-121v-320h-60zM580 50.002c72 0 131.667 26.833 179 80.5s71 126.834 71 219.501s-23.667 165.834 -71 219.501s-107 80.5 -179 80.5s-131.667 -26.833 -179 -80.5s-71 -126.834 -71 -219.501s23.667 -165.834 71 -219.501
s107 -80.5 179 -80.5z" />
    <glyph glyph-name="uni042F" unicode="&#x42f;" horiz-adv-x="645" 
d="M45 0l275 275h-55c-58 0 -106.667 20.333 -146 61s-59 92 -59 154s19.167 112.5 57.5 151.5s87.5 58.5 147.5 58.5h290v-700h-60v275h-95l-275 -275h-80zM265 335l230 -0.000976562v305h-230c-42.667 0 -77.5 -13.667 -104.5 -41s-40.5 -63.666 -40.5 -108.999
c0 -47.333 13.333 -85 40 -113s61.667 -42 105 -42z" />
    <glyph glyph-name="uni0430" unicode="&#x430;" horiz-adv-x="535" 
d="M405 0l-9.99902 70h-5c-10 -14 -23.667 -27.333 -41 -40c-37.333 -26.667 -78.666 -40 -123.999 -40c-51.333 0 -92.5 14.333 -123.5 43s-46.5 66 -46.5 112c0 47.333 16.667 85 50 113s81.666 42 144.999 42h145v20c0 86.667 -43.333 130 -130 130
c-39.333 0 -70.833 -8.66699 -94.5 -26s-37.167 -40.333 -40.5 -69h-60c6 44.667 25.667 81.667 59 111s78.666 44 135.999 44c60.667 0 107.5 -16.5 140.5 -49.5s49.5 -79.833 49.5 -140.5v-320h-50zM395.001 220v25h-145c-44 0 -77.5 -9.33301 -100.5 -28
s-34.5 -42.667 -34.5 -72c0 -28.667 9.66699 -51.667 29 -69s46.333 -26 81 -26c52.667 0 94.167 15.167 124.5 45.5s45.5 71.833 45.5 124.5z" />
    <glyph glyph-name="uni0431" unicode="&#x431;" horiz-adv-x="555" 
d="M50 240v25c0 90.667 10.667 162.834 32 216.501s55.666 93.167 102.999 118.5c18 9.33301 37.333 17.166 58 23.499s37.334 10.666 50.001 12.999s35.667 5.83301 69 10.5c24 3.33301 40.5 10.666 49.5 21.999s13.5 30 13.5 56h55
c0 -41.333 -8.66699 -72.166 -26 -92.499s-43.666 -33.5 -78.999 -39.5c-26.667 -3.33301 -47 -6.16602 -61 -8.49902s-30.5 -6.33301 -49.5 -12s-36.833 -13.167 -53.5 -22.5c-57.333 -32 -91 -92 -101 -180h5c39.333 60 96 90 170 90
c65.333 0 119.166 -21.833 161.499 -65.5s63.5 -100.167 63.5 -169.5c0 -70 -21.333 -126.667 -64 -170s-98 -65 -166 -65c-68.667 0 -124.167 22.5 -166.5 67.5s-63.5 105.833 -63.5 182.5zM450 225c0 52 -15.833 94.167 -47.5 126.5s-72.5 48.5 -122.5 48.5
s-90.833 -16.167 -122.5 -48.5s-47.5 -74.5 -47.5 -126.5s15.833 -94.167 47.5 -126.5s72.5 -48.5 122.5 -48.5s90.833 16.167 122.5 48.5s47.5 74.5 47.5 126.5z" />
    <glyph glyph-name="uni0432" unicode="&#x432;" horiz-adv-x="525" 
d="M80 0v500h255c40 0 72.5 -12.5 97.5 -37.5s37.5 -57.5 37.5 -97.5c0 -34 -10 -62.333 -30 -85c-8.66699 -10.667 -18.667 -19 -30 -25v-5c11.333 -4 23 -11.667 35 -23c23.333 -23.333 35 -52.333 35 -87c0 -42.667 -12.667 -76.667 -38 -102s-59.333 -38 -102 -38h-260z
M140 55h195c25.333 0 45.833 7.83301 61.5 23.5s23.5 36.167 23.5 61.5s-7.83301 45.833 -23.5 61.5s-36.167 23.5 -61.5 23.5h-195v-170zM140 280h190c22.667 0 41.667 7.83301 57 23.5s23 36.167 23 61.5c0 22.667 -7.66699 41.667 -23 57s-34.333 23 -57 23h-190v-165z
" />
    <glyph glyph-name="uni0433" unicode="&#x433;" horiz-adv-x="410" 
d="M80 0v500h310v-60h-250v-440h-60z" />
    <glyph glyph-name="uni0434" unicode="&#x434;" horiz-adv-x="530" 
d="M0 -120v180h5c25.333 0 44 5.33301 56 16s19 28.667 21 54l30 370h323v-440h75v-180h-60v120h-390v-120h-60zM110 60h265v380h-210l-25 -310c-2.66699 -23.333 -8.33398 -42 -17.001 -56c-3.33301 -6 -7.66602 -10.667 -12.999 -14z" />
    <glyph glyph-name="uni0435" unicode="&#x435;" horiz-adv-x="555" 
d="M105 280h345.001c-2.66699 50 -19.834 90.833 -51.501 122.5s-71.167 47.5 -118.5 47.5c-48 0 -87.833 -15.167 -119.5 -45.5s-50.167 -71.833 -55.5 -124.5zM430.001 140h65c-14.667 -41.333 -39.5 -76.666 -74.5 -105.999s-81.833 -44 -140.5 -44
c-69.333 0 -125.833 23.667 -169.5 71s-65.5 110.333 -65.5 189s21.833 141.667 65.5 189s100.167 71 169.5 71c66 0 120.833 -23.167 164.5 -69.5s65.5 -106.5 65.5 -180.5c0 -10 -0.666992 -19.667 -2 -29c-0.666992 -2.66699 -1 -6.33398 -1 -11.001h-402
c5.33301 -51.333 24.333 -92.5 57 -123.5s72 -46.5 118 -46.5c36.667 0 67.667 9 93 27s44.333 39 57 63z" />
    <glyph glyph-name="uni0436" unicode="&#x436;" horiz-adv-x="630" 
d="M0 0l220 255l-205 245h74l196 -235v235h60v-235l196 235h74l-205 -245l220 -255h-74l-211 245v-245h-60v245l-211 -245h-74z" />
    <glyph glyph-name="uni0437" unicode="&#x437;" horiz-adv-x="460" 
d="M35 155h60.001c0 -31.333 11.333 -56.666 34 -75.999s54.667 -29 96 -29c42.667 0 75 8 97 24s33 36.333 33 61c0 27.333 -10.833 49.166 -32.5 65.499s-54.167 24.5 -97.5 24.5h-40v55h45c36 0 64.167 8.16699 84.5 24.5s30.5 36.5 30.5 60.5s-10.5 44.167 -31.5 60.5
s-50.5 24.5 -88.5 24.5c-36.667 0 -65.834 -9.5 -87.501 -28.5s-32.5 -42.833 -32.5 -71.5h-60c0 46 16.5 84.167 49.5 114.5s76.5 45.5 130.5 45.5c56 0 100 -13.833 132 -41.5s48 -62.167 48 -103.5c0 -35.333 -13.333 -64.333 -40 -87
c-12.667 -10.667 -26 -18.334 -40 -23.001v-5c6.66699 -2 14.167 -5.16699 22.5 -9.5s18 -10.833 29 -19.5s20.167 -20.5 27.5 -35.5s11 -31.833 11 -50.5c0 -42 -16.667 -76.667 -50 -104s-80 -41 -140 -41c-58.667 0 -105 15.333 -139 46s-51 70.334 -51 119.001z" />
    <glyph glyph-name="uni0438" unicode="&#x438;" horiz-adv-x="565" 
d="M80 0v500h60v-435h20l215 435h110v-500h-60v435h-20l-215 -435h-110z" />
    <glyph glyph-name="uni0439" unicode="&#x439;" horiz-adv-x="565" 
d="M80 0v500h60v-435h20l215 435h110v-500h-60v435h-20l-215 -435h-110zM150 710h55c2.66699 -22 11 -39.167 25 -51.5s32.333 -18.5 55 -18.5s41 6.16699 55 18.5s22.333 29.5 25 51.5h55c-2.66699 -37.333 -16.167 -66.666 -40.5 -87.999s-55.833 -32 -94.5 -32
s-70.167 10.667 -94.5 32s-37.833 50.666 -40.5 87.999z" />
    <glyph glyph-name="uni043A" unicode="&#x43a;" horiz-adv-x="475" 
d="M80 0v500h60v-230l243 230h82l-260 -245l270 -255h-82l-253 240v-240h-60z" />
    <glyph glyph-name="uni043B" unicode="&#x43b;" horiz-adv-x="535" 
d="M0 -5l0.000976562 60h25c23.333 0 41 6 53 18s19.333 32.667 22 62l30 365h325v-500h-60v440h-210l-25 -305c-4 -48 -16.833 -83.333 -38.5 -106s-53.834 -34 -96.501 -34h-25z" />
    <glyph glyph-name="uni043C" unicode="&#x43c;" horiz-adv-x="720" 
d="M80 0v500h117l153 -435h20l153 435h117v-500h-60v435h-20l-153 -435h-94l-153 435h-20v-435h-60z" />
    <glyph glyph-name="uni043D" unicode="&#x43d;" horiz-adv-x="565" 
d="M80 0v500h60v-220h285v220h60v-500h-60v220h-285v-220h-60z" />
    <glyph glyph-name="uni043E" unicode="&#x43e;" 
d="M280 -10c-66 0 -121.667 24.333 -167 73s-68 111 -68 187s22.667 138.333 68 187s101 73 167 73s121.667 -24.333 167 -73s68 -111 68 -187s-22.667 -138.333 -68 -187s-101 -73 -167 -73zM455 250c0 58.667 -17 106.667 -51 144s-75.333 56 -124 56
s-90 -18.667 -124 -56s-51 -85.333 -51 -144s17 -106.667 51 -144s75.333 -56 124 -56s90 18.667 124 56s51 85.333 51 144z" />
    <glyph glyph-name="uni043F" unicode="&#x43f;" horiz-adv-x="565" 
d="M80 0v500h405v-500h-60v440h-285v-440h-60z" />
    <glyph glyph-name="uni0440" unicode="&#x440;" horiz-adv-x="585" 
d="M310 50c49.333 0 90 18 122 54s48 84.667 48 146s-16 110 -48 146s-72.667 54 -122 54s-90 -18 -122 -54s-48 -84.667 -48 -146s16 -110 48 -146s72.667 -54 122 -54zM80 -200v700.002h50l10 -80h5c13.333 21.333 34.666 41.666 63.999 60.999s64.666 29 105.999 29
c64 0 117.5 -23.833 160.5 -71.5s64.5 -110.5 64.5 -188.5s-21.5 -140.833 -64.5 -188.5s-96.5 -71.5 -160.5 -71.5c-41.333 0 -76.666 9.66699 -105.999 29s-50.666 39.666 -63.999 60.999h-5v-280h-60z" />
    <glyph glyph-name="uni0441" unicode="&#x441;" horiz-adv-x="540" 
d="M435 165h65.002c-12.667 -55.333 -38.5 -98.333 -77.5 -129s-86.5 -46 -142.5 -46c-69.333 0 -125.833 23.667 -169.5 71s-65.5 110.333 -65.5 189s21.833 141.667 65.5 189s100.167 71 169.5 71c55.333 0 102.666 -15.167 141.999 -45.5s65.333 -71.833 78 -124.5h-65
c-7.33301 26.667 -23.833 51.667 -49.5 75s-60.834 35 -105.501 35c-51.333 0 -93.333 -18 -126 -54s-49 -84.667 -49 -146s16.333 -110 49 -146s74.667 -54 126 -54c44 0 79 12.333 105 37s42.667 50.667 50 78z" />
    <glyph glyph-name="uni0442" unicode="&#x442;" horiz-adv-x="440" 
d="M190 0v440h-170v60h400v-60h-170v-440h-60z" />
    <glyph glyph-name="uni0443" unicode="&#x443;" horiz-adv-x="470" 
d="M60 -200v60h85c11.333 0 19.833 2.66699 25.5 8s10.5 13.333 14.5 24l27 76l-202 532h60l160 -425h20l150 425h60l-225 -635c-16 -43.333 -46 -65 -90 -65h-85z" />
    <glyph glyph-name="uni0444" unicode="&#x444;" horiz-adv-x="700" 
d="M320 -200v200h-20c-77.333 0 -139.166 23 -185.499 69s-69.5 106.333 -69.5 181s23.167 135 69.5 181s108.166 69 185.499 69h20v200h60v-200h20c77.333 0 139.166 -23 185.499 -69s69.5 -106.333 69.5 -181s-23.167 -135 -69.5 -181s-108.166 -69 -185.499 -69h-20v-200
h-60zM300 60h20v380h-20c-62.667 0 -110.834 -16.5 -144.501 -49.5s-50.5 -79.833 -50.5 -140.5s16.833 -107.5 50.5 -140.5s81.834 -49.5 144.501 -49.5zM380 60h20c62.667 0 110.834 16.5 144.501 49.5s50.5 79.833 50.5 140.5s-16.833 107.5 -50.5 140.5
s-81.834 49.5 -144.501 49.5h-20v-380z" />
    <glyph glyph-name="uni0445" unicode="&#x445;" horiz-adv-x="460" 
d="M10 0l168 255l-163 245h70l135 -205h20l135 205h70l-163 -245l168 -255h-70l-140 215h-20l-140 -215h-70z" />
    <glyph glyph-name="uni0446" unicode="&#x446;" horiz-adv-x="570" 
d="M80 0v500h60v-440h275v440h60v-440h75v-180h-60v120h-410z" />
    <glyph glyph-name="uni0447" unicode="&#x447;" horiz-adv-x="535" 
d="M395 0v203c-43.333 -28.667 -93.333 -43 -150 -43c-58 0 -102.5 15.833 -133.5 47.5s-46.5 77.5 -46.5 137.5v155h60v-155c0 -83.333 41.667 -125 125 -125c56.667 0 105 15 145 45v235h60v-500h-60z" />
    <glyph glyph-name="uni0448" unicode="&#x448;" horiz-adv-x="780" 
d="M80 0v500h60v-440h220v440h60v-440h220v440h60v-500h-620z" />
    <glyph glyph-name="uni0449" unicode="&#x449;" horiz-adv-x="795" 
d="M80 0v500h60v-440h220v440h60v-440h220v440h60v-440h75v-180h-60v120h-635z" />
    <glyph glyph-name="uni044A" unicode="&#x44a;" 
d="M135 0v440h-125v60h185v-175h160c50 0 90.833 -15.5 122.5 -46.5s47.5 -70.5 47.5 -118.5c0 -45.333 -16 -83.333 -48 -114s-72.667 -46 -122 -46h-220zM195 60l165.001 -0.000976562c32 0 57.5 9.16699 76.5 27.5s28.5 42.5 28.5 72.5
c0 32.667 -9.33301 58.334 -28 77.001s-44.334 28 -77.001 28h-165v-205z" />
    <glyph glyph-name="uni044B" unicode="&#x44b;" horiz-adv-x="670" 
d="M530 0v500h60v-500h-60zM80 0v500h60v-175h140c50 0 90.833 -15.5 122.5 -46.5s47.5 -70.5 47.5 -118.5c0 -45.333 -16 -83.333 -48 -114s-72.667 -46 -122 -46h-200zM140 60l145.001 -0.000976562c32 0 57.5 9.16699 76.5 27.5s28.5 42.5 28.5 72.5
c0 32.667 -9.33301 58.334 -28 77.001s-44.334 28 -77.001 28h-145v-205z" />
    <glyph glyph-name="uni044C" unicode="&#x44c;" horiz-adv-x="505" 
d="M80 0v500h60v-175h160c50 0 90.833 -15.5 122.5 -46.5s47.5 -70.5 47.5 -118.5c0 -45.333 -16 -83.333 -48 -114s-72.667 -46 -122 -46h-220zM140 60l165.001 -0.000976562c32 0 57.5 9.16699 76.5 27.5s28.5 42.5 28.5 72.5c0 32.667 -9.33301 58.334 -28 77.001
s-44.334 28 -77.001 28h-165v-205z" />
    <glyph glyph-name="uni044D" unicode="&#x44d;" horiz-adv-x="535" 
d="M35 160l65 0.000976562c8 -26 24.833 -50.833 50.5 -74.5s60.5 -35.5 104.5 -35.5c46.667 0 85.834 15 117.501 45s50.167 71.667 55.5 125h-233v60h233c-5.33301 53.333 -23.833 95 -55.5 125s-70.834 45 -117.501 45c-44.667 0 -79.667 -11.333 -105 -34
s-42 -46.334 -50 -71.001h-65c12.667 50 38.667 90 78 120s86.666 45 141.999 45c69.333 0 125.833 -23.667 169.5 -71s65.5 -110.333 65.5 -189s-21.833 -141.667 -65.5 -189s-100.167 -71 -169.5 -71c-55.333 0 -102.666 15.167 -141.999 45.5s-65.333 71.833 -78 124.5z
" />
    <glyph glyph-name="uni044E" unicode="&#x44e;" horiz-adv-x="720" 
d="M80 0l0.00195312 500h60v-220h86c5.33301 69.333 29.166 125 71.499 167s93.166 63 152.499 63c64 0 117.5 -23.833 160.5 -71.5s64.5 -110.5 64.5 -188.5s-21.5 -140.833 -64.5 -188.5s-96.5 -71.5 -160.5 -71.5c-60 0 -111 20.833 -153 62.5s-65.667 97.5 -71 167.5
h-86v-220h-60zM450.002 50c46.667 0 85.834 18.167 117.501 54.5s47.5 84.833 47.5 145.5s-15.833 109.167 -47.5 145.5s-70.834 54.5 -117.501 54.5s-85.834 -18.167 -117.501 -54.5s-47.5 -84.833 -47.5 -145.5s15.833 -109.167 47.5 -145.5s70.834 -54.5 117.501 -54.5z
" />
    <glyph glyph-name="uni044F" unicode="&#x44f;" horiz-adv-x="515" 
d="M35 0l185.001 185h-10c-50 0 -90 14.667 -120 44s-45 68 -45 116c0 46 15.167 83.333 45.5 112s70.166 43 119.499 43h225v-500h-60v185h-80l-185 -185h-75zM210.001 245h165v195h-165c-32 0 -57.5 -8.66699 -76.5 -26s-28.5 -40.333 -28.5 -69
c0 -30 9.5 -54.167 28.5 -72.5s44.5 -27.5 76.5 -27.5z" />
    <glyph glyph-name="uni0450" unicode="&#x450;" horiz-adv-x="555" 
d="M105 280h345.001c-2.66699 50 -19.834 90.833 -51.501 122.5s-71.167 47.5 -118.5 47.5c-48 0 -87.833 -15.167 -119.5 -45.5s-50.167 -71.833 -55.5 -124.5zM430.001 140h65c-14.667 -41.333 -39.5 -76.666 -74.5 -105.999s-81.833 -44 -140.5 -44
c-69.333 0 -125.833 23.667 -169.5 71s-65.5 110.333 -65.5 189s21.833 141.667 65.5 189s100.167 71 169.5 71c66 0 120.833 -23.167 164.5 -69.5s65.5 -106.5 65.5 -180.5c0 -10 -0.666992 -19.667 -2 -29c-0.666992 -2.66699 -1 -6.33398 -1 -11.001h-402
c5.33301 -51.333 24.333 -92.5 57 -123.5s72 -46.5 118 -46.5c36.667 0 67.667 9 93 27s44.333 39 57 63zM250.001 585l-105 130h70l90 -130h-55z" />
    <glyph glyph-name="uni0451" unicode="&#x451;" horiz-adv-x="555" 
d="M105 280h345.001c-2.66699 50 -19.834 90.833 -51.501 122.5s-71.167 47.5 -118.5 47.5c-48 0 -87.833 -15.167 -119.5 -45.5s-50.167 -71.833 -55.5 -124.5zM430.001 140h65c-14.667 -41.333 -39.5 -76.666 -74.5 -105.999s-81.833 -44 -140.5 -44
c-69.333 0 -125.833 23.667 -169.5 71s-65.5 110.333 -65.5 189s21.833 141.667 65.5 189s100.167 71 169.5 71c66 0 120.833 -23.167 164.5 -69.5s65.5 -106.5 65.5 -180.5c0 -10 -0.666992 -19.667 -2 -29c-0.666992 -2.66699 -1 -6.33398 -1 -11.001h-402
c5.33301 -51.333 24.333 -92.5 57 -123.5s72 -46.5 118 -46.5c36.667 0 67.667 9 93 27s44.333 39 57 63zM155.001 615v70h70v-70h-70zM325.001 615v70h70v-70h-70z" />
    <glyph glyph-name="uni0452" unicode="&#x452;" horiz-adv-x="575" 
d="M85 0v560.002h-85v55h85v85h60v-85h170v-55h-170v-185h5c10 14.667 22 27 36 37c33.333 25.333 73 38 119 38c58 0 105.833 -19.5 143.5 -58.5s56.5 -89.5 56.5 -151.5v-290c0 -46 -13.833 -82.5 -41.5 -109.5s-65.5 -40.5 -113.5 -40.5h-50v60h50c30 0 53.333 8 70 24
s25 38 25 66v290c0 45.333 -13.5 81.666 -40.5 108.999s-61.833 41 -104.5 41c-45.333 0 -82.5 -14.333 -111.5 -43s-43.5 -64.334 -43.5 -107.001v-240h-60z" />
    <glyph glyph-name="uni0453" unicode="&#x453;" horiz-adv-x="410" 
d="M80 0v500h310v-60h-250v-440h-60zM205 585l90 130h70l-105 -130h-55z" />
    <glyph glyph-name="uni0454" unicode="&#x454;" horiz-adv-x="540" 
d="M107 280l233 -0.000976562v-60h-233c5.33301 -53.333 23.833 -95 55.5 -125s70.834 -45 117.501 -45c44 0 78.833 12 104.5 36s42.5 48.667 50.5 74h65c-12.667 -52.667 -38.667 -94.167 -78 -124.5s-86.666 -45.5 -141.999 -45.5c-69.333 0 -125.833 23.667 -169.5 71
s-65.5 110.333 -65.5 189s21.833 141.667 65.5 189s100.167 71 169.5 71c55.333 0 102.666 -15 141.999 -45s65.333 -70 78 -120h-65c-8 24.667 -24.833 48.334 -50.5 71.001s-60.5 34 -104.5 34c-46.667 0 -85.834 -15 -117.501 -45s-50.167 -71.667 -55.5 -125z" />
    <glyph glyph-name="uni0455" unicode="&#x455;" horiz-adv-x="470" 
d="M40 145l57.002 -0.000976562c0 -26.667 12.667 -49.167 38 -67.5s58.666 -27.5 99.999 -27.5c42.667 0 75 8 97 24s33 36.333 33 61c0 40.667 -28.333 66.667 -85 78l-100 20c-43.333 8.66699 -75.833 23.834 -97.5 45.501s-32.5 52.167 -32.5 91.5
s16.167 72.5 48.5 99.5s76.166 40.5 131.499 40.5c58 0 104.167 -14.833 138.5 -44.5s51.5 -66.5 51.5 -110.5h-60c0 26.667 -11.5 49.167 -34.5 67.5s-54.833 27.5 -95.5 27.5c-38 0 -67.5 -8 -88.5 -24s-31.5 -34.667 -31.5 -56c0 -42.667 26.667 -69.334 80 -80.001
l100 -20c48 -9.33301 82.5 -24.666 103.5 -45.999s31.5 -51 31.5 -89c0 -42 -16.667 -76.667 -50 -104s-80 -41 -140 -41c-58 0 -105 15.333 -141 46s-54 67 -54 109z" />
    <glyph glyph-name="uni0456" unicode="&#x456;" horiz-adv-x="230" 
d="M85 0v500h60v-500h-60zM80 615v70h70v-70h-70z" />
    <glyph glyph-name="uni0457" unicode="&#x457;" horiz-adv-x="220" 
d="M80 0v500h60v-500h-60zM-10 615v70h70v-70h-70zM160 615v70h70v-70h-70z" />
    <glyph glyph-name="uni0458" unicode="&#x458;" horiz-adv-x="230" 
d="M-30 -200v60h80c23.333 0 35 11.667 35 35v605h60v-615c0 -26 -8 -46.667 -24 -62s-38 -23 -66 -23h-85zM80 615v70h70v-70h-70z" />
    <glyph glyph-name="uni0459" unicode="&#x459;" horiz-adv-x="775" 
d="M0 -5l0.000976562 60h25c23.333 0 41 6 53 18s19.333 32.667 22 62l30 365h315v-205h135c49.333 0 88.333 -13.5 117 -40.5s43 -63.5 43 -109.5c0 -43.333 -14.333 -78.333 -43 -105s-67.667 -40 -117 -40h-195v440h-200l-25 -305c-4 -48 -16.833 -83.333 -38.5 -106
s-53.834 -34 -96.501 -34h-25zM445.001 60h140c29.333 0 52.5 7.66699 69.5 23s25.5 36 25.5 62c0 28 -8.33301 50 -25 66s-40 24 -70 24h-140v-175z" />
    <glyph glyph-name="uni045A" unicode="&#x45a;" horiz-adv-x="795" 
d="M80 0v500h60v-205h265v205h60v-205h135c49.333 0 88.333 -13.5 117 -40.5s43 -63.5 43 -109.5c0 -43.333 -14.333 -78.333 -43 -105s-67.667 -40 -117 -40h-195v235h-265v-235h-60zM465 60h140c29.333 0 52.5 7.66699 69.5 23s25.5 36 25.5 62c0 28 -8.33301 50 -25 66
s-40 24 -70 24h-140v-175z" />
    <glyph glyph-name="uni045B" unicode="&#x45b;" horiz-adv-x="575" 
d="M85 0v560.002h-85v55h85v85h60v-85h170v-55h-170v-185h5c10 14.667 22 27 36 37c33.333 25.333 73 38 119 38c58 0 105.833 -19.5 143.5 -58.5s56.5 -89.5 56.5 -151.5v-240h-60v240c0 45.333 -13.5 81.666 -40.5 108.999s-61.833 41 -104.5 41
c-45.333 0 -82.5 -14.333 -111.5 -43s-43.5 -64.334 -43.5 -107.001v-240h-60z" />
    <glyph glyph-name="uni045C" unicode="&#x45c;" horiz-adv-x="475" 
d="M80 0v500h60v-230l243 230h82l-260 -245l270 -255h-82l-253 240v-240h-60zM230 585l90 130h70l-105 -130h-55z" />
    <glyph glyph-name="uni045D" unicode="&#x45d;" horiz-adv-x="565" 
d="M80 0v500h60v-435h20l215 435h110v-500h-60v435h-20l-215 -435h-110zM255 585l-105 130h70l90 -130h-55z" />
    <glyph glyph-name="uni045E" unicode="&#x45e;" horiz-adv-x="470" 
d="M60 -200v60h85c11.333 0 19.833 2.66699 25.5 8s10.5 13.333 14.5 24l27 76l-202 532h60l160 -425h20l150 425h60l-225 -635c-16 -43.333 -46 -65 -90 -65h-85zM105 710h55c2.66699 -22 11 -39.167 25 -51.5s32.333 -18.5 55 -18.5s41 6.16699 55 18.5
s22.333 29.5 25 51.5h55c-2.66699 -37.333 -16.167 -66.666 -40.5 -87.999s-55.833 -32 -94.5 -32s-70.167 10.667 -94.5 32s-37.833 50.666 -40.5 87.999z" />
    <glyph glyph-name="uni045F" unicode="&#x45f;" 
d="M80 0v500h60v-440h280v440h60v-500h-170v-120h-60v120h-170z" />
    <glyph glyph-name="uni0462" unicode="&#x462;" horiz-adv-x="670" 
d="M150 0v540h-150v60h150v100h60v-100h190v-60h-190v-135h210c58 0 105.833 -19.167 143.5 -57.5s56.5 -87.5 56.5 -147.5c0 -57.333 -19 -105 -57 -143s-85.667 -57 -143 -57h-270zM210 60h210c40 0 73.333 13.333 100 40s40 60 40 100c0 42 -13.333 76.667 -40 104
s-60 41 -100 41h-210v-285z" />
    <glyph glyph-name="uni0463" unicode="&#x463;" horiz-adv-x="540" 
d="M120 0v440h-115v60h115v200h60v-200h145v-60h-145v-115h155c50 0 90.833 -15.5 122.5 -46.5s47.5 -70.5 47.5 -118.5c0 -45.333 -16 -83.333 -48 -114s-72.667 -46 -122 -46h-215zM180 60l160.001 -0.000976562c32 0 57.5 9.16699 76.5 27.5s28.5 42.5 28.5 72.5
c0 32.667 -9.33301 58.334 -28 77.001s-44.334 28 -77.001 28h-160v-205z" />
    <glyph glyph-name="uni046A" unicode="&#x46a;" horiz-adv-x="770" 
d="M45 0v60c0 96 24.5 173.333 73.5 232s114.833 94 197.5 106l-251 246v56h640v-56l-251 -246c82.667 -12 148.5 -47.333 197.5 -106s73.5 -136 73.5 -232v-60h-60v60c0 87.333 -23.5 155.833 -70.5 205.5s-106.833 74.5 -179.5 74.5v-340h-60v340
c-72.667 0 -132.5 -24.833 -179.5 -74.5s-70.5 -118.167 -70.5 -205.5v-60h-60zM145 640l240 -235l240 235h-480z" />
    <glyph glyph-name="uni046B" unicode="&#x46b;" horiz-adv-x="610" 
d="M302 275h5l165 165h-335zM95 0h-60c0 76.667 18.333 138.334 55 185.001s86.667 75 150 85l-175 175v55h480v-55l-175 -175c63.333 -10 113.333 -38.333 150 -85s55 -108.334 55 -185.001h-60c0 67.333 -16 120.333 -48 159s-76 59 -132 61v-220h-60v220
c-56 -2 -100 -22.333 -132 -61s-48 -91.667 -48 -159z" />
    <glyph glyph-name="uni0472" unicode="&#x472;" horiz-adv-x="770" 
d="M385 -10c-94 0 -172.5 33.5 -235.5 100.5s-94.5 153.5 -94.5 259.5s31.5 192.5 94.5 259.5s141.5 100.5 235.5 100.5s172.5 -33.5 235.5 -100.5s94.5 -153.5 94.5 -259.5s-31.5 -192.5 -94.5 -259.5s-141.5 -100.5 -235.5 -100.5zM653 320
c-44.667 -16.667 -87.332 -25 -127.999 -25c-29.333 0 -74.833 8.33301 -136.5 25s-109.5 25 -143.5 25c-41.333 0 -84.333 -8.33301 -129 -25c6.66699 -80.667 35.167 -145.834 85.5 -195.501s111.5 -74.5 183.5 -74.5c71.333 0 132.166 24.833 182.499 74.5
s78.833 114.834 85.5 195.501zM116.002 380c44.667 16.667 87.665 25 128.998 25c34 0 81.833 -8.33301 143.5 -25s107.167 -25 136.5 -25c40.667 0 83.334 8.33301 128.001 25c-6.66699 80.667 -35.167 145.834 -85.5 195.501s-111.166 74.5 -182.499 74.5
c-72 0 -133.167 -24.833 -183.5 -74.5s-78.833 -114.834 -85.5 -195.501z" />
    <glyph glyph-name="uni0473" unicode="&#x473;" 
d="M280 -10c-66 0 -121.667 24.333 -167 73s-68 111 -68 187s22.667 138.333 68 187s101 73 167 73s121.667 -24.333 167 -73s68 -111 68 -187s-22.667 -138.333 -68 -187s-101 -73 -167 -73zM107 216c6.66699 -49.333 26.3311 -89.333 58.998 -120s70.667 -46 114 -46
c45.333 0 84.333 16.167 117 48.5s51.667 74.833 57 127.5c-24 -10.667 -53.667 -16 -89 -16c-23.333 0 -51.666 3.33301 -84.999 10s-61.666 10 -84.999 10c-24.667 0 -54 -4.66699 -88 -14zM105.997 274c29.333 10.667 59.001 16 89.001 16
c23.333 0 51.666 -3.33301 84.999 -10s61.666 -10 84.999 -10c33.333 0 62.333 4.66699 87 14c-6.66699 49.333 -26.167 89.333 -58.5 120s-70.166 46 -113.499 46c-45.333 0 -84.333 -16.167 -117 -48.5s-51.667 -74.833 -57 -127.5z" />
    <glyph glyph-name="uni0474" unicode="&#x474;" horiz-adv-x="660" 
d="M265 0l-255.002 700h63l232 -640h20l181 500c18.667 51.333 37.5 87.5 56.5 108.5s41.5 31.5 67.5 31.5c14 0 25.333 -1.66699 34 -5l11 -5v-60l-8 5c-8 3.33301 -17 5 -27 5c-15.333 0 -28.166 -5.83301 -38.499 -17.5s-21.166 -32.5 -32.499 -62.5l-204 -560h-100z" />
    <glyph glyph-name="uni0475" unicode="&#x475;" horiz-adv-x="505" 
d="M195 0l-185 500.001h60l160 -435h20l118 320c15.333 40.667 31.5 70 48.5 88s36.5 27 58.5 27c12.667 0 23 -1.66699 31 -5c4 -2.66699 7 -4.33398 9 -5.00098v-57l-8 3c-4.66699 2.66699 -12 4 -22 4c-24 0 -43 -18.333 -57 -55l-143 -385h-90z" />
    <glyph glyph-name="uni048A" unicode="&#x48a;" horiz-adv-x="715" 
d="M225 905h55c2.66699 -22 11 -39.167 25 -51.5s32.333 -18.5 55 -18.5s41 6.16699 55 18.5s22.333 29.5 25 51.5h55c-2.66699 -37.333 -16.167 -66.666 -40.5 -87.999s-55.833 -32 -94.5 -32s-70.167 10.667 -94.5 32s-37.833 50.666 -40.5 87.999zM90 0v700h60v-635h20
l345 635h110v-640h90v-15l-60 -185h-45l30 140h-75v635h-20l-345 -635h-110z" />
    <glyph glyph-name="uni048B" unicode="&#x48b;" horiz-adv-x="575" 
d="M150 710h55c2.66699 -22 11 -39.167 25 -51.5s32.333 -18.5 55 -18.5s41 6.16699 55 18.5s22.333 29.5 25 51.5h55c-2.66699 -37.333 -16.167 -66.666 -40.5 -87.999s-55.833 -32 -94.5 -32s-70.167 10.667 -94.5 32s-37.833 50.666 -40.5 87.999zM80 0v500h60v-435h20
l215 435h110v-440h85v-10l-50 -170h-45l25 120h-75v435h-20l-215 -435h-110z" />
    <glyph glyph-name="uni048C" unicode="&#x48c;" horiz-adv-x="670" 
d="M150 0v540h-150v60h150v100h60v-100h190v-60h-190v-135h210c58 0 105.833 -19.167 143.5 -57.5s56.5 -87.5 56.5 -147.5c0 -57.333 -19 -105 -57 -143s-85.667 -57 -143 -57h-270zM210 60h210c40 0 73.333 13.333 100 40s40 60 40 100c0 42 -13.333 76.667 -40 104
s-60 41 -100 41h-210v-285z" />
    <glyph glyph-name="uni048D" unicode="&#x48d;" horiz-adv-x="540" 
d="M120 0v440h-115v60h115v200h60v-200h145v-60h-145v-115h155c50 0 90.833 -15.5 122.5 -46.5s47.5 -70.5 47.5 -118.5c0 -45.333 -16 -83.333 -48 -114s-72.667 -46 -122 -46h-215zM180 60l160.001 -0.000976562c32 0 57.5 9.16699 76.5 27.5s28.5 42.5 28.5 72.5
c0 32.667 -9.33301 58.334 -28 77.001s-44.334 28 -77.001 28h-160v-205z" />
    <glyph glyph-name="uni048E" unicode="&#x48e;" horiz-adv-x="640" 
d="M90 0v699.999h290c58 0 106.667 -20.333 146 -61s59 -92 59 -154c0 -75.333 -27 -132.666 -81 -171.999l46 -63l-45 -30l-48 68c-22 -8.66699 -47.667 -13 -77 -13h-230v-275h-60zM150 334.999l230 -0.000976562c12 0 25.333 1.66699 40 5l-50 70l45 30l54 -77
c37.333 28.667 56 69.334 56 122.001c0 47.333 -13.333 85 -40 113s-61.667 42 -105 42h-230v-305z" />
    <glyph glyph-name="uni048F" unicode="&#x48f;" horiz-adv-x="585" 
d="M80 -200v700.002h50l10 -80h5c13.333 21.333 34.666 41.666 63.999 60.999s64.666 29 105.999 29c64 0 117.5 -23.833 160.5 -71.5s64.5 -110.5 64.5 -188.5c0 -81.333 -23 -146 -69 -194l49 -66l-45 -30l-46 62c-33.333 -21.333 -71.333 -32 -114 -32
c-41.333 0 -76.666 9.66699 -105.999 29s-50.666 39.666 -63.999 60.999h-5v-280h-60zM393 72.002l-53.001 72.999l45 30l49 -68c30.667 38.667 46 86.334 46 143.001c0 61.333 -16 110 -48 146s-72.667 54 -122 54s-90 -18 -122 -54s-48 -84.667 -48 -146s16 -110 48 -146
s72.667 -54 122 -54c30.667 0 58.334 7.33301 83.001 22z" />
    <glyph glyph-name="uni0490" unicode="&#x490;" horiz-adv-x="540" 
d="M90 0v700h370v140h60v-200h-370v-640h-60z" />
    <glyph glyph-name="uni0491" unicode="&#x491;" horiz-adv-x="420" 
d="M80 0v500h260v120h60v-180h-260v-440h-60z" />
    <glyph glyph-name="uni0492" unicode="&#x492;" horiz-adv-x="550" 
d="M105 0v325h-85v60h85v315h420v-60h-360v-255h195v-60h-195v-325h-60z" />
    <glyph glyph-name="uni0493" unicode="&#x493;" horiz-adv-x="415" 
d="M85 0v220h-70v60h70v220h310v-60h-250v-160h180v-60h-180v-220h-60z" />
    <glyph glyph-name="uni0494" unicode="&#x494;" horiz-adv-x="610" 
d="M90 0v699.999h430v-60h-370v-294c11.333 6.66699 26.333 14 45 22c38.667 14.667 78.667 22 120 22c74.667 0 134.167 -23.167 178.5 -69.5s66.5 -108.166 66.5 -185.499s-22 -138.333 -66 -183s-103.667 -67 -179 -67v60c54.667 0 99.167 17.333 133.5 52
s51.5 80.667 51.5 138c0 60 -16.667 107.5 -50 142.5s-78.333 52.5 -135 52.5c-44 0 -84.667 -8 -122 -24c-16 -6.66699 -30.333 -14.667 -43 -24v-282h-60z" />
    <glyph glyph-name="uni0495" unicode="&#x495;" horiz-adv-x="495" 
d="M265 -200v59.9971c41.333 0 75 15.833 101 47.5s39 75.834 39 132.501c0 54.667 -13.5 97.5 -40.5 128.5s-63.5 46.5 -109.5 46.5c-26.667 0 -54 -6 -82 -18c-10 -4 -21 -9.66699 -33 -17v-180h-60v500h310v-60h-250v-200c10 6.66699 20.667 12.334 32 17.001
c28 12 57.333 18 88 18c58.667 0 107.5 -21.5 146.5 -64.5s58.5 -99.833 58.5 -170.5c0 -73.333 -18.667 -131.666 -56 -174.999s-85.333 -65 -144 -65z" />
    <glyph glyph-name="uni0496" unicode="&#x496;" horiz-adv-x="815" 
d="M5 0l299 355l-279 345h75l270 -335v335h60v-335l270 335h75l-279 -345l248 -295h71v-200h-60v140h-35l-290 345v-345h-60v345l-290 -345h-75z" />
    <glyph glyph-name="uni0497" unicode="&#x497;" horiz-adv-x="645" 
d="M0 0l220 255l-205 245h74l196 -235v235h60v-235l196 235h74l-205 -245l168 -195h67v-180h-60v120h-29l-211 245v-245h-60v245l-211 -245h-74z" />
    <glyph glyph-name="uni0498" unicode="&#x498;" horiz-adv-x="605" 
d="M266 -140v131.001c-69.333 5.33301 -123.5 26.5 -162.5 63.5s-58.5 82.167 -58.5 135.5h60c0 -39.333 16.667 -72.5 50 -99.5s80 -40.5 140 -40.5c57.333 0 103.333 14 138 42s52 60.667 52 98c0 36 -14.667 66.667 -44 92s-68 38 -116 38h-80v60h80
c41.333 0 75.833 12.833 103.5 38.5s41.5 56.167 41.5 91.5c0 38.667 -16 71.667 -48 99s-74.333 41 -127 41s-95 -13.667 -127 -41s-48 -60.333 -48 -99h-60c0 56 21.667 103.333 65 142s100 58 170 58s126.667 -19.333 170 -58s65 -86 65 -142
c0 -49.333 -18.333 -90.333 -55 -123c-18 -14.667 -36.333 -25.334 -55 -32.001v-5c23.333 -8 44 -19 62 -33c42 -32.667 63 -75 63 -127c0 -53.333 -19.5 -98.5 -58.5 -135.5s-92.5 -58.167 -160.5 -63.5v-131h-60z" />
    <glyph glyph-name="uni0499" unicode="&#x499;" horiz-adv-x="460" 
d="M195 -120l0.000976562 112.002c-50.667 5.33301 -90 22.666 -118 51.999s-42 66.333 -42 111h60c0 -31.333 11.333 -56.666 34 -75.999s54.667 -29 96 -29c42.667 0 75 8 97 24s33 36.333 33 61c0 27.333 -10.833 49.166 -32.5 65.499s-54.167 24.5 -97.5 24.5h-40v55h45
c36 0 64.167 8.16699 84.5 24.5s30.5 36.5 30.5 60.5s-10.5 44.167 -31.5 60.5s-50.5 24.5 -88.5 24.5c-36.667 0 -65.834 -9.5 -87.501 -28.5s-32.5 -42.833 -32.5 -71.5h-60c0 46 16.5 84.167 49.5 114.5s76.5 45.5 130.5 45.5c56 0 100 -13.833 132 -41.5
s48 -62.167 48 -103.5c0 -35.333 -13.333 -64.333 -40 -87c-12.667 -10.667 -26 -18.334 -40 -23.001v-5c6.66699 -2 14.167 -5.16699 22.5 -9.5s18 -10.833 29 -19.5s20.167 -20.5 27.5 -35.5s11 -31.833 11 -50.5c0 -38.667 -13.833 -71 -41.5 -97
s-67.167 -41.333 -118.5 -46v-112h-60z" />
    <glyph glyph-name="uni049A" unicode="&#x49a;" horiz-adv-x="580" 
d="M90 0v700h60v-330l315 330h80l-330 -345l291 -295h74v-200h-60v140h-35l-335 340v-340h-60z" />
    <glyph glyph-name="uni049B" unicode="&#x49b;" horiz-adv-x="475" 
d="M80 0v500h60v-230l243 230h82l-260 -245l206 -195h64v-180h-60v120h-22l-253 240v-240h-60z" />
    <glyph glyph-name="uni049C" unicode="&#x49c;" horiz-adv-x="595" 
d="M80 0v700h60v-320h55v120h60v-120h40l213 320h67l-230 -345l250 -355h-75l-225 320h-40v-110h-60v110h-55v-320h-60z" />
    <glyph glyph-name="uni049D" unicode="&#x49d;" horiz-adv-x="495" 
d="M80 0v500h60v-215h40v85h55v-85h31l149 215h75l-170 -245l175 -255h-75l-154 225h-31v-85h-55v85h-40v-225h-60z" />
    <glyph glyph-name="uni049E" unicode="&#x49e;" horiz-adv-x="565" 
d="M90 0v550h-90v60h90v90h60v-90h80v-60h-80v-180l315 330h80l-330 -345l350 -355h-80l-335 340v-340h-60z" />
    <glyph glyph-name="uni049F" unicode="&#x49f;" horiz-adv-x="480" 
d="M85 0v555h-85v55h85v90h60v-90h115v-55h-115v-285l243 230h82l-260 -245l270 -255h-82l-253 240v-240h-60z" />
    <glyph glyph-name="uni04A0" unicode="&#x4a0;" horiz-adv-x="585" 
d="M110 0v640h-110v60h170v-330l315 330h80l-330 -345l350 -355h-80l-335 340v-340h-60z" />
    <glyph glyph-name="uni04A1" unicode="&#x4a1;" horiz-adv-x="495" 
d="M100 0v440h-100v60h160v-230l243 230h82l-260 -245l270 -255h-82l-253 240v-240h-60z" />
    <glyph glyph-name="uni04A2" unicode="&#x4a2;" horiz-adv-x="735" 
d="M90 0v700h60v-315h415v315h60v-640h80v-200h-60v140h-80v325h-415v-325h-60z" />
    <glyph glyph-name="uni04A3" unicode="&#x4a3;" horiz-adv-x="580" 
d="M80 0v500h60v-220h285v220h60v-440h75v-180h-60v120h-75v220h-285v-220h-60z" />
    <glyph glyph-name="uni04A4" unicode="&#x4a4;" horiz-adv-x="970" 
d="M90 0v700h60v-315h395v315h405v-60h-345v-640h-60v325h-395v-325h-60z" />
    <glyph glyph-name="uni04A5" unicode="&#x4a5;" horiz-adv-x="720" 
d="M80 0v500h60v-220h270v220h290v-60h-230v-440h-60v220h-270v-220h-60z" />
    <glyph glyph-name="uni04A6" unicode="&#x4a6;" horiz-adv-x="1035" 
d="M90 0l0.00195312 699.998h485v-352c11.333 6.66699 25.333 13.667 42 21c34.667 14 74 21 118 21c74.667 0 135 -23.167 181 -69.5s69 -108.166 69 -185.499s-22 -138.333 -66 -183s-103.667 -67 -179 -67v60c54.667 0 99.167 17.333 133.5 52s51.5 80.667 51.5 138
c0 60 -17.167 107.5 -51.5 142.5s-80.5 52.5 -138.5 52.5c-38.667 0 -77.334 -8.33301 -116.001 -25c-12.667 -5.33301 -27.334 -13.666 -44.001 -24.999v-280h-60v640h-365v-640h-60z" />
    <glyph glyph-name="uni04A7" unicode="&#x4a7;" horiz-adv-x="800" 
d="M80 0l-0.000976562 499.999h365v-260c10 6.66699 20.667 12.334 32 17.001c28 12 57.333 18 88 18c58.667 0 107.5 -21.5 146.5 -64.5s58.5 -99.833 58.5 -170.5c0 -73.333 -18.667 -131.666 -56 -174.999s-85.333 -65 -144 -65v60c39.333 0 72.5 16.167 99.5 48.5
s40.5 76.166 40.5 131.499c0 53.333 -14.167 95.833 -42.5 127.5s-64.166 47.5 -107.499 47.5c-8 0 -15.833 -0.5 -23.5 -1.5s-14.667 -2.33301 -21 -4s-12.666 -3.66699 -18.999 -6s-11.833 -4.5 -16.5 -6.5s-9.16699 -4.16699 -13.5 -6.5s-7.83301 -4.33301 -10.5 -6
s-5.33398 -3.16699 -8.00098 -4.5l-3 -3v-177h-60v440h-245v-440h-60z" />
    <glyph glyph-name="uni04A8" unicode="&#x4a8;" horiz-adv-x="785" 
d="M520 85c44 23.333 80 59.832 108 109.499s42 104.834 42 165.501c0 68.667 -15.167 122.5 -45.5 161.5s-66.833 58.5 -109.5 58.5s-79.167 -19.5 -109.5 -58.5s-45.5 -92.833 -45.5 -161.5c0 -60.667 14.667 -116 44 -166s68 -86.333 116 -109zM685 49.999
l-0.00195312 -60c-46 0 -86.667 5 -122 15c-16.667 4 -31 9 -43 15c-12.667 -6 -26 -11 -40 -15c-31.333 -10 -64.666 -15 -99.999 -15c-92 0 -169.167 33.5 -231.5 100.5s-93.5 153.5 -93.5 259.5c0 105.333 30.667 191.666 92 258.999s135.666 101 222.999 101v-60
c-69.333 0 -129.166 -28.167 -179.499 -84.5s-75.5 -128.166 -75.5 -215.499c0 -88 25.667 -160 77 -216s114 -84 188 -84c16.667 0 33.334 1.66699 50.001 5c6 0.666992 12.667 2.33398 20 5.00098c-100 68 -150 168 -150 300c0 86.667 20.667 155 62 205s92.333 75 153 75
s111.667 -25 153 -75s62 -118.333 62 -205c0 -132 -50 -232 -150 -300c11.333 -2.66699 21.333 -4.33398 30 -5.00098c21.333 -3.33301 46.333 -5 75 -5z" />
    <glyph glyph-name="uni04A9" unicode="&#x4a9;" 
d="M375 85c23.333 18.667 42.5 43.332 57.5 73.999s22.5 64.334 22.5 101.001c0 40 -7.83301 70.833 -23.5 92.5s-34.5 32.5 -56.5 32.5s-40.833 -10.833 -56.5 -32.5s-23.5 -52.5 -23.5 -92.5c0 -80 26.667 -138.333 80 -175zM495 49.998v-60
c-42 0 -80.333 8.33301 -115 25c-34.667 -16.667 -68 -25 -100 -25c-66 0 -121.667 24.333 -167 73s-68 111 -68 187c0 76.667 21.833 139.167 65.5 187.5s98.5 72.5 164.5 72.5v-60c-46.667 0 -86.667 -18.333 -120 -55s-50 -85 -50 -145c0 -58.667 17 -106.667 51 -144
s75.333 -56 124 -56c10 0 19.667 0.666992 29 2l11 3c-26 22.667 -46.667 52.167 -62 88.5s-23 75.166 -23 116.499c0 57.333 13.5 102.5 40.5 135.5s60.167 49.5 99.5 49.5s72.5 -16.5 99.5 -49.5s40.5 -78.167 40.5 -135.5c0 -41.333 -7.66699 -80.166 -23 -116.499
s-36 -65.833 -62 -88.5c9.33301 -3.33301 31 -5 65 -5z" />
    <glyph glyph-name="uni04AA" unicode="&#x4aa;" horiz-adv-x="735" 
d="M355 -140l0.000976562 132.003c-86.667 6.66699 -158.334 43 -215.001 109s-85 149 -85 249c0 106 31.5 192.5 94.5 259.5s141.5 100.5 235.5 100.5c80 0 146.5 -23.833 199.5 -71.5s88.167 -102.167 105.5 -163.5h-65c-5.33301 13.333 -11.333 26.5 -18 39.5
s-17 28.167 -31 45.5s-29.167 32.166 -45.5 44.499s-37.333 23 -63 32s-53.167 13.5 -82.5 13.5c-76.667 0 -140.834 -27.833 -192.501 -83.5s-77.5 -127.834 -77.5 -216.501s25.833 -160.834 77.5 -216.501s115.834 -83.5 192.501 -83.5c37.333 0 71.333 6.66699 102 20
s55.167 30.5 73.5 51.5s32.333 40.167 42 57.5s17.167 34.333 22.5 51h65c-16.667 -59.333 -49 -112.333 -97 -159s-107.333 -73 -178 -79v-132h-60z" />
    <glyph glyph-name="uni04AB" unicode="&#x4ab;" horiz-adv-x="540" 
d="M255 -120l0.00390625 111c-62.667 5.33301 -113.334 31.5 -152.001 78.5s-58 107.167 -58 180.5c0 78.667 21.833 141.667 65.5 189s100.167 71 169.5 71c55.333 0 102.666 -15.167 141.999 -45.5s65.333 -71.833 78 -124.5h-65c-7.33301 26.667 -23.833 51.667 -49.5 75
s-60.834 35 -105.501 35c-51.333 0 -93.333 -18 -126 -54s-49 -84.667 -49 -146s16.333 -110 49 -146s74.667 -54 126 -54c44 0 79 12.333 105 37s42.667 50.667 50 78h65c-11.333 -49.333 -33.333 -88.833 -66 -118.5s-72.334 -47.5 -119.001 -53.5v-113h-60z" />
    <glyph glyph-name="uni04AC" unicode="&#x4ac;" horiz-adv-x="600" 
d="M350 -140v140h-80v640h-240v60h540v-60h-240v-580h80v-200h-60z" />
    <glyph glyph-name="uni04AD" unicode="&#x4ad;" horiz-adv-x="440" 
d="M265 -120v120h-75v440h-170v60h400v-60h-170v-380h75v-180h-60z" />
    <glyph glyph-name="uni04AE" unicode="&#x4ae;" horiz-adv-x="590" 
d="M265 0v263l-260 437h67l213 -360h20l213 360h67l-260 -437v-263h-60z" />
    <glyph glyph-name="uni04AF" unicode="&#x4af;" horiz-adv-x="480" 
d="M210 -200v200h-14l-186 500h60l160 -430h20l160 430h60l-186 -500h-14v-200h-60z" />
    <glyph glyph-name="uni04B0" unicode="&#x4b0;" horiz-adv-x="590" 
d="M265 0v260h-150v60h116l-226 380h67l213 -360h20l213 360h67l-226 -380h116v-60h-150v-260h-60z" />
    <glyph glyph-name="uni04B1" unicode="&#x4b1;" horiz-adv-x="480" 
d="M210 -200v200h-105v60h70l-165 440h60l160 -430h20l160 430h60l-165 -440h70v-60h-105v-200h-60z" />
    <glyph glyph-name="uni04B2" unicode="&#x4b2;" horiz-adv-x="615" 
d="M10 0l243 360l-228 340h70l195 -290h20l195 290h70l-228 -340l202 -300h66v-200h-60v140h-35l-210 310h-20l-210 -310h-70z" />
    <glyph glyph-name="uni04B3" unicode="&#x4b3;" horiz-adv-x="475" 
d="M10 0l168 255l-163 245h70l135 -205h20l135 205h70l-163 -245l128 -195h65v-180h-60v120h-35l-140 215h-20l-140 -215h-70z" />
    <glyph glyph-name="uni04B4" unicode="&#x4b4;" horiz-adv-x="855" 
d="M235 0v640h-220v60h500v-60h-220v-580h390v640h60v-640h80v-200h-60v140h-530z" />
    <glyph glyph-name="uni04B5" unicode="&#x4b5;" horiz-adv-x="655" 
d="M165 0v440h-155v60h355v-60h-140v-380h275v440h60v-440h75v-180h-60v120h-410z" />
    <glyph glyph-name="uni04B6" unicode="&#x4b6;" horiz-adv-x="695" 
d="M605 -140l-0.000976562 140.002h-80v310c-21.333 -14.667 -41.666 -26.334 -60.999 -35.001c-48 -23.333 -99.333 -35 -154 -35c-156.667 0 -235 81.667 -235 245v215h60v-215c0 -65.333 14 -112.5 42 -141.5s72.333 -43.5 133 -43.5c57.333 0 110 12.333 158 37
c22.667 11.333 41.667 23.666 57 36.999v326h60v-640h80v-200h-60z" />
    <glyph glyph-name="uni04B7" unicode="&#x4b7;" horiz-adv-x="550" 
d="M470 -120v120h-75v203c-43.333 -28.667 -93.333 -43 -150 -43c-58 0 -102.5 15.833 -133.5 47.5s-46.5 77.5 -46.5 137.5v155h60v-155c0 -83.333 41.667 -125 125 -125c56.667 0 105 15 145 45v235h60v-440h75v-180h-60z" />
    <glyph glyph-name="uni04B8" unicode="&#x4b8;" horiz-adv-x="675" 
d="M300 135l0.000976562 104.998c-150 3.33301 -225 85 -225 245v215h60v-215c0 -63.333 13.167 -109.666 39.5 -138.999s68.166 -44.666 125.499 -45.999v140h60v-137c44 6.66699 84.667 20.667 122 42c14.667 8 29 17.667 43 29v326h60v-700h-60v310
c-12.667 -9.33301 -27.667 -18.333 -45 -27c-39.333 -20 -79.333 -33.333 -120 -40v-108h-60z" />
    <glyph glyph-name="uni04B9" unicode="&#x4b9;" horiz-adv-x="535" 
d="M235 95v65c-54.667 1.33301 -96.667 18 -126 50s-44 77 -44 135v155h60v-155c0 -78 36.667 -119.667 110 -125v96h55v-94c40 6 75 20.333 105 43v235h60v-500h-60v203c-28 -20 -63 -33.333 -105 -40v-68h-55z" />
    <glyph glyph-name="uni04BA" unicode="&#x4ba;" horiz-adv-x="670" 
d="M90 0l0.000976562 700h60v-310c16 11.333 36.333 23 61 35c53.333 23.333 104.666 35 153.999 35c156.667 0 235 -81.667 235 -245v-215h-60v215c0 65.333 -14 112.5 -42 141.5s-72.333 43.5 -133 43.5c-56 0 -108.667 -12.667 -158 -38c-20 -10 -39 -22.333 -57 -37
v-325h-60z" />
    <glyph glyph-name="uni04BB" unicode="&#x4bb;" horiz-adv-x="585" 
d="M85 0v700.002h60v-265h5c10 14.667 22 27 36 37c33.333 25.333 73 38 119 38c58 0 105.833 -19.5 143.5 -58.5s56.5 -89.5 56.5 -151.5v-300h-60v300c0 45.333 -13.5 81.666 -40.5 108.999s-61.833 41 -104.5 41c-45.333 0 -82.5 -14.333 -111.5 -43
s-43.5 -64.334 -43.5 -107.001v-300h-60z" />
    <glyph glyph-name="uni04BC" unicode="&#x4bc;" horiz-adv-x="825" 
d="M180 380l530 0.000976562c-2.66699 80 -29.167 145 -79.5 195s-110.5 75 -180.5 75c-71.333 0 -132.5 -24.833 -183.5 -74.5s-79.833 -114.834 -86.5 -195.501zM0 415.001l-0.00195312 35.001h60v-20c0 -33.333 16.667 -50 50 -50h10c6.66699 98 41 177.5 103 238.5
s137.667 91.5 227 91.5c90.667 0 166.667 -32.333 228 -97s92 -145.667 92 -243v-50h-590c6.66699 -78.667 34.834 -143.334 84.501 -194.001s111.5 -76 185.5 -76c53.333 0 101.833 14.333 145.5 43s75.834 67.667 96.501 117h65
c-24 -67.333 -63.833 -120.833 -119.5 -160.5s-118.167 -59.5 -187.5 -59.5c-89.333 0 -165 30.5 -227 91.5s-96.333 140.5 -103 238.5h-20c-32 0 -56.667 8.33301 -74 25s-26 40 -26 70z" />
    <glyph glyph-name="uni04BD" unicode="&#x4bd;" horiz-adv-x="610" 
d="M0 305l0.000976562 25.001h55v-10c0 -15.333 2.66699 -25.833 8 -31.5s14.333 -8.5 27 -8.5h11c5.33301 70 29.666 125.833 72.999 167.5s97 62.5 161 62.5c66 0 120.833 -23.167 164.5 -69.5s65.5 -106.5 65.5 -180.5c0 -10 -0.666992 -19.667 -2 -29
c-0.666992 -2.66699 -1 -6.33398 -1 -11.001h-402c5.33301 -51.333 24.333 -92.5 57 -123.5s72 -46.5 118 -46.5c36.667 0 67.667 9 93 27s44.333 39 57 63h65c-15.333 -40 -40.333 -75 -75 -105s-81.334 -45 -140.001 -45c-64 0 -117.667 20.667 -161 62
s-67.666 97.333 -72.999 168h-16c-56.667 0 -85 28.333 -85 85zM160.001 280.001h345.001c-2.66699 50 -19.834 90.833 -51.501 122.5s-71.167 47.5 -118.5 47.5c-48 0 -87.833 -15.167 -119.5 -45.5s-50.167 -71.833 -55.5 -124.5z" />
    <glyph glyph-name="uni04BE" unicode="&#x4be;" horiz-adv-x="825" 
d="M420 -140l-0.00390625 131.997c-82 6.66699 -151.167 39.834 -207.5 99.501s-87.166 135.834 -92.499 228.501h-20c-32 0 -56.667 8.33301 -74 25s-26 40 -26 70v35h60v-20c0 -33.333 16.667 -50 50 -50h10c6.66699 98 41 177.5 103 238.5s137.667 91.5 227 91.5
c90.667 0 166.667 -32.333 228 -97s92 -145.667 92 -243v-50h-590c6.66699 -78.667 34.834 -143.334 84.501 -194.001s111.5 -76 185.5 -76c53.333 0 101.833 14.333 145.5 43s75.834 67.667 96.501 117h65c-23.333 -63.333 -59.166 -114.166 -107.499 -152.499
s-104.833 -60.166 -169.5 -65.499v-132h-60zM179.996 379.997l530 0.000976562c-2.66699 80 -29.167 145 -79.5 195s-110.5 75 -180.5 75c-71.333 0 -132.5 -24.833 -183.5 -74.5s-79.833 -114.834 -86.5 -195.501z" />
    <glyph glyph-name="uni04BF" unicode="&#x4bf;" horiz-adv-x="610" 
d="M310 -120l0.00195312 111.001c-58.667 5.33301 -106.834 28.333 -144.501 69s-59.167 94 -64.5 160h-16c-56.667 0 -85 28.333 -85 85v25h55v-10c0 -15.333 2.66699 -25.833 8 -31.5s14.333 -8.5 27 -8.5h11c5.33301 70 29.666 125.833 72.999 167.5s97 62.5 161 62.5
c66 0 120.833 -23.167 164.5 -69.5s65.5 -106.5 65.5 -180.5c0 -10 -0.666992 -19.667 -2 -29c-0.666992 -2.66699 -1 -6.33398 -1 -11.001h-402c5.33301 -51.333 24.333 -92.5 57 -123.5s72 -46.5 118 -46.5c36.667 0 67.667 9 93 27s44.333 39 57 63h65
c-36 -88 -96 -137 -180 -147v-113h-60zM160.002 280.001h345.001c-2.66699 50 -19.834 90.833 -51.501 122.5s-71.167 47.5 -118.5 47.5c-48 0 -87.833 -15.167 -119.5 -45.5s-50.167 -71.833 -55.5 -124.5z" />
    <glyph glyph-name="uni04C0" unicode="&#x4c0;" horiz-adv-x="240" 
d="M90 0v700h60v-700h-60z" />
    <glyph glyph-name="uni04C1" unicode="&#x4c1;" horiz-adv-x="800" 
d="M5 0l299 355l-279 345h75l270 -335v335h60v-335l270 335h75l-279 -345l299 -355h-75l-290 345v-345h-60v345l-290 -345h-75zM265 905h55c2.66699 -22 11 -39.167 25 -51.5s32.333 -18.5 55 -18.5s41 6.16699 55 18.5s22.333 29.5 25 51.5h55
c-2.66699 -37.333 -16.167 -66.666 -40.5 -87.999s-55.833 -32 -94.5 -32s-70.167 10.667 -94.5 32s-37.833 50.666 -40.5 87.999z" />
    <glyph glyph-name="uni04C2" unicode="&#x4c2;" horiz-adv-x="630" 
d="M0 0l220 255l-205 245h74l196 -235v235h60v-235l196 235h74l-205 -245l220 -255h-74l-211 245v-245h-60v245l-211 -245h-74zM180 710h55c2.66699 -22 11 -39.167 25 -51.5s32.333 -18.5 55 -18.5s41 6.16699 55 18.5s22.333 29.5 25 51.5h55
c-2.66699 -37.333 -16.167 -66.666 -40.5 -87.999s-55.833 -32 -94.5 -32s-70.167 10.667 -94.5 32s-37.833 50.666 -40.5 87.999z" />
    <glyph glyph-name="uni04C3" unicode="&#x4c3;" horiz-adv-x="610" 
d="M90 0l-0.00195312 700h60v-330l315 330h80l-281 -294l14 2c10.667 1.33301 21.334 2 32.001 2c78.667 0 140 -22.667 184 -68s66 -109.333 66 -192c0 -84.667 -21.667 -150 -65 -196s-103.333 -69 -180 -69v60c56.667 0 101.667 18 135 54s50 86.333 50 151
c0 62 -17 110.833 -51 146.5s-80.333 53.5 -139 53.5c-41.333 0 -80.666 -8.33301 -117.999 -25c-15.333 -6 -29.333 -14.333 -42 -25v-300h-60z" />
    <glyph glyph-name="uni04C4" unicode="&#x4c4;" horiz-adv-x="505" 
d="M245 -200l0.000976562 59.999c54 0 96.667 16.5 128 49.5s47 81.5 47 145.5c0 54.667 -14.833 97.5 -44.5 128.5s-69.834 46.5 -120.501 46.5c-29.333 0 -57.333 -6 -84 -18c-10 -4 -20.333 -9.66699 -31 -17v-195h-60v500h60v-230l243 230h82l-224 -211h6
c0.666992 0 2.5 0.166992 5.5 0.5s5.5 0.5 7.5 0.5c64 0 116.667 -21 158 -63s62 -99.333 62 -172c0 -79.333 -21 -141.666 -63 -186.999s-99.333 -68 -172 -68z" />
    <glyph glyph-name="uni04C5" unicode="&#x4c5;" horiz-adv-x="675" 
d="M0 -5l-0.000976562 60.001h30c26 0 46.833 7.66699 62.5 23s24.834 37.666 27.501 66.999l47 555h418v-640h90v-15l-60 -185h-45l30 140h-75v640h-303l-42 -495c-9.33301 -100 -59.333 -150 -150 -150h-30z" />
    <glyph glyph-name="uni04C6" unicode="&#x4c6;" horiz-adv-x="540" 
d="M0 -5l0.000976562 60h25c23.333 0 41 6 53 18s19.333 32.667 22 62l30 365h325v-440h85v-10l-50 -170h-45l25 120h-75v440h-210l-25 -305c-4 -48 -16.833 -83.333 -38.5 -106s-53.834 -34 -96.501 -34h-25z" />
    <glyph glyph-name="uni04C7" unicode="&#x4c7;" horiz-adv-x="715" 
d="M90 0v700h60v-315h415v315h60v-760c0 -93.333 -46.667 -140 -140 -140h-15v60h15c53.333 0 80 26.667 80 80v385h-415v-325h-60z" />
    <glyph glyph-name="uni04C8" unicode="&#x4c8;" horiz-adv-x="565" 
d="M80 0v500h60v-220h285v220h60v-555c0 -50 -11.333 -86.667 -34 -110s-58 -35 -106 -35h-10v60h10c28 0 48.333 6.66699 61 20s19 35 19 65v275h-285v-220h-60z" />
    <glyph glyph-name="uni04C9" unicode="&#x4c9;" horiz-adv-x="715" 
d="M90 0v700h60v-315h415v315h60v-640h90v-15l-60 -185h-45l30 140h-75v325h-415v-325h-60z" />
    <glyph glyph-name="uni04CA" unicode="&#x4ca;" horiz-adv-x="570" 
d="M80 0v500h60v-220h285v220h60v-440h85v-10l-50 -170h-45l25 120h-75v220h-285v-220h-60z" />
    <glyph glyph-name="uni04CB" unicode="&#x4cb;" horiz-adv-x="675" 
d="M445 -140l-0.000976562 200.002h80v250c-21.333 -14.667 -41.666 -26.334 -60.999 -35.001c-48 -23.333 -99.333 -35 -154 -35c-156.667 0 -235 81.667 -235 245v215h60v-215c0 -65.333 14 -112.5 42 -141.5s72.333 -43.5 133 -43.5c57.333 0 110 12.333 158 37
c22.667 11.333 41.667 23.666 57 36.999v326h60v-700h-80v-140h-60z" />
    </font>
</defs>
</svg>
