<svg xmlns="http://www.w3.org/2000/svg" viewBox="0 0 512 512"><path d="M320 85.333h64c5.891 0 10.667-4.776 10.667-10.667v-64C394.667 4.776 389.891 0 384 0h-64c-64.772.071-117.263 52.561-117.333 117.333V192H128c-5.891 0-10.667 4.776-10.667 10.667v64c0 5.891 4.776 10.667 10.667 10.667h74.667v224c0 5.891 4.776 10.667 10.667 10.667h64c5.891 0 10.667-4.776 10.667-10.667v-224h74.667a10.666 10.666 0 0010.112-7.296l21.333-64c1.862-5.589-1.16-11.629-6.749-13.491a10.676 10.676 0 00-3.363-.547h-96v-74.667c-.001-17.673 14.326-32 31.999-32z" fill="#fff"/></svg>